<svg width="50" height="25" viewBox="0 0 50 25" fill="none" xmlns="http://www.w3.org/2000/svg">
<path d="M0.946759 17.6804L0.717709 16.9466C0.271547 15.5174 0.597015 13.9591 1.57793 12.8279L3.47145 11.0082L4.42327 10.2242C5.25894 9.53582 6.01662 8.75793 6.68273 7.90443L7.04013 7.44648C7.39525 6.99146 7.79391 6.57219 8.23046 6.19461L9.5894 5.01925C10.3251 4.38295 11.2652 4.03278 12.2379 4.03278C12.4944 4.03278 12.7502 4.00841 13.0021 3.96L14.2014 3.72949C15.6675 3.32697 17.181 3.12299 18.7013 3.12299H20.8287L25.2089 2.67989C26.2797 2.57157 27.327 2.29706 28.3132 1.86625C29.6212 1.29491 31.033 1 32.4603 1H32.821H39.4483H41.3342C42.3429 1 43.3037 1.43049 43.9752 2.18332C44.5173 2.7911 45.2524 3.19331 46.0566 3.3221L46.2691 3.35615C47.6973 3.58487 48.8728 4.60247 49.3038 5.98312C49.4642 6.49677 49.5139 7.03855 49.4498 7.5728L49.0305 11.0642C48.7523 13.3815 47.6809 15.5311 45.9981 17.1483C45.6295 17.5025 45.2346 17.8282 44.8167 18.1227L44.2097 18.5505C41.9034 20.1758 39.2777 21.2918 36.507 21.8243L35.9769 21.9262L24.9313 22.5328H17.9884H17.2312C14.5961 22.5328 11.9771 22.9421 9.46759 23.7459L8.12523 24.1759C7.1579 24.4858 6.11215 24.4436 5.17294 24.0568C4.67423 23.8514 4.21857 23.5541 3.82968 23.1803L3.36008 22.7291C2.20083 21.615 1.41733 20.1676 1.11845 18.5878L0.946759 17.6804Z" fill="#D0F4DE" stroke="black"/>
</svg>
