<svg width="92" height="86" viewBox="0 0 92 86" fill="none" xmlns="http://www.w3.org/2000/svg">
<path d="M56.8114 13.1311H52.2844C51.9925 13.1311 51.7249 13.2936 51.5902 13.5525C51.527 13.6739 51.4332 13.7765 51.3181 13.8503L50.8945 14.1217C50.6642 14.2692 50.458 14.4512 50.2831 14.6614L49.8471 15.1851C49.4834 15.6219 48.9797 15.9193 48.4216 16.0266L47.992 16.1091C47.8058 16.1449 47.6341 16.2338 47.4974 16.3651C47.2376 16.6149 46.8599 16.7014 46.5167 16.5915C46.2691 16.5121 46.0615 16.3378 45.9415 16.1071L45.8133 15.8607L45.6874 15.5374C45.4585 14.9493 45.3411 14.3237 45.3411 13.6927C45.3411 13.3194 45.3 12.9474 45.2186 12.5831L45.1081 12.0889C44.9485 11.3752 44.6522 10.6992 44.2353 10.0984L42.973 8.58197C42.7626 8.37978 42.2787 7.9754 42.0262 7.9754C41.7738 7.9754 40.0275 6.96448 39.186 6.45901L37.2924 5.54918L35.3989 4.63934L33.5054 4.03279L31.6119 3.12295L29.7184 1.90984L29.01 1.56945C28.6417 1.39251 28.2557 1.25516 27.8584 1.15972L27.4036 1.05044C27.2641 1.01693 27.1212 1 26.9778 1H26.7835C26.638 1 26.4944 1.03271 26.3633 1.09571C26.091 1.22655 25.8952 1.47675 25.8337 1.77249L25.6359 2.72287C25.6225 2.78723 25.6157 2.85279 25.6157 2.91853C25.6157 3.0533 25.6441 3.18656 25.699 3.30964L26.3547 4.77998C26.486 5.07435 26.4758 5.41252 26.327 5.69845L26.3054 5.73997C26.2667 5.81447 26.216 5.88214 26.1555 5.94033C26.0117 6.07854 25.8199 6.15574 25.6204 6.15574H24.9166C24.7536 6.15574 24.5927 6.11908 24.4458 6.04849C24.1847 5.92302 23.9844 5.69853 23.8895 5.42484L23.7976 5.15988C23.7476 5.01571 23.6781 4.87905 23.5911 4.75368C23.2779 4.30214 22.7632 4.03279 22.2137 4.03279H21.1975H19.7043C19.4391 4.03279 19.1754 4.07399 18.9228 4.15492L18.7979 4.1949C18.508 4.28778 18.2431 4.44574 18.0236 4.6567L17.8688 4.80547C17.576 5.08686 17.4105 5.47542 17.4105 5.88152C17.4105 6.06281 17.4435 6.24259 17.508 6.41205L17.6263 6.72326C17.7883 7.14905 18.0365 7.53676 18.3554 7.86204L19.8604 9.39697C20.0932 9.63442 20.1469 9.99468 19.9934 10.2897C19.9549 10.3638 19.9045 10.4312 19.8442 10.4891L19.304 11.0082L18.6728 11.6148L17.8719 12.5246L17.0949 13.4344C16.8858 13.6353 16.6462 13.8017 16.3848 13.9273L15.517 14.3443L14.987 14.514C14.7303 14.5963 14.449 14.5311 14.2546 14.3443C14.0472 14.1449 13.8899 13.8993 13.7956 13.6275L13.675 13.2797C13.6407 13.1808 13.5992 13.0845 13.5509 12.9916L13.5178 12.9282C13.3799 12.663 13.3079 12.3685 13.3079 12.0697C13.3079 11.7708 13.3799 11.4763 13.5178 11.2112L13.6235 11.0082L13.6591 10.9397C13.843 10.5862 13.939 10.1936 13.939 9.79508C13.939 9.65938 14.0049 9.45411 14.0813 9.26417C14.1788 9.02177 14.1828 8.74723 14.0622 8.51545C13.9823 8.36176 13.8546 8.23813 13.6985 8.16309L13.6806 8.15451C13.445 8.0413 13.1707 8.0413 12.9351 8.15451L12.6767 8.27869C12.2586 8.4796 11.8751 8.74576 11.5406 9.06718L11.4144 9.18853L11.1844 9.40951C10.7128 9.86273 10.1438 10.2021 9.52083 10.4016L8.35706 10.6812C8.29153 10.697 8.22786 10.7196 8.16711 10.7488L7.80874 10.921C7.69785 10.9743 7.62731 11.0864 7.62731 11.2095C7.62731 11.2758 7.60669 11.3405 7.56829 11.3947L3.25079 17.48C3.01314 17.815 2.74447 18.1268 2.44834 18.4114L1.62261 19.205C1.4208 19.3989 1.26777 19.6379 1.17604 19.9023L1.14584 19.9894C1.05075 20.2635 1.03899 20.5597 1.11205 20.8405L1.12064 20.8736C1.24202 21.3402 1.59386 21.7121 2.053 21.8592C2.19172 21.9036 2.33646 21.9262 2.48213 21.9262H4.15587H4.99701C5.26086 21.9262 5.50792 22.0555 5.65831 22.2723C5.88365 22.5972 5.83974 23.0375 5.55469 23.3115L5.41821 23.4426L4.62881 24.2012C4.5246 24.3014 4.43743 24.4179 4.37072 24.5461L4.29386 24.6938C4.03341 25.1944 4.17974 25.8102 4.63751 26.1402C4.93003 26.351 5.30523 26.4105 5.64862 26.3005L6.99614 25.8688L7.66557 25.708C8.0553 25.6144 8.46167 25.6144 8.85141 25.708L9.1439 25.7783C9.39073 25.8376 9.61731 25.9616 9.80035 26.1375C10.0283 26.3566 10.1772 26.6451 10.2237 26.9578L10.4114 28.2204C10.4488 28.472 10.4676 28.7261 10.4676 28.9805V33.3665C10.4676 33.7781 10.7335 34.1426 11.1255 34.2681C11.3134 34.3283 11.5153 34.3283 11.7032 34.2681L11.9637 34.1847C12.2252 34.1009 12.464 33.9585 12.662 33.7682L12.7877 33.6474C13.1278 33.3206 13.3707 32.9059 13.4895 32.4494L13.6235 31.9344L13.728 31.5324C13.866 31.0021 14.1482 30.5203 14.5433 30.1406L14.7911 29.9024C14.8538 29.8422 14.9257 29.7923 15.0041 29.7546C15.3125 29.6064 15.6805 29.6654 15.9272 29.9024L15.9535 29.9277C16.0803 30.0496 16.1673 30.2069 16.2031 30.379L16.2906 30.7991C16.402 31.3343 16.7097 31.8084 17.1532 32.1281L17.3234 32.2507C17.5852 32.4394 17.8998 32.541 18.2225 32.541H18.2807C18.5368 32.541 18.7874 32.4676 19.003 32.3295C19.3872 32.0833 19.6196 31.6584 19.6196 31.2021V31.1628C19.6196 30.8753 19.7074 30.5948 19.8712 30.3586L20.1408 29.9701C20.2129 29.8661 20.3107 29.7827 20.4247 29.7279C20.6997 29.5958 21.0277 29.6483 21.2477 29.8597L21.2731 29.8841C21.4264 30.0315 21.5131 30.235 21.5131 30.4477V36.1803V36.7712C21.5131 37.18 21.6116 37.5828 21.8003 37.9454C22.0249 38.3771 22.121 38.8642 22.0771 39.3488L21.5638 45.0214C21.5301 45.3942 21.5326 45.7694 21.5714 46.1418L21.6927 47.3081C21.7795 48.1423 22.2053 48.9043 22.8702 49.4155C23.2235 49.6871 23.5132 50.0327 23.7189 50.4281L23.8683 50.7152C23.9806 50.9311 24.059 51.163 24.1006 51.4028L24.1369 51.6123C24.2693 52.376 23.9543 53.1483 23.3256 53.6014C23.17 53.7136 23.0312 53.8472 22.9132 53.9984L22.4374 54.608C22.2475 54.8514 22.1443 55.1513 22.1443 55.4601C22.1443 55.7422 22.2305 56.0177 22.3913 56.2495L22.7755 56.8033C23.1901 57.6003 23.4066 58.4855 23.4066 59.3839V62.3429C23.4066 63.2862 23.1793 64.2156 22.7439 65.0524L22.4291 65.6575C22.2415 66.0181 21.9773 66.3333 21.6551 66.581L20.9481 67.1246C20.7074 67.3096 20.5664 67.596 20.5664 67.8995C20.5664 67.9826 20.5769 68.0653 20.5978 68.1456L20.6218 68.2379C20.782 68.8533 21.2681 69.3305 21.8865 69.479L21.9361 69.491C22.0744 69.5242 22.2162 69.541 22.3584 69.541H22.5987C23.3323 69.541 24.0505 69.7513 24.6683 70.1471L24.7133 70.1759C25.3046 70.5547 25.7863 71.0819 26.1105 71.7049L26.5625 72.5738L27.3684 74.6967L27.9091 75.7521C28.2712 76.4589 28.7483 77.1006 29.3209 77.6509C30.2024 78.4979 31.2859 79.1053 32.4685 79.4153L33.2042 79.6081C33.8191 79.7692 34.4607 79.8005 35.0883 79.7C35.7095 79.6005 36.3035 79.374 36.8332 79.0346L37.9236 78.3361C39.1744 77.3344 40.3453 76.2106 41.3951 75L43.6509 72.1817C44.2301 71.4582 45.0579 70.9762 45.973 70.8296C46.286 70.7795 46.6042 70.7695 46.9197 70.7998L49.6003 71.0574H52.2609C52.5869 71.0574 52.9087 71.1307 53.2026 71.2719L53.3472 71.3414C53.7769 71.5478 54.1064 71.9172 54.2626 72.3676C54.3101 72.5045 54.3741 72.6352 54.4531 72.7567L54.9787 73.5649C55.5843 74.4961 56.4776 75.2038 57.5226 75.5804C58.1266 75.7981 58.7662 75.8996 59.4079 75.8797L67.8714 75.6174C68.0957 75.6104 68.3095 75.5205 68.4713 75.3649C68.514 75.3239 68.5606 75.2872 68.6104 75.2553L69.4822 74.6967L70.7446 74.0902L71.205 73.9427C71.5046 73.8467 71.8327 73.9228 72.0596 74.1407C72.2276 74.3022 72.3225 74.5251 72.3225 74.7581V75.5237C72.3225 75.7798 72.3596 76.0345 72.4326 76.28L72.7033 77.1907C72.8699 77.7508 73.0895 78.2938 73.3592 78.8122L73.6656 79.401C73.8218 79.7013 73.949 80.0158 74.0455 80.3403L74.4064 81.5543C74.4879 81.8282 74.6529 82.0697 74.8784 82.2452C75.1563 82.4614 75.5067 82.5623 75.857 82.5269L77.3855 82.3728C77.9614 82.3147 78.5234 82.5738 78.8533 83.0493C78.9175 83.1419 78.9717 83.241 79.015 83.345L79.0565 83.4447C79.384 84.2316 80.0845 84.8017 80.9215 84.9625C81.0794 84.9929 81.2399 85.0082 81.4007 85.0082H82.8663C82.9888 85.0082 83.1098 84.9806 83.2203 84.9276L83.29 84.8941C83.5306 84.7785 83.6836 84.5351 83.6836 84.2682C83.6836 84.1566 83.7105 84.0467 83.762 83.9477L84.0634 83.3684C84.2299 83.0484 84.4475 82.7578 84.7075 82.5078L84.8182 82.4015C84.9032 82.3198 84.9798 82.2299 85.047 82.1331L85.3738 81.662C85.5012 81.4784 85.7104 81.3689 85.9339 81.3689C86.11 81.3689 86.2793 81.437 86.4062 81.559L86.8395 81.9754L87.1347 82.2591C87.5614 82.6691 88.0895 82.9581 88.6649 83.0963L88.8983 83.1524C88.9982 83.1764 89.1005 83.1885 89.2032 83.1885H89.5955C89.8412 83.1885 90.0665 83.0518 90.1799 82.8338C90.2636 82.673 90.2773 82.485 90.2179 82.3138L90.0671 81.8789C90.0199 81.743 89.9413 81.6202 89.8376 81.5205C89.7339 81.4208 89.6552 81.298 89.6081 81.1621L89.4906 80.8234C89.4099 80.5908 89.4286 80.3353 89.5422 80.1169C89.6315 79.9453 89.7741 79.8072 89.9485 79.7233L90.0926 79.6541C90.2344 79.5859 90.3943 79.5652 90.5488 79.5949C91.123 79.7052 91.5892 79.1324 91.3645 78.5926L91.3213 78.4888C91.2794 78.3881 91.2171 78.297 91.1384 78.2214L90.4287 77.5394C89.9338 77.0637 89.5319 76.5 89.2438 75.8769L88.9267 75.1912C88.5912 74.4659 88.4174 73.6762 88.4174 72.8771V70.1475V69.1323C88.4174 68.4246 88.129 67.7474 87.6188 67.2571C87.3142 66.9644 86.943 66.7503 86.5372 66.6333L84.6805 66.098C84.2384 65.9706 83.7669 65.991 83.3374 66.156L82.9362 66.3103C82.6097 66.4358 82.3552 66.6989 82.2405 67.0294C82.1532 67.2811 81.9837 67.4962 81.7593 67.64L81.1589 68.0246L80.7437 68.2906C80.3966 68.513 79.9931 68.6311 79.581 68.6311H78.9498H78.6961C78.262 68.6311 77.8555 68.4184 77.6081 68.0618C77.4543 67.8401 77.3719 67.5768 77.3719 67.307V67.0755C77.3719 66.9002 77.3496 66.7256 77.3054 66.5559L77.2044 66.1675C77.106 65.7893 76.9653 65.4234 76.7849 65.0767L76.7407 64.9918L76.4976 64.6413C76.246 64.2786 75.8817 64.009 75.4613 63.8743L75.3309 63.8325C75.2195 63.7969 75.1033 63.7787 74.9863 63.7787H74.7443C74.6079 63.7787 74.4767 63.8315 74.3783 63.9261C74.2746 64.0257 74.216 64.1632 74.216 64.307V65.9016C74.216 66.263 73.9826 66.583 73.6384 66.6932L73.4017 66.7691C73.3146 66.797 73.235 66.8444 73.1691 66.9078C73.0334 67.0381 72.8445 67.0973 72.6587 67.0675L71.8337 66.9354C71.3574 66.8591 70.9615 66.5271 70.8035 66.0714C70.7644 65.9587 70.7101 65.852 70.6422 65.754L70.5522 65.6243C70.2665 65.2125 70.1134 64.7232 70.1134 64.2219V63.4754C70.1134 63.0945 69.9303 62.7369 69.6213 62.5142L69.1679 62.1874C68.9582 62.0363 68.7758 61.8505 68.6285 61.6381L68.4842 61.4301C68.3094 61.1781 68.1804 60.8973 68.1032 60.6005L68.0997 60.587C67.9723 60.0974 67.9928 59.581 68.1586 59.103C68.1994 58.9853 68.2488 58.8708 68.3063 58.7602L68.5355 58.3197L69.3091 57.0806C69.4241 56.8964 69.5614 56.7272 69.718 56.5767C69.9788 56.3261 70.1852 56.0244 70.3242 55.6904L70.4356 55.4226C70.6396 54.9326 70.7446 54.4071 70.7446 53.8763V50.6243C70.7446 50.3229 70.5718 50.0481 70.3001 49.9175C70.1777 49.8588 70.0727 49.7692 69.9954 49.6577L69.6039 49.0934C69.523 48.9768 69.4307 48.8685 69.3284 48.7702C69.0175 48.4714 68.8041 48.0856 68.7162 47.6633L68.6087 47.1469C68.56 46.913 68.5355 46.6747 68.5355 46.4357C68.5355 45.8748 68.4003 45.3222 68.1414 44.8246L68.0538 44.6562C67.9544 44.465 67.8376 44.2834 67.705 44.1135C67.2206 43.4928 66.9576 42.7281 66.9576 41.9409V41.058C66.9576 40.6544 66.7931 40.2682 66.502 39.9885C66.3857 39.8767 66.2884 39.7467 66.2139 39.6036L65.896 38.9924C65.7624 38.7357 65.6056 38.4918 65.4276 38.2637L65.1249 37.8758C64.8773 37.5585 64.7058 37.1885 64.6238 36.7944L64.5155 36.2741C64.4621 36.0173 64.499 35.75 64.62 35.5173C64.7044 35.3552 64.7485 35.1751 64.7485 34.9923V33.7541V32.9158C64.7485 32.6763 64.6509 32.4472 64.4782 32.2813C64.448 32.2523 64.4199 32.2212 64.3942 32.1882L63.5478 31.1037C63.5067 31.051 63.4619 31.0014 63.4138 30.9551C63.2539 30.8014 63.1326 30.6121 63.06 30.4026L62.9695 30.1418C62.8964 29.931 62.9133 29.6993 63.0163 29.5013C63.1151 29.3114 63.2849 29.1683 63.4887 29.103L63.8568 28.9851C64.0294 28.9298 64.2096 28.9016 64.3908 28.9016H64.7485C65.1667 28.9016 65.5824 28.9666 65.9807 29.0942L66.3264 29.2049L67.2209 29.6347C67.4656 29.7523 67.6995 29.8913 67.9198 30.0501C68.5313 30.4908 69.2416 30.7749 69.9884 30.8774L70.2342 30.9112C70.7818 30.9864 71.3376 30.9802 71.8834 30.8927L72.9537 30.7213L73.6809 30.5466C74.0313 30.4624 74.353 30.2864 74.6129 30.0367L74.6422 30.0085C74.778 29.878 74.9337 29.7699 75.1035 29.6883C75.3501 29.5699 75.566 29.396 75.7343 29.1803L76.4252 28.2951L76.6683 27.9446C76.9199 27.5818 77.2842 27.3123 77.7046 27.1776L77.835 27.1358C77.9464 27.1001 78.0626 27.082 78.1796 27.082C78.4713 27.082 78.7517 27.1949 78.9621 27.397L79.4548 27.8705C79.5384 27.9509 79.6343 28.0174 79.7388 28.0676L79.8394 28.116C80.0751 28.2292 80.3493 28.2292 80.5849 28.116C80.7527 28.0354 80.8898 27.9026 80.9757 27.7375L81.0253 27.6421C81.1131 27.4733 81.1589 27.286 81.1589 27.0958V24.3969C81.1589 23.7872 80.9105 23.2039 80.4709 22.7814C80.2995 22.6167 80.103 22.4803 79.8888 22.3774L78.9498 21.9262L78.5547 21.673C78.1878 21.438 77.8449 21.1676 77.5308 20.8658L77.0571 20.4105C76.8476 20.2092 76.6724 19.9751 76.5383 19.7174C76.463 19.5728 76.3747 19.4353 76.2744 19.3068L75.643 18.4978C75.534 18.3582 75.4022 18.2381 75.2531 18.1425L75.1936 18.1044C74.7811 17.8402 74.5316 17.384 74.5316 16.8942C74.5316 16.8119 74.5246 16.7297 74.5105 16.6486L74.3816 15.9057C74.2811 15.3261 73.8457 14.8618 73.2738 14.7244C73.063 14.6738 72.866 14.5773 72.6968 14.4418L69.1667 11.6148L68.2743 10.9001C67.6262 10.3811 66.8208 10.0984 65.9905 10.0984C65.1851 10.0984 64.4023 10.3645 63.7637 10.8554L62.5203 11.8113C61.9188 12.2738 61.1812 12.5246 60.4223 12.5246C60.1515 12.5246 59.8816 12.5566 59.6182 12.6198L58.7523 12.8279C58.1249 13.0288 57.4702 13.1311 56.8114 13.1311Z" fill="#D0F4DE" stroke="black"/>
</svg>
