<svg width="89" height="104" viewBox="0 0 89 104" fill="none" xmlns="http://www.w3.org/2000/svg">
<path fillRule="evenodd" clipRule="evenodd" d="M80.8435 82.3737V81.8492C80.8435 81.6473 80.8608 81.4463 80.895 81.2474C80.9845 80.7276 81.1591 79.7052 81.1591 79.6442C81.1591 79.6161 81.196 79.3942 81.2446 79.1023C81.3381 78.541 81.4746 77.7207 81.4746 77.5212V76.6934V73.9639C81.4746 73.588 81.7988 73.4815 81.9825 73.4211C82.0551 73.3973 82.1058 73.3806 82.1058 73.3573V72.2212C82.1058 71.772 82.2141 71.3296 82.4214 70.9311L82.6859 70.4227C82.7195 70.3582 82.737 70.2866 82.737 70.2139C82.737 70.0908 82.7872 69.9731 82.8759 69.8878L83.4857 69.3018C83.6169 69.1757 83.7266 69.0291 83.8105 68.8678L83.921 68.6555C83.9725 68.5566 83.9993 68.4466 83.9993 68.3351C83.9993 68.0681 84.1524 67.8248 84.393 67.7092L84.4439 67.6847C84.5662 67.6259 84.6712 67.5364 84.7486 67.4249L84.9194 67.1786C85.1423 66.8574 85.2617 66.4697 85.2617 66.0787V65.4721C85.2617 65.2746 85.2014 65.0819 85.0888 64.9196L84.7252 64.3954C84.6622 64.3047 84.5904 64.2204 84.5108 64.1439L84.4367 64.0727C84.1573 63.8042 83.9993 63.4334 83.9993 63.0459V62.7426V62.2828C83.9993 61.9953 84.1165 61.7202 84.3238 61.5209L84.4999 61.3517C84.5837 61.2712 84.6954 61.2262 84.8117 61.2262H84.9584C85.1259 61.2262 85.2617 61.0904 85.2617 60.9229C85.2617 60.7554 85.3975 60.6196 85.565 60.6196H85.7758C85.8528 60.6196 85.9289 60.6023 85.9984 60.5689L86.2635 60.4416C86.4361 60.3586 86.5944 60.2488 86.7325 60.1161L86.8396 60.0131L87.9367 59.1697C88.2399 58.9366 88.4175 58.5758 88.4175 58.1934C88.4175 57.8227 88.205 57.4847 87.8708 57.3241L87.1552 56.9803L85.3821 55.8443C85.3035 55.7939 85.2121 55.7672 85.1187 55.7672H84.9338C84.7663 55.7672 84.6305 55.6314 84.6305 55.4639C84.6305 55.2964 84.4947 55.1606 84.3272 55.1606H82.5742C82.2659 55.1606 81.9615 55.0913 81.6836 54.9578L81.4746 54.8573L80.8435 54.5541L80.2123 54.2508C79.7942 54.0499 79.4107 53.7837 79.0762 53.4623L78.3188 52.7344L78.0181 52.4454C76.9961 51.4633 75.6336 50.9147 74.2162 50.9147H72.4447C72.1639 50.9147 71.894 50.806 71.6915 50.6114L71.6034 50.5268C71.4574 50.3865 71.2628 50.3082 71.0603 50.3082C70.8578 50.3082 70.6632 50.2298 70.5172 50.0895L70.438 50.0134C70.2307 49.8142 70.1135 49.5391 70.1135 49.2516V47.8819V47.7131C70.1135 47.4334 70.2275 47.1659 70.4291 46.9721C70.6308 46.7783 70.7447 46.5108 70.7447 46.2311V46.0623C70.7447 45.6747 70.5868 45.3039 70.3074 45.0354L70.1135 44.8491C69.9095 44.6 69.798 44.2878 69.798 43.9658V43.602C69.798 43.369 69.8314 43.1374 69.9005 42.9149C70.0389 42.47 70.2845 41.7091 70.4291 41.431C70.499 41.2968 70.5533 41.1775 70.5957 41.073C70.7305 40.7401 70.7552 40.3775 70.7796 40.0186C70.7812 39.9953 70.7828 39.972 70.7844 39.9487L71.0277 36.4414C71.0491 36.1329 71.1434 35.8338 71.3029 35.5688C71.3515 35.4881 71.4059 35.4109 71.4656 35.338L71.4787 35.3219C71.6198 35.1497 71.7857 34.9995 71.971 34.8762L72.8324 34.3031C74.6824 33.0723 75.7941 30.9975 75.7941 28.7754C75.7941 28.5761 75.7461 28.3798 75.6541 28.203L75.4785 27.8655C75.2691 27.463 75.0057 27.0911 74.6955 26.7599L73.0912 25.0469C72.5808 24.5019 72.0046 24.0224 71.3759 23.6196L70.7447 23.3164L69.798 23.0131C69.5881 22.9585 69.3839 22.8837 69.1885 22.7898L68.8512 22.6278L68.48 22.4494C68.3073 22.3664 68.1455 22.2626 67.9982 22.1402L67.927 22.081C67.7044 21.896 67.5262 21.6633 67.4056 21.4002C67.318 21.2089 67.2621 21.0046 67.2404 20.7953L66.9577 18.0786V17.5106C66.9577 17.286 66.9035 17.0647 66.7999 16.8655L66.7442 16.7585C66.6771 16.6295 66.6421 16.4863 66.6421 16.3409V16.2737C66.6421 16.0705 66.5593 15.876 66.4127 15.7352C66.3556 15.6803 66.2901 15.6349 66.2187 15.6005L65.6953 15.3491L65.2524 15.1363C65.1274 15.0762 65.0102 15.001 64.9035 14.9123C64.5994 14.6596 64.2165 14.5213 63.8212 14.5213H63.8018C63.3968 14.5213 63.0075 14.678 62.7155 14.9586L62.5395 15.1278L61.7511 15.8342C61.4424 16.1108 61.0571 16.2875 60.6459 16.3409H60.3303C60.132 16.3409 59.9456 16.2463 59.8286 16.0862L59.068 15.0458L58.7524 14.5213C58.5434 14.0652 58.4096 13.5783 58.3563 13.0795L58.2143 11.7523C58.1542 11.1901 57.8978 10.6671 57.4901 10.2754L57.1496 9.94812C56.9631 9.7689 56.7144 9.66881 56.4558 9.66881C56.3057 9.66881 56.1575 9.70257 56.0222 9.76759L55.8571 9.84689C55.6845 9.92983 55.5262 10.0397 55.3881 10.1724L54.9654 10.5786L54.8705 10.6698C54.724 10.8106 54.5967 10.9701 54.492 11.1442L54.3901 11.3136C54.353 11.3752 54.3079 11.4317 54.256 11.4816C54.1037 11.628 53.9006 11.7097 53.6894 11.7097H53.6155C53.4654 11.7097 53.3172 11.676 53.1819 11.611L53.1146 11.5786C52.8808 11.4663 52.685 11.288 52.5513 11.0658L52.5125 11.0012C52.4647 10.9219 52.4101 10.8468 52.3492 10.777L51.6017 9.92011C51.4569 9.7542 51.3463 9.56141 51.2761 9.35274L51.2321 9.22207C51.1966 9.1164 51.1422 9.01806 51.0715 8.93181C50.9365 8.767 50.8628 8.56053 50.8628 8.34749V8.20607C50.8628 8.11585 50.8535 8.02587 50.8351 7.93753L50.592 6.76955C50.5622 6.62622 50.5472 6.4802 50.5472 6.3338V6.1343C50.5472 5.67979 50.362 5.24492 50.0343 4.92999C49.9556 4.85441 49.8698 4.78672 49.7779 4.72789L49.5007 4.55029C49.1537 4.32796 48.7502 4.2098 48.3381 4.2098H48.2087C48.0861 4.2098 47.9651 4.18224 47.8547 4.12916L47.5881 4.00109C47.4678 3.94328 47.3913 3.82163 47.3913 3.68815C47.3913 3.63237 47.3779 3.5774 47.3521 3.52791L47.2335 3.29996C47.1299 3.10071 47.0757 2.87942 47.0757 2.65481V2.39407C47.0757 2.33685 47.0806 2.27974 47.0904 2.22337L47.1182 2.06314C47.2385 1.36941 46.5567 0.809237 45.8995 1.06187C45.8422 1.08388 45.7874 1.11165 45.7357 1.14474L43.9199 2.30808L42.5804 2.99668C42.0024 3.34527 41.4651 3.75724 40.9784 4.22495L40.7639 4.43104L40.0443 4.96507C39.6342 5.26935 39.1915 5.52699 38.7244 5.73321L38.4537 5.85272C38.3109 5.91576 38.1732 5.98972 38.0417 6.07393C37.5525 6.38738 36.9836 6.55399 36.4025 6.55399H35.8723C34.945 6.55399 34.0372 6.81986 33.2564 7.32008L33.034 7.46253C32.7179 7.66509 32.4223 7.89813 32.1516 8.15831L31.6119 8.67694C31.4103 8.8707 31.2963 9.13826 31.2963 9.4179V11.7097V12.817C31.2963 13.0858 31.3611 13.3506 31.4851 13.589L31.5557 13.7246C31.5929 13.7962 31.6415 13.8612 31.6997 13.9171C31.8452 14.0569 31.9275 14.25 31.9275 14.4518V14.7425V15.1947C31.9275 16.0931 31.711 16.9783 31.2963 17.7753C30.877 18.5813 30.3644 19.3352 29.7692 20.0216L29.0872 20.8081C28.8856 21.0019 28.7716 21.2694 28.7716 21.5491V23.1946C28.7716 23.8184 28.6213 24.4331 28.3333 24.9865C28.2051 25.233 28.0508 25.465 27.873 25.6785L27.6847 25.9047C27.1558 26.5401 26.473 27.0294 25.7013 27.326C25.4344 27.4286 25.1589 27.5074 24.8781 27.5613L24.4532 27.643C23.9703 27.7358 23.5095 27.9198 23.0955 28.185C22.8827 28.3214 22.6837 28.4783 22.5014 28.6534L22.0217 29.1145C21.8933 29.2378 21.7776 29.3735 21.6762 29.5198C21.3645 29.969 21.1975 30.5027 21.1975 31.0494V33.0081C21.1975 33.7678 21.2943 34.5245 21.4856 35.2597L21.5131 35.3655L21.7256 35.9781C21.7943 36.176 21.8772 36.3686 21.9739 36.5543C22.2932 37.168 22.4599 37.8496 22.4599 38.5413V39.9146V40.0534C22.4599 40.4792 22.1146 40.8245 21.6888 40.8245C21.5731 40.8245 21.459 40.7985 21.3548 40.7484L20.7225 40.4446C20.4094 40.2942 20.1182 40.1021 19.8567 39.8736L17.1324 37.4936C16.8995 37.2901 16.6239 37.1354 16.3294 37.041C16.005 36.9371 15.7016 36.756 15.456 36.52C15.2888 36.3593 15.0949 36.2241 14.8858 36.1237L14.6825 36.026C14.6081 35.9902 14.5399 35.9429 14.4804 35.8857C14.3355 35.7465 14.1424 35.6687 13.9415 35.6687H9.83642H9.64295C9.3621 35.6687 9.09215 35.5601 8.88966 35.3655C8.68716 35.1709 8.41722 35.0622 8.13637 35.0622H7.96941C7.74423 35.0622 7.52193 35.0115 7.31897 34.914L6.99614 34.7589C6.58068 34.5593 6.12565 34.4556 5.66472 34.4556H5.41821H5.28025C4.54608 34.4556 3.82729 34.6661 3.2091 35.0622L2.66041 35.484C2.01148 35.9829 1.63117 36.755 1.63117 37.5736V37.8446C1.63117 38.2051 1.74128 38.557 1.94676 38.8532C2.15224 39.1494 2.26234 39.5013 2.26234 39.8618V40.7888C2.26234 41.413 2.13886 42.031 1.899 42.6072L1.63117 43.2507L1.27996 43.9257C1.09603 44.2793 1 44.6719 1 45.0704V45.3875C1 45.5776 1.04583 45.765 1.13361 45.9337C1.25174 46.1608 1.44028 46.3434 1.67096 46.4543L1.78556 46.5093C1.89234 46.5606 1.99029 46.6286 2.07571 46.7107C2.19851 46.8287 2.34666 46.9171 2.50885 46.969L2.90856 47.0971C3.10771 47.1609 3.31557 47.1933 3.52469 47.1933H4.12957C4.33965 47.1933 4.53228 47.3102 4.62924 47.4966C4.7262 47.683 4.91883 47.7999 5.12891 47.7999H6.36497H7.62732H8.18699C8.43974 47.7999 8.68718 47.7274 8.89999 47.5911L8.93121 47.5711C9.29771 47.3363 9.75968 47.3081 10.152 47.4966L10.7832 47.7999L11.0198 47.9136C11.2562 48.0272 11.5353 47.9756 11.7299 47.7999C12.0283 47.5305 12.4874 47.2175 12.7619 47.0377C12.9143 46.938 13.0602 46.8248 13.1915 46.6986C13.4732 46.4279 13.8169 46.2215 14.189 46.1023C14.4416 46.0214 14.7053 45.9802 14.9706 45.9802H15.978C16.4799 45.9802 16.95 46.2262 17.2361 46.6386C17.3512 46.8046 17.4981 46.9462 17.6682 47.0551L17.7304 47.095C18.1334 47.3532 18.4242 47.7539 18.5447 48.2171L18.5743 48.3309C18.6395 48.5815 18.7484 48.8186 18.896 49.0314L18.97 49.1381C19.1905 49.4559 19.4717 49.727 19.7974 49.9356L19.9389 50.0263C20.1463 50.1592 20.3402 50.3121 20.5178 50.4828L20.6784 50.6371C20.8138 50.7672 20.9616 50.8837 21.1196 50.985L21.2972 51.0988C21.6443 51.3211 22.0478 51.4392 22.4599 51.4392L22.4463 51.7716C22.5135 51.6515 22.6419 51.5704 22.7893 51.5704C22.9358 51.5704 23.0701 51.4889 23.1377 51.3589L23.2469 51.149C23.31 51.0277 23.4038 50.925 23.519 50.8512L23.7945 50.6747C24.118 50.4674 24.4942 50.3573 24.8785 50.3573H26.0882C27.5739 50.3573 29.0092 49.8186 30.128 48.8411L31.742 47.4312C31.8227 47.3607 31.8895 47.2757 31.9389 47.1806C32.0869 46.8963 32.3807 46.7179 32.7013 46.7179H33.442H34.0469C34.257 46.7179 34.4496 46.8348 34.5466 47.0212L34.5587 47.0445C34.6482 47.2166 34.826 47.3245 35.0199 47.3245C35.4183 47.3245 35.7944 47.1409 36.0394 46.8269L36.477 46.2662C36.5575 46.1631 36.6452 46.0659 36.7395 45.9753L37.8602 44.8982L38.6722 44.313C38.965 44.102 39.3168 43.9884 39.6776 43.9884C39.9355 43.9884 40.19 44.0464 40.4224 44.158L41.1812 44.5227C41.699 44.7715 42.1798 45.1067 42.594 45.5048C42.7956 45.6986 42.9096 45.9661 42.9096 46.2458V51.2671V51.5318C42.9096 51.7564 42.8555 51.9777 42.7518 52.1769L42.6332 52.4049C42.6075 52.4544 42.594 52.5093 42.594 52.5651C42.594 52.6986 42.6705 52.8203 42.7908 52.8781L43.2252 53.0868L43.5441 53.1889C43.9548 53.3205 44.3937 53.3368 44.813 53.236L45.263 53.1279C45.3752 53.101 45.4781 53.0446 45.5613 52.9647C45.6823 52.8484 45.8436 52.7835 46.0114 52.7835H46.1122C46.6093 52.7835 47.0122 53.1864 47.0122 53.6835V53.9966C47.0122 54.3897 46.8809 54.7715 46.639 55.0813L46.2938 55.5236C46.1427 55.7173 45.9598 55.884 45.7529 56.0165L45.6643 56.0733C45.3109 56.2997 45.0439 56.6385 44.9064 57.035C44.838 57.2321 44.8031 57.4392 44.8031 57.6477V58.2425C44.8031 59.0176 44.4873 59.7592 43.9284 60.2962L43.8564 60.3655L41.3317 62.1851L40.64 62.6837C40.269 62.9511 39.8232 63.095 39.3659 63.095C38.9992 63.095 38.6385 63.0024 38.3171 62.8259L37.4277 62.3376C36.8833 62.0386 36.2722 61.8819 35.6511 61.8819H34.653C34.4772 61.8819 34.3019 61.8986 34.1292 61.9317L33.1086 62.1279C32.9205 62.1641 32.7593 62.2842 32.6709 62.4542C32.5629 62.6616 32.3486 62.7917 32.1148 62.7917H31.7363C31.4133 62.7917 31.1028 62.6667 30.8699 62.4429L30.7813 62.3577C30.6624 62.2434 30.5259 62.1487 30.3772 62.0772L29.9706 61.8819L29.3241 61.4677C29.1273 61.3416 28.967 61.1662 28.8592 60.9589C28.76 60.7683 28.7082 60.5565 28.7082 60.3416V59.4556V59.1524C28.7082 58.9799 28.5781 58.8352 28.4066 58.8169L26.2049 58.5818C25.9833 58.5581 25.7703 58.4832 25.5826 58.363C25.1705 58.0989 24.9212 57.6432 24.9212 57.1537V55.513C24.9212 54.9569 24.6024 54.45 24.1011 54.2091L23.915 54.1197C23.7453 54.0382 23.5897 53.9301 23.4539 53.7997L23.1301 53.4885C23.0622 53.4233 22.9844 53.3693 22.8996 53.3285C22.6378 53.2027 22.4571 52.9586 22.4092 52.6783L22.3965 52.9884L21.662 53.2133C21.5629 53.2437 21.4662 53.2815 21.3727 53.3264C21.0511 53.4809 20.775 53.7163 20.5716 54.0096L20.2508 54.472L20.0288 54.8986C19.9666 55.0182 19.9181 55.1444 19.8841 55.2749L19.7057 55.9608C19.6525 56.1652 19.7139 56.3823 19.8661 56.5286C19.9118 56.5725 19.9501 56.6237 19.9794 56.68L20.2508 57.2015L20.727 57.8881C20.8286 58.0344 20.9664 58.1519 21.1269 58.2291C21.3741 58.3479 21.5637 58.5604 21.6535 58.8195L21.7378 59.0623C21.798 59.2359 21.8287 59.4183 21.8287 59.602V60.5376C21.8287 60.9155 21.6362 61.2675 21.318 61.4714L21.026 61.6584C20.9302 61.7198 20.8406 61.7904 20.7586 61.8693L20.3138 62.2967C20.062 62.5387 19.7878 62.7565 19.4951 62.9471L18.1887 63.7977C17.9989 63.9213 17.8557 64.1047 17.7818 64.3188C17.7449 64.4257 17.7261 64.5379 17.7261 64.651V65.9656C17.7261 67.923 18.5238 69.796 19.9352 71.1524L19.9785 71.194C20.1399 71.3491 20.1798 71.592 20.0765 71.7906C19.9897 71.9575 19.8172 72.0622 19.629 72.0622H17.0949L14.5702 71.7589L13.6793 71.5449C13.4325 71.4856 13.1797 71.4556 12.9259 71.4556C11.9682 71.4556 11.06 71.8813 10.4473 72.6173L10.152 72.972L8.45145 74.6063C8.32312 74.7296 8.20738 74.8654 8.10594 75.0116C7.79431 75.4608 7.62732 75.9945 7.62732 76.5412V76.6114V76.9911C7.62732 77.1413 7.65243 77.2903 7.70163 77.4322C7.85197 77.8656 8.21272 78.1926 8.65877 78.2998L9.20525 78.431L10.9052 78.7033C11.034 78.724 11.1612 78.7543 11.2855 78.7941C11.7807 78.9528 12.2166 79.2568 12.5365 79.6668L14.7641 82.521C14.8451 82.6248 14.9335 82.7227 15.0284 82.814L15.3408 83.1142C15.6563 83.4174 16.077 83.5868 16.5146 83.5868C16.69 83.5868 16.8644 83.5595 17.0314 83.506L17.7261 83.2835L18.0644 83.2185C18.8889 83.06 19.7267 82.9802 20.5664 82.9802H21.4908C21.7076 82.9802 21.916 83.0641 22.0723 83.2144C22.3086 83.4414 22.3911 83.7851 22.2837 84.0946L22.2304 84.2485C22.1738 84.4116 22.0794 84.559 21.9549 84.6786L19.7662 86.782C19.0677 87.4533 18.6728 88.3803 18.6728 89.3491C18.6728 90.3247 19.0369 91.2653 19.6937 91.9867L20.8819 93.2917L22.1443 94.8081L23.4066 96.3245L25.3002 98.4474L26.375 99.7386C26.499 99.8875 26.595 100.058 26.6586 100.241L26.7298 100.446C26.8247 100.72 27.0249 100.944 27.286 101.07C27.433 101.14 27.5939 101.177 27.7569 101.177H32.5113C33.17 101.177 33.8248 101.075 34.4522 100.874L35.3181 100.666C35.5814 100.602 35.8513 100.57 36.1222 100.57C36.881 100.57 37.6186 100.32 38.2202 99.8571L39.4636 98.9012C40.1021 98.4103 40.885 98.1441 41.6904 98.1441C42.5206 98.1441 43.3261 98.4269 43.9741 98.9459L44.8665 99.6605L47.9913 102.163C48.4274 102.512 48.9352 102.761 49.4784 102.892L49.741 102.955C49.8572 102.983 49.9763 102.997 50.0958 102.997C50.3903 102.997 50.6784 102.911 50.9251 102.75L54.1305 100.662C54.3061 100.547 54.4576 100.399 54.5763 100.227C54.8247 99.8651 55.2104 99.6213 55.6435 99.5519L56.4453 99.4235C56.7145 99.3804 56.9641 99.256 57.1608 99.0671C57.3742 98.862 57.5136 98.5919 57.5571 98.2991L57.5975 98.0271C57.7195 97.2065 58.3884 96.5766 59.2149 96.5042C59.3356 96.4936 59.455 96.4708 59.5711 96.4361L60.29 96.2216C60.7246 96.0919 61.1023 95.8182 61.3608 95.4454C61.5138 95.225 61.6208 94.976 61.6754 94.7133L61.8105 94.0642C61.8721 93.7684 62.0679 93.5182 62.3402 93.3874C62.4713 93.3244 62.6149 93.2917 62.7603 93.2917H65.3543C65.7755 93.2917 66.1804 93.4547 66.4842 93.7466C66.7879 94.0385 67.1928 94.2015 67.6141 94.2015H67.8553C68.2987 94.2015 68.732 94.0694 69.0999 93.8219L71.6914 92.0786L72.6356 91.398C72.8461 91.2463 73.0293 91.0598 73.1772 90.8466C73.4426 90.464 73.5849 90.0094 73.5849 89.5437V88.7425V87.8637C73.5849 87.7025 73.6506 87.5483 73.7668 87.4366C73.8538 87.353 73.9643 87.2979 74.0835 87.2788L75.3432 87.0771C75.6335 87.0306 75.9308 87.0926 76.1784 87.2512L76.2964 87.3267C76.5726 87.5037 76.9207 87.5249 77.2164 87.3829C77.3192 87.3335 77.4123 87.2659 77.491 87.1834L78.3187 86.3163L78.7126 85.9378C78.8648 85.7915 79.0678 85.7097 79.2789 85.7097C79.6444 85.7097 79.9655 85.4671 80.0652 85.1155L80.8342 82.4064L80.8435 82.3737Z" fill="#FFD1A9"/>
<path d="M80.8435 82.3737L81.3245 82.5101L81.3435 82.4432V82.3737H80.8435ZM80.895 81.2474L80.4022 81.1626L80.4022 81.1626L80.895 81.2474ZM81.2446 79.1023L80.7514 79.0201L80.7514 79.0201L81.2446 79.1023ZM81.9825 73.4211L82.1386 73.8961L82.1386 73.8961L81.9825 73.4211ZM82.4214 70.9311L82.865 71.1619L82.865 71.1619L82.4214 70.9311ZM82.6859 70.4227L82.2424 70.1919L82.2424 70.1919L82.6859 70.4227ZM82.8759 69.8878L82.5294 69.5273L82.5294 69.5273L82.8759 69.8878ZM83.4857 69.3018L83.1393 68.9412L83.1393 68.9413L83.4857 69.3018ZM83.8105 68.8678L84.2541 69.0986L84.2541 69.0985L83.8105 68.8678ZM83.921 68.6555L83.4774 68.4248L83.4774 68.4248L83.921 68.6555ZM84.393 67.7092L84.1764 67.2585L84.1764 67.2585L84.393 67.7092ZM84.4439 67.6847L84.6604 68.1354L84.6604 68.1354L84.4439 67.6847ZM84.7486 67.4249L85.1594 67.7099L85.1594 67.7099L84.7486 67.4249ZM84.9194 67.1786L84.5086 66.8936L84.5086 66.8936L84.9194 67.1786ZM85.0888 64.9196L84.678 65.2046L84.678 65.2046L85.0888 64.9196ZM84.7252 64.3954L85.136 64.1104L85.136 64.1104L84.7252 64.3954ZM84.5108 64.1439L84.8572 63.7834L84.8572 63.7834L84.5108 64.1439ZM84.4367 64.0727L84.0902 64.4332L84.0902 64.4332L84.4367 64.0727ZM84.3238 61.5209L83.9773 61.1604L83.9773 61.1604L84.3238 61.5209ZM84.4999 61.3517L84.8463 61.7122L84.8463 61.7122L84.4999 61.3517ZM85.9984 60.5689L85.7819 60.1182L85.7819 60.1182L85.9984 60.5689ZM86.2635 60.4416L86.48 60.8922L86.48 60.8922L86.2635 60.4416ZM86.7325 60.1161L86.386 59.7556L86.386 59.7556L86.7325 60.1161ZM86.8396 60.0131L86.5349 59.6167L86.513 59.6335L86.4932 59.6526L86.8396 60.0131ZM87.9367 59.1697L87.6319 58.7733L87.6319 58.7733L87.9367 59.1697ZM87.8708 57.3241L88.0874 56.8735L88.0874 56.8735L87.8708 57.3241ZM87.1552 56.9803L86.8855 57.4013L86.9111 57.4178L86.9386 57.431L87.1552 56.9803ZM85.3821 55.8443L85.6518 55.4233L85.6518 55.4233L85.3821 55.8443ZM81.6836 54.9578L81.4671 55.4084L81.4671 55.4084L81.6836 54.9578ZM81.4746 54.8573L81.6912 54.4067L81.6912 54.4067L81.4746 54.8573ZM80.8435 54.5541L80.6269 55.0047L80.6269 55.0047L80.8435 54.5541ZM80.2123 54.2508L80.4289 53.8001L80.4288 53.8001L80.2123 54.2508ZM79.0762 53.4623L79.4227 53.1018L79.4227 53.1018L79.0762 53.4623ZM78.3188 52.7344L78.6652 52.3739L78.6652 52.3739L78.3188 52.7344ZM78.0181 52.4454L77.6716 52.8059L77.6716 52.8059L78.0181 52.4454ZM71.6915 50.6114L71.345 50.972L71.345 50.972L71.6915 50.6114ZM71.6034 50.5268L71.9499 50.1663L71.9499 50.1663L71.6034 50.5268ZM70.5172 50.0895L70.8636 49.729L70.8636 49.729L70.5172 50.0895ZM70.438 50.0134L70.0915 50.3739L70.0915 50.3739L70.438 50.0134ZM70.3074 45.0354L69.9609 45.3959L69.9609 45.3959L70.3074 45.0354ZM70.1135 44.8491L69.7267 45.166L69.7456 45.189L69.7671 45.2097L70.1135 44.8491ZM69.9005 42.9149L69.4231 42.7665L69.4231 42.7665L69.9005 42.9149ZM70.4291 41.431L70.8727 41.6618L70.8727 41.6618L70.4291 41.431ZM70.5957 41.073L71.0591 41.2607L71.0591 41.2607L70.5957 41.073ZM70.7796 40.0186L71.2785 40.0526L71.2785 40.0526L70.7796 40.0186ZM70.7844 39.9487L71.2832 39.9833L71.2832 39.9833L70.7844 39.9487ZM71.0277 36.4414L71.5265 36.476L71.5265 36.476L71.0277 36.4414ZM71.3029 35.5688L70.8744 35.3111L70.8744 35.3111L71.3029 35.5688ZM71.4656 35.338L71.8524 35.6548L71.8525 35.6547L71.4656 35.338ZM71.4787 35.3219L71.0919 35.0051L71.0918 35.0052L71.4787 35.3219ZM71.971 34.8762L72.248 35.2925L72.248 35.2925L71.971 34.8762ZM72.8324 34.3031L72.5554 33.8868L72.5554 33.8868L72.8324 34.3031ZM75.6541 28.203L75.2105 28.4338L75.2105 28.4338L75.6541 28.203ZM75.4785 27.8655L75.9221 27.6348L75.9221 27.6348L75.4785 27.8655ZM74.6955 26.7599L74.3306 27.1017L74.3306 27.1017L74.6955 26.7599ZM73.0912 25.0469L73.4562 24.7051L73.4562 24.7051L73.0912 25.0469ZM71.3759 23.6196L71.6456 23.1986L71.6199 23.1822L71.5924 23.169L71.3759 23.6196ZM70.7447 23.3164L70.9613 22.8657L70.9301 22.8507L70.8972 22.8402L70.7447 23.3164ZM69.798 23.0131L69.9505 22.5369L69.9372 22.5327L69.9237 22.5292L69.798 23.0131ZM69.1885 22.7898L68.9719 23.2405L68.9719 23.2405L69.1885 22.7898ZM68.8512 22.6278L68.6346 23.0784L68.6346 23.0784L68.8512 22.6278ZM68.48 22.4494L68.6965 21.9987L68.6965 21.9987L68.48 22.4494ZM67.9982 22.1402L67.6787 22.5247L67.6787 22.5247L67.9982 22.1402ZM67.927 22.081L67.6075 22.4656L67.6075 22.4656L67.927 22.081ZM67.4056 21.4002L67.8602 21.1919L67.8602 21.1919L67.4056 21.4002ZM67.2404 20.7953L67.7377 20.7436L67.7377 20.7436L67.2404 20.7953ZM66.9577 18.0786H66.4577V18.1045L66.4604 18.1303L66.9577 18.0786ZM66.7999 16.8655L66.3563 17.0962L66.3563 17.0962L66.7999 16.8655ZM66.7442 16.7585L67.1878 16.5277L67.1878 16.5277L66.7442 16.7585ZM66.4127 15.7352L66.7592 15.3747L66.7592 15.3747L66.4127 15.7352ZM66.2187 15.6005L66.4353 15.1499L66.4352 15.1499L66.2187 15.6005ZM65.6953 15.3491L65.9119 14.8984L65.9119 14.8984L65.6953 15.3491ZM65.2524 15.1363L65.469 14.6856L65.469 14.6856L65.2524 15.1363ZM64.9035 14.9123L65.2231 14.5278L65.2231 14.5277L64.9035 14.9123ZM62.7155 14.9586L62.3691 14.5981L62.3691 14.5981L62.7155 14.9586ZM62.5395 15.1278L62.8731 15.5002L62.8796 15.4944L62.8859 15.4883L62.5395 15.1278ZM61.7511 15.8342L61.4175 15.4618L61.4175 15.4618L61.7511 15.8342ZM60.6459 16.3409V16.8409H60.6783L60.7104 16.8368L60.6459 16.3409ZM59.8286 16.0862L60.2322 15.7911L60.2322 15.7911L59.8286 16.0862ZM59.068 15.0458L58.6396 15.3036L58.6511 15.3228L58.6644 15.3409L59.068 15.0458ZM58.7524 14.5213L58.2979 14.7296L58.3096 14.755L58.324 14.779L58.7524 14.5213ZM58.3563 13.0795L58.8535 13.0263L58.8535 13.0263L58.3563 13.0795ZM58.2143 11.7523L57.7172 11.8055L57.7172 11.8055L58.2143 11.7523ZM57.4901 10.2754L57.8365 9.91486L57.8365 9.91485L57.4901 10.2754ZM57.1496 9.94812L57.496 9.5876L57.496 9.5876L57.1496 9.94812ZM56.0222 9.76759L55.8056 9.31691L55.8056 9.31691L56.0222 9.76759ZM55.8571 9.84689L55.6406 9.39621L55.6406 9.39622L55.8571 9.84689ZM55.3881 10.1724L55.0417 9.81189L55.0417 9.81189L55.3881 10.1724ZM54.9654 10.5786L55.3118 10.9392L55.3118 10.9392L54.9654 10.5786ZM54.8705 10.6698L54.524 10.3093L54.524 10.3093L54.8705 10.6698ZM54.492 11.1442L54.0636 10.8864L54.0636 10.8864L54.492 11.1442ZM54.3901 11.3136L54.8185 11.5713L54.8185 11.5713L54.3901 11.3136ZM54.256 11.4816L54.6025 11.8421L54.6025 11.8421L54.256 11.4816ZM53.1819 11.611L52.9654 12.0616L52.9654 12.0616L53.1819 11.611ZM53.1146 11.5786L52.898 12.0293L52.898 12.0293L53.1146 11.5786ZM52.5513 11.0658L52.9798 10.8081L52.9798 10.8081L52.5513 11.0658ZM52.5125 11.0012L52.0841 11.259L52.0841 11.259L52.5125 11.0012ZM52.3492 10.777L52.7259 10.4483L52.7259 10.4483L52.3492 10.777ZM51.6017 9.92011L51.2249 10.2488L51.2249 10.2488L51.6017 9.92011ZM51.2761 9.35274L51.75 9.1933L51.75 9.1933L51.2761 9.35274ZM51.2321 9.22207L50.7582 9.3815L50.7582 9.38151L51.2321 9.22207ZM51.0715 8.93181L50.6847 9.24863L50.6847 9.24863L51.0715 8.93181ZM50.8351 7.93753L51.3246 7.83568L51.3246 7.83566L50.8351 7.93753ZM50.592 6.76955L50.1025 6.87142L50.1025 6.87143L50.592 6.76955ZM50.0343 4.92999L49.6878 5.29049L49.6878 5.2905L50.0343 4.92999ZM49.7779 4.72789L49.5082 5.1489L49.5082 5.1489L49.7779 4.72789ZM49.5007 4.55029L49.231 4.97129L49.231 4.9713L49.5007 4.55029ZM47.8547 4.12916L48.0712 3.67849L48.0712 3.67849L47.8547 4.12916ZM47.5881 4.00109L47.3716 4.45176L47.3716 4.45176L47.5881 4.00109ZM47.3521 3.52791L46.9086 3.75869L46.9086 3.75869L47.3521 3.52791ZM47.2335 3.29996L46.79 3.53073L46.79 3.53074L47.2335 3.29996ZM47.0904 2.22337L47.5831 2.30881L47.5831 2.3088L47.0904 2.22337ZM47.1182 2.06314L46.6256 1.9777L46.6256 1.97771L47.1182 2.06314ZM45.8995 1.06187L45.7201 0.595162L45.7201 0.595165L45.8995 1.06187ZM45.7357 1.14474L45.466 0.723731L45.466 0.723731L45.7357 1.14474ZM43.9199 2.30808L44.1485 2.75276L44.1696 2.7419L44.1896 2.72909L43.9199 2.30808ZM42.5804 2.99668L42.3518 2.552L42.3367 2.55976L42.3222 2.56852L42.5804 2.99668ZM40.9784 4.22495L41.3248 4.58546L41.3248 4.58546L40.9784 4.22495ZM40.7639 4.43104L41.0619 4.83256L41.0874 4.8136L41.1104 4.79155L40.7639 4.43104ZM40.0443 4.96507L40.3422 5.3666L40.3422 5.36659L40.0443 4.96507ZM38.7244 5.73321L38.5225 5.27581L38.5225 5.27581L38.7244 5.73321ZM38.4537 5.85272L38.2518 5.39531L38.2518 5.39531L38.4537 5.85272ZM38.0417 6.07393L38.3115 6.49493L38.3115 6.49493L38.0417 6.07393ZM33.2564 7.32008L33.5261 7.74109L33.5261 7.74109L33.2564 7.32008ZM33.034 7.46253L32.7643 7.04152L32.7643 7.04152L33.034 7.46253ZM32.1516 8.15831L32.498 8.51883L32.498 8.51883L32.1516 8.15831ZM31.6119 8.67694L31.2654 8.31642L31.2654 8.31643L31.6119 8.67694ZM31.4851 13.589L31.0415 13.8198L31.0415 13.8198L31.4851 13.589ZM31.5557 13.7246L31.9992 13.4939L31.9992 13.4938L31.5557 13.7246ZM31.6997 13.9171L32.0462 13.5566L32.0461 13.5566L31.6997 13.9171ZM31.2963 17.7753L30.8527 17.5445L30.8527 17.5445L31.2963 17.7753ZM29.7692 20.0216L30.147 20.3491L30.147 20.3491L29.7692 20.0216ZM29.0872 20.8081L29.4336 21.1686L29.45 21.1528L29.4649 21.1357L29.0872 20.8081ZM28.3333 24.9865L28.7769 25.2173L28.7769 25.2173L28.3333 24.9865ZM27.873 25.6785L27.4888 25.3586L27.4888 25.3586L27.873 25.6785ZM27.6847 25.9047L28.069 26.2246L28.069 26.2246L27.6847 25.9047ZM25.7013 27.326L25.8807 27.7927L25.8807 27.7927L25.7013 27.326ZM24.8781 27.5613L24.7837 27.0703L24.7837 27.0703L24.8781 27.5613ZM24.4532 27.643L24.3588 27.152L24.3588 27.152L24.4532 27.643ZM23.0955 28.185L23.3652 28.606L23.3652 28.606L23.0955 28.185ZM22.5014 28.6534L22.8479 29.0139L22.8479 29.0139L22.5014 28.6534ZM22.0217 29.1145L21.6752 28.7539L21.6752 28.7539L22.0217 29.1145ZM21.6762 29.5198L22.087 29.8048L22.087 29.8048L21.6762 29.5198ZM21.4856 35.2597L21.0017 35.3856L21.0017 35.3856L21.4856 35.2597ZM21.5131 35.3655L21.0292 35.4913L21.0342 35.5106L21.0407 35.5293L21.5131 35.3655ZM21.7256 35.9781L21.2532 36.142L21.2532 36.142L21.7256 35.9781ZM21.9739 36.5543L21.5303 36.7851L21.5303 36.7851L21.9739 36.5543ZM21.3548 40.7484L21.5714 40.2977L21.5713 40.2977L21.3548 40.7484ZM20.7225 40.4446L20.939 39.9939L20.939 39.9939L20.7225 40.4446ZM19.8567 39.8736L19.5277 40.2502L19.5277 40.2502L19.8567 39.8736ZM17.1324 37.4936L16.8035 37.8702L16.8035 37.8702L17.1324 37.4936ZM16.3294 37.041L16.1768 37.5172L16.1768 37.5172L16.3294 37.041ZM15.456 36.52L15.8025 36.1595L15.8025 36.1595L15.456 36.52ZM14.8858 36.1237L14.6693 36.5743L14.6693 36.5743L14.8858 36.1237ZM14.6825 36.026L14.4659 36.4766L14.4659 36.4766L14.6825 36.026ZM14.4804 35.8857L14.8269 35.5252L14.8269 35.5252L14.4804 35.8857ZM8.88966 35.3655L9.23611 35.005L9.23611 35.005L8.88966 35.3655ZM7.31897 34.914L7.10242 35.3647L7.10242 35.3647L7.31897 34.914ZM6.99614 34.7589L6.7796 35.2096L6.7796 35.2096L6.99614 34.7589ZM3.2091 35.0622L2.93938 34.6412L2.92134 34.6527L2.90435 34.6658L3.2091 35.0622ZM2.66041 35.484L2.35566 35.0876L2.35566 35.0876L2.66041 35.484ZM1.899 42.6072L1.43739 42.4151L1.43739 42.4151L1.899 42.6072ZM1.63117 43.2507L2.07473 43.4815L2.08458 43.4626L2.09278 43.4428L1.63117 43.2507ZM1.27996 43.9257L0.836406 43.695L0.836405 43.695L1.27996 43.9257ZM1.13361 45.9337L0.690056 46.1645L0.690057 46.1645L1.13361 45.9337ZM1.67096 46.4543L1.45441 46.9049L1.45442 46.9049L1.67096 46.4543ZM1.78556 46.5093L2.00211 46.0586L2.0021 46.0586L1.78556 46.5093ZM2.07571 46.7107L1.72926 47.0712L1.72926 47.0712L2.07571 46.7107ZM2.50885 46.969L2.66138 46.4929L2.66138 46.4928L2.50885 46.969ZM2.90856 47.0971L3.0611 46.6209L3.0611 46.6209L2.90856 47.0971ZM8.89999 47.5911L9.16972 48.0121L9.16973 48.0121L8.89999 47.5911ZM8.93121 47.5711L8.66148 47.1501L8.66147 47.1501L8.93121 47.5711ZM10.152 47.4966L10.3686 47.0459L10.3686 47.0459L10.152 47.4966ZM10.7832 47.7999L10.5666 48.2506L10.5666 48.2506L10.7832 47.7999ZM11.0198 47.9136L10.8033 48.3643L10.8033 48.3643L11.0198 47.9136ZM11.7299 47.7999L12.065 48.171L12.065 48.171L11.7299 47.7999ZM12.7619 47.0377L13.0358 47.456L13.0358 47.456L12.7619 47.0377ZM13.1915 46.6986L13.538 47.0591L13.538 47.0591L13.1915 46.6986ZM14.189 46.1023L14.0364 45.6262L14.0364 45.6262L14.189 46.1023ZM17.2361 46.6386L17.6469 46.3536L17.6469 46.3536L17.2361 46.6386ZM17.6682 47.0551L17.3984 47.4761L17.3984 47.4761L17.6682 47.0551ZM17.7304 47.095L18.0001 46.674L18.0001 46.674L17.7304 47.095ZM18.5447 48.2171L19.0286 48.0912L19.0286 48.0912L18.5447 48.2171ZM18.5743 48.3309L18.0904 48.4568L18.0904 48.4568L18.5743 48.3309ZM18.896 49.0314L19.3068 48.7464L19.3068 48.7464L18.896 49.0314ZM18.97 49.1381L18.5592 49.4231L18.5592 49.4231L18.97 49.1381ZM19.7974 49.9356L19.5276 50.3566L19.5276 50.3566L19.7974 49.9356ZM19.9389 50.0263L19.6692 50.4473L19.6692 50.4473L19.9389 50.0263ZM20.5178 50.4828L20.8643 50.1223L20.8643 50.1223L20.5178 50.4828ZM20.6784 50.6371L20.3319 50.9976L20.3319 50.9976L20.6784 50.6371ZM21.1196 50.985L20.8499 51.406L20.8499 51.406L21.1196 50.985ZM21.2972 51.0988L21.567 50.6777L21.567 50.6777L21.2972 51.0988ZM22.4599 51.4392L22.9595 51.4597L22.9808 50.9392H22.4599V51.4392ZM22.4463 51.7716L21.9467 51.7512L22.8826 52.0158L22.4463 51.7716ZM23.1377 51.3589L23.5812 51.5897L23.5812 51.5897L23.1377 51.3589ZM23.2469 51.149L23.6905 51.3798L23.6905 51.3798L23.2469 51.149ZM23.519 50.8512L23.2493 50.4302L23.2493 50.4302L23.519 50.8512ZM23.7945 50.6747L24.0642 51.0957L24.0642 51.0957L23.7945 50.6747ZM30.128 48.8411L30.457 49.2177L30.457 49.2177L30.128 48.8411ZM31.742 47.4312L31.413 47.0546L31.413 47.0546L31.742 47.4312ZM31.9389 47.1806L31.4954 46.9499L31.4954 46.9499L31.9389 47.1806ZM34.5466 47.0212L34.9901 46.7904L34.9901 46.7904L34.5466 47.0212ZM34.5587 47.0445L34.1151 47.2753L34.1151 47.2753L34.5587 47.0445ZM36.0394 46.8269L35.6453 46.5193L35.6453 46.5193L36.0394 46.8269ZM36.477 46.2662L36.8712 46.5738L36.8712 46.5738L36.477 46.2662ZM36.7395 45.9753L36.393 45.6147L36.393 45.6147L36.7395 45.9753ZM37.8602 44.8982L37.5679 44.4926L37.5392 44.5133L37.5138 44.5377L37.8602 44.8982ZM38.6722 44.313L38.3799 43.9073L38.3799 43.9074L38.6722 44.313ZM40.4224 44.158L40.6389 43.7074L40.6389 43.7074L40.4224 44.158ZM41.1812 44.5227L41.3977 44.072L41.3977 44.072L41.1812 44.5227ZM42.594 45.5048L42.9405 45.1443L42.9405 45.1443L42.594 45.5048ZM42.7518 52.1769L43.1954 52.4077L43.1954 52.4077L42.7518 52.1769ZM42.6332 52.4049L43.0768 52.6357L43.0768 52.6357L42.6332 52.4049ZM42.7908 52.8781L42.5743 53.3287L42.5743 53.3287L42.7908 52.8781ZM43.2252 53.0868L43.0086 53.5374L43.0398 53.5524L43.0727 53.5629L43.2252 53.0868ZM43.5441 53.1889L43.6966 52.7128L43.6966 52.7128L43.5441 53.1889ZM44.813 53.236L44.6962 52.7499L44.6962 52.7499L44.813 53.236ZM45.263 53.1279L45.3798 53.6141L45.3798 53.6141L45.263 53.1279ZM45.5613 52.9647L45.9078 53.3252L45.9078 53.3252L45.5613 52.9647ZM46.639 55.0813L47.0332 55.389L47.0332 55.389L46.639 55.0813ZM46.2938 55.5236L45.8997 55.216L45.8997 55.216L46.2938 55.5236ZM45.7529 56.0165L46.0226 56.4376L46.0226 56.4375L45.7529 56.0165ZM45.6643 56.0733L45.3946 55.6523L45.3945 55.6523L45.6643 56.0733ZM44.9064 57.035L45.3788 57.1988L45.3788 57.1988L44.9064 57.035ZM43.9284 60.2962L43.582 59.9357L43.582 59.9357L43.9284 60.2962ZM43.8564 60.3655L44.1487 60.7711L44.1774 60.7504L44.2028 60.726L43.8564 60.3655ZM41.3317 62.1851L41.0393 61.7795L41.0393 61.7795L41.3317 62.1851ZM40.64 62.6837L40.9323 63.0893L40.9323 63.0893L40.64 62.6837ZM38.3171 62.8259L38.5577 62.3877L38.5577 62.3877L38.3171 62.8259ZM37.4277 62.3376L37.1871 62.7758L37.1871 62.7758L37.4277 62.3376ZM34.1292 61.9317L34.0349 61.4407L34.0349 61.4407L34.1292 61.9317ZM33.1086 62.1279L33.0143 61.6369L33.0143 61.6369L33.1086 62.1279ZM32.6709 62.4542L32.2273 62.2234L32.2273 62.2234L32.6709 62.4542ZM30.8699 62.4429L30.5235 62.8034L30.5235 62.8034L30.8699 62.4429ZM30.7813 62.3577L31.1278 61.9972L31.1278 61.9972L30.7813 62.3577ZM30.3772 62.0772L30.5937 61.6266L30.5937 61.6266L30.3772 62.0772ZM29.9706 61.8819L29.7008 62.3029L29.7265 62.3193L29.754 62.3325L29.9706 61.8819ZM29.3241 61.4677L29.5938 61.0467L29.5938 61.0467L29.3241 61.4677ZM28.8592 60.9589L28.4156 61.1897L28.4156 61.1897L28.8592 60.9589ZM28.4066 58.8169L28.3535 59.314L28.3536 59.314L28.4066 58.8169ZM26.2049 58.5818L26.258 58.0846L26.258 58.0846L26.2049 58.5818ZM25.5826 58.363L25.3129 58.784L25.3129 58.784L25.5826 58.363ZM24.1011 54.2091L23.8845 54.6598L23.8845 54.6598L24.1011 54.2091ZM23.915 54.1197L23.6985 54.5704L23.6985 54.5704L23.915 54.1197ZM23.4539 53.7997L23.1074 54.1602L23.1074 54.1602L23.4539 53.7997ZM23.1301 53.4885L22.7837 53.849L22.7837 53.849L23.1301 53.4885ZM22.8996 53.3285L23.1161 52.8778L23.1161 52.8778L22.8996 53.3285ZM22.4092 52.6783L22.902 52.5941L21.9096 52.6579L22.4092 52.6783ZM22.3965 52.9884L22.5429 53.4665L22.8816 53.3628L22.8961 53.0089L22.3965 52.9884ZM21.662 53.2133L21.5156 52.7352L21.5156 52.7352L21.662 53.2133ZM21.3727 53.3264L21.5893 53.777L21.5893 53.777L21.3727 53.3264ZM20.5716 54.0096L20.9824 54.2946L20.9824 54.2946L20.5716 54.0096ZM20.2508 54.472L19.8399 54.187L19.8219 54.2131L19.8072 54.2412L20.2508 54.472ZM20.0288 54.8986L19.5853 54.6679L19.5853 54.6679L20.0288 54.8986ZM19.8841 55.2749L20.368 55.4008L20.368 55.4008L19.8841 55.2749ZM19.7057 55.9608L19.2218 55.835L19.2218 55.835L19.7057 55.9608ZM19.8661 56.5286L20.2125 56.1681L20.2125 56.1681L19.8661 56.5286ZM19.9794 56.68L19.5359 56.9108L19.5359 56.9108L19.9794 56.68ZM20.2508 57.2015L19.8072 57.4323L19.8219 57.4605L19.8399 57.4865L20.2508 57.2015ZM20.727 57.8881L20.3162 58.1731L20.3162 58.1731L20.727 57.8881ZM21.1269 58.2291L21.3435 57.7784L21.3435 57.7784L21.1269 58.2291ZM21.6535 58.8195L22.1259 58.6556L22.1259 58.6556L21.6535 58.8195ZM21.7378 59.0623L22.2102 58.8985L22.2102 58.8985L21.7378 59.0623ZM21.318 61.4714L21.0482 61.0504L21.0482 61.0504L21.318 61.4714ZM21.026 61.6584L21.2957 62.0794L21.2957 62.0794L21.026 61.6584ZM20.7586 61.8693L20.4121 61.5088L20.4121 61.5088L20.7586 61.8693ZM20.3138 62.2967L20.6603 62.6572L20.6603 62.6572L20.3138 62.2967ZM19.4951 62.9471L19.2223 62.5281L19.2223 62.5281L19.4951 62.9471ZM18.1887 63.7977L17.9159 63.3787L17.9159 63.3787L18.1887 63.7977ZM17.7818 64.3188L18.2544 64.4819L18.2544 64.4819L17.7818 64.3188ZM19.9352 71.1524L20.2816 70.7918L20.2816 70.7918L19.9352 71.1524ZM19.9785 71.194L19.6321 71.5545L19.6321 71.5545L19.9785 71.194ZM20.0765 71.7906L19.6329 71.5598L19.6329 71.5598L20.0765 71.7906ZM17.0949 72.0622L17.0353 72.5586L17.065 72.5622H17.0949V72.0622ZM14.5702 71.7589L14.4534 72.2451L14.4817 72.2519L14.5106 72.2553L14.5702 71.7589ZM13.6793 71.5449L13.7961 71.0587L13.7961 71.0587L13.6793 71.5449ZM10.4473 72.6173L10.063 72.2974L10.063 72.2974L10.4473 72.6173ZM10.152 72.972L10.4985 73.3325L10.5185 73.3133L10.5363 73.2919L10.152 72.972ZM8.45145 74.6063L8.105 74.2457L8.105 74.2457L8.45145 74.6063ZM8.10594 75.0116L7.69511 74.7266L7.69511 74.7266L8.10594 75.0116ZM7.70163 77.4322L8.17402 77.2683L8.17402 77.2683L7.70163 77.4322ZM8.65877 78.2998L8.54196 78.7859L8.54197 78.7859L8.65877 78.2998ZM9.20525 78.431L9.08845 78.9172L9.10717 78.9217L9.12617 78.9248L9.20525 78.431ZM10.9052 78.7033L10.8261 79.197L10.8261 79.197L10.9052 78.7033ZM11.2855 78.7941L11.438 78.318L11.438 78.318L11.2855 78.7941ZM12.5365 79.6668L12.9307 79.3591L12.9307 79.3591L12.5365 79.6668ZM14.7641 82.521L15.1583 82.2134L15.1583 82.2134L14.7641 82.521ZM15.0284 82.814L15.3749 82.4535L15.3749 82.4535L15.0284 82.814ZM15.3408 83.1142L14.9943 83.4747L14.9943 83.4747L15.3408 83.1142ZM17.0314 83.506L16.8789 83.0299L16.8789 83.0299L17.0314 83.506ZM17.7261 83.2835L17.6317 82.7925L17.6022 82.7982L17.5735 82.8073L17.7261 83.2835ZM18.0644 83.2185L18.1587 83.7095L18.1587 83.7095L18.0644 83.2185ZM22.0723 83.2144L22.4188 82.8539L22.4188 82.8539L22.0723 83.2144ZM22.2837 84.0946L21.8114 83.9307L21.8114 83.9307L22.2837 84.0946ZM22.2304 84.2485L22.7028 84.4123L22.7028 84.4123L22.2304 84.2485ZM21.9549 84.6786L21.6085 84.3181L21.6084 84.3181L21.9549 84.6786ZM19.7662 86.782L19.4198 86.4214L19.4198 86.4214L19.7662 86.782ZM19.6937 91.9867L19.324 92.3233L19.324 92.3233L19.6937 91.9867ZM20.8819 93.2917L21.2662 92.9718L21.2591 92.9633L21.2516 92.9551L20.8819 93.2917ZM22.1443 94.8081L21.76 95.128L21.76 95.128L22.1443 94.8081ZM23.4066 96.3245L23.0224 96.6444L23.0278 96.6509L23.0335 96.6573L23.4066 96.3245ZM25.3002 98.4474L25.6844 98.1275L25.679 98.121L25.6733 98.1146L25.3002 98.4474ZM26.375 99.7386L26.7593 99.4187L26.7593 99.4187L26.375 99.7386ZM26.6586 100.241L27.1309 100.077L27.1309 100.077L26.6586 100.241ZM26.7298 100.446L26.2574 100.61L26.2574 100.61L26.7298 100.446ZM27.286 101.07L27.5026 100.619L27.5026 100.619L27.286 101.07ZM34.4522 100.874L34.3354 100.387L34.3173 100.392L34.2996 100.397L34.4522 100.874ZM35.3181 100.666L35.4349 101.152L35.4349 101.152L35.3181 100.666ZM38.2202 99.8571L37.9154 99.4607L37.9154 99.4607L38.2202 99.8571ZM39.4636 98.9012L39.1588 98.5048L39.1588 98.5048L39.4636 98.9012ZM43.9741 98.9459L43.6616 99.3362L43.6616 99.3362L43.9741 98.9459ZM44.8665 99.6605L45.1791 99.2703L45.1791 99.2703L44.8665 99.6605ZM47.9913 102.163L48.3039 101.773L48.3039 101.773L47.9913 102.163ZM49.4784 102.892L49.3616 103.378L49.3616 103.378L49.4784 102.892ZM49.741 102.955L49.8578 102.468L49.8577 102.468L49.741 102.955ZM50.9251 102.75L51.1981 103.169L51.1981 103.169L50.9251 102.75ZM54.1305 100.662L54.4035 101.08L54.4035 101.08L54.1305 100.662ZM54.5763 100.227L54.1642 99.9434L54.1642 99.9434L54.5763 100.227ZM55.6435 99.5519L55.7225 100.046L55.7225 100.046L55.6435 99.5519ZM56.4453 99.4235L56.3662 98.9298L56.3662 98.9298L56.4453 99.4235ZM57.1608 99.0671L56.8143 98.7066L56.8143 98.7066L57.1608 99.0671ZM57.5571 98.2991L58.0517 98.3726L58.0517 98.3726L57.5571 98.2991ZM57.5975 98.0271L57.103 97.9536L57.103 97.9536L57.5975 98.0271ZM59.2149 96.5042L59.2586 97.0023L59.2586 97.0023L59.2149 96.5042ZM59.5711 96.4361L59.7141 96.9152L59.7141 96.9152L59.5711 96.4361ZM60.29 96.2216L60.433 96.7007L60.433 96.7007L60.29 96.2216ZM61.3608 95.4454L61.7717 95.7304L61.7717 95.7304L61.3608 95.4454ZM61.6754 94.7133L62.1649 94.8152L62.1649 94.8152L61.6754 94.7133ZM61.8105 94.0642L61.321 93.9623L61.321 93.9623L61.8105 94.0642ZM62.3402 93.3874L62.1236 92.9367L62.1236 92.9367L62.3402 93.3874ZM66.4842 93.7466L66.1377 94.1071L66.1377 94.1071L66.4842 93.7466ZM69.0999 93.8219L68.8208 93.407L68.8208 93.407L69.0999 93.8219ZM71.6914 92.0786L71.9704 92.4935L71.9771 92.4889L71.9837 92.4842L71.6914 92.0786ZM72.6356 91.398L72.3433 90.9924L72.3432 90.9924L72.6356 91.398ZM73.1772 90.8466L73.588 91.1316L73.588 91.1316L73.1772 90.8466ZM73.7668 87.4366L74.1132 87.7972L74.1132 87.7971L73.7668 87.4366ZM74.0835 87.2788L74.1626 87.7726L74.1626 87.7726L74.0835 87.2788ZM75.3432 87.0771L75.4223 87.5708L75.4223 87.5708L75.3432 87.0771ZM76.1784 87.2512L76.4481 86.8302L76.4481 86.8301L76.1784 87.2512ZM76.2964 87.3267L76.0266 87.7477L76.0266 87.7478L76.2964 87.3267ZM77.2164 87.3829L77.433 87.8336L77.433 87.8336L77.2164 87.3829ZM77.491 87.1834L77.8527 87.5286L77.8527 87.5286L77.491 87.1834ZM78.3187 86.3163L77.9722 85.9558L77.9644 85.9633L77.957 85.9711L78.3187 86.3163ZM78.7126 85.9378L79.059 86.2983L79.059 86.2983L78.7126 85.9378ZM80.0652 85.1155L79.5842 84.979L79.5842 84.979L80.0652 85.1155ZM80.8342 82.4064L81.3152 82.5429L81.3152 82.5429L80.8342 82.4064ZM23.5824 50.7201L23.8521 51.1411L23.8521 51.1411L23.5824 50.7201ZM23.8579 50.5436L23.5882 50.1226L23.5882 50.1226L23.8579 50.5436ZM30.1914 48.71L30.5204 49.0865L30.5204 49.0865L30.1914 48.71ZM31.8054 47.3L31.4764 46.9235L31.4764 46.9235L31.8054 47.3ZM34.61 46.8901L35.0535 46.6593L35.0535 46.6593L34.61 46.8901ZM34.6221 46.9134L34.1785 47.1442L34.1785 47.1442L34.6221 46.9134ZM36.1028 46.6958L35.7087 46.3881L35.7087 46.3881L36.1028 46.6958ZM36.5404 46.1351L36.9346 46.4427L36.9346 46.4427L36.5404 46.1351ZM36.8029 45.8441L36.4564 45.4836L36.4564 45.4836L36.8029 45.8441ZM37.9236 44.7671L37.6313 44.3615L37.6026 44.3821L37.5772 44.4066L37.9236 44.7671ZM38.7356 44.1818L38.4433 43.7762L38.4433 43.7762L38.7356 44.1818ZM40.4857 44.0269L40.2692 44.4776L40.2692 44.4776L40.4857 44.0269ZM41.2446 44.3915L41.028 44.8422L41.028 44.8422L41.2446 44.3915ZM42.8152 52.0458L43.2588 52.2766L43.2588 52.2766L42.8152 52.0458ZM42.8542 52.7469L42.6377 53.1976L42.6377 53.1976L42.8542 52.7469ZM43.2886 52.9556L43.072 53.4063L43.1031 53.4213L43.136 53.4318L43.2886 52.9556ZM43.6075 53.0578L43.455 53.534L43.455 53.534L43.6075 53.0578ZM44.8764 53.1049L44.9932 53.5911L44.9932 53.5911L44.8764 53.1049ZM45.3264 52.9968L45.2096 52.5106L45.2096 52.5106L45.3264 52.9968ZM45.6247 52.8336L45.9712 53.1941L45.9712 53.1941L45.6247 52.8336ZM42.6574 45.3737L43.0039 45.0131L43.0039 45.0131L42.6574 45.3737ZM23.3103 51.0178L22.8667 50.7871L22.8667 50.7871L23.3103 51.0178ZM44.9698 56.9039L44.4974 56.74L44.4974 56.74L44.9698 56.9039ZM32.0023 47.0495L32.4459 47.2803L32.4459 47.2803L32.0023 47.0495ZM80.3435 81.8492V82.3737H81.3435V81.8492H80.3435ZM80.4022 81.1626C80.3632 81.3893 80.3435 81.6187 80.3435 81.8492H81.3435C81.3435 81.676 81.3583 81.5033 81.3877 81.3322L80.4022 81.1626ZM80.6591 79.6442C80.6591 79.6072 80.664 79.5855 80.6564 79.6389C80.652 79.6699 80.6452 79.7139 80.6365 79.7693C80.6191 79.8796 80.5948 80.0277 80.5674 80.1913C80.5128 80.5183 80.4469 80.9029 80.4022 81.1626L81.3877 81.3322C81.4325 81.0721 81.4987 80.6856 81.5537 80.3561C81.5812 80.1916 81.6061 80.0401 81.6243 79.9253C81.6333 79.8681 81.6409 79.8182 81.6464 79.7796C81.6487 79.7634 81.6591 79.6964 81.6591 79.6442H80.6591ZM80.7514 79.0201C80.7272 79.1655 80.7055 79.2957 80.6899 79.393C80.6822 79.4414 80.6755 79.4841 80.6707 79.5174C80.6689 79.5297 80.6591 79.5923 80.6591 79.6442H81.6591C81.6591 79.6746 81.6558 79.6964 81.6573 79.6836C81.6577 79.6803 81.6586 79.6729 81.6605 79.66C81.6641 79.6347 81.6698 79.5984 81.6773 79.5513C81.6923 79.4577 81.7134 79.331 81.7378 79.1844L80.7514 79.0201ZM80.9746 77.5212C80.9746 77.5205 80.9746 77.5248 80.974 77.5358C80.9734 77.5463 80.9723 77.5601 80.9707 77.5776C80.9675 77.6128 80.9625 77.6576 80.9557 77.7113C80.9423 77.8186 80.923 77.9524 80.9004 78.1006C80.8552 78.3968 80.7983 78.7387 80.7514 79.0201L81.7378 79.1844C81.7844 78.9045 81.8425 78.5556 81.889 78.2515C81.932 77.9692 81.9746 77.6684 81.9746 77.5212H80.9746ZM80.9746 76.6934V77.5212H81.9746V76.6934H80.9746ZM80.9746 73.9639V76.6934H81.9746V73.9639H80.9746ZM81.8264 72.9461C81.7442 72.9731 81.5347 73.0375 81.352 73.18C81.1426 73.3435 80.9746 73.6028 80.9746 73.9639H81.9746C81.9746 73.9448 81.978 73.9477 81.9715 73.9602C81.9659 73.971 81.9608 73.9735 81.9673 73.9684C81.9755 73.962 81.9927 73.9511 82.0243 73.9374C82.0568 73.9233 82.091 73.9118 82.1386 73.8961L81.8264 72.9461ZM81.6058 73.3573C81.6058 73.1623 81.7165 73.0425 81.7656 72.9991C81.8139 72.9564 81.857 72.9373 81.8616 72.9351C81.8723 72.9302 81.8743 72.9304 81.8264 72.9461L82.1386 73.8961C82.1633 73.888 82.2269 73.8679 82.2812 73.8429C82.3076 73.8307 82.3678 73.8015 82.4279 73.7484C82.4888 73.6946 82.6058 73.564 82.6058 73.3573H81.6058ZM81.6058 72.2212V73.3573H82.6058V72.2212H81.6058ZM81.9779 70.7003C81.7334 71.1701 81.6058 71.6916 81.6058 72.2212H82.6058C82.6058 71.8524 82.6947 71.4891 82.865 71.1619L81.9779 70.7003ZM82.2424 70.1919L81.9779 70.7003L82.865 71.1619L83.1295 70.6535L82.2424 70.1919ZM82.237 70.2139C82.237 70.2063 82.2388 70.1987 82.2424 70.1919L83.1295 70.6535C83.2001 70.5177 83.237 70.367 83.237 70.2139H82.237ZM82.5294 69.5273C82.3426 69.7068 82.237 69.9548 82.237 70.2139H83.237C83.237 70.2269 83.2317 70.2393 83.2224 70.2483L82.5294 69.5273ZM83.1393 68.9413L82.5294 69.5273L83.2224 70.2483L83.8322 69.6623L83.1393 68.9413ZM83.367 68.637C83.3081 68.7501 83.2312 68.8529 83.1393 68.9412L83.8321 69.6623C84.0025 69.4986 84.145 69.3082 84.2541 69.0986L83.367 68.637ZM83.4774 68.4248L83.367 68.637L84.2541 69.0985L84.3645 68.8863L83.4774 68.4248ZM83.4993 68.3351C83.4993 68.3663 83.4918 68.3971 83.4774 68.4248L84.3645 68.8863C84.4531 68.7161 84.4993 68.527 84.4993 68.3351H83.4993ZM84.1764 67.2585C83.7626 67.4574 83.4993 67.8759 83.4993 68.3351H84.4993C84.4993 68.2603 84.5422 68.1922 84.6095 68.1599L84.1764 67.2585ZM84.2273 67.234L84.1764 67.2585L84.6095 68.1599L84.6604 68.1354L84.2273 67.234ZM84.3377 67.1399C84.3097 67.1803 84.2717 67.2128 84.2273 67.2341L84.6604 68.1354C84.8607 68.0391 85.0327 67.8925 85.1594 67.7099L84.3377 67.1399ZM84.5086 66.8936L84.3377 67.1399L85.1594 67.7099L85.3302 67.4636L84.5086 66.8936ZM84.7617 66.0787C84.7617 66.3694 84.6725 66.6574 84.5086 66.8936L85.3302 67.4636C85.6121 67.0573 85.7617 66.5699 85.7617 66.0787H84.7617ZM84.7617 65.4721V66.0787H85.7617V65.4721H84.7617ZM84.678 65.2046C84.7325 65.2832 84.7617 65.3765 84.7617 65.4721H85.7617C85.7617 65.1728 85.6703 64.8806 85.4996 64.6346L84.678 65.2046ZM84.3144 64.6804L84.678 65.2046L85.4996 64.6346L85.136 64.1104L84.3144 64.6804ZM84.1643 64.5044C84.22 64.558 84.2703 64.6169 84.3144 64.6804L85.136 64.1104C85.0541 63.9924 84.9608 63.8829 84.8572 63.7834L84.1643 64.5044ZM84.0902 64.4332L84.1643 64.5044L84.8572 63.7834L84.7831 63.7122L84.0902 64.4332ZM83.4993 63.0459C83.4993 63.5695 83.7127 64.0704 84.0902 64.4332L84.7831 63.7122C84.6018 63.5379 84.4993 63.2973 84.4993 63.0459H83.4993ZM83.4993 62.7426V63.0459H84.4993V62.7426H83.4993ZM83.4993 62.2828V62.7426H84.4993V62.2828H83.4993ZM83.9773 61.1604C83.6719 61.4539 83.4993 61.8592 83.4993 62.2828H84.4993C84.4993 62.1313 84.5611 61.9864 84.6703 61.8815L83.9773 61.1604ZM84.1534 60.9912L83.9773 61.1604L84.6702 61.8815L84.8463 61.7122L84.1534 60.9912ZM84.8117 60.7262C84.5663 60.7262 84.3304 60.8212 84.1534 60.9912L84.8463 61.7122C84.837 61.7212 84.8246 61.7262 84.8117 61.7262V60.7262ZM84.9584 60.7262H84.8117V61.7262H84.9584V60.7262ZM84.7617 60.9229C84.7617 60.8143 84.8497 60.7262 84.9584 60.7262V61.7262C85.4021 61.7262 85.7617 61.3665 85.7617 60.9229H84.7617ZM85.565 60.1196C85.1213 60.1196 84.7617 60.4793 84.7617 60.9229H85.7617C85.7617 61.0316 85.6736 61.1196 85.565 61.1196V60.1196ZM85.7758 60.1196H85.565V61.1196H85.7758V60.1196ZM85.7819 60.1182C85.78 60.1192 85.7779 60.1196 85.7758 60.1196V61.1196C85.9278 61.1196 86.0779 61.0854 86.215 61.0196L85.7819 60.1182ZM86.0469 59.9909L85.7819 60.1182L86.2149 61.0196L86.48 60.8922L86.0469 59.9909ZM86.386 59.7556C86.2862 59.8515 86.1717 59.9309 86.0469 59.9909L86.48 60.8922C86.7004 60.7863 86.9026 60.646 87.0789 60.4766L86.386 59.7556ZM86.4932 59.6526L86.386 59.7556L87.0789 60.4766L87.1861 60.3736L86.4932 59.6526ZM87.6319 58.7733L86.5349 59.6167L87.1444 60.4095L88.2414 59.5661L87.6319 58.7733ZM87.9175 58.1934C87.9175 58.4206 87.812 58.6348 87.6319 58.7733L88.2414 59.5661C88.6677 59.2383 88.9175 58.7311 88.9175 58.1934H87.9175ZM87.6543 57.7748C87.8152 57.8521 87.9175 58.0149 87.9175 58.1934H88.9175C88.9175 57.6304 88.5948 57.1173 88.0874 56.8735L87.6543 57.7748ZM86.9386 57.431L87.6543 57.7748L88.0874 56.8735L87.3717 56.5296L86.9386 57.431ZM85.1123 56.2653L86.8855 57.4013L87.4249 56.5593L85.6518 55.4233L85.1123 56.2653ZM85.1187 56.2672C85.1164 56.2672 85.1142 56.2665 85.1123 56.2653L85.6518 55.4233C85.4927 55.3214 85.3077 55.2672 85.1187 55.2672V56.2672ZM84.9338 56.2672H85.1187V55.2672H84.9338V56.2672ZM84.1305 55.4639C84.1305 55.9075 84.4901 56.2672 84.9338 56.2672V55.2672C85.0424 55.2672 85.1305 55.3553 85.1305 55.4639H84.1305ZM84.3272 55.6606C84.2186 55.6606 84.1305 55.5725 84.1305 55.4639H85.1305C85.1305 55.0203 84.7709 54.6606 84.3272 54.6606V55.6606ZM82.5742 55.6606H84.3272V54.6606H82.5742V55.6606ZM81.4671 55.4084C81.8126 55.5744 82.1909 55.6606 82.5742 55.6606V54.6606C82.3409 54.6606 82.1105 54.6081 81.9002 54.5071L81.4671 55.4084ZM81.2581 55.308L81.4671 55.4084L81.9002 54.5071L81.6912 54.4067L81.2581 55.308ZM80.6269 55.0047L81.2581 55.308L81.6912 54.4067L81.06 54.1034L80.6269 55.0047ZM79.9958 54.7015L80.6269 55.0047L81.06 54.1034L80.4289 53.8001L79.9958 54.7015ZM78.7298 53.8228C79.1025 54.181 79.5298 54.4776 79.9958 54.7015L80.4288 53.8001C80.0585 53.6222 79.7189 53.3865 79.4227 53.1018L78.7298 53.8228ZM77.9723 53.0949L78.7298 53.8228L79.4227 53.1018L78.6652 52.3739L77.9723 53.0949ZM77.6716 52.8059L77.9723 53.0949L78.6652 52.3739L78.3646 52.0849L77.6716 52.8059ZM74.2162 51.4147C75.5044 51.4147 76.7428 51.9133 77.6716 52.8059L78.3646 52.0849C77.2494 51.0133 75.7628 50.4147 74.2162 50.4147V51.4147ZM72.4447 51.4147H74.2162V50.4147H72.4447V51.4147ZM71.345 50.972C71.6406 51.256 72.0347 51.4147 72.4447 51.4147V50.4147C72.2931 50.4147 72.1473 50.356 72.0379 50.2509L71.345 50.972ZM71.257 50.8873L71.345 50.972L72.0379 50.2509L71.9499 50.1663L71.257 50.8873ZM71.0603 50.8082C71.1336 50.8082 71.2041 50.8365 71.257 50.8873L71.9499 50.1663C71.7107 49.9365 71.392 49.8082 71.0603 49.8082V50.8082ZM70.1707 50.45C70.4098 50.6798 70.7286 50.8082 71.0603 50.8082V49.8082C70.987 49.8082 70.9165 49.7798 70.8636 49.729L70.1707 50.45ZM70.0915 50.3739L70.1707 50.45L70.8636 49.729L70.7844 49.6529L70.0915 50.3739ZM69.6135 49.2516C69.6135 49.6752 69.7861 50.0804 70.0915 50.3739L70.7845 49.6529C70.6753 49.548 70.6135 49.403 70.6135 49.2516H69.6135ZM69.6135 47.8819V49.2516H70.6135V47.8819H69.6135ZM69.6135 47.7131V47.8819H70.6135V47.7131H69.6135ZM70.0827 46.6116C69.7829 46.8996 69.6135 47.2974 69.6135 47.7131H70.6135C70.6135 47.5695 70.672 47.4321 70.7756 47.3326L70.0827 46.6116ZM70.2447 46.2311C70.2447 46.3747 70.1862 46.5121 70.0827 46.6116L70.7756 47.3326C71.0753 47.0446 71.2447 46.6468 71.2447 46.2311H70.2447ZM70.2447 46.0623V46.2311H71.2447V46.0623H70.2447ZM69.9609 45.3959C70.1422 45.5702 70.2447 45.8108 70.2447 46.0623H71.2447C71.2447 45.5387 71.0313 45.0377 70.6538 44.6749L69.9609 45.3959ZM69.7671 45.2097L69.9609 45.3959L70.6538 44.6749L70.46 44.4886L69.7671 45.2097ZM69.298 43.9658C69.298 44.4033 69.4495 44.8274 69.7267 45.166L70.5004 44.5323C70.3695 44.3725 70.298 44.1723 70.298 43.9658H69.298ZM69.298 43.602V43.9658H70.298V43.602H69.298ZM69.4231 42.7665C69.3382 43.0394 69.298 43.3213 69.298 43.602H70.298C70.298 43.4168 70.3245 43.2354 70.378 43.0633L69.4231 42.7665ZM69.9856 41.2003C69.8935 41.3773 69.7848 41.6717 69.6898 41.9474C69.5906 42.2349 69.4929 42.5419 69.4231 42.7665L70.378 43.0634C70.4465 42.8431 70.5407 42.5471 70.6351 42.2734C70.7336 41.9879 70.8201 41.7629 70.8727 41.6618L69.9856 41.2003ZM70.1323 40.8852C70.0961 40.9744 70.0484 41.0795 69.9856 41.2003L70.8727 41.6618C70.9495 41.5142 71.0105 41.3805 71.0591 41.2607L70.1323 40.8852ZM70.2808 39.9847C70.2554 40.3583 70.232 40.639 70.1323 40.8852L71.0591 41.2607C71.229 40.8412 71.2551 40.3967 71.2785 40.0526L70.2808 39.9847ZM70.2856 39.914C70.284 39.9377 70.2824 39.9614 70.2808 39.9847L71.2785 40.0526C71.2801 40.0292 71.2816 40.0062 71.2832 39.9833L70.2856 39.914ZM70.5289 36.4068L70.2856 39.9141L71.2832 39.9833L71.5265 36.476L70.5289 36.4068ZM70.8744 35.3111C70.6742 35.6438 70.5558 36.0194 70.5289 36.4068L71.5265 36.476C71.5425 36.2464 71.6126 36.0238 71.7313 35.8266L70.8744 35.3111ZM71.0788 35.0211C71.0038 35.1127 70.9355 35.2096 70.8744 35.3111L71.7313 35.8266C71.7675 35.7665 71.808 35.7091 71.8524 35.6548L71.0788 35.0211ZM71.0918 35.0052L71.0787 35.0212L71.8525 35.6547L71.8656 35.6387L71.0918 35.0052ZM71.6941 34.4599C71.4674 34.6107 71.2644 34.7945 71.0919 35.0051L71.8655 35.6388C71.9751 35.505 72.104 35.3883 72.248 35.2925L71.6941 34.4599ZM72.5554 33.8868L71.6941 34.4599L72.248 35.2925L73.1093 34.7194L72.5554 33.8868ZM75.2941 28.7754C75.2941 30.8301 74.2662 32.7487 72.5554 33.8868L73.1093 34.7194C75.0987 33.3958 76.2941 31.1648 76.2941 28.7754H75.2941ZM75.2105 28.4338C75.2654 28.5393 75.2941 28.6565 75.2941 28.7754H76.2941C76.2941 28.4958 76.2267 28.2203 76.0977 27.9723L75.2105 28.4338ZM75.0349 28.0963L75.2105 28.4338L76.0977 27.9723L75.9221 27.6348L75.0349 28.0963ZM74.3306 27.1017C74.6096 27.3996 74.8466 27.7342 75.035 28.0963L75.9221 27.6348C75.6916 27.1919 75.4018 26.7825 75.0605 26.4181L74.3306 27.1017ZM72.7263 25.3887L74.3306 27.1017L75.0605 26.4181L73.4562 24.7051L72.7263 25.3887ZM71.1062 24.0406C71.7 24.4211 72.2442 24.8739 72.7263 25.3887L73.4562 24.7051C72.9174 24.1298 72.3092 23.6238 71.6456 23.1986L71.1062 24.0406ZM70.5282 23.767L71.1593 24.0703L71.5924 23.169L70.9613 22.8657L70.5282 23.767ZM69.6454 23.4892L70.5922 23.7925L70.8972 22.8402L69.9505 22.5369L69.6454 23.4892ZM68.9719 23.2405C69.1965 23.3484 69.431 23.4343 69.6722 23.497L69.9237 22.5292C69.7451 22.4827 69.5714 22.4191 69.405 22.3391L68.9719 23.2405ZM68.6346 23.0784L68.9719 23.2405L69.405 22.3391L69.0677 22.1771L68.6346 23.0784ZM68.2634 22.9L68.6346 23.0784L69.0677 22.1771L68.6965 21.9987L68.2634 22.9ZM67.6787 22.5247C67.8575 22.6733 68.0538 22.7994 68.2634 22.9L68.6965 21.9987C68.5608 21.9335 68.4336 21.8519 68.3178 21.7556L67.6787 22.5247ZM67.6075 22.4656L67.6787 22.5247L68.3178 21.7556L68.2466 21.6965L67.6075 22.4656ZM66.9511 21.6085C67.1029 21.9398 67.3272 22.2327 67.6075 22.4656L68.2466 21.6965C68.0816 21.5593 67.9495 21.3869 67.8602 21.1919L66.9511 21.6085ZM66.743 20.8471C66.7705 21.1105 66.8407 21.3677 66.9511 21.6085L67.8602 21.1919C67.7952 21.0501 67.7538 20.8987 67.7377 20.7436L66.743 20.8471ZM66.4604 18.1303L66.743 20.8471L67.7377 20.7436L67.455 18.0268L66.4604 18.1303ZM66.4577 17.5106V18.0786H67.4577V17.5106H66.4577ZM66.3563 17.0962C66.4229 17.2242 66.4577 17.3664 66.4577 17.5106H67.4577C67.4577 17.2057 67.3842 16.9052 67.2434 16.6347L66.3563 17.0962ZM66.3007 16.9893L66.3563 17.0962L67.2434 16.6347L67.1878 16.5277L66.3007 16.9893ZM66.1421 16.3409C66.1421 16.5666 66.1965 16.789 66.3007 16.9893L67.1878 16.5277C67.1578 16.47 67.1421 16.4059 67.1421 16.3409H66.1421ZM66.1421 16.2737V16.3409H67.1421V16.2737H66.1421ZM66.0663 16.0957C66.1147 16.1423 66.1421 16.2065 66.1421 16.2737H67.1421C67.1421 15.9344 67.0038 15.6098 66.7592 15.3747L66.0663 16.0957ZM66.0021 16.0512C66.0257 16.0626 66.0474 16.0776 66.0663 16.0957L66.7592 15.3747C66.6638 15.2831 66.5545 15.2072 66.4353 15.1499L66.0021 16.0512ZM65.4788 15.7997L66.0021 16.0512L66.4352 15.1499L65.9119 14.8984L65.4788 15.7997ZM65.0359 15.5869L65.4788 15.7997L65.9119 14.8984L65.469 14.6856L65.0359 15.5869ZM64.5839 15.2968C64.7221 15.4117 64.8739 15.5091 65.0359 15.5869L65.469 14.6856C65.3808 14.6432 65.2983 14.5902 65.2231 14.5278L64.5839 15.2968ZM63.8212 15.0213C64.0998 15.0213 64.3697 15.1188 64.5839 15.2968L65.2231 14.5277C64.8292 14.2004 64.3333 14.0213 63.8212 14.0213V15.0213ZM63.8018 15.0213H63.8212V14.0213H63.8018V15.0213ZM63.062 15.3191C63.2609 15.128 63.526 15.0213 63.8018 15.0213V14.0213C63.2677 14.0213 62.7542 14.228 62.3691 14.5981L63.062 15.3191ZM62.8859 15.4883L63.062 15.3191L62.3691 14.5981L62.193 14.7673L62.8859 15.4883ZM62.0848 16.2066L62.8731 15.5002L62.2058 14.7554L61.4175 15.4618L62.0848 16.2066ZM60.7104 16.8368C61.2217 16.7703 61.7008 16.5506 62.0848 16.2066L61.4175 15.4618C61.1839 15.6711 60.8925 15.8047 60.5815 15.8451L60.7104 16.8368ZM60.3303 16.8409H60.6459V15.8409H60.3303V16.8409ZM59.4249 16.3813C59.6361 16.6702 59.9725 16.8409 60.3303 16.8409V15.8409C60.2916 15.8409 60.2551 15.8224 60.2322 15.7911L59.4249 16.3813ZM58.6644 15.3409L59.4249 16.3813L60.2322 15.7911L59.4717 14.7507L58.6644 15.3409ZM58.324 14.779L58.6396 15.3036L59.4964 14.788L59.1809 14.2635L58.324 14.779ZM57.8591 13.1327C57.9182 13.6852 58.0664 14.2245 58.2979 14.7296L59.207 14.3129C59.0204 13.906 58.9011 13.4715 58.8535 13.0263L57.8591 13.1327ZM57.7172 11.8055L57.8591 13.1327L58.8535 13.0263L58.7115 11.6992L57.7172 11.8055ZM57.1436 10.6359C57.4665 10.9461 57.6696 11.3603 57.7172 11.8055L58.7115 11.6992C58.6389 11.02 58.3291 10.3882 57.8365 9.91486L57.1436 10.6359ZM56.8031 10.3086L57.1436 10.6359L57.8365 9.91485L57.496 9.5876L56.8031 10.3086ZM56.4558 10.1688C56.5853 10.1688 56.7097 10.2189 56.8031 10.3086L57.496 9.5876C57.2164 9.31889 56.8436 9.16881 56.4558 9.16881V10.1688ZM56.2387 10.2183C56.3065 10.1857 56.3806 10.1688 56.4558 10.1688V9.16881C56.2307 9.16881 56.0085 9.21943 55.8056 9.31691L56.2387 10.2183ZM56.0737 10.2976L56.2387 10.2183L55.8056 9.31691L55.6406 9.39621L56.0737 10.2976ZM55.7346 10.5329C55.8344 10.437 55.9489 10.3575 56.0737 10.2976L55.6406 9.39622C55.4202 9.50213 55.218 9.64244 55.0417 9.81189L55.7346 10.5329ZM55.3118 10.9392L55.7346 10.5329L55.0417 9.81189L54.6189 10.2181L55.3118 10.9392ZM55.217 11.0304L55.3118 10.9392L54.6189 10.2181L54.524 10.3093L55.217 11.0304ZM54.9204 11.402C55.0025 11.2656 55.1022 11.1406 55.217 11.0304L54.524 10.3093C54.3458 10.4806 54.191 10.6746 54.0636 10.8864L54.9204 11.402ZM54.8185 11.5713L54.9204 11.402L54.0636 10.8864L53.9617 11.0558L54.8185 11.5713ZM54.6025 11.8421C54.6861 11.7617 54.7587 11.6707 54.8185 11.5713L53.9617 11.0558C53.9473 11.0797 53.9297 11.1017 53.9096 11.1211L54.6025 11.8421ZM53.6894 12.2097C54.0298 12.2097 54.357 12.078 54.6025 11.8421L53.9096 11.1211C53.8504 11.178 53.7715 11.2097 53.6894 11.2097V12.2097ZM53.6155 12.2097H53.6894V11.2097H53.6155V12.2097ZM52.9654 12.0616C53.1682 12.1591 53.3904 12.2097 53.6155 12.2097V11.2097C53.5404 11.2097 53.4662 11.1928 53.3984 11.1603L52.9654 12.0616ZM52.898 12.0293L52.9654 12.0616L53.3984 11.1603L53.3311 11.1279L52.898 12.0293ZM52.1229 11.3236C52.3069 11.6294 52.5764 11.8747 52.898 12.0293L53.3311 11.1279C53.1853 11.0579 53.0632 10.9467 52.9798 10.8081L52.1229 11.3236ZM52.0841 11.259L52.1229 11.3236L52.9798 10.8081L52.9409 10.7435L52.0841 11.259ZM51.9724 11.1057C52.014 11.1534 52.0514 11.2047 52.0841 11.259L52.9409 10.7435C52.878 10.639 52.8061 10.5402 52.7259 10.4483L51.9724 11.1057ZM51.2249 10.2488L51.9724 11.1057L52.7259 10.4483L51.9784 9.59142L51.2249 10.2488ZM50.8022 9.51218C50.8933 9.7831 51.037 10.0334 51.2249 10.2488L51.9784 9.59142C51.8769 9.47501 51.7992 9.33973 51.75 9.1933L50.8022 9.51218ZM50.7582 9.38151L50.8022 9.51218L51.75 9.1933L51.706 9.06263L50.7582 9.38151ZM50.6847 9.24863C50.717 9.28812 50.742 9.33314 50.7582 9.3815L51.706 9.06264C51.6512 8.89966 51.5673 8.74799 51.4583 8.61498L50.6847 9.24863ZM50.3628 8.34749C50.3628 8.67604 50.4765 8.99445 50.6847 9.24863L51.4583 8.61499C51.3965 8.53954 51.3628 8.44502 51.3628 8.34749H50.3628ZM50.3628 8.20607V8.34749H51.3628V8.20607H50.3628ZM50.3456 8.03939C50.357 8.09423 50.3628 8.15008 50.3628 8.20607H51.3628C51.3628 8.08162 51.35 7.9575 51.3246 7.83568L50.3456 8.03939ZM50.1025 6.87143L50.3456 8.03941L51.3246 7.83566L51.0815 6.66768L50.1025 6.87143ZM50.0472 6.3338C50.0472 6.51443 50.0657 6.69458 50.1025 6.87142L51.0816 6.66769C51.0587 6.55786 51.0472 6.44597 51.0472 6.3338H50.0472ZM50.0472 6.1343V6.3338H51.0472V6.1343H50.0472ZM49.6878 5.2905C49.9174 5.51115 50.0472 5.81585 50.0472 6.1343H51.0472C51.0472 5.54374 50.8065 4.97868 50.3807 4.56947L49.6878 5.2905ZM49.5082 5.1489C49.5726 5.19012 49.6327 5.23755 49.6878 5.29049L50.3807 4.56948C50.2785 4.47128 50.167 4.38333 50.0477 4.30688L49.5082 5.1489ZM49.231 4.9713L49.5082 5.1489L50.0477 4.30688L49.7704 4.12928L49.231 4.9713ZM48.3381 4.7098C48.6546 4.7098 48.9645 4.80055 49.231 4.97129L49.7704 4.12928C49.3429 3.85538 48.8458 3.7098 48.3381 3.7098V4.7098ZM48.2087 4.7098H48.3381V3.7098H48.2087V4.7098ZM47.6381 4.57983C47.8162 4.66538 48.0112 4.7098 48.2087 4.7098V3.7098C48.1611 3.7098 48.1141 3.6991 48.0712 3.67849L47.6381 4.57983ZM47.3716 4.45176L47.6381 4.57984L48.0712 3.67849L47.8047 3.55041L47.3716 4.45176ZM46.8913 3.68815C46.8913 4.01385 47.078 4.3107 47.3716 4.45176L47.8047 3.55042C47.8576 3.57586 47.8913 3.62941 47.8913 3.68815H46.8913ZM46.9086 3.75869C46.8972 3.7369 46.8913 3.7127 46.8913 3.68815H47.8913C47.8913 3.55203 47.8585 3.4179 47.7957 3.29713L46.9086 3.75869ZM46.79 3.53074L46.9086 3.75869L47.7957 3.29713L47.6771 3.06918L46.79 3.53074ZM46.5757 2.65481C46.5757 2.95976 46.6492 3.26022 46.79 3.53073L47.6771 3.06919C47.6105 2.94121 47.5757 2.79907 47.5757 2.65481H46.5757ZM46.5757 2.39407V2.65481H47.5757V2.39407H46.5757ZM46.5978 2.13793C46.5831 2.22251 46.5757 2.3082 46.5757 2.39407H47.5757C47.5757 2.3655 47.5782 2.33697 47.5831 2.30881L46.5978 2.13793ZM46.6256 1.97771L46.5978 2.13793L47.5831 2.3088L47.6109 2.14857L46.6256 1.97771ZM46.0789 1.52857C46.3737 1.41525 46.6795 1.66652 46.6256 1.9777L47.6109 2.14858C47.7975 1.07229 46.7397 0.20322 45.7201 0.595162L46.0789 1.52857ZM46.0054 1.56575C46.0286 1.5509 46.0532 1.53845 46.0789 1.52857L45.7201 0.595165C45.6313 0.629311 45.5461 0.672386 45.466 0.723731L46.0054 1.56575ZM44.1896 2.72909L46.0054 1.56575L45.466 0.723731L43.6501 1.88708L44.1896 2.72909ZM42.809 3.44136L44.1485 2.75276L43.6913 1.8634L42.3518 2.552L42.809 3.44136ZM41.3248 4.58546C41.7847 4.14351 42.2925 3.75424 42.8386 3.42484L42.3222 2.56852C41.7123 2.93631 41.1454 3.37097 40.6319 3.86443L41.3248 4.58546ZM41.1104 4.79155L41.3248 4.58546L40.6319 3.86443L40.4175 4.07052L41.1104 4.79155ZM40.3422 5.36659L41.0619 4.83256L40.466 4.02951L39.7463 4.56354L40.3422 5.36659ZM38.9263 6.19062C39.4274 5.96939 39.9023 5.69301 40.3422 5.3666L39.7463 4.56354C39.3661 4.84569 38.9556 5.08458 38.5225 5.27581L38.9263 6.19062ZM38.6557 6.31013L38.9263 6.19062L38.5225 5.27581L38.2518 5.39531L38.6557 6.31013ZM38.3115 6.49493C38.4213 6.42458 38.5364 6.3628 38.6557 6.31013L38.2518 5.39531C38.0855 5.46873 37.9251 5.55485 37.772 5.65292L38.3115 6.49493ZM36.4025 7.05399C37.0792 7.05399 37.7417 6.85997 38.3115 6.49493L37.772 5.65292C37.3633 5.9148 36.888 6.05399 36.4025 6.05399V7.05399ZM35.8723 7.05399H36.4025V6.05399H35.8723V7.05399ZM33.5261 7.74109C34.2264 7.29244 35.0406 7.05399 35.8723 7.05399V6.05399C34.8494 6.05399 33.8479 6.34727 32.9866 6.89908L33.5261 7.74109ZM33.3038 7.88354L33.5261 7.74109L32.9866 6.89908L32.7643 7.04152L33.3038 7.88354ZM32.498 8.51883C32.7452 8.28127 33.0151 8.06848 33.3038 7.88353L32.7643 7.04152C32.4207 7.26169 32.0994 7.515 31.8051 7.7978L32.498 8.51883ZM31.9583 9.03745L32.498 8.51883L31.8051 7.7978L31.2654 8.31642L31.9583 9.03745ZM31.7963 9.4179C31.7963 9.27432 31.8548 9.13694 31.9583 9.03745L31.2654 8.31643C30.9657 8.60447 30.7963 9.00221 30.7963 9.4179H31.7963ZM31.7963 11.7097V9.4179H30.7963V11.7097H31.7963ZM31.7963 12.817V11.7097H30.7963V12.817H31.7963ZM31.9287 13.3582C31.8417 13.1911 31.7963 13.0055 31.7963 12.817H30.7963C30.7963 13.1661 30.8804 13.5101 31.0415 13.8198L31.9287 13.3582ZM31.9992 13.4938L31.9287 13.3582L31.0415 13.8198L31.1121 13.9554L31.9992 13.4938ZM32.0461 13.5566C32.0272 13.5383 32.0114 13.5172 31.9992 13.4939L31.1121 13.9554C31.1744 14.0752 31.2559 14.184 31.3533 14.2776L32.0461 13.5566ZM32.4275 14.4518C32.4275 14.114 32.2898 13.7907 32.0462 13.5566L31.3532 14.2776C31.4007 14.3232 31.4275 14.3861 31.4275 14.4518H32.4275ZM32.4275 14.7425V14.4518H31.4275V14.7425H32.4275ZM32.4275 15.1947V14.7425H31.4275V15.1947H32.4275ZM31.7399 18.0061C32.1916 17.1378 32.4275 16.1735 32.4275 15.1947H31.4275C31.4275 16.0128 31.2303 16.8188 30.8527 17.5445L31.7399 18.0061ZM30.147 20.3491C30.7678 19.6332 31.3025 18.8468 31.7399 18.0061L30.8527 17.5445C30.4515 18.3157 29.961 19.0372 29.3915 19.694L30.147 20.3491ZM29.4649 21.1357L30.147 20.3491L29.3915 19.694L28.7094 20.4805L29.4649 21.1357ZM29.2716 21.5491C29.2716 21.4055 29.3301 21.2681 29.4336 21.1686L28.7407 20.4476C28.441 20.7356 28.2716 21.1334 28.2716 21.5491H29.2716ZM29.2716 23.1946V21.5491H28.2716V23.1946H29.2716ZM28.7769 25.2173C29.1019 24.5926 29.2716 23.8988 29.2716 23.1946H28.2716C28.2716 23.7381 28.1406 24.2736 27.8898 24.7557L28.7769 25.2173ZM28.2573 25.9984C28.4579 25.7573 28.6321 25.4955 28.7769 25.2173L27.8898 24.7557C27.7781 24.9704 27.6436 25.1726 27.4888 25.3586L28.2573 25.9984ZM28.069 26.2246L28.2573 25.9984L27.4888 25.3586L27.3004 25.5848L28.069 26.2246ZM25.8807 27.7927C26.7321 27.4655 27.4854 26.9256 28.069 26.2246L27.3004 25.5848C26.8261 26.1546 26.2138 26.5933 25.5219 26.8593L25.8807 27.7927ZM24.9725 28.0523C25.2823 27.9928 25.5862 27.9059 25.8807 27.7927L25.5219 26.8593C25.2826 26.9513 25.0355 27.0219 24.7837 27.0703L24.9725 28.0523ZM24.5475 28.134L24.9725 28.0523L24.7837 27.0703L24.3588 27.152L24.5475 28.134ZM23.3652 28.606C23.7258 28.375 24.127 28.2148 24.5475 28.134L24.3588 27.152C23.8136 27.2568 23.2933 27.4645 22.8258 27.764L23.3652 28.606ZM22.8479 29.0139C23.0066 28.8614 23.1799 28.7248 23.3652 28.606L22.8258 27.764C22.5854 27.918 22.3608 28.0951 22.155 28.2929L22.8479 29.0139ZM22.3681 29.475L22.8479 29.0139L22.155 28.2929L21.6752 28.7539L22.3681 29.475ZM22.087 29.8048C22.1695 29.6858 22.2637 29.5753 22.3681 29.475L21.6752 28.7539C21.523 28.9002 21.3857 29.0613 21.2653 29.2348L22.087 29.8048ZM21.6975 31.0494C21.6975 30.6046 21.8334 30.1703 22.087 29.8048L21.2653 29.2348C20.8956 29.7677 20.6975 30.4008 20.6975 31.0494H21.6975ZM21.6975 33.0081V31.0494H20.6975V33.0081H21.6975ZM21.9695 35.1339C21.7889 34.4397 21.6975 33.7254 21.6975 33.0081H20.6975C20.6975 33.8103 20.7998 34.6093 21.0017 35.3856L21.9695 35.1339ZM21.997 35.2396L21.9695 35.1339L21.0017 35.3856L21.0292 35.4913L21.997 35.2396ZM22.198 35.8143L21.9855 35.2016L21.0407 35.5293L21.2532 36.142L22.198 35.8143ZM22.4174 36.3236C22.332 36.1594 22.2587 35.9891 22.198 35.8143L21.2532 36.142C21.3298 36.3628 21.4224 36.5778 21.5303 36.7851L22.4174 36.3236ZM22.9599 38.5413C22.9599 37.7692 22.7738 37.0085 22.4174 36.3236L21.5303 36.7851C21.8125 37.3275 21.9599 37.9299 21.9599 38.5413H22.9599ZM22.9599 39.9146V38.5413H21.9599V39.9146H22.9599ZM22.9599 40.0534V39.9146H21.9599V40.0534H22.9599ZM21.6888 41.3245C22.3908 41.3245 22.9599 40.7554 22.9599 40.0534H21.9599C21.9599 40.2031 21.8385 40.3245 21.6888 40.3245V41.3245ZM21.1382 41.1991C21.31 41.2816 21.4982 41.3245 21.6888 41.3245V40.3245C21.6481 40.3245 21.608 40.3153 21.5714 40.2977L21.1382 41.1991ZM20.5059 40.8952L21.1382 41.1991L21.5713 40.2977L20.939 39.9939L20.5059 40.8952ZM19.5277 40.2502C19.8232 40.5083 20.1522 40.7253 20.5059 40.8952L20.939 39.9939C20.6666 39.863 20.4132 39.6959 20.1856 39.4971L19.5277 40.2502ZM16.8035 37.8702L19.5277 40.2502L20.1856 39.4971L17.4614 37.1171L16.8035 37.8702ZM16.1768 37.5172C16.4072 37.5909 16.6225 37.7121 16.8035 37.8702L17.4614 37.1171C17.1765 36.8682 16.8407 36.6798 16.4819 36.5648L16.1768 37.5172ZM15.1096 36.8805C15.4101 37.1693 15.7797 37.39 16.1768 37.5172L16.4819 36.5648C16.2302 36.4842 15.9932 36.3428 15.8025 36.1595L15.1096 36.8805ZM14.6693 36.5743C14.8299 36.6515 14.9801 36.7561 15.1096 36.8805L15.8025 36.1595C15.5975 35.9625 15.3598 35.7967 15.1023 35.673L14.6693 36.5743ZM14.4659 36.4766L14.6693 36.5743L15.1023 35.673L14.899 35.5753L14.4659 36.4766ZM14.134 36.2462C14.2317 36.3402 14.3438 36.4179 14.4659 36.4766L14.899 35.5753C14.8725 35.5625 14.8481 35.5456 14.8269 35.5252L14.134 36.2462ZM13.9415 36.1687C14.0132 36.1687 14.0822 36.1965 14.134 36.2462L14.8269 35.5252C14.5889 35.2965 14.2716 35.1687 13.9415 35.1687V36.1687ZM9.83642 36.1687H13.9415V35.1687H9.83642V36.1687ZM9.64295 36.1687H9.83642V35.1687H9.64295V36.1687ZM8.5432 35.726C8.83883 36.0101 9.23293 36.1687 9.64295 36.1687V35.1687C9.49127 35.1687 9.34548 35.11 9.23611 35.005L8.5432 35.726ZM8.13637 35.5622C8.28805 35.5622 8.43384 35.6209 8.54321 35.726L9.23611 35.005C8.94049 34.7209 8.54638 34.5622 8.13637 34.5622V35.5622ZM7.96941 35.5622H8.13637V34.5622H7.96941V35.5622ZM7.10242 35.3647C7.37296 35.4947 7.66926 35.5622 7.96941 35.5622V34.5622C7.8192 34.5622 7.67091 34.5284 7.53552 34.4633L7.10242 35.3647ZM6.7796 35.2096L7.10242 35.3647L7.53552 34.4633L7.21269 34.3082L6.7796 35.2096ZM5.66472 34.9556C6.05068 34.9556 6.43171 35.0424 6.7796 35.2096L7.21269 34.3082C6.72966 34.0761 6.20062 33.9556 5.66472 33.9556V34.9556ZM5.41821 34.9556H5.66472V33.9556H5.41821V34.9556ZM5.28025 34.9556H5.41821V33.9556H5.28025V34.9556ZM3.47883 35.4832C4.01651 35.1387 4.64169 34.9556 5.28025 34.9556V33.9556C4.45046 33.9556 3.63807 34.1935 2.93938 34.6412L3.47883 35.4832ZM2.96516 35.8804L3.51385 35.4586L2.90435 34.6658L2.35566 35.0876L2.96516 35.8804ZM2.13117 37.5736C2.13117 36.9103 2.43933 36.2847 2.96516 35.8804L2.35566 35.0876C1.58362 35.6812 1.13117 36.5997 1.13117 37.5736H2.13117ZM2.13117 37.8446V37.5736H1.13117V37.8446H2.13117ZM2.35758 38.5682C2.21017 38.3557 2.13117 38.1032 2.13117 37.8446H1.13117C1.13117 38.3069 1.27239 38.7583 1.53593 39.1382L2.35758 38.5682ZM2.76234 39.8618C2.76234 39.3994 2.62112 38.9481 2.35758 38.5682L1.53593 39.1382C1.68335 39.3507 1.76234 39.6031 1.76234 39.8618H2.76234ZM2.76234 40.7888V39.8618H1.76234V40.7888H2.76234ZM2.36061 42.7994C2.62581 42.1622 2.76234 41.4789 2.76234 40.7888H1.76234C1.76234 41.347 1.65191 41.8997 1.43739 42.4151L2.36061 42.7994ZM2.09278 43.4428L2.36061 42.7994L1.43739 42.4151L1.16956 43.0586L2.09278 43.4428ZM1.72352 44.1565L2.07473 43.4815L1.18762 43.0199L0.836406 43.695L1.72352 44.1565ZM1.5 45.0704C1.5 44.7522 1.57667 44.4388 1.72352 44.1565L0.836405 43.695C0.615393 44.1197 0.5 44.5915 0.5 45.0704H1.5ZM1.5 45.3875V45.0704H0.5V45.3875H1.5ZM1.57717 45.703C1.52647 45.6055 1.5 45.4973 1.5 45.3875H0.5C0.5 45.658 0.565193 45.9245 0.690056 46.1645L1.57717 45.703ZM1.88751 46.0036C1.75428 45.9396 1.64539 45.8341 1.57717 45.703L0.690057 46.1645C0.858088 46.4875 1.12628 46.7473 1.45441 46.9049L1.88751 46.0036ZM2.0021 46.0586L1.88751 46.0036L1.45442 46.9049L1.56901 46.96L2.0021 46.0586ZM2.42216 46.3502C2.2985 46.2313 2.15671 46.1329 2.00211 46.0586L1.56901 46.96C1.62798 46.9883 1.68208 47.0259 1.72926 47.0712L2.42216 46.3502ZM2.66138 46.4928C2.57181 46.4642 2.48998 46.4154 2.42216 46.3502L1.72926 47.0712C1.90703 47.242 2.12152 47.37 2.35632 47.4452L2.66138 46.4928ZM3.0611 46.6209L2.66138 46.4929L2.35631 47.4452L2.75602 47.5732L3.0611 46.6209ZM3.52469 46.6933C3.36734 46.6933 3.21094 46.6689 3.0611 46.6209L2.75602 47.5732C3.00448 47.6528 3.2638 47.6933 3.52469 47.6933V46.6933ZM4.12957 46.6933H3.52469V47.6933H4.12957V46.6933ZM5.0728 47.2658C4.88976 46.914 4.52614 46.6933 4.12957 46.6933V47.6933C4.15317 47.6933 4.1748 47.7065 4.18568 47.7274L5.0728 47.2658ZM5.12891 47.2999C5.10531 47.2999 5.08368 47.2868 5.0728 47.2658L4.18568 47.7274C4.36872 48.0792 4.73234 48.2999 5.12891 48.2999V47.2999ZM6.36497 47.2999H5.12891V48.2999H6.36497V47.2999ZM7.62732 47.2999H6.36497V48.2999H7.62732V47.2999ZM8.18699 47.2999H7.62732V48.2999H8.18699V47.2999ZM8.63027 47.1701C8.49796 47.2548 8.34412 47.2999 8.18699 47.2999V48.2999C8.53535 48.2999 8.8764 48.2 9.16972 48.0121L8.63027 47.1701ZM8.66147 47.1501L8.63026 47.1701L9.16973 48.0121L9.20095 47.9921L8.66147 47.1501ZM10.3686 47.0459C9.81996 46.7823 9.17397 46.8217 8.66148 47.1501L9.20094 47.9921C9.42145 47.8508 9.69941 47.8339 9.93546 47.9473L10.3686 47.0459ZM10.9997 47.3492L10.3686 47.0459L9.93546 47.9473L10.5666 48.2506L10.9997 47.3492ZM11.2364 47.4629L10.9997 47.3492L10.5666 48.2506L10.8033 48.3643L11.2364 47.4629ZM11.3949 47.4288C11.3374 47.4806 11.2739 47.4809 11.2364 47.4629L10.8033 48.3643C11.2384 48.5734 11.7332 48.4706 12.065 48.171L11.3949 47.4288ZM12.488 46.6194C12.2137 46.799 11.7251 47.1307 11.3949 47.4288L12.065 48.171C12.3315 47.9304 12.761 47.636 13.0358 47.456L12.488 46.6194ZM12.8451 46.3381C12.7392 46.4399 12.6182 46.5342 12.488 46.6194L13.0358 47.456C13.2103 47.3418 13.3813 47.2097 13.538 47.0591L12.8451 46.3381ZM14.0364 45.6262C13.5908 45.7689 13.181 46.0152 12.8451 46.3381L13.538 47.0591C13.7655 46.8405 14.043 46.6741 14.3415 46.5785L14.0364 45.6262ZM14.9706 45.4802C14.6535 45.4802 14.3384 45.5295 14.0364 45.6262L14.3415 46.5785C14.5448 46.5134 14.757 46.4802 14.9706 46.4802V45.4802ZM15.978 45.4802H14.9706V46.4802H15.978V45.4802ZM17.6469 46.3536C17.2674 45.8066 16.6438 45.4802 15.978 45.4802V46.4802C16.316 46.4802 16.6326 46.6459 16.8252 46.9236L17.6469 46.3536ZM17.9379 46.6341C17.8233 46.5607 17.7244 46.4654 17.6469 46.3536L16.8252 46.9236C16.978 47.1438 17.1728 47.3316 17.3984 47.4761L17.9379 46.6341ZM18.0001 46.674L17.9379 46.6341L17.3984 47.4761L17.4607 47.516L18.0001 46.674ZM19.0286 48.0912C18.8764 47.5062 18.5091 47.0001 18.0001 46.674L17.4607 47.516C17.7577 47.7063 17.972 48.0016 18.0608 48.343L19.0286 48.0912ZM19.0582 48.205L19.0286 48.0912L18.0608 48.343L18.0904 48.4568L19.0582 48.205ZM19.3068 48.7464C19.1927 48.5819 19.1086 48.3987 19.0582 48.205L18.0904 48.4568C18.1704 48.7643 18.304 49.0553 18.4852 49.3164L19.3068 48.7464ZM19.3809 48.8531L19.3068 48.7464L18.4851 49.3164L18.5592 49.4231L19.3809 48.8531ZM20.0671 49.5146C19.797 49.3416 19.5637 49.1167 19.3809 48.8531L18.5592 49.4231C18.8173 49.7951 19.1464 50.1124 19.5276 50.3566L20.0671 49.5146ZM20.2086 49.6053L20.0671 49.5146L19.5276 50.3566L19.6692 50.4473L20.2086 49.6053ZM20.8643 50.1223C20.6631 49.9289 20.4435 49.7558 20.2086 49.6053L19.6692 50.4473C19.8491 50.5626 20.0173 50.6952 20.1714 50.8433L20.8643 50.1223ZM21.0249 50.2766L20.8643 50.1223L20.1714 50.8433L20.3319 50.9976L21.0249 50.2766ZM21.3894 50.564C21.2588 50.4803 21.1367 50.384 21.0248 50.2766L20.3319 50.9976C20.4909 51.1503 20.6643 51.2871 20.8499 51.406L21.3894 50.564ZM21.567 50.6777L21.3894 50.564L20.8499 51.406L21.0275 51.5198L21.567 50.6777ZM22.4599 50.9392C22.1434 50.9392 21.8335 50.8485 21.567 50.6777L21.0275 51.5198C21.455 51.7937 21.9521 51.9392 22.4599 51.9392V50.9392ZM22.9459 51.792L22.9595 51.4597L21.9603 51.4188L21.9467 51.7512L22.9459 51.792ZM22.7893 51.0704C22.4536 51.0704 22.162 51.2558 22.01 51.5274L22.8826 52.0158C22.865 52.0473 22.8301 52.0704 22.7893 52.0704V51.0704ZM22.6941 51.1281C22.7126 51.0926 22.7493 51.0704 22.7893 51.0704V52.0704C23.1222 52.0704 23.4276 51.8851 23.5812 51.5897L22.6941 51.1281ZM22.8033 50.9182L22.6941 51.1281L23.5812 51.5897L23.6905 51.3798L22.8033 50.9182ZM23.2493 50.4302C23.0605 50.5511 22.9068 50.7194 22.8033 50.9182L23.6905 51.3798C23.7133 51.3359 23.7471 51.2989 23.7887 51.2722L23.2493 50.4302ZM23.5248 50.2537L23.2493 50.4302L23.7887 51.2722L24.0642 51.0957L23.5248 50.2537ZM24.8785 49.8573C24.3986 49.8573 23.9288 49.9948 23.5248 50.2537L24.0642 51.0957C24.3073 50.94 24.5898 50.8573 24.8785 50.8573V49.8573ZM26.0882 49.8573H24.8785V50.8573H26.0882V49.8573ZM29.7991 48.4646C28.7713 49.3625 27.4529 49.8573 26.0882 49.8573V50.8573C27.6949 50.8573 29.247 50.2747 30.457 49.2177L29.7991 48.4646ZM31.413 47.0546L29.7991 48.4646L30.457 49.2177L32.0709 47.8077L31.413 47.0546ZM31.4954 46.9499C31.4747 46.9896 31.4467 47.0251 31.413 47.0546L32.0709 47.8077C32.1986 47.6962 32.3042 47.5618 32.3825 47.4114L31.4954 46.9499ZM32.7013 46.2179C32.1942 46.2179 31.7294 46.5001 31.4954 46.9499L32.3825 47.4114C32.4443 47.2925 32.5672 47.2179 32.7013 47.2179V46.2179ZM33.442 46.2179H32.7013V47.2179H33.442V46.2179ZM34.0469 46.2179H33.442V47.2179H34.0469V46.2179ZM34.9901 46.7904C34.8071 46.4386 34.4435 46.2179 34.0469 46.2179V47.2179C34.0705 47.2179 34.0921 47.231 34.103 47.252L34.9901 46.7904ZM35.0023 46.8137L34.9901 46.7904L34.103 47.252L34.1151 47.2753L35.0023 46.8137ZM35.0199 46.8245C35.0125 46.8245 35.0057 46.8203 35.0022 46.8137L34.1151 47.2753C34.2907 47.6128 34.6395 47.8245 35.0199 47.8245V46.8245ZM35.6453 46.5193C35.4949 46.7119 35.2643 46.8245 35.0199 46.8245V47.8245C35.5723 47.8245 36.0938 47.5699 36.4336 47.1345L35.6453 46.5193ZM36.0829 45.9586L35.6453 46.5193L36.4336 47.1345L36.8712 46.5738L36.0829 45.9586ZM36.393 45.6147C36.2816 45.7218 36.1779 45.8367 36.0828 45.9586L36.8712 46.5738C36.937 46.4895 37.0088 46.4099 37.086 46.3358L36.393 45.6147ZM37.5138 44.5377L36.393 45.6147L37.086 46.3358L38.2067 45.2588L37.5138 44.5377ZM38.3799 43.9074L37.5679 44.4926L38.1526 45.3039L38.9646 44.7186L38.3799 43.9074ZM39.6776 43.4884C39.2118 43.4884 38.7578 43.635 38.3799 43.9073L38.9646 44.7186C39.1722 44.5689 39.4217 44.4884 39.6776 44.4884V43.4884ZM40.6389 43.7074C40.339 43.5632 40.0104 43.4884 39.6776 43.4884V44.4884C39.8605 44.4884 40.041 44.5295 40.2058 44.6087L40.6389 43.7074ZM41.3977 44.072L40.6389 43.7074L40.2058 44.6087L40.9646 44.9733L41.3977 44.072ZM42.9405 45.1443C42.4885 44.71 41.964 44.3441 41.3977 44.072L40.9646 44.9733C41.4339 45.1988 41.871 45.5035 42.2476 45.8653L42.9405 45.1443ZM43.4096 46.2458C43.4096 45.8301 43.2402 45.4323 42.9405 45.1443L42.2476 45.8653C42.3511 45.9648 42.4096 46.1022 42.4096 46.2458H43.4096ZM43.4096 51.2671V46.2458H42.4096V51.2671H43.4096ZM43.4096 51.5318V51.2671H42.4096V51.5318H43.4096ZM43.1954 52.4077C43.3361 52.1372 43.4096 51.8367 43.4096 51.5318H42.4096C42.4096 51.676 42.3748 51.8182 42.3082 51.9462L43.1954 52.4077ZM43.0768 52.6357L43.1954 52.4077L42.3083 51.9462L42.1897 52.1741L43.0768 52.6357ZM43.094 52.5651C43.094 52.5897 43.0881 52.6139 43.0768 52.6357L42.1897 52.1741C42.1268 52.2949 42.094 52.429 42.094 52.5651H43.094ZM43.0074 52.4274C43.0603 52.4528 43.094 52.5064 43.094 52.5651H42.094C42.094 52.8908 42.2807 53.1877 42.5743 53.3287L43.0074 52.4274ZM43.4417 52.6361L43.0074 52.4274L42.5743 53.3287L43.0086 53.5374L43.4417 52.6361ZM43.6966 52.7128L43.3777 52.6106L43.0727 53.5629L43.3916 53.6651L43.6966 52.7128ZM44.6962 52.7499C44.3659 52.8292 44.0201 52.8164 43.6966 52.7128L43.3916 53.6651C43.8894 53.8246 44.4215 53.8443 44.9298 53.7222L44.6962 52.7499ZM45.1462 52.6418L44.6962 52.7499L44.9298 53.7222L45.3798 53.6141L45.1462 52.6418ZM45.2149 52.6042C45.1957 52.6226 45.172 52.6356 45.1462 52.6418L45.3798 53.6141C45.5783 53.5664 45.7606 53.4667 45.9078 53.3252L45.2149 52.6042ZM46.0114 52.2835C45.7144 52.2835 45.429 52.3984 45.2149 52.6042L45.9078 53.3252C45.9356 53.2984 45.9728 53.2835 46.0114 53.2835V52.2835ZM46.1122 52.2835H46.0114V53.2835H46.1122V52.2835ZM47.5122 53.6835C47.5122 52.9103 46.8854 52.2835 46.1122 52.2835V53.2835C46.3331 53.2835 46.5122 53.4626 46.5122 53.6835H47.5122ZM47.5122 53.9966V53.6835H46.5122V53.9966H47.5122ZM47.0332 55.389C47.3436 54.9912 47.5122 54.5011 47.5122 53.9966H46.5122C46.5122 54.2782 46.4181 54.5517 46.2449 54.7737L47.0332 55.389ZM46.688 55.8313L47.0332 55.389L46.2449 54.7737L45.8997 55.216L46.688 55.8313ZM46.0226 56.4375C46.2771 56.2745 46.5021 56.0695 46.688 55.8312L45.8997 55.216C45.7833 55.3652 45.6425 55.4935 45.4832 55.5955L46.0226 56.4375ZM45.934 56.4943L46.0226 56.4376L45.4832 55.5955L45.3946 55.6523L45.934 56.4943ZM45.3788 57.1988C45.4795 56.9083 45.6751 56.6602 45.934 56.4943L45.3945 55.6523C44.9466 55.9393 44.6083 56.3686 44.434 56.8711L45.3788 57.1988ZM45.3031 57.6477C45.3031 57.4949 45.3287 57.3432 45.3788 57.1988L44.434 56.8711C44.3473 57.1209 44.3031 57.3834 44.3031 57.6477H45.3031ZM45.3031 58.2425V57.6477H44.3031V58.2425H45.3031ZM44.2749 60.6567C44.9318 60.0254 45.3031 59.1536 45.3031 58.2425H44.3031C44.3031 58.8815 44.0427 59.4929 43.582 59.9357L44.2749 60.6567ZM44.2028 60.726L44.2749 60.6567L43.582 59.9357L43.5099 60.005L44.2028 60.726ZM41.624 62.5908L44.1487 60.7711L43.564 59.9598L41.0393 61.7795L41.624 62.5908ZM40.9323 63.0893L41.624 62.5908L41.0393 61.7795L40.3476 62.2781L40.9323 63.0893ZM39.3659 63.595C39.9282 63.595 40.4762 63.4181 40.9323 63.0893L40.3476 62.2781C40.0617 62.4841 39.7183 62.595 39.3659 62.595V63.595ZM38.0764 63.2642C38.4716 63.4812 38.9151 63.595 39.3659 63.595V62.595C39.0834 62.595 38.8054 62.5237 38.5577 62.3877L38.0764 63.2642ZM37.1871 62.7758L38.0764 63.2642L38.5577 62.3877L37.6684 61.8993L37.1871 62.7758ZM35.6511 62.3819C36.1881 62.3819 36.7164 62.5174 37.1871 62.7758L37.6684 61.8993C37.0502 61.5598 36.3564 61.3819 35.6511 61.3819V62.3819ZM34.653 62.3819H35.6511V61.3819H34.653V62.3819ZM34.2236 62.4227C34.3651 62.3956 34.5089 62.3819 34.653 62.3819V61.3819C34.4456 61.3819 34.2386 61.4016 34.0349 61.4407L34.2236 62.4227ZM33.203 62.6189L34.2236 62.4227L34.0349 61.4407L33.0143 61.6369L33.203 62.6189ZM33.1144 62.6849C33.1323 62.6505 33.1649 62.6262 33.203 62.6189L33.0143 61.6369C32.6761 61.7019 32.3862 61.9179 32.2273 62.2234L33.1144 62.6849ZM32.1148 63.2917C32.5351 63.2917 32.9204 63.0578 33.1144 62.6849L32.2273 62.2234C32.2055 62.2654 32.1621 62.2917 32.1148 62.2917V63.2917ZM31.7363 63.2917H32.1148V62.2917H31.7363V63.2917ZM30.5235 62.8034C30.8495 63.1167 31.2841 63.2917 31.7363 63.2917V62.2917C31.5425 62.2917 31.3561 62.2167 31.2164 62.0824L30.5235 62.8034ZM30.4349 62.7182L30.5235 62.8034L31.2164 62.0824L31.1278 61.9972L30.4349 62.7182ZM30.1607 62.5279C30.2616 62.5764 30.3542 62.6407 30.4349 62.7183L31.1278 61.9972C30.9706 61.8461 30.7903 61.721 30.5937 61.6266L30.1607 62.5279ZM29.754 62.3325L30.1607 62.5279L30.5937 61.6266L30.1871 61.4312L29.754 62.3325ZM29.0544 61.8887L29.7008 62.3029L30.2403 61.4609L29.5938 61.0467L29.0544 61.8887ZM28.4156 61.1897C28.5638 61.4745 28.784 61.7155 29.0544 61.8887L29.5938 61.0467C29.4706 60.9678 29.3703 60.8579 29.3027 60.7281L28.4156 61.1897ZM28.2082 60.3416C28.2082 60.6369 28.2794 60.9278 28.4156 61.1897L29.3027 60.7281C29.2406 60.6088 29.2082 60.4762 29.2082 60.3416H28.2082ZM28.2082 59.4556V60.3416H29.2082V59.4556H28.2082ZM28.2082 59.1524V59.4556H29.2082V59.1524H28.2082ZM28.3536 59.314C28.2709 59.3052 28.2082 59.2355 28.2082 59.1524H29.2082C29.2082 58.7243 28.8854 58.3651 28.4597 58.3197L28.3536 59.314ZM26.1518 59.0789L28.3535 59.314L28.4597 58.3197L26.258 58.0846L26.1518 59.0789ZM25.3129 58.784C25.5659 58.9461 25.8531 59.047 26.1518 59.0789L26.258 58.0846C26.1135 58.0692 25.9746 58.0203 25.8523 57.942L25.3129 58.784ZM24.4212 57.1537C24.4212 57.8136 24.7572 58.428 25.3129 58.784L25.8523 57.942C25.5837 57.7699 25.4212 57.4728 25.4212 57.1537H24.4212ZM24.4212 55.513V57.1537H25.4212V55.513H24.4212ZM23.8845 54.6598C24.2125 54.8174 24.4212 55.1491 24.4212 55.513H25.4212C25.4212 54.7646 24.9922 54.0826 24.3176 53.7584L23.8845 54.6598ZM23.6985 54.5704L23.8845 54.6598L24.3176 53.7584L24.1316 53.669L23.6985 54.5704ZM23.1074 54.1602C23.2814 54.3274 23.4809 54.4659 23.6985 54.5704L24.1316 53.669C24.0097 53.6105 23.8979 53.5329 23.8003 53.4392L23.1074 54.1602ZM22.7837 53.849L23.1074 54.1602L23.8004 53.4392L23.4766 53.128L22.7837 53.849ZM22.683 53.7792C22.7201 53.797 22.754 53.8206 22.7837 53.849L23.4766 53.128C23.3704 53.026 23.2488 52.9416 23.1161 52.8778L22.683 53.7792ZM21.9163 52.7626C21.9913 53.2009 22.2736 53.5825 22.683 53.7792L23.1161 52.8778C23.0019 52.823 22.9229 52.7164 22.902 52.5941L21.9163 52.7626ZM22.8961 53.0089L22.9088 52.6988L21.9096 52.6579L21.8969 52.968L22.8961 53.0089ZM21.8084 53.6914L22.5429 53.4665L22.2501 52.5103L21.5156 52.7352L21.8084 53.6914ZM21.5893 53.777C21.6601 53.743 21.7333 53.7144 21.8084 53.6914L21.5156 52.7352C21.3925 52.7729 21.2723 52.8199 21.1562 52.8757L21.5893 53.777ZM20.9824 54.2946C21.1365 54.0725 21.3456 53.8941 21.5893 53.777L21.1562 52.8757C20.7565 53.0677 20.4135 53.3602 20.1607 53.7246L20.9824 54.2946ZM20.6616 54.757L20.9824 54.2946L20.1607 53.7246L19.8399 54.187L20.6616 54.757ZM20.4724 55.1294L20.6943 54.7028L19.8072 54.2412L19.5853 54.6679L20.4724 55.1294ZM20.368 55.4008C20.3925 55.3067 20.4275 55.2157 20.4724 55.1294L19.5853 54.6679C19.5057 54.8208 19.4436 54.9822 19.4002 55.149L20.368 55.4008ZM20.1896 56.0867L20.368 55.4008L19.4002 55.149L19.2218 55.835L20.1896 56.0867ZM20.2125 56.1681C20.1907 56.1471 20.1819 56.116 20.1896 56.0867L19.2218 55.835C19.1231 56.2144 19.237 56.6175 19.5196 56.8891L20.2125 56.1681ZM20.423 56.4492C20.3686 56.3447 20.2975 56.2497 20.2125 56.1681L19.5196 56.8891C19.5262 56.8954 19.5317 56.9027 19.5359 56.9108L20.423 56.4492ZM20.6943 56.9708L20.423 56.4492L19.5359 56.9108L19.8072 57.4323L20.6943 56.9708ZM21.1378 57.6031L20.6616 56.9165L19.8399 57.4865L20.3162 58.1731L21.1378 57.6031ZM21.3435 57.7784C21.2609 57.7387 21.1901 57.6783 21.1378 57.6031L20.3162 58.1731C20.4671 58.3905 20.6718 58.5651 20.9104 58.6797L21.3435 57.7784ZM22.1259 58.6556C21.9924 58.2706 21.7107 57.9549 21.3435 57.7784L20.9104 58.6797C21.0375 58.7408 21.1349 58.8501 21.1811 58.9833L22.1259 58.6556ZM22.2102 58.8985L22.1259 58.6556L21.1811 58.9833L21.2654 59.2262L22.2102 58.8985ZM22.3287 59.602C22.3287 59.3625 22.2886 59.1247 22.2102 58.8985L21.2654 59.2262C21.3073 59.347 21.3287 59.474 21.3287 59.602H22.3287ZM22.3287 60.5376V59.602H21.3287V60.5376H22.3287ZM21.5877 61.8924C22.0494 61.5966 22.3287 61.086 22.3287 60.5376H21.3287C21.3287 60.7451 21.223 60.9384 21.0482 61.0504L21.5877 61.8924ZM21.2957 62.0794L21.5877 61.8924L21.0482 61.0504L20.7563 61.2374L21.2957 62.0794ZM21.105 62.2298C21.1635 62.1736 21.2274 62.1232 21.2957 62.0794L20.7563 61.2374C20.633 61.3164 20.5177 61.4073 20.4121 61.5088L21.105 62.2298ZM20.6603 62.6572L21.105 62.2298L20.4121 61.5088L19.9674 61.9361L20.6603 62.6572ZM19.7679 63.3661C20.087 63.1583 20.3858 62.921 20.6603 62.6572L19.9674 61.9361C19.7382 62.1564 19.4887 62.3546 19.2223 62.5281L19.7679 63.3661ZM18.4615 64.2167L19.7679 63.3661L19.2223 62.5281L17.9159 63.3787L18.4615 64.2167ZM18.2544 64.4819C18.2921 64.3729 18.3649 64.2796 18.4615 64.2167L17.9159 63.3787C17.6329 63.563 17.4194 63.8364 17.3092 64.1556L18.2544 64.4819ZM18.2261 64.651C18.2261 64.5935 18.2357 64.5363 18.2544 64.4819L17.3092 64.1556C17.2542 64.315 17.2261 64.4824 17.2261 64.651H18.2261ZM18.2261 65.9656V64.651H17.2261V65.9656H18.2261ZM20.2816 70.7918C18.9683 69.5298 18.2261 67.787 18.2261 65.9656H17.2261C17.2261 68.0591 18.0792 70.0622 19.5887 71.5129L20.2816 70.7918ZM20.325 70.8335L20.2816 70.7918L19.5887 71.5129L19.6321 71.5545L20.325 70.8335ZM20.5201 72.0214C20.7258 71.626 20.6463 71.1423 20.325 70.8335L19.6321 71.5545C19.6335 71.5559 19.6339 71.558 19.6329 71.5598L20.5201 72.0214ZM19.629 72.5622C20.0036 72.5622 20.3471 72.3537 20.5201 72.0213L19.6329 71.5598C19.6322 71.5613 19.6307 71.5622 19.629 71.5622V72.5622ZM17.0949 72.5622H19.629V71.5622H17.0949V72.5622ZM14.5106 72.2553L17.0353 72.5586L17.1545 71.5658L14.6298 71.2625L14.5106 72.2553ZM13.5625 72.031L14.4534 72.2451L14.687 71.2727L13.7961 71.0587L13.5625 72.031ZM12.9259 71.9556C13.1403 71.9556 13.354 71.9809 13.5625 72.031L13.7961 71.0587C13.5111 70.9902 13.219 70.9556 12.9259 70.9556V71.9556ZM10.8316 72.9372C11.3493 72.3153 12.1167 71.9556 12.9259 71.9556V70.9556C11.8197 70.9556 10.7707 71.4473 10.063 72.2974L10.8316 72.9372ZM10.5363 73.2919L10.8316 72.9372L10.063 72.2974L9.76773 72.6521L10.5363 73.2919ZM8.7979 74.9668L10.4985 73.3325L9.80555 72.6115L8.105 74.2457L8.7979 74.9668ZM8.51676 75.2966C8.59931 75.1776 8.69348 75.0671 8.7979 74.9668L8.105 74.2457C7.95277 74.392 7.81546 74.5531 7.69511 74.7266L8.51676 75.2966ZM8.12732 76.5412C8.12732 76.0964 8.26319 75.6621 8.51676 75.2966L7.69511 74.7266C7.32542 75.2595 7.12732 75.8926 7.12732 76.5412H8.12732ZM8.12732 76.6114V76.5412H7.12732V76.6114H8.12732ZM8.12732 76.9911V76.6114H7.12732V76.9911H8.12732ZM8.17402 77.2683C8.1431 77.1792 8.12732 77.0855 8.12732 76.9911H7.12732C7.12732 77.197 7.16177 77.4015 7.22924 77.596L8.17402 77.2683ZM8.77558 77.8136C8.49523 77.7462 8.2685 77.5407 8.17402 77.2683L7.22924 77.596C7.43543 78.1905 7.9302 78.6389 8.54196 78.7859L8.77558 77.8136ZM9.32205 77.9449L8.77557 77.8136L8.54197 78.7859L9.08845 78.9172L9.32205 77.9449ZM10.9842 78.2096L9.28432 77.9373L9.12617 78.9248L10.8261 79.197L10.9842 78.2096ZM11.438 78.318C11.2897 78.2705 11.138 78.2342 10.9842 78.2096L10.8261 79.197C10.9301 79.2137 11.0327 79.2382 11.133 79.2703L11.438 78.318ZM12.9307 79.3591C12.549 78.87 12.0289 78.5072 11.438 78.318L11.133 79.2703C11.5325 79.3983 11.8842 79.6436 12.1424 79.9744L12.9307 79.3591ZM15.1583 82.2134L12.9307 79.3591L12.1424 79.9744L14.3699 82.8286L15.1583 82.2134ZM15.3749 82.4535C15.2971 82.3787 15.2247 82.2985 15.1583 82.2134L14.3699 82.8286C14.4656 82.9512 14.5699 83.0668 14.682 83.1745L15.3749 82.4535ZM15.6872 82.7537L15.3749 82.4535L14.682 83.1745L14.9943 83.4747L15.6872 82.7537ZM16.5146 83.0868C16.2061 83.0868 15.9096 82.9674 15.6872 82.7537L14.9943 83.4747C15.403 83.8674 15.9478 84.0868 16.5146 84.0868V83.0868ZM16.8789 83.0299C16.7611 83.0676 16.6382 83.0868 16.5146 83.0868V84.0868C16.7418 84.0868 16.9676 84.0515 17.1839 83.9822L16.8789 83.0299ZM17.5735 82.8073L16.8789 83.0299L17.1839 83.9822L17.8786 83.7597L17.5735 82.8073ZM17.97 82.7275L17.6317 82.7925L17.8205 83.7745L18.1587 83.7095L17.97 82.7275ZM20.5664 82.4802C19.695 82.4802 18.8257 82.563 17.97 82.7275L18.1587 83.7095C18.9522 83.557 19.7584 83.4802 20.5664 83.4802V82.4802ZM21.4908 82.4802H20.5664V83.4802H21.4908V82.4802ZM22.4188 82.8539C22.1693 82.6141 21.8368 82.4802 21.4908 82.4802V83.4802C21.5784 83.4802 21.6627 83.5141 21.7259 83.5749L22.4188 82.8539ZM22.7561 84.2584C22.9275 83.7645 22.7957 83.2161 22.4188 82.8539L21.7259 83.5749C21.8214 83.6666 21.8548 83.8056 21.8114 83.9307L22.7561 84.2584ZM22.7028 84.4123L22.7561 84.2584L21.8114 83.9307L21.758 84.0846L22.7028 84.4123ZM22.3014 85.0391C22.4828 84.8648 22.6203 84.65 22.7028 84.4123L21.758 84.0846C21.7273 84.1732 21.676 84.2532 21.6085 84.3181L22.3014 85.0391ZM20.1127 87.1425L22.3014 85.0391L21.6084 84.3181L19.4198 86.4214L20.1127 87.1425ZM19.1728 89.3491C19.1728 88.5163 19.5122 87.7195 20.1127 87.1425L19.4198 86.4214C18.6231 87.187 18.1728 88.2442 18.1728 89.3491H19.1728ZM20.0634 91.6501C19.4904 91.0207 19.1728 90.2002 19.1728 89.3491H18.1728C18.1728 90.4493 18.5833 91.5098 19.324 92.3233L20.0634 91.6501ZM21.2516 92.9551L20.0634 91.6501L19.324 92.3233L20.5122 93.6283L21.2516 92.9551ZM22.5286 94.4882L21.2662 92.9718L20.4977 93.6116L21.76 95.128L22.5286 94.4882ZM23.7909 96.0046L22.5286 94.4882L21.76 95.128L23.0224 96.6444L23.7909 96.0046ZM25.6733 98.1146L23.7798 95.9917L23.0335 96.6573L24.927 98.7802L25.6733 98.1146ZM26.7593 99.4187L25.6844 98.1275L24.9159 98.7673L25.9907 100.058L26.7593 99.4187ZM27.1309 100.077C27.0477 99.8369 26.9218 99.6139 26.7593 99.4187L25.9907 100.058C26.0762 100.161 26.1424 100.278 26.1862 100.405L27.1309 100.077ZM27.2022 100.282L27.1309 100.077L26.1862 100.405L26.2574 100.61L27.2022 100.282ZM27.5026 100.619C27.3616 100.551 27.2534 100.43 27.2021 100.282L26.2574 100.61C26.396 101.009 26.6883 101.337 27.0695 101.52L27.5026 100.619ZM27.7569 100.677C27.6689 100.677 27.5819 100.657 27.5026 100.619L27.0695 101.52C27.284 101.623 27.5189 101.677 27.7569 101.677V100.677ZM32.5113 100.677H27.7569V101.677H32.5113V100.677ZM34.2996 100.397C33.7216 100.583 33.1183 100.677 32.5113 100.677V101.677C33.2218 101.677 33.928 101.567 34.6047 101.35L34.2996 100.397ZM35.2013 100.179L34.3354 100.387L34.569 101.36L35.4349 101.152L35.2013 100.179ZM36.1222 100.07C35.812 100.07 35.5029 100.107 35.2013 100.179L35.4349 101.152C35.66 101.098 35.8907 101.07 36.1222 101.07V100.07ZM37.9154 99.4607C37.4012 99.8561 36.7708 100.07 36.1222 100.07V101.07C36.9913 101.07 37.836 100.783 38.5249 100.254L37.9154 99.4607ZM39.1588 98.5048L37.9154 99.4607L38.5249 100.254L39.7683 99.2976L39.1588 98.5048ZM41.6904 97.6441C40.7747 97.6441 39.8848 97.9467 39.1588 98.5048L39.7683 99.2976C40.3195 98.8739 40.9952 98.6441 41.6904 98.6441V97.6441ZM44.2867 98.5556C43.5499 97.9656 42.6342 97.6441 41.6904 97.6441V98.6441C42.407 98.6441 43.1022 98.8882 43.6616 99.3362L44.2867 98.5556ZM45.1791 99.2703L44.2867 98.5556L43.6616 99.3362L44.554 100.051L45.1791 99.2703ZM48.3039 101.773L45.1791 99.2703L44.554 100.051L47.6788 102.553L48.3039 101.773ZM49.5952 102.405C49.1235 102.292 48.6826 102.076 48.3039 101.773L47.6788 102.553C48.1723 102.949 48.7469 103.23 49.3616 103.378L49.5952 102.405ZM49.8577 102.468L49.5952 102.405L49.3616 103.378L49.6242 103.441L49.8577 102.468ZM50.0958 102.497C50.0156 102.497 49.9357 102.487 49.8578 102.468L49.6241 103.441C49.7786 103.478 49.9369 103.497 50.0958 103.497V102.497ZM50.6522 102.331C50.4866 102.439 50.2933 102.497 50.0958 102.497V103.497C50.4872 103.497 50.8702 103.383 51.1981 103.169L50.6522 102.331ZM53.8575 100.243L50.6521 102.331L51.1981 103.169L54.4035 101.08L53.8575 100.243ZM54.1642 99.9434C54.0825 100.062 53.9783 100.164 53.8575 100.243L54.4035 101.08C54.6339 100.93 54.8326 100.736 54.9884 100.51L54.1642 99.9434ZM55.5644 99.0582C54.9962 99.1492 54.4901 99.4692 54.1642 99.9434L54.9884 100.51C55.1593 100.261 55.4246 100.093 55.7225 100.046L55.5644 99.0582ZM56.3662 98.9298L55.5644 99.0582L55.7225 100.046L56.5243 99.9172L56.3662 98.9298ZM56.8143 98.7066C56.6912 98.8249 56.5348 98.9028 56.3662 98.9298L56.5243 99.9172C56.8942 99.858 57.2371 99.6871 57.5072 99.4276L56.8143 98.7066ZM57.0625 98.2256C57.0353 98.4089 56.948 98.5781 56.8143 98.7066L57.5072 99.4276C57.8004 99.1458 57.9919 98.7748 58.0517 98.3726L57.0625 98.2256ZM57.103 97.9536L57.0625 98.2256L58.0517 98.3726L58.0921 98.1007L57.103 97.9536ZM59.1712 96.0061C58.1143 96.0988 57.259 96.9042 57.103 97.9536L58.0921 98.1007C58.1801 97.5088 58.6625 97.0545 59.2586 97.0023L59.1712 96.0061ZM59.4282 95.957C59.3444 95.982 59.2583 95.9984 59.1712 96.0061L59.2586 97.0023C59.413 96.9887 59.5656 96.9596 59.7141 96.9152L59.4282 95.957ZM60.147 95.7425L59.4282 95.957L59.7141 96.9152L60.433 96.7007L60.147 95.7425ZM60.95 95.1605C60.7561 95.4399 60.4729 95.6452 60.147 95.7425L60.433 96.7007C60.9763 96.5385 61.4484 96.1964 61.7717 95.7304L60.95 95.1605ZM61.1859 94.6114C61.1449 94.8084 61.0647 94.9951 60.95 95.1605L61.7717 95.7304C61.9628 95.4548 62.0966 95.1436 62.1649 94.8152L61.1859 94.6114ZM61.321 93.9623L61.1859 94.6114L62.1649 94.8152L62.3 94.166L61.321 93.9623ZM62.1236 92.9367C61.711 93.135 61.4143 93.5141 61.321 93.9623L62.3 94.166C62.3299 94.0227 62.4248 93.9015 62.5567 93.8381L62.1236 92.9367ZM62.7603 92.7917C62.5399 92.7917 62.3223 92.8413 62.1236 92.9367L62.5567 93.8381C62.6203 93.8075 62.6899 93.7917 62.7603 93.7917V92.7917ZM65.3543 92.7917H62.7603V93.7917H65.3543V92.7917ZM66.8306 93.3861C66.4338 93.0047 65.9047 92.7917 65.3543 92.7917V93.7917C65.6464 93.7917 65.9271 93.9047 66.1377 94.1071L66.8306 93.3861ZM67.6141 93.7015C67.322 93.7015 67.0412 93.5885 66.8306 93.3861L66.1377 94.1071C66.5346 94.4885 67.0637 94.7015 67.6141 94.7015V93.7015ZM67.8553 93.7015H67.6141V94.7015H67.8553V93.7015ZM68.8208 93.407C68.5354 93.599 68.1992 93.7015 67.8553 93.7015V94.7015C68.3981 94.7015 68.9286 94.5397 69.3789 94.2367L68.8208 93.407ZM71.4123 91.6637L68.8208 93.407L69.3789 94.2367L71.9704 92.4935L71.4123 91.6637ZM72.3432 90.9924L71.399 91.673L71.9837 92.4842L72.928 91.8036L72.3432 90.9924ZM72.7664 90.5616C72.6508 90.7282 72.5077 90.8738 72.3433 90.9924L72.928 91.8036C73.1845 91.6187 73.4077 91.3914 73.588 91.1316L72.7664 90.5616ZM73.0849 89.5437C73.0849 89.9075 72.9737 90.2626 72.7664 90.5616L73.588 91.1316C73.9115 90.6653 74.0849 90.1112 74.0849 89.5437H73.0849ZM73.0849 88.7425V89.5437H74.0849V88.7425H73.0849ZM73.0849 87.8637V88.7425H74.0849V87.8637H73.0849ZM73.4203 87.0761C73.206 87.2821 73.0849 87.5665 73.0849 87.8637H74.0849C74.0849 87.8386 74.0951 87.8146 74.1132 87.7972L73.4203 87.0761ZM74.0045 86.7851C73.7847 86.8203 73.5808 86.9219 73.4203 87.0761L74.1132 87.7971C74.1268 87.7841 74.144 87.7755 74.1626 87.7726L74.0045 86.7851ZM75.2641 86.5834L74.0045 86.7851L74.1626 87.7726L75.4223 87.5708L75.2641 86.5834ZM76.4481 86.8301C76.0971 86.6053 75.6757 86.5175 75.2641 86.5834L75.4223 87.5708C75.5913 87.5437 75.7645 87.5798 75.9087 87.6722L76.4481 86.8301ZM76.5661 86.9057L76.4481 86.8302L75.9086 87.6722L76.0266 87.7477L76.5661 86.9057ZM76.9999 86.9322C76.8605 86.9992 76.6963 86.9892 76.5661 86.9057L76.0266 87.7478C76.4488 88.0182 76.981 88.0507 77.433 87.8336L76.9999 86.9322ZM77.1294 86.8381C77.0922 86.877 77.0483 86.9089 76.9999 86.9322L77.433 87.8336C77.5901 87.758 77.7323 87.6547 77.8527 87.5286L77.1294 86.8381ZM77.957 85.9711L77.1293 86.8381L77.8527 87.5286L78.6804 86.6615L77.957 85.9711ZM78.3661 85.5773L77.9722 85.9558L78.6651 86.6768L79.059 86.2983L78.3661 85.5773ZM79.2789 85.2097C78.9386 85.2097 78.6115 85.3414 78.3661 85.5773L79.059 86.2983C79.1181 86.2415 79.1969 86.2097 79.2789 86.2097V85.2097ZM79.5842 84.979C79.5455 85.1155 79.4208 85.2097 79.2789 85.2097V86.2097C79.868 86.2097 80.3854 85.8187 80.5462 85.252L79.5842 84.979ZM80.3532 82.2699L79.5842 84.979L80.5462 85.2521L81.3152 82.5429L80.3532 82.2699ZM80.3625 82.2372L80.3532 82.2699L81.3152 82.5429L81.3245 82.5101L80.3625 82.2372ZM23.8521 51.1411L24.1276 50.9646L23.5882 50.1226L23.3127 50.2991L23.8521 51.1411ZM24.9419 50.7261H26.1516V49.7261H24.9419V50.7261ZM30.5204 49.0865L32.1343 47.6766L31.4764 46.9235L29.8625 48.3335L30.5204 49.0865ZM32.7646 47.0868H33.5054V46.0868H32.7646V47.0868ZM33.5054 47.0868H34.1103V46.0868H33.5054V47.0868ZM34.1664 47.1208L34.1785 47.1442L35.0656 46.6826L35.0535 46.6593L34.1664 47.1208ZM36.497 47.0034L36.9346 46.4427L36.1462 45.8274L35.7087 46.3881L36.497 47.0034ZM37.1493 46.2046L38.2701 45.1276L37.5772 44.4066L36.4564 45.4836L37.1493 46.2046ZM38.216 45.1727L39.028 44.5875L38.4433 43.7762L37.6313 44.3615L38.216 45.1727ZM40.2692 44.4776L41.028 44.8422L41.4611 43.9408L40.7023 43.5762L40.2692 44.4776ZM42.473 46.1146V51.136H43.473V46.1146H42.473ZM42.473 51.136V51.4006H43.473V51.136H42.473ZM42.3716 51.815L42.355 51.8471L43.2421 52.3086L43.2588 52.2766L42.3716 51.815ZM42.6377 53.1976L43.072 53.4063L43.5051 52.505L43.0708 52.2963L42.6377 53.1976ZM43.136 53.4318L43.455 53.534L43.76 52.5816L43.4411 52.4795L43.136 53.4318ZM44.9932 53.5911L45.4432 53.483L45.2096 52.5106L44.7596 52.6187L44.9932 53.5911ZM46.0748 53.1524H46.1756V52.1524H46.0748V53.1524ZM46.5756 53.5523V53.8655H47.5756V53.5523H46.5756ZM44.3665 57.5166V58.1114H45.3665V57.5166H44.3665ZM22.7517 52.5902L22.5779 52.5225L22.215 53.4543L22.3888 53.522L22.7517 52.5902ZM22.4599 51.9392H22.616V50.9392H22.4599V51.9392ZM45.9712 53.1941C45.999 53.1673 46.0361 53.1524 46.0748 53.1524V52.1524C45.7778 52.1524 45.4924 52.2673 45.2782 52.473L45.9712 53.1941ZM43.455 53.534C43.9528 53.6934 44.4849 53.7132 44.9932 53.5911L44.7596 52.6187C44.4293 52.6981 44.0835 52.6853 43.76 52.5816L43.455 53.534ZM41.028 44.8422C41.4973 45.0677 41.9344 45.3723 42.311 45.7342L43.0039 45.0131C42.5519 44.5789 42.0274 44.2129 41.4611 43.9408L41.028 44.8422ZM36.9346 46.4427C37.0004 46.3583 37.0722 46.2788 37.1493 46.2046L36.4564 45.4836C36.345 45.5907 36.2413 45.7056 36.1462 45.8274L36.9346 46.4427ZM35.0833 47.6933C35.6357 47.6933 36.1572 47.4388 36.497 47.0034L35.7087 46.3881C35.5583 46.5807 35.3277 46.6933 35.0833 46.6933V47.6933ZM23.7539 51.2486C23.7766 51.2048 23.8105 51.1677 23.8521 51.1411L23.3127 50.2991C23.1239 50.42 22.9702 50.5882 22.8667 50.7871L23.7539 51.2486ZM22.8667 50.7871C22.8181 50.8806 22.7214 50.9392 22.616 50.9392V51.9392C23.0944 51.9392 23.5331 51.673 23.7539 51.2486L22.8667 50.7871ZM44.4974 56.74C44.4107 56.9898 44.3665 57.2522 44.3665 57.5166H45.3665C45.3665 57.3638 45.3921 57.2121 45.4422 57.0677L44.4974 56.74ZM44.5642 56.569C44.5398 56.625 44.5175 56.682 44.4974 56.74L45.4422 57.0677C45.4538 57.0342 45.4667 57.0012 45.4808 56.9689L44.5642 56.569ZM46.5756 53.8655C46.5756 54.0746 46.5237 54.2792 46.426 54.4617L47.3076 54.9337C47.4826 54.6069 47.5756 54.2402 47.5756 53.8655H46.5756ZM45.4432 53.483C45.6417 53.4353 45.8239 53.3355 45.9712 53.1941L45.2782 52.473C45.2591 52.4915 45.2354 52.5044 45.2096 52.5106L45.4432 53.483ZM42.1574 52.434C42.1574 52.7597 42.3441 53.0565 42.6377 53.1976L43.0708 52.2963C43.1237 52.3217 43.1574 52.3752 43.1574 52.434H42.1574ZM42.201 52.1656C42.1722 52.2518 42.1574 52.3425 42.1574 52.434H43.1574C43.1574 52.4505 43.1547 52.4668 43.1495 52.4824L42.201 52.1656ZM42.3109 45.7342C42.4145 45.8337 42.473 45.971 42.473 46.1146H43.473C43.473 45.6989 43.3036 45.3012 43.0039 45.0131L42.3109 45.7342ZM39.741 44.3573C39.9239 44.3573 40.1044 44.3984 40.2692 44.4776L40.7023 43.5762C40.4023 43.4321 40.0738 43.3573 39.741 43.3573V44.3573ZM39.028 44.5875C39.2356 44.4378 39.4851 44.3573 39.741 44.3573V43.3573C39.2752 43.3573 38.8212 43.5038 38.4433 43.7762L39.028 44.5875ZM34.1785 47.1442C34.3541 47.4816 34.7029 47.6933 35.0833 47.6933V46.6933C35.0759 46.6933 35.0691 46.6892 35.0656 46.6826L34.1785 47.1442ZM32.4459 47.2803C32.5077 47.1614 32.6306 47.0868 32.7646 47.0868V46.0868C32.2576 46.0868 31.7928 46.3689 31.5588 46.8187L32.4459 47.2803ZM46.1756 53.1524C46.3965 53.1524 46.5756 53.3314 46.5756 53.5523H47.5756C47.5756 52.7791 46.9488 52.1524 46.1756 52.1524V53.1524ZM26.1516 50.7261C27.7583 50.7261 29.3104 50.1436 30.5204 49.0865L29.8625 48.3335C28.8347 49.2313 27.5163 49.7261 26.1516 49.7261V50.7261ZM24.1276 50.9646C24.3707 50.8089 24.6532 50.7261 24.9419 50.7261V49.7261C24.462 49.7261 23.9922 49.8637 23.5882 50.1226L24.1276 50.9646ZM34.1103 47.0868C34.1339 47.0868 34.1555 47.0999 34.1664 47.1208L35.0535 46.6593C34.8705 46.3075 34.5068 46.0868 34.1103 46.0868V47.0868ZM42.473 51.4006C42.473 51.5449 42.4382 51.687 42.3716 51.815L43.2588 52.2766C43.3995 52.006 43.473 51.7056 43.473 51.4006H42.473ZM32.1343 47.6766C32.262 47.565 32.3676 47.4306 32.4459 47.2803L31.5588 46.8187C31.5381 46.8585 31.5101 46.894 31.4764 46.9235L32.1343 47.6766Z" fill="black"/>
</svg>
