<svg width="97" height="67" viewBox="0 0 97 67" fill="none" xmlns="http://www.w3.org/2000/svg">
<path d="M95.3802 21.1372L95.3629 21.1455C95.1413 21.252 95.0004 21.476 95.0004 21.7217C95.0004 22.1352 94.6139 22.4399 94.2118 22.3433L94.1804 22.3358C93.9137 22.2717 93.6351 22.3779 93.4788 22.6032L93.1069 23.1393L92.6159 23.9258C92.3145 24.4085 91.9291 24.8334 91.478 25.1802C90.889 25.633 90.2023 25.9419 89.4727 26.0821L89.0043 26.1721L87.9126 26.5218C86.7621 26.8904 85.7112 27.5171 84.8402 28.3542C84.4613 28.7183 84.1197 29.1191 83.8202 29.5508L83.0082 30.7213L82.6534 31.1759C81.0048 33.2882 79.6666 35.6253 78.6791 38.1162C77.9902 39.8541 77.1298 41.5189 76.1105 43.0861L76.0653 43.1557L74.9342 44.7861C74.8469 44.912 74.7732 45.0467 74.7144 45.1881C74.3846 45.9804 74.5541 46.8927 75.1464 47.5136L77.0418 49.5006C77.3919 49.8677 77.4357 50.4303 77.1465 50.8471C77.0579 50.9748 76.9983 51.1203 76.9717 51.2735L76.8758 51.8264C76.7587 52.5019 76.8364 53.1968 77.0998 53.8298L77.3583 54.4508C77.7471 55.385 77.8084 56.4233 77.5322 57.3967L77.3767 57.9447C77.1437 58.7657 76.5867 59.4566 75.8339 59.8585L75.692 59.9342C74.7562 60.4339 74.1717 61.4084 74.1717 62.4693C74.1717 62.931 74.0605 63.386 73.8473 63.7956L73.3643 64.7241C73.272 64.9014 73.1515 65.0625 73.0074 65.2009C72.3946 65.7898 71.4581 65.8817 70.7426 65.4233L70.2788 65.1261C70.1394 65.0368 70.009 64.934 69.8896 64.8193L69.2178 64.1736C68.5274 63.5102 67.7358 62.9608 66.8728 62.5461L65.4633 61.8688C65.1713 61.7286 64.8516 61.6557 64.5277 61.6557C63.8445 61.6557 63.2016 61.9789 62.794 62.5273L62.5127 62.9057C62.0927 63.4708 61.4928 63.876 60.8117 64.0545L59.3245 64.4442C58.7057 64.6064 58.0686 64.6885 57.4289 64.6885H56.2586C55.5838 64.6885 54.9155 64.5563 54.2915 64.2993L53.5277 63.9847C53.1999 63.8497 52.9127 63.6317 52.6946 63.3522C52.3072 62.8558 51.7126 62.5656 51.0829 62.5656H49.2185C48.2069 62.5656 47.2209 62.2473 46.4001 61.6557C45.8713 61.1475 45.0355 61.1475 44.5066 61.6557L42.674 63.2212C42.0615 63.7444 41.1979 63.8569 40.4718 63.508C40.0216 63.2917 39.6668 62.9173 39.4748 62.4562L39.3478 62.1511C39.215 61.832 39.2042 61.4753 39.3175 61.1488C39.4086 60.8861 39.4199 60.6023 39.3499 60.3332L39.299 60.1376C39.1978 59.7488 38.9537 59.4124 38.6154 59.1957L38.6012 59.1865C38.3367 59.0171 38.1302 58.7708 38.0095 58.4808C37.7455 57.8465 37.9329 57.1142 38.4691 56.6848L39.0472 56.2218C39.3064 56.0142 39.4572 55.7002 39.4572 55.3682C39.4572 54.9477 39.2107 54.5619 38.8317 54.3798C38.4459 54.1944 38.1949 53.8015 38.1949 53.3735V53.032C38.1949 52.7218 38.1078 52.4179 37.9435 52.1548L37.4866 51.423C37.3383 51.1854 37.0779 51.041 36.7978 51.041H36.3702C36.1579 51.041 35.9858 51.2131 35.9858 51.4254C35.9858 51.5629 35.9124 51.6898 35.7934 51.7585L34.7805 52.3425C34.534 52.4846 34.3147 52.6693 34.1326 52.888L33.3817 53.79C33.2247 53.9786 33.0884 54.1836 32.9751 54.4013C32.8785 54.5869 32.7651 54.7634 32.6364 54.9283L32.0674 55.6574C31.9455 55.8136 31.7979 55.9481 31.6311 56.0549C31.1911 56.3368 30.6483 56.4077 30.1507 56.2483L29.7923 56.1335C29.304 55.9771 28.8742 55.6773 28.5587 55.2731L28.0961 54.6803L27.1494 53.1639C26.7298 52.3575 26.2249 51.5985 25.6433 50.8999L25.2559 50.4344L24.6756 49.8768C23.8976 49.1292 22.7192 48.9856 21.7844 49.5246L18.9736 51.4891C18.5366 51.7945 18.1574 52.175 17.8536 52.613L17.4397 53.2096C17.1864 53.5748 17.0506 54.0086 17.0506 54.4531C17.0506 55.3267 16.5294 56.1161 15.726 56.4592L12.3308 57.9093C11.6932 58.1817 11.022 58.3675 10.335 58.4618L6.95185 58.9262H6.34092C5.5107 58.9262 4.70523 58.6435 4.0572 58.1245C3.47617 57.6592 3.05113 57.0275 2.839 56.314L2.73397 55.9607C2.60111 55.5139 2.53364 55.0501 2.53364 54.5839V53.7045C2.53364 52.9633 2.27395 52.2454 1.7997 51.6757L1.4107 51.2085C1.31929 51.0986 1.20127 51.0141 1.0679 50.9628C0.461925 50.7299 0.340632 49.9255 0.850973 49.5242L3.16481 47.7049L6.63626 44.9754C7.25445 44.5794 7.97324 44.3689 8.70741 44.3689H10.1865C10.3434 44.3689 10.4994 44.3445 10.6488 44.2966L10.9445 44.2019C11.2124 44.1161 11.4243 43.9092 11.5165 43.6434C11.6212 43.3416 11.8789 43.1186 12.1925 43.0583L13.2636 42.8525L14.6884 42.4612C15.1698 42.3291 15.5367 41.9384 15.6384 41.4497L15.6911 41.1963C15.7516 40.9058 15.6584 40.6047 15.4445 40.3992C15.2622 40.2239 15.0121 40.1376 14.7605 40.1631L9.90495 40.6542C9.41086 40.7042 8.91248 40.6928 8.42121 40.6201L6.52942 40.3404C5.61665 40.2055 4.84145 39.6019 4.48688 38.7501L4.46876 38.7065C4.06314 37.732 4.29725 36.6084 5.05833 35.877L8.21419 33.4508L11.0545 31.6311L13.2636 29.8115L15.4727 28.2951L17.0506 27.3853L18.0925 26.8846C18.2391 26.8142 18.3927 26.7595 18.5507 26.7216L18.6872 26.6888C19.251 26.5533 19.8459 26.6704 20.3163 27.0095C20.6552 27.2538 21.0625 27.3853 21.4803 27.3853H21.7844H22.4156C22.9385 27.3853 23.3623 26.9614 23.3623 26.4385V26.1721C23.3623 25.5797 23.1847 24.9985 22.8052 24.5436C22.5274 24.2106 22.1756 23.8185 21.7844 23.4426C21.1688 22.851 20.6504 22.4864 20.365 22.3164C20.27 22.2599 20.2065 22.1592 20.2065 22.0487C20.2065 21.9705 20.2384 21.8956 20.2948 21.8414L20.6018 21.5463C20.7566 21.3976 20.9459 21.2897 21.1532 21.2339C21.944 21.0212 23.142 20.7131 23.3623 20.7131H25.1755C25.947 20.7131 26.6022 20.1481 26.7156 19.385L26.8026 18.8003C26.8222 18.6685 26.7767 18.5353 26.6806 18.4429C26.5794 18.3457 26.4357 18.3067 26.2992 18.3395L23.9935 18.8934L21.981 19.2451C21.0102 19.4147 20.0265 19.5 19.041 19.5H17.9275C17.7639 19.5 17.6007 19.487 17.4392 19.4611C16.4092 19.2962 15.5321 18.6224 15.1073 17.6698L14.8415 17.0738L13.5792 14.9508L13.1927 14.4557C12.8227 13.9815 12.3645 13.5832 11.8434 13.2828L11.214 12.9199C11.1087 12.8591 11.016 12.7786 10.9411 12.6827C10.5368 12.1645 10.7718 11.402 11.3978 11.2015L12.0012 11.0082L14.3984 10.4323C15.3182 10.2113 16.269 10.1497 17.2096 10.2501L18.2858 10.365C18.5126 10.3892 18.7336 10.4521 18.9392 10.5509C19.1512 10.6528 19.3795 10.7164 19.6137 10.7389L21.7773 10.9469C22.1715 10.9847 22.5554 10.8067 22.7811 10.4814C22.9508 10.2367 23.213 10.0717 23.507 10.0246L24.3182 9.89471C24.7285 9.82899 25.1209 9.67939 25.4707 9.45524L26.8338 8.58197C28.0845 7.58033 29.2554 6.45652 30.3052 5.24591L32.5611 2.42765C33.1403 1.7041 33.9681 1.22209 34.8832 1.07551C35.1962 1.02537 35.5143 1.01535 35.8299 1.04567L38.5105 1.30328H41.1711C41.4971 1.30328 41.8189 1.37659 42.1128 1.51779L42.2574 1.58727C42.687 1.79372 43.0166 2.16313 43.1728 2.6135C43.2203 2.75043 43.2842 2.88108 43.3632 3.00258L43.8889 3.81076C44.4945 4.74195 45.3878 5.44972 46.4328 5.82632C47.0368 6.04398 47.6764 6.14553 48.3181 6.12564L56.7815 5.86327C57.0059 5.85631 57.2197 5.76636 57.3815 5.61083C57.4242 5.56982 57.4708 5.53308 57.5206 5.50116L58.3924 4.94261L59.6548 4.33606L60.1152 4.18857C60.4148 4.0926 60.7429 4.16865 60.9697 4.38664C61.1377 4.54809 61.2327 4.77104 61.2327 5.00405V5.76961C61.2327 6.02569 61.2698 6.28041 61.3427 6.52587L61.6135 7.43652C61.78 7.99669 61.9997 8.53967 62.2694 9.05809L62.5757 9.64687C62.732 9.94718 62.8592 10.2617 62.9557 10.5862L63.3166 11.8002C63.398 12.0741 63.563 12.3156 63.7886 12.4911C64.0664 12.7073 64.4169 12.8082 64.7672 12.7728L66.2957 12.6187C66.8715 12.5606 67.4335 12.8197 67.7634 13.2952C67.8276 13.3878 67.8818 13.4869 67.9251 13.5909L67.9666 13.6906C68.2942 14.4775 68.9946 15.0476 69.8317 15.2085C69.9896 15.2388 70.1501 15.2541 70.3109 15.2541H71.7765C71.899 15.2541 72.02 15.2265 72.1304 15.1735L72.2002 15.14C72.4408 15.0243 72.5938 14.781 72.5938 14.5141C72.5938 14.4025 72.6207 14.2926 72.6722 14.1936L72.9736 13.6143C73.1401 13.2943 73.3576 13.0037 73.6177 12.7537L73.7284 12.6474C73.8134 12.5657 73.89 12.4758 73.9572 12.379L74.284 11.9079C74.4114 11.7243 74.6206 11.6148 74.8441 11.6148C75.0202 11.6148 75.1894 11.6829 75.3164 11.8049L75.7497 12.2213L76.0449 12.505C76.4716 12.915 76.9997 13.204 77.5751 13.3422L77.8085 13.3983C77.9083 13.4223 78.0107 13.4344 78.1134 13.4344H78.5056C78.7514 13.4344 78.9767 13.2977 79.0901 13.0797C79.1737 12.9189 79.1875 12.7309 79.1281 12.5597L78.9773 12.1248C78.9301 11.9889 78.8515 11.8661 78.7477 11.7664C78.644 11.6667 78.5654 11.5439 78.5182 11.408L78.4007 11.0692C78.3201 10.8367 78.3387 10.5812 78.4523 10.3629C78.5417 10.1912 78.6842 10.0531 78.8587 9.96923L78.9069 9.94604C79.111 9.848 79.3411 9.81814 79.5634 9.86087L80.1838 9.98009C80.5782 10.0559 80.9273 10.2832 81.1562 10.6132L81.389 10.9488C81.4159 10.9875 81.4302 11.0334 81.4302 11.0805C81.4302 11.2081 81.5337 11.3115 81.6612 11.3115H83.6907C84.0711 11.3115 84.4453 11.4075 84.7787 11.5906L86.1947 12.3681C86.3838 12.472 86.5584 12.6003 86.714 12.7498C87.1711 13.1891 87.7805 13.4344 88.4144 13.4344H89.0043H90.4601C90.741 13.4344 91.0109 13.3257 91.2134 13.1311C91.4159 12.9365 91.6858 12.8279 91.9667 12.8279H94.527C94.6309 12.8279 94.7335 12.8512 94.8272 12.8963L95.0979 13.0263C95.4689 13.2046 95.5004 13.7207 95.1538 13.9427C95.0545 14.0064 94.9794 14.1016 94.9408 14.2131L94.8321 14.5264C94.7361 14.8031 94.7242 15.1021 94.798 15.3856L94.8724 15.6716C94.9569 15.9964 95.107 16.3004 95.3135 16.565L95.8091 17.2001C95.901 17.3178 95.9819 17.4437 96.0508 17.5761C96.3852 18.2188 96.4175 18.9766 96.1391 19.6454L95.9472 20.1066L95.723 20.7529C95.6645 20.9215 95.5411 21.0599 95.3802 21.1372Z" fill="#A2D2FF" stroke="black"/>
</svg>
