<svg width="34" height="33" viewBox="0 0 34 33" fill="none" xmlns="http://www.w3.org/2000/svg">
<path d="M32.5586 14.2098V8.54229C32.5586 8.18011 32.411 7.83357 32.1499 7.58261C32.0036 7.44196 31.827 7.33665 31.6337 7.27473L31.4541 7.2172C31.1426 7.11743 30.8581 6.94775 30.6223 6.72114L30.3495 6.45902C30.1429 6.26042 29.8871 6.12045 29.6084 6.05349L28.7716 5.85245L27.1937 5.24589L26.7847 5.04938C26.223 4.77948 25.6078 4.63935 24.9846 4.63935C24.5796 4.63935 24.1903 4.79608 23.8983 5.07669L23.7222 5.24589L23.091 5.85245L22.9648 5.97381C22.6303 6.29524 22.2468 6.5614 21.8287 6.76231L21.5181 6.91156C21.3253 7.00417 21.0953 6.96733 20.9411 6.81916C20.9019 6.7815 20.857 6.75031 20.808 6.72677L20.4455 6.55261C20.3165 6.49061 20.1982 6.40848 20.095 6.3093C19.9892 6.20761 19.9006 6.08933 19.8329 5.95913L19.6196 5.54917L19.4572 5.23703C19.3566 5.0436 19.304 4.82876 19.304 4.61071V4.47047C19.304 4.19083 19.1901 3.92327 18.9884 3.7295L18.0417 2.81965L17.4105 2.21311L17.0949 1.90984C16.8924 1.71524 16.6225 1.60655 16.3416 1.60655H15.8326H15.2014H14.9121C14.702 1.60655 14.5094 1.48964 14.4124 1.30328C14.3155 1.11691 14.1228 1 13.9128 1H12.6767H12.2366C11.6954 1 11.161 1.12171 10.6731 1.35614L10.3132 1.5291C10.2064 1.58041 10.1085 1.64838 10.023 1.73048C9.90026 1.84849 9.75211 1.93684 9.58993 1.9888L9.45218 2.03292C9.08738 2.14977 8.77131 2.38371 8.55297 2.69846L8.2585 3.12296L7.87363 3.67774C7.71019 3.91333 7.57967 4.17013 7.48571 4.44103L7.39626 4.6989C7.34029 4.86023 7.31172 5.02979 7.31172 5.20055V5.60433C7.31172 5.76286 7.24712 5.91454 7.13282 6.02439C7.044 6.10975 6.93041 6.16476 6.80836 6.18152L4.92563 6.43999C4.8338 6.4526 4.74449 6.47947 4.66094 6.51961C4.35222 6.66796 4.15587 6.98015 4.15587 7.32266V7.97541V8.12139C4.15587 8.80317 3.87803 9.45552 3.38644 9.92793C3.26849 10.0413 3.13972 10.1428 3.00199 10.2311L2.46944 10.5722C2.33171 10.6605 2.20295 10.762 2.085 10.8754L1.47228 11.4642C1.37218 11.5604 1.3156 11.6932 1.3156 11.8321C1.3156 11.889 1.30607 11.9455 1.28742 11.9993L1.2028 12.2432C1.07057 12.6244 1.05421 13.0363 1.1558 13.4268L1.21828 13.6669C1.28278 13.9149 1.38462 14.1515 1.5203 14.3689C1.98189 15.1082 2.79191 15.5574 3.66348 15.5574H5.73381H5.7432C6.14216 15.5574 6.52563 15.7118 6.81329 15.9882C6.93439 16.1046 7.03569 16.2399 7.11321 16.3889L7.31172 16.7705L7.62732 17.3771C7.83737 17.7808 8.07929 18.1671 8.35077 18.5323L9.25736 19.7521C9.43271 19.988 9.62736 20.2089 9.83931 20.4126L10.2797 20.8358C10.4041 20.9554 10.5082 21.0945 10.5879 21.2475C10.7158 21.4935 10.906 21.7017 11.1395 21.8513L11.2344 21.9121C11.558 22.1193 11.9342 22.2295 12.3184 22.2295H13.0853C13.416 22.2295 13.7192 22.4135 13.8719 22.7069C13.9164 22.7924 13.9745 22.8701 14.044 22.937L14.6047 23.4757C14.7908 23.6547 14.9466 23.8628 15.0658 24.0918L15.1686 24.2895C15.3918 24.7184 15.7753 25.0418 16.2357 25.1893C16.3871 25.2377 16.5315 25.3057 16.6654 25.3915L17.0419 25.6327C17.2871 25.7898 17.5162 25.9704 17.7261 26.1721L18.8231 27.0155C19.1263 27.2486 19.304 27.6094 19.304 27.9918C19.304 28.3922 19.3832 28.7887 19.5371 29.1584L19.8187 29.835C19.8956 30.0197 19.9352 30.2177 19.9352 30.4178V31.6188C19.9352 31.7931 20.0765 31.9344 20.2508 31.9344C20.8781 31.9344 21.5017 31.837 22.0991 31.6456L22.1443 31.6311C22.5624 31.4302 22.9459 31.1641 23.2804 30.8427L23.4066 30.7213L23.7913 30.3516C23.9546 30.1948 24.0911 30.0123 24.1956 29.8115L24.241 29.7243C24.3154 29.5812 24.4127 29.4512 24.529 29.3394C24.8201 29.0597 24.9846 28.6735 24.9846 28.2698V25.2623V23.5198C24.9846 23.0706 25.0928 22.628 25.3002 22.2295L25.5038 21.8381C25.5765 21.6984 25.6924 21.5861 25.8343 21.5179C26.0865 21.3967 26.2469 21.1417 26.2469 20.8618V20.1065V19.6467C26.2469 19.3592 26.3641 19.0841 26.5714 18.8849L26.7643 18.6995C26.8373 18.6293 26.9346 18.5902 27.0359 18.5902C27.1371 18.5902 27.2345 18.6293 27.3075 18.6995L27.4178 18.8056C27.4784 18.8638 27.529 18.9314 27.5678 19.0059L27.8249 19.5L28.3975 20.6006C28.4363 20.6751 28.4869 20.7428 28.5474 20.801C28.6913 20.9392 28.8853 21.0164 29.0848 21.0164C29.2873 21.0164 29.4843 20.938 29.6303 20.7977L29.9958 20.4465C30.2283 20.223 30.4046 19.9477 30.5103 19.643L30.6088 19.3592C30.6461 19.2516 30.6651 19.1386 30.6651 19.0248C30.6651 18.7471 30.7783 18.4814 30.9785 18.289L31.2963 17.9836C31.5019 17.786 31.643 17.531 31.7011 17.2518L31.8914 16.3374C31.9154 16.2221 31.9275 16.1046 31.9275 15.9868V15.6918C31.9275 15.4121 32.0414 15.1446 32.2431 14.9508C32.4447 14.757 32.5586 14.4895 32.5586 14.2098Z" fill="#FFCCD5" stroke="black"/>
</svg>
