<svg width="112" height="88" viewBox="0 0 112 88" fill="none" xmlns="http://www.w3.org/2000/svg">
<path fill-rule="evenodd" clip-rule="evenodd" d="M102.234 48.3441H99.149C98.3982 48.3441 97.7298 48.8198 97.4837 49.5291C97.3419 49.9379 97.3555 50.3846 97.5217 50.784L97.783 51.4116C97.8574 51.5904 97.9463 51.7627 98.0488 51.927L98.5203 52.6822C98.7318 53.0209 99.0159 53.3083 99.3521 53.5237C99.6403 53.7083 99.9609 53.8363 100.297 53.9009L101.366 54.1064L104.838 54.4097H106.3C107.163 54.4097 108.309 54.76 108.309 55.6228C108.309 55.7092 108.362 55.8494 108.441 56.0078C108.707 56.5486 108.8 57.1727 108.568 57.7295L108.512 57.8644C108.381 58.1786 108.14 58.4338 107.833 58.5812L107.728 58.6314C107.312 58.8316 107.047 59.2528 107.047 59.7149C107.047 59.8171 107.06 59.9188 107.085 60.0176L107.132 60.1983C107.281 60.771 107.617 61.2776 108.086 61.6383L108.94 62.2949L109.708 63.0327C109.993 63.3066 110.037 63.747 109.812 64.0718C109.661 64.2886 109.414 64.4179 109.15 64.4179H108.197C107.854 64.4179 107.515 64.3507 107.198 64.2201L105.469 63.5081L103.933 62.8755C103.488 62.6924 103.012 62.5982 102.532 62.5982H101.901C101.355 62.5982 100.831 62.8095 100.437 63.1877C100.023 63.5862 99.7883 64.1363 99.7883 64.7113V68.1076C99.7883 68.6432 99.5155 69.1418 99.0645 69.4307C98.9169 69.5253 98.7544 69.5945 98.584 69.6355L98.4357 69.6711C97.8817 69.8042 97.2987 69.7422 96.7851 69.4954L96.6012 69.407C96.0069 69.1215 95.5211 68.6509 95.2168 68.066L94.9577 67.568C94.6066 66.8932 94.4233 66.1437 94.4233 65.383V64.6059C94.4233 63.8847 94.5971 63.174 94.93 62.5342C95.2201 61.9765 95.3899 61.3642 95.4283 60.7367L95.5519 58.717C95.6368 57.3313 95.1087 55.9782 94.1077 55.0163L93.9298 54.8453C93.0315 53.982 91.8339 53.4999 90.588 53.4999C89.2133 53.4999 87.9039 54.0865 86.9888 55.1125L86.9465 55.1599C86.6723 55.4673 86.4375 55.8077 86.2473 56.1731L84.844 58.8703C84.7083 59.1312 84.5917 59.4017 84.4953 59.6796L84.2796 60.3015C84.1018 60.8141 84.0506 61.3621 84.1304 61.8988C84.2552 62.7383 84.6927 63.4996 85.3552 64.0302L85.7833 64.373C86.0722 64.6044 86.333 64.8685 86.5607 65.1602L86.9017 65.5971C87.6998 66.6198 88.2801 67.7951 88.6067 69.0505L88.7427 69.5736L89.2311 70.9817C89.3246 71.251 89.3432 71.5407 89.2851 71.8199C89.1492 72.4733 88.6167 72.9704 87.9555 73.0611L86.8492 73.213H86.6032C85.4386 73.213 84.4126 73.9784 84.0807 75.0946L84.0739 75.1174C84.0307 75.2628 83.9737 75.4036 83.9037 75.5382C83.7647 75.8053 83.5764 76.0437 83.3486 76.2407L77.8503 80.9962C77.5592 81.2479 77.158 81.3299 76.7915 81.2125C76.5602 81.1384 76.3598 80.9901 76.2214 80.7905L76.1065 80.6249C75.9093 80.3407 75.8037 80.003 75.8037 79.6572V79.2485C75.8037 78.6784 75.6132 78.1246 75.2624 77.6752C74.9964 77.3344 74.6484 77.0665 74.2508 76.8967L72.0167 75.9425L67.914 74.7294L67.119 74.4429C66.0594 74.061 65.3075 73.112 65.1782 71.9931L65.118 71.4727C65.0892 71.2233 65.1357 70.971 65.2515 70.7484C65.3421 70.5742 65.4723 70.4237 65.6316 70.3089L67.914 68.6638L69.0357 67.8015C69.3243 67.5796 69.6977 67.5001 70.0516 67.5851C70.4842 67.6891 70.8243 68.0229 70.9363 68.4534L71.0519 68.8979C71.0639 68.9439 71.081 68.9884 71.1029 69.0305C71.2604 69.3332 71.6298 69.4563 71.9373 69.3085L72.2913 69.1384C72.5209 69.0281 72.7019 68.8371 72.7998 68.6019L73.062 67.9721C73.2052 67.6279 73.279 67.2587 73.279 66.8859V66.8032C73.279 66.0458 73.5444 65.3123 74.029 64.7301L74.4861 64.1809C74.5228 64.1369 74.5547 64.089 74.5812 64.0381C74.7448 63.7236 75.0955 63.5539 75.4436 63.6208L75.9063 63.7098C76.2471 63.7752 76.5525 63.9621 76.766 64.2357L76.8665 64.3644C77.176 64.7609 77.6999 64.9225 78.179 64.769C78.2782 64.7373 78.3728 64.6927 78.4604 64.6366L79.0924 64.2317C79.2139 64.1538 79.3276 64.0642 79.4316 63.9642C79.9296 63.4857 80.1753 62.8021 80.096 62.116L79.9063 60.4753C79.7233 59.7718 79.0654 59.2982 78.3402 59.348L75.6383 59.5335C75.3288 59.5547 75.0179 59.5407 74.7116 59.4916C73.7848 59.3432 72.8352 59.5181 72.0222 59.9869L70.1231 61.0818L65.3893 63.5081L63.4958 64.4179L61.4187 65.3051C60.9125 65.5213 60.4399 65.8087 60.015 66.1586L59.3049 66.7436C58.7493 67.2012 58.3665 67.8348 58.2198 68.5395C58.1608 68.8232 58.063 69.0975 57.9293 69.3545L57.6752 69.8429C57.1452 70.8615 56.8685 71.9928 56.8685 73.1411V74.5987C56.8685 75.2823 56.7038 75.9558 56.3883 76.5623L56.2812 76.7681C56.0449 77.2223 55.7054 77.6148 55.29 77.9142C54.8754 78.2131 54.3966 78.4108 53.8919 78.4917L50.8724 78.9753L48.6633 79.2786H46.7152C46.3375 79.2786 45.9663 79.1792 45.639 78.9905C44.9718 78.6058 44.5606 77.8942 44.5606 77.124V74.7294V70.4689C44.5606 70.0972 44.382 69.7481 44.0804 69.5308L43.8162 69.3404C43.5162 69.1242 43.1046 69.1532 42.838 69.4095C42.7267 69.5164 42.6503 69.6545 42.6189 69.8056L42.3515 71.09L41.5413 74.4642C41.4506 74.8417 41.3142 75.2068 41.1349 75.5513L41.0407 75.7324C40.8638 76.0724 40.6327 76.3812 40.3563 76.6468C40.0071 76.9824 39.7308 77.3864 39.5447 77.8335L39.3104 78.3964C39.2347 78.5782 39.1224 78.7424 38.9804 78.8789C38.7136 79.1353 38.3578 79.2786 37.9877 79.2786H37.0627C36.1974 79.2786 35.359 79.5794 34.6911 80.1296L33.8955 80.7849C33.6424 80.9934 33.3723 81.1806 33.0882 81.3444L32.3377 81.7771C32.074 81.9292 31.8472 82.1378 31.6737 82.3879C31.4343 82.733 31.306 83.1429 31.306 83.5629V83.9942C31.306 84.2864 31.2688 84.5774 31.1952 84.8602L30.9904 85.6474C30.7929 86.2169 30.3275 86.6526 29.7462 86.8122L28.9162 87.0401C28.6172 87.1222 28.3086 87.1638 27.9987 87.1638H25.941C25.4182 87.1638 24.9943 86.7399 24.9943 86.217V86.0883C24.9943 85.9969 24.9827 85.906 24.9596 85.8175L24.8794 85.509C24.7472 85.001 24.5046 84.5284 24.1687 84.1249L23.5221 83.3482C23.4518 83.2638 23.3908 83.172 23.3401 83.0746C23.1849 82.7762 23.1319 82.4351 23.1894 82.1038L23.3513 81.1701C23.3936 80.9264 23.5125 80.7025 23.6909 80.5311C23.9187 80.3121 24.0475 80.0098 24.0475 79.6937V79.4178C24.0475 79.1271 23.9775 78.8406 23.8433 78.5827L23.5209 77.9631C23.2434 77.4298 23.0717 76.8479 23.015 76.2494L22.7852 73.8195V71.8263C22.7852 71.3451 22.6501 70.8737 22.3953 70.4656C22.0384 69.8939 21.4713 69.4854 20.816 69.328L18.6551 68.8089C18.2532 68.7123 17.8594 68.5848 17.4773 68.4274L15.9869 67.8135C15.8914 67.7742 15.7892 67.754 15.6859 67.754H15.5885C15.2058 67.754 14.8955 68.0642 14.8955 68.447C14.8955 68.5882 14.9386 68.726 15.0191 68.842L15.5267 69.5736L16.4735 71.09C16.8844 71.6824 17.1046 72.3862 17.1046 73.1072V73.8195C17.1046 74.4103 16.9143 74.9854 16.5619 75.4596L16.2006 75.9457C15.758 76.5412 15.1773 77.0202 14.5085 77.3416L12.3708 78.3687L8.5838 79.5818L7.9131 79.7967C7.1028 80.0562 6.25711 80.1884 5.40625 80.1884H4.38752C3.82598 80.1884 3.27162 80.0621 2.76547 79.8189L2.36259 79.6253C1.89412 79.4002 1.51123 79.0293 1.27133 78.5683C0.909555 77.8729 0.909555 77.0449 1.27133 76.3495L1.41377 76.0758C1.56418 75.7867 1.76074 75.524 1.99571 75.2982L2.58766 74.7294L4.16559 73.213L5.74352 71.9999L7.12535 70.8932C7.46537 70.6209 7.83527 70.3882 8.22792 70.1995L8.31585 70.1573C8.70325 69.9712 9.11307 69.8358 9.53514 69.7547L9.74642 69.7141C10.2293 69.6213 10.69 69.4374 11.104 69.1721C11.3169 69.0358 11.5159 68.8789 11.6981 68.7037L11.7397 68.6638L12.2615 68.1623C12.3314 68.0952 12.3708 68.0025 12.3708 67.9056C12.3708 67.8087 12.3314 67.716 12.2615 67.6489L11.7397 67.1474L11.4096 66.9095C10.8743 66.5237 10.7032 65.8035 11.0078 65.2181C11.0745 65.0898 11.1616 64.9734 11.2659 64.8732L11.2841 64.8556C11.5752 64.576 11.7397 64.1898 11.7397 63.7861V62.9015V59.8687V59.6827C11.7397 59.4031 11.7109 59.1242 11.654 58.8505L11.5792 58.4914C11.4777 58.0035 11.5103 57.4971 11.6736 57.0263C11.7176 56.8995 11.7707 56.7762 11.8326 56.6572L12.1387 56.0691C12.2894 55.7794 12.5299 55.5464 12.8242 55.405L12.8797 55.3783C13.3441 55.1552 13.8934 55.2038 14.3114 55.5051C14.6782 55.7695 14.8955 56.194 14.8955 56.6462V57.7458V59.2622C14.8955 60.0483 15.1582 60.8119 15.6419 61.4316L15.6796 61.4799C15.7879 61.6187 15.906 61.7496 16.033 61.8717L16.7568 62.5672C16.9881 62.7896 17.2407 62.9887 17.5108 63.1618L17.9258 63.4276C18.0092 63.481 18.0991 63.5234 18.1934 63.5536L18.3474 63.6029C18.734 63.7267 19.1562 63.5835 19.3876 63.2499C19.5411 63.0287 19.5903 62.7517 19.5226 62.4912L19.3137 61.6884L19.0897 60.6118C19.0288 60.3194 18.9981 60.0215 18.9981 59.7228V58.852C18.9981 58.723 19.0292 58.5958 19.0888 58.4814C19.227 58.2157 19.5016 58.0491 19.8011 58.0491H19.8419C19.9103 58.0491 19.9785 58.0571 20.0451 58.0731L20.4191 58.163C20.9395 58.288 21.4306 58.5133 21.8649 58.8263L22.4696 59.2622L23.9015 60.363C23.9986 60.4376 24.1032 60.502 24.2136 60.5551C24.5173 60.701 24.8565 60.7572 25.191 60.717L26.2204 60.5934C26.7813 60.526 27.2034 60.0501 27.2034 59.4852C27.2034 59.338 27.1743 59.1922 27.1177 59.0563L26.9604 58.6784C26.7079 58.0718 26.2728 57.5587 25.7154 57.2106L20.5076 53.9575C20.3433 53.8549 20.1901 53.7355 20.0504 53.6013C19.7727 53.3343 19.5529 53.013 19.4049 52.6574L19.2854 52.3704C19.0958 51.9148 18.9981 51.4261 18.9981 50.9326C18.9981 50.232 19.1949 49.5454 19.5659 48.9511L19.9449 48.3441C20.5636 47.3532 20.8917 46.2084 20.8917 45.0401V39.085C20.8917 38.6387 20.6033 38.2436 20.1783 38.1074C20.0249 38.0583 19.862 38.0459 19.7029 38.0714L18.4923 38.2653C18.2013 38.3119 17.9038 38.3005 17.6172 38.2316L17.1218 38.1126C16.9075 38.0611 16.7196 37.9326 16.594 37.7515C16.3427 37.3892 16.3917 36.8982 16.7095 36.5927L16.789 36.5163L18.0514 35.6064L19.8925 34.3426C20.1374 34.1745 20.3681 33.9866 20.5823 33.7808L21.3476 33.0453C21.4628 32.9346 21.5501 32.7982 21.6025 32.6473C21.7437 32.2401 22.1274 31.9671 22.5584 31.9671H23.1008C23.8915 31.9671 24.632 31.5796 25.0826 30.9299L25.1531 30.8283C25.4607 30.385 25.6255 29.8583 25.6255 29.3187V28.7902C25.6255 28.4832 25.5863 28.1773 25.509 27.8802C25.3778 27.3758 25.1391 26.9057 24.8092 26.5023L21.8384 22.8687L19.9449 20.7458L17.8481 18.7307C17.7737 18.6593 17.7115 18.5762 17.6639 18.4847C17.5124 18.1935 17.5223 17.8446 17.6901 17.5624L18.5083 16.1864C18.6242 15.9914 18.7573 15.8071 18.906 15.6357L21.8384 12.254L23.1166 10.2887C23.3142 9.98486 23.5742 9.72663 23.8793 9.53114C24.1979 9.32706 24.4671 9.05471 24.6674 8.73381L24.8252 8.4811C25.1439 7.97058 25.3394 7.39284 25.3961 6.79365L25.5212 5.47115C25.5895 4.74838 25.8428 4.05539 26.2566 3.45888L26.4339 3.23175C26.891 2.64602 27.6773 2.42794 28.3708 2.69453C28.64 2.798 28.8782 2.96869 29.0627 3.19032L29.3097 3.48708C29.784 4.05678 30.0437 4.77462 30.0437 5.51588V6.39527C30.0437 6.86146 30.1111 7.32519 30.244 7.77205L30.349 8.12531C30.5612 8.83884 30.9862 9.47053 31.5672 9.93584C32.2153 10.4548 33.0207 10.7376 33.851 10.7376H34.4619L37.845 10.2731C38.532 10.1788 39.2032 9.993 39.8409 9.72065L43.236 8.27054C44.0394 7.9274 44.5606 7.13803 44.5606 6.26442C44.5606 5.81998 44.6964 5.38615 44.9497 5.02099L45.3636 4.42438C45.6674 3.98639 46.0467 3.60585 46.4836 3.30047L49.2944 1.33592C50.2292 0.796941 51.4077 0.940526 52.1857 1.68819L52.7659 2.24577L53.1533 2.7112C53.7349 3.40983 54.2398 4.16887 54.6594 4.97528L55.6062 6.49168L56.0688 7.08442C56.3842 7.48861 56.8141 7.78844 57.3024 7.94485L57.6608 8.05966C58.1584 8.21906 58.7012 8.14816 59.1411 7.86629C59.308 7.75939 59.4555 7.62499 59.5774 7.46878L60.1464 6.73968C60.2752 6.57469 60.3886 6.39827 60.4852 6.21262C60.5984 5.99491 60.7347 5.78999 60.8918 5.60139L61.6427 4.69934C61.8247 4.48066 62.0441 4.29598 62.2906 4.15385L63.3034 3.56982C63.4225 3.50117 63.4958 3.3742 63.4958 3.23677C63.4958 3.02445 63.668 2.85232 63.8803 2.85232H64.3079C64.588 2.85232 64.8483 2.9967 64.9967 3.2343L65.4536 3.96613C65.6178 4.22924 65.7049 4.53317 65.7049 4.84334V5.18485C65.7049 5.61288 65.956 6.00573 66.3418 6.19111C66.7207 6.3732 66.9673 6.75908 66.9673 7.17951C66.9673 7.51154 66.8164 7.82559 66.5573 8.03313L65.9792 8.4961C65.443 8.92552 65.2555 9.65788 65.5195 10.2921C65.6402 10.5821 65.8467 10.8284 66.1112 10.9979L66.1255 11.007C66.4638 11.2237 66.7079 11.5601 66.809 11.949L66.8599 12.1445C66.9299 12.4136 66.9186 12.6975 66.8275 12.9602C66.7143 13.2867 66.7251 13.6434 66.8579 13.9624L66.9849 14.2675C67.1768 14.7286 67.5317 15.103 67.9819 15.3193C68.708 15.6682 69.5715 15.5558 70.1841 15.0325L72.0167 13.4671C72.5455 12.9588 73.3813 12.9589 73.9102 13.4671C74.7309 14.0586 75.7169 14.3769 76.7286 14.3769H78.5929C79.2226 14.3769 79.8172 14.6671 80.2046 15.1635C80.4228 15.4431 80.7099 15.661 81.0378 15.7961L81.8015 16.1106C82.4255 16.3676 83.0938 16.4999 83.7687 16.4999H84.9389C85.5786 16.4999 86.2157 16.4178 86.8345 16.2556L88.3217 15.8658C89.0028 15.6873 89.6028 15.2821 90.0228 14.7171L90.3041 14.3386C90.7116 13.7903 91.3545 13.4671 92.0377 13.4671C92.3616 13.4671 92.6814 13.5399 92.9733 13.6802L94.3828 14.3575C95.2459 14.7722 96.0374 15.3215 96.7278 15.985L97.2835 16.519C97.4801 16.708 97.6948 16.8773 97.9245 17.0244L98.5052 17.3965C99.1217 17.7914 99.5439 18.427 99.669 19.1483C99.7471 19.5988 99.9422 20.0209 100.235 20.3723L100.588 20.7965C100.894 21.164 101.131 21.5838 101.288 22.0356C101.545 22.7765 101.576 23.5771 101.379 24.3361L101.171 25.1338C101.091 25.4422 101.051 25.7595 101.051 26.0782V26.3361C101.051 27.5621 101.726 28.6884 102.808 29.2658C103.507 29.639 104.049 30.2499 104.337 30.9882L104.838 32.2704L105.088 32.7517C105.757 34.0372 106.66 35.19 107.747 36.1478C107.881 36.2656 108.027 36.391 108.179 36.5226C109.632 37.7737 111.739 39.5891 110.518 40.7622C110.406 40.8699 110.207 41.1811 109.992 41.5469C109.491 42.4022 108.773 43.1172 107.879 43.5466L107.484 43.7363C106.601 44.1609 105.931 44.9305 105.632 45.8642C105.159 47.3417 103.785 48.3441 102.234 48.3441ZM42.8501 19.5371L42.1616 19.6694C41.9547 19.7092 41.7539 19.7755 41.564 19.8668C40.9422 20.1655 40.4756 20.713 40.279 21.3742L40.1214 21.9041C40.0164 22.2574 39.767 22.5499 39.4349 22.7095C38.9821 22.927 38.6941 23.3849 38.6941 23.8872V24.8851C38.6941 26.1083 39.5826 27.1503 40.7904 27.3438L41.3241 27.4292C42.0701 27.5487 42.7475 27.9345 43.2309 28.5152L43.7435 29.131L45.2981 30.8383C45.7279 31.3104 46.2666 31.6704 46.8673 31.8868C47.8938 32.2568 49.0281 32.182 49.9973 31.6805L52.0388 30.6241C52.3944 30.4401 52.7889 30.3441 53.1893 30.3441C53.4132 30.3441 53.6361 30.3741 53.8521 30.4334L55.5162 30.8904C55.6459 30.926 55.7358 31.0439 55.7358 31.1783C55.7358 31.3715 55.9164 31.5138 56.1042 31.4687L57.7681 31.0689C58.089 30.9919 58.3793 30.8202 58.6014 30.5762L59.6155 29.4625C60.1796 28.8429 60.6196 28.1207 60.9115 27.3352L61.9668 24.4956C62.0202 24.352 62.0475 24.2001 62.0475 24.0469C62.0475 23.6224 61.8384 23.2251 61.4884 22.9849L59.8384 21.8523L57.8947 20.2179C57.5087 19.8933 57.1618 19.5249 56.8609 19.1201L56.2033 18.2353C55.8979 17.8245 55.4821 17.5089 55.0043 17.3252C54.4551 17.1141 53.8519 17.088 53.2865 17.251L51.8477 17.6659C51.2894 17.8268 50.7685 18.0966 50.3151 18.4598L50.0938 18.637C49.456 19.1477 48.6633 19.4261 47.8461 19.4261C47.7636 19.4261 47.5666 19.3181 47.3166 19.1551C46.2764 18.4769 44.9368 18.3903 43.913 19.0931C43.5931 19.3127 43.2312 19.4639 42.8501 19.5371Z" fill="#FFD1A9" fill-opacity="0.662745"/>
<path d="M97.4837 49.5291L97.0113 49.3653L97.0113 49.3653L97.4837 49.5291ZM97.5217 50.784L97.0601 50.9762L97.0601 50.9762L97.5217 50.784ZM97.783 51.4116L98.2446 51.2195L98.2446 51.2195L97.783 51.4116ZM98.0488 51.927L98.4729 51.6622L98.4729 51.6622L98.0488 51.927ZM98.5203 52.6822L98.0962 52.947L98.0962 52.947L98.5203 52.6822ZM99.3521 53.5237L99.0824 53.9448L99.0824 53.9448L99.3521 53.5237ZM100.297 53.9009L100.391 53.4099L100.391 53.4099L100.297 53.9009ZM101.366 54.1064L101.272 54.5974L101.297 54.6023L101.323 54.6045L101.366 54.1064ZM104.838 54.4097L104.794 54.9078L104.816 54.9097H104.838V54.4097ZM108.441 56.0078L108.889 55.7865L108.889 55.7865L108.441 56.0078ZM108.568 57.7295L109.03 57.9216L109.03 57.9216L108.568 57.7295ZM108.512 57.8644L108.051 57.6722L108.051 57.6722L108.512 57.8644ZM107.833 58.5812L108.049 59.0319L108.049 59.0319L107.833 58.5812ZM107.728 58.6314L107.512 58.1808L107.512 58.1808L107.728 58.6314ZM107.085 60.0176L106.602 60.1434L106.602 60.1435L107.085 60.0176ZM107.132 60.1983L107.616 60.0724L107.616 60.0724L107.132 60.1983ZM108.086 61.6383L108.391 61.2419L108.391 61.2419L108.086 61.6383ZM108.94 62.2949L109.287 61.9344L109.267 61.9153L109.245 61.8986L108.94 62.2949ZM109.708 63.0327L110.054 62.6722L110.054 62.6722L109.708 63.0327ZM109.812 64.0718L109.401 63.7868L109.401 63.7868L109.812 64.0718ZM107.198 64.2201L107.388 63.7577L107.388 63.7577L107.198 64.2201ZM105.469 63.5081L105.278 63.9704L105.278 63.9704L105.469 63.5081ZM103.933 62.8755L103.742 63.3378L103.742 63.3378L103.933 62.8755ZM100.437 63.1877L100.784 63.5482L100.784 63.5482L100.437 63.1877ZM99.0645 69.4307L98.7948 69.0097L98.7948 69.0097L99.0645 69.4307ZM98.584 69.6355L98.4671 69.1493L98.4671 69.1493L98.584 69.6355ZM98.4357 69.6711L98.5525 70.1573L98.5525 70.1573L98.4357 69.6711ZM96.7851 69.4954L97.0017 69.0447L97.0017 69.0447L96.7851 69.4954ZM96.6012 69.407L96.3847 69.8577L96.3847 69.8577L96.6012 69.407ZM95.2168 68.066L95.6604 67.8352L95.6604 67.8352L95.2168 68.066ZM94.9577 67.568L94.5142 67.7988L94.5142 67.7988L94.9577 67.568ZM94.93 62.5342L94.4864 62.3034L94.4864 62.3034L94.93 62.5342ZM95.4283 60.7367L94.9292 60.7062L94.9292 60.7062L95.4283 60.7367ZM95.5519 58.717L96.051 58.7476L96.051 58.7476L95.5519 58.717ZM94.1077 55.0163L93.7612 55.3768L93.7613 55.3768L94.1077 55.0163ZM93.9298 54.8453L94.2763 54.4848L94.2763 54.4848L93.9298 54.8453ZM86.9888 55.1125L86.6157 54.7797L86.6157 54.7797L86.9888 55.1125ZM86.9465 55.1599L87.3197 55.4927L87.3197 55.4927L86.9465 55.1599ZM86.2473 56.1731L85.8038 55.9423L85.8038 55.9423L86.2473 56.1731ZM84.844 58.8703L85.2876 59.1011L85.2876 59.101L84.844 58.8703ZM84.4953 59.6796L84.023 59.5157L84.0229 59.5157L84.4953 59.6796ZM84.2796 60.3015L83.8072 60.1377L83.8072 60.1377L84.2796 60.3015ZM84.1304 61.8988L84.625 61.8253L84.625 61.8253L84.1304 61.8988ZM85.3552 64.0302L85.6677 63.6399L85.6677 63.6399L85.3552 64.0302ZM85.7833 64.373L85.4708 64.7633L85.4708 64.7633L85.7833 64.373ZM86.5607 65.1602L86.9549 64.8526L86.9549 64.8526L86.5607 65.1602ZM86.9017 65.5971L86.5075 65.9048L86.5075 65.9048L86.9017 65.5971ZM88.6067 69.0505L88.1228 69.1764L88.1228 69.1764L88.6067 69.0505ZM88.7427 69.5736L88.2588 69.6995L88.2638 69.7187L88.2703 69.7375L88.7427 69.5736ZM89.2311 70.9817L89.7035 70.8178L89.7035 70.8178L89.2311 70.9817ZM89.2851 71.8199L89.7747 71.9217L89.7747 71.9217L89.2851 71.8199ZM87.9555 73.0611L87.8875 72.5658L87.8875 72.5658L87.9555 73.0611ZM86.8492 73.213V73.713H86.8834L86.9172 73.7083L86.8492 73.213ZM84.0807 75.0946L84.5599 75.2372L84.56 75.2371L84.0807 75.0946ZM84.0739 75.1174L83.5947 74.9748L83.5946 74.9749L84.0739 75.1174ZM83.9037 75.5382L84.3473 75.7689L84.3473 75.7689L83.9037 75.5382ZM83.3486 76.2407L83.6757 76.6188L83.6757 76.6188L83.3486 76.2407ZM77.8503 80.9962L77.5232 80.618L77.5232 80.618L77.8503 80.9962ZM76.7915 81.2125L76.9441 80.7363L76.9441 80.7363L76.7915 81.2125ZM76.2214 80.7905L76.6322 80.5055L76.6322 80.5055L76.2214 80.7905ZM76.1065 80.6249L75.6957 80.9098L75.6957 80.9099L76.1065 80.6249ZM75.2624 77.6752L75.6566 77.3675L75.6566 77.3675L75.2624 77.6752ZM74.2508 76.8967L74.0545 77.3566L74.0545 77.3566L74.2508 76.8967ZM72.0167 75.9425L72.2131 75.4827L72.1863 75.4713L72.1584 75.463L72.0167 75.9425ZM67.914 74.7294L67.7445 75.1998L67.7583 75.2047L67.7723 75.2088L67.914 74.7294ZM67.119 74.4429L67.2885 73.9725L67.2885 73.9725L67.119 74.4429ZM65.1782 71.9931L64.6815 72.0506L64.6815 72.0506L65.1782 71.9931ZM65.118 71.4727L65.6147 71.4153L65.6147 71.4153L65.118 71.4727ZM65.2515 70.7484L65.6951 70.9791L65.6951 70.9791L65.2515 70.7484ZM65.6316 70.3089L65.9239 70.7145L65.9239 70.7145L65.6316 70.3089ZM67.914 68.6638L68.2064 69.0694L68.2127 69.0649L68.2188 69.0602L67.914 68.6638ZM69.0357 67.8015L69.3404 68.1979L69.3404 68.1979L69.0357 67.8015ZM70.0516 67.5851L69.9348 68.0713L69.9348 68.0713L70.0516 67.5851ZM70.9363 68.4534L71.4202 68.3275L71.4202 68.3275L70.9363 68.4534ZM71.0519 68.8979L70.568 69.0238L70.568 69.0238L71.0519 68.8979ZM71.1029 69.0305L70.6593 69.2613L70.6593 69.2613L71.1029 69.0305ZM71.9373 69.3085L71.7208 68.8578L71.7208 68.8578L71.9373 69.3085ZM72.2913 69.1384L72.0748 68.6877L72.0748 68.6877L72.2913 69.1384ZM72.7998 68.6019L73.2614 68.7941L73.2614 68.7941L72.7998 68.6019ZM73.062 67.9721L72.6004 67.78L72.6004 67.78L73.062 67.9721ZM74.029 64.7301L73.6447 64.4102L73.6447 64.4102L74.029 64.7301ZM74.4861 64.1809L74.8704 64.5008L74.8704 64.5008L74.4861 64.1809ZM74.5812 64.0381L74.1376 63.8073L74.1376 63.8073L74.5812 64.0381ZM75.4436 63.6208L75.3493 64.1119L75.3493 64.1119L75.4436 63.6208ZM75.9063 63.7098L76.0007 63.2187L76.0007 63.2187L75.9063 63.7098ZM76.766 64.2357L76.3719 64.5433L76.3719 64.5433L76.766 64.2357ZM76.8665 64.3644L77.2606 64.0567L77.2606 64.0567L76.8665 64.3644ZM78.179 64.769L78.3315 65.2452L78.3316 65.2452L78.179 64.769ZM78.4604 64.6366L78.7302 65.0576L78.7302 65.0576L78.4604 64.6366ZM79.0924 64.2317L78.8227 63.8107L78.8227 63.8107L79.0924 64.2317ZM79.4316 63.9642L79.7781 64.3248L79.7781 64.3247L79.4316 63.9642ZM80.096 62.116L80.5927 62.0586L80.5927 62.0586L80.096 62.116ZM79.9063 60.4753L80.403 60.4178L80.399 60.3832L80.3902 60.3494L79.9063 60.4753ZM78.3402 59.348L78.3744 59.8468L78.3744 59.8468L78.3402 59.348ZM75.6383 59.5335L75.604 59.0346L75.604 59.0346L75.6383 59.5335ZM74.7116 59.4916L74.6325 59.9853L74.6325 59.9853L74.7116 59.4916ZM72.0222 59.9869L72.2719 60.42L72.2719 60.42L72.0222 59.9869ZM70.1231 61.0818L70.3512 61.5268L70.3622 61.5212L70.3729 61.515L70.1231 61.0818ZM65.3893 63.5081L65.606 63.9589L65.6174 63.953L65.3893 63.5081ZM63.4958 64.4179L63.6922 64.8777L63.7024 64.8734L63.7124 64.8686L63.4958 64.4179ZM61.4187 65.3051L61.2223 64.8453L61.2223 64.8453L61.4187 65.3051ZM60.015 66.1586L60.3329 66.5446L60.3329 66.5446L60.015 66.1586ZM59.3049 66.7436L58.987 66.3576L58.987 66.3576L59.3049 66.7436ZM58.2198 68.5395L57.7303 68.4376L57.7303 68.4376L58.2198 68.5395ZM57.9293 69.3545L57.4857 69.1237L57.4857 69.1237L57.9293 69.3545ZM57.6752 69.8429L58.1188 70.0736L58.1188 70.0736L57.6752 69.8429ZM56.3883 76.5623L56.8318 76.793L56.8318 76.793L56.3883 76.5623ZM56.2812 76.7681L55.8376 76.5373L55.8376 76.5373L56.2812 76.7681ZM55.29 77.9142L55.5824 78.3198L55.5824 78.3198L55.29 77.9142ZM53.8919 78.4917L53.8128 77.998L53.8128 77.998L53.8919 78.4917ZM50.8724 78.9753L50.9404 79.4708L50.9515 79.469L50.8724 78.9753ZM48.6633 79.2786V79.7786H48.6974L48.7313 79.7739L48.6633 79.2786ZM45.639 78.9905L45.8888 78.5574L45.8888 78.5574L45.639 78.9905ZM44.0804 69.5308L43.7881 69.9364L43.7881 69.9364L44.0804 69.5308ZM43.8162 69.3404L44.1086 68.9348L44.1086 68.9348L43.8162 69.3404ZM42.838 69.4095L43.1844 69.77L43.1844 69.77L42.838 69.4095ZM42.6189 69.8056L43.1084 69.9075L43.1084 69.9074L42.6189 69.8056ZM42.3515 71.09L42.8377 71.2068L42.8395 71.1994L42.8411 71.1919L42.3515 71.09ZM41.5413 74.4642L41.0551 74.3474L41.0551 74.3474L41.5413 74.4642ZM41.1349 75.5513L41.5785 75.7821L41.5785 75.7821L41.1349 75.5513ZM41.0407 75.7324L41.4843 75.9632L41.4843 75.9632L41.0407 75.7324ZM40.3563 76.6468L40.7028 77.0073L40.7028 77.0073L40.3563 76.6468ZM39.5447 77.8335L39.0831 77.6414L39.0831 77.6414L39.5447 77.8335ZM39.3104 78.3964L38.8488 78.2043L38.8488 78.2043L39.3104 78.3964ZM38.9804 78.8789L38.634 78.5184L38.634 78.5184L38.9804 78.8789ZM34.6911 80.1296L35.009 80.5155L35.009 80.5155L34.6911 80.1296ZM33.8955 80.7849L34.2134 81.1708L34.2134 81.1708L33.8955 80.7849ZM33.0882 81.3444L33.338 81.7776L33.338 81.7775L33.0882 81.3444ZM32.3377 81.7771L32.0879 81.344L32.0879 81.344L32.3377 81.7771ZM31.6737 82.3879L31.2629 82.1029L31.2629 82.1029L31.6737 82.3879ZM31.1952 84.8602L30.7113 84.7343L30.7113 84.7343L31.1952 84.8602ZM30.9904 85.6474L31.4628 85.8112L31.4693 85.7925L31.4743 85.7733L30.9904 85.6474ZM29.7462 86.8122L29.8786 87.2944L29.8786 87.2944L29.7462 86.8122ZM28.9162 87.0401L28.7838 86.558L28.7838 86.558L28.9162 87.0401ZM24.9596 85.8175L25.4435 85.6917L25.4435 85.6917L24.9596 85.8175ZM24.8794 85.509L24.3955 85.6349L24.3955 85.6349L24.8794 85.509ZM24.1687 84.1249L23.7844 84.4448L23.7844 84.4448L24.1687 84.1249ZM23.5221 83.3482L23.1378 83.6681L23.1378 83.6681L23.5221 83.3482ZM23.3401 83.0746L23.7836 82.8438L23.7836 82.8438L23.3401 83.0746ZM23.1894 82.1038L23.682 82.1892L23.682 82.1892L23.1894 82.1038ZM23.3513 81.1701L22.8587 81.0846L22.8587 81.0846L23.3513 81.1701ZM23.6909 80.5311L23.3444 80.1706L23.3444 80.1706L23.6909 80.5311ZM23.8433 78.5827L23.3997 78.8135L23.3997 78.8135L23.8433 78.5827ZM23.5209 77.9631L23.9645 77.7324L23.9645 77.7323L23.5209 77.9631ZM23.015 76.2494L22.5173 76.2964L22.5173 76.2964L23.015 76.2494ZM22.7852 73.8195H22.2852V73.8431L22.2874 73.8666L22.7852 73.8195ZM22.3953 70.4656L21.9712 70.7304L21.9712 70.7304L22.3953 70.4656ZM20.816 69.328L20.9328 68.8418L20.9328 68.8418L20.816 69.328ZM18.6551 68.8089L18.5383 69.295L18.5383 69.295L18.6551 68.8089ZM17.4773 68.4274L17.6677 67.965L17.6677 67.965L17.4773 68.4274ZM15.9869 67.8135L16.1773 67.3512L16.1773 67.3512L15.9869 67.8135ZM15.0191 68.842L15.4299 68.557L15.4299 68.557L15.0191 68.842ZM15.5267 69.5736L15.9508 69.3088L15.9444 69.2986L15.9375 69.2886L15.5267 69.5736ZM16.4735 71.09L16.0493 71.3548L16.0557 71.3651L16.0626 71.3751L16.4735 71.09ZM16.5619 75.4596L16.1606 75.1613L16.1606 75.1613L16.5619 75.4596ZM16.2006 75.9457L16.6019 76.244L16.6019 76.244L16.2006 75.9457ZM14.5085 77.3416L14.292 76.8909L14.292 76.8909L14.5085 77.3416ZM12.3708 78.3687L12.5234 78.8449L12.5563 78.8344L12.5874 78.8194L12.3708 78.3687ZM8.5838 79.5818L8.73632 80.058L8.73633 80.058L8.5838 79.5818ZM7.9131 79.7967L7.76058 79.3205L7.76057 79.3205L7.9131 79.7967ZM2.76547 79.8189L2.98202 79.3682L2.98201 79.3682L2.76547 79.8189ZM2.36259 79.6253L2.14605 80.076L2.14605 80.076L2.36259 79.6253ZM1.27133 78.5683L0.827779 78.799L0.827779 78.799L1.27133 78.5683ZM1.27133 76.3495L0.82778 76.1187L0.827779 76.1187L1.27133 76.3495ZM1.41377 76.0758L0.97021 75.845L0.97021 75.845L1.41377 76.0758ZM1.99571 75.2982L2.34216 75.6587L2.34217 75.6587L1.99571 75.2982ZM2.58766 74.7294L2.2412 74.3688L2.2412 74.3689L2.58766 74.7294ZM4.16559 73.213L3.86084 72.8166L3.839 72.8334L3.81913 72.8525L4.16559 73.213ZM5.74352 71.9999L6.04833 72.3963L6.05607 72.3901L5.74352 71.9999ZM7.12535 70.8932L6.81281 70.503L6.8128 70.503L7.12535 70.8932ZM8.22792 70.1995L8.0114 69.7489L8.01137 69.7489L8.22792 70.1995ZM8.31585 70.1573L8.53237 70.608L8.53239 70.608L8.31585 70.1573ZM9.53514 69.7547L9.62952 70.2457L9.62953 70.2457L9.53514 69.7547ZM9.74642 69.7141L9.65205 69.2231L9.65204 69.2231L9.74642 69.7141ZM11.104 69.1721L10.8343 68.7511L10.8343 68.7511L11.104 69.1721ZM11.6981 68.7037L11.3517 68.3432L11.3517 68.3432L11.6981 68.7037ZM11.7397 68.6638L12.0861 69.0243L12.0861 69.0243L11.7397 68.6638ZM12.2615 68.1623L11.915 67.8018L11.915 67.8018L12.2615 68.1623ZM12.2615 67.6489L11.915 68.0094L11.915 68.0094L12.2615 67.6489ZM11.7397 67.1474L12.0861 66.7869L12.0607 66.7624L12.032 66.7418L11.7397 67.1474ZM11.4096 66.9095L11.702 66.5039L11.702 66.5039L11.4096 66.9095ZM11.0078 65.2181L10.5642 64.9873L10.5642 64.9873L11.0078 65.2181ZM11.2659 64.8732L10.9194 64.5127L10.9194 64.5127L11.2659 64.8732ZM11.2841 64.8556L11.6306 65.2162L11.6306 65.2162L11.2841 64.8556ZM11.654 58.8505L11.1645 58.9523L11.1645 58.9523L11.654 58.8505ZM11.5792 58.4914L11.0897 58.5933L11.0897 58.5933L11.5792 58.4914ZM11.6736 57.0263L11.2013 56.8624L11.2013 56.8624L11.6736 57.0263ZM11.8326 56.6572L11.3891 56.4264L11.3891 56.4264L11.8326 56.6572ZM12.1387 56.0691L12.5822 56.2999L12.5822 56.2999L12.1387 56.0691ZM12.8242 55.405L12.6077 54.9543L12.6077 54.9543L12.8242 55.405ZM12.8797 55.3783L13.0962 55.829L13.0962 55.829L12.8797 55.3783ZM14.3114 55.5051L14.019 55.9107L14.019 55.9107L14.3114 55.5051ZM15.6419 61.4316L15.2477 61.7392L15.2477 61.7392L15.6419 61.4316ZM15.6796 61.4799L16.0737 61.1722L16.0737 61.1722L15.6796 61.4799ZM16.033 61.8717L15.6865 62.2322L15.6865 62.2322L16.033 61.8717ZM16.7568 62.5672L16.4103 62.9277L16.4103 62.9277L16.7568 62.5672ZM17.5108 63.1618L17.7806 62.7408L17.7806 62.7408L17.5108 63.1618ZM17.9258 63.4276L18.1955 63.0066L18.1955 63.0066L17.9258 63.4276ZM18.1934 63.5536L18.0409 64.0297L18.0409 64.0297L18.1934 63.5536ZM18.3474 63.6029L18.1949 64.0791L18.1949 64.0791L18.3474 63.6029ZM19.3876 63.2499L19.7985 63.5349L19.7985 63.5349L19.3876 63.2499ZM19.5226 62.4912L19.0387 62.6171L19.0387 62.6171L19.5226 62.4912ZM19.3137 61.6884L18.8242 61.7903L18.8267 61.8023L18.8298 61.8143L19.3137 61.6884ZM19.0897 60.6118L18.6002 60.7137L18.6002 60.7137L19.0897 60.6118ZM19.0888 58.4814L19.5323 58.7122L19.5323 58.7122L19.0888 58.4814ZM20.0451 58.0731L20.1619 57.587L20.1619 57.587L20.0451 58.0731ZM20.4191 58.163L20.3023 58.6491L20.3023 58.6491L20.4191 58.163ZM21.8649 58.8263L21.5725 59.2319L21.5725 59.2319L21.8649 58.8263ZM22.4696 59.2622L22.7743 58.8658L22.7682 58.8611L22.762 58.8566L22.4696 59.2622ZM23.9015 60.363L24.2062 59.9666L24.2062 59.9666L23.9015 60.363ZM24.2136 60.5551L23.997 61.0057L23.997 61.0057L24.2136 60.5551ZM25.191 60.717L25.1314 60.2206L25.1314 60.2206L25.191 60.717ZM26.2204 60.5934L26.1607 60.0969L26.1607 60.0969L26.2204 60.5934ZM27.1177 59.0563L26.6561 59.2484L26.6561 59.2484L27.1177 59.0563ZM26.9604 58.6784L27.422 58.4863L27.422 58.4863L26.9604 58.6784ZM25.7154 57.2106L25.4505 57.6347L25.4505 57.6347L25.7154 57.2106ZM20.5076 53.9575L20.7725 53.5335L20.7725 53.5335L20.5076 53.9575ZM20.0504 53.6013L19.7039 53.9618L19.704 53.9618L20.0504 53.6013ZM19.4049 52.6574L18.9433 52.8496L18.9433 52.8496L19.4049 52.6574ZM19.2854 52.3704L18.8238 52.5625L18.8238 52.5625L19.2854 52.3704ZM19.5659 48.9511L19.1418 48.6863L19.1418 48.6863L19.5659 48.9511ZM19.9449 48.3441L20.369 48.6089L20.369 48.6089L19.9449 48.3441ZM20.1783 38.1074L20.3309 37.6313L20.3309 37.6313L20.1783 38.1074ZM19.7029 38.0714L19.7819 38.5651L19.782 38.5651L19.7029 38.0714ZM18.4923 38.2653L18.4133 37.7716L18.4133 37.7716L18.4923 38.2653ZM17.6172 38.2316L17.734 37.7454L17.734 37.7454L17.6172 38.2316ZM17.1218 38.1126L17.005 38.5988L17.005 38.5988L17.1218 38.1126ZM16.594 37.7515L17.0048 37.4665L17.0048 37.4665L16.594 37.7515ZM16.7095 36.5927L16.3631 36.2322L16.3631 36.2322L16.7095 36.5927ZM16.789 36.5163L16.4967 36.1106L16.468 36.1313L16.4426 36.1557L16.789 36.5163ZM18.0514 35.6064L17.7684 35.1941L17.759 35.2008L18.0514 35.6064ZM19.8925 34.3426L20.1755 34.7549L20.1755 34.7549L19.8925 34.3426ZM20.5823 33.7808L20.2358 33.4203L20.2358 33.4203L20.5823 33.7808ZM21.3476 33.0453L21.0012 32.6848L21.0012 32.6848L21.3476 33.0453ZM21.6025 32.6473L21.1301 32.4835L21.1301 32.4835L21.6025 32.6473ZM25.0826 30.9299L25.4935 31.2149L25.4935 31.2149L25.0826 30.9299ZM25.1531 30.8283L24.7423 30.5433L24.7423 30.5433L25.1531 30.8283ZM25.509 27.8802L25.9929 27.7543L25.9929 27.7543L25.509 27.8802ZM24.8092 26.5023L25.1963 26.1858L25.1963 26.1858L24.8092 26.5023ZM21.8384 22.8687L22.2255 22.5522L22.2187 22.5439L22.2116 22.5359L21.8384 22.8687ZM19.9449 20.7458L20.318 20.413L20.3052 20.3986L20.2914 20.3853L19.9449 20.7458ZM17.8481 18.7307L17.5016 19.0912L17.5016 19.0912L17.8481 18.7307ZM17.6639 18.4847L17.2204 18.7155L17.2204 18.7155L17.6639 18.4847ZM17.6901 17.5624L17.2603 17.3069L17.2603 17.3069L17.6901 17.5624ZM18.5083 16.1864L18.0785 15.9309L18.0785 15.9309L18.5083 16.1864ZM18.906 15.6357L18.5282 15.3081L18.5282 15.3081L18.906 15.6357ZM21.8384 12.254L22.2162 12.5815L22.2388 12.5555L22.2576 12.5266L21.8384 12.254ZM23.1166 10.2887L22.6974 10.0161L22.6974 10.0161L23.1166 10.2887ZM23.8793 9.53114L23.6096 9.11013L23.6096 9.11013L23.8793 9.53114ZM24.6674 8.73381L25.0915 8.99861L25.0915 8.99861L24.6674 8.73381ZM24.8252 8.4811L24.4011 8.2163L24.4011 8.2163L24.8252 8.4811ZM25.3961 6.79365L24.8983 6.74656L24.8983 6.74657L25.3961 6.79365ZM25.5212 5.47115L25.0234 5.42406L25.0234 5.42406L25.5212 5.47115ZM26.2566 3.45888L25.8625 3.15125L25.8538 3.16233L25.8458 3.17388L26.2566 3.45888ZM26.4339 3.23175L26.0397 2.92413L26.0397 2.92413L26.4339 3.23175ZM28.3708 2.69453L28.1914 3.16124L28.1914 3.16124L28.3708 2.69453ZM29.0627 3.19032L29.447 2.87042L29.447 2.87042L29.0627 3.19032ZM29.3097 3.48708L29.694 3.16719L29.694 3.16719L29.3097 3.48708ZM30.244 7.77205L29.7647 7.91454L29.7647 7.91454L30.244 7.77205ZM30.349 8.12531L30.8283 7.98282L30.8283 7.98282L30.349 8.12531ZM31.5672 9.93584L31.2547 10.3261L31.2547 10.3261L31.5672 9.93584ZM34.4619 10.7376V11.2376H34.496L34.5299 11.2329L34.4619 10.7376ZM37.845 10.2731L37.777 9.77776L37.777 9.77776L37.845 10.2731ZM39.8409 9.72065L39.6445 9.26083L39.6445 9.26083L39.8409 9.72065ZM43.236 8.27054L43.4324 8.73036L43.4324 8.73036L43.236 8.27054ZM44.9497 5.02099L45.3605 5.30599L45.3605 5.30599L44.9497 5.02099ZM45.3636 4.42438L44.9528 4.13938L44.9528 4.13938L45.3636 4.42438ZM46.4836 3.30047L46.77 3.71029L46.77 3.71029L46.4836 3.30047ZM49.2944 1.33592L49.0447 0.902765L49.0258 0.913633L49.008 0.926097L49.2944 1.33592ZM52.1857 1.68819L51.8392 2.04871L51.8392 2.04871L52.1857 1.68819ZM52.7659 2.24577L53.1502 1.92588L53.1324 1.90452L53.1123 1.88526L52.7659 2.24577ZM53.1533 2.7112L52.7691 3.03109L52.7691 3.03109L53.1533 2.7112ZM54.6594 4.97528L54.2159 5.20606L54.2249 5.22345L54.2353 5.24008L54.6594 4.97528ZM55.6062 6.49168L55.1821 6.75648L55.1959 6.77868L55.212 6.79931L55.6062 6.49168ZM56.0688 7.08442L55.6746 7.39204L55.6746 7.39205L56.0688 7.08442ZM57.3024 7.94485L57.4549 7.46868L57.4549 7.46868L57.3024 7.94485ZM57.6608 8.05966L57.5082 8.53583L57.5082 8.53583L57.6608 8.05966ZM59.1411 7.86629L59.4109 8.2873L59.4109 8.2873L59.1411 7.86629ZM59.5774 7.46878L59.9716 7.7764L59.9716 7.7764L59.5774 7.46878ZM60.1464 6.73968L59.7523 6.43205L59.7523 6.43205L60.1464 6.73968ZM60.4852 6.21262L60.9287 6.4434L60.9287 6.44339L60.4852 6.21262ZM60.8918 5.60139L60.5075 5.28149L60.5075 5.28149L60.8918 5.60139ZM61.6427 4.69934L61.2584 4.37944L61.2584 4.37944L61.6427 4.69934ZM62.2906 4.15385L62.0408 3.7207L62.0408 3.7207L62.2906 4.15385ZM63.3034 3.56982L63.5532 4.00297L63.5532 4.00297L63.3034 3.56982ZM64.9967 3.2343L65.4208 2.96951L65.4208 2.9695L64.9967 3.2343ZM65.4536 3.96613L65.0294 4.23093L65.0294 4.23094L65.4536 3.96613ZM66.3418 6.19111L66.1252 6.64179L66.1252 6.64179L66.3418 6.19111ZM66.5573 8.03313L66.2447 7.64286L66.2447 7.64286L66.5573 8.03313ZM65.9792 8.4961L66.2917 8.88638L66.2917 8.88638L65.9792 8.4961ZM65.5195 10.2921L65.9811 10.1L65.9811 10.1L65.5195 10.2921ZM66.1112 10.9979L66.381 10.5769L66.381 10.5769L66.1112 10.9979ZM66.1255 11.007L65.8557 11.428L65.8557 11.428L66.1255 11.007ZM66.809 11.949L66.3251 12.0748L66.3251 12.0748L66.809 11.949ZM66.8599 12.1445L66.376 12.2704L66.376 12.2704L66.8599 12.1445ZM66.8275 12.9602L66.3551 12.7963L66.3551 12.7963L66.8275 12.9602ZM66.8579 13.9624L66.3963 14.1546L66.3963 14.1546L66.8579 13.9624ZM66.9849 14.2675L66.5233 14.4597L66.5233 14.4597L66.9849 14.2675ZM67.9819 15.3193L68.1984 14.8687L68.1984 14.8687L67.9819 15.3193ZM70.1841 15.0325L69.8593 14.6524L69.8593 14.6524L70.1841 15.0325ZM72.0167 13.4671L72.3414 13.8473L72.3526 13.8377L72.3631 13.8276L72.0167 13.4671ZM73.9102 13.4671L73.5637 13.8276L73.5892 13.8521L73.6178 13.8727L73.9102 13.4671ZM80.2046 15.1635L79.8104 15.4711L79.8105 15.4711L80.2046 15.1635ZM81.0378 15.7961L80.8474 16.2584L80.8474 16.2584L81.0378 15.7961ZM81.8015 16.1106L81.9919 15.6483L81.9919 15.6483L81.8015 16.1106ZM86.8345 16.2556L86.9613 16.7392L86.9613 16.7392L86.8345 16.2556ZM88.3217 15.8658L88.4485 16.3495L88.4485 16.3495L88.3217 15.8658ZM90.0228 14.7171L90.4241 15.0153L90.4241 15.0153L90.0228 14.7171ZM90.3041 14.3386L89.9028 14.0403L89.9028 14.0403L90.3041 14.3386ZM92.9733 13.6802L92.7567 14.1309L92.7567 14.1309L92.9733 13.6802ZM94.3828 14.3575L94.1663 14.8082L94.1663 14.8082L94.3828 14.3575ZM96.7278 15.985L96.3814 16.3455L96.3814 16.3455L96.7278 15.985ZM97.2835 16.519L97.6299 16.1585L97.6299 16.1585L97.2835 16.519ZM97.9245 17.0244L98.1942 16.6034L98.1942 16.6034L97.9245 17.0244ZM98.5052 17.3965L98.2355 17.8175L98.2355 17.8175L98.5052 17.3965ZM99.669 19.1483L100.162 19.0629L100.162 19.0629L99.669 19.1483ZM100.235 20.3723L100.619 20.0524L100.619 20.0524L100.235 20.3723ZM100.588 20.7965L100.972 20.4766L100.972 20.4766L100.588 20.7965ZM101.288 22.0356L100.815 22.1994L100.815 22.1994L101.288 22.0356ZM101.379 24.3361L100.895 24.2102L100.895 24.2102L101.379 24.3361ZM101.171 25.1338L100.688 25.0079L100.688 25.0079L101.171 25.1338ZM102.808 29.2658L102.572 29.7068L102.572 29.7068L102.808 29.2658ZM104.337 30.9882L104.803 30.8064L104.803 30.8064L104.337 30.9882ZM104.838 32.2704L104.372 32.4521L104.382 32.4772L104.394 32.5011L104.838 32.2704ZM105.088 32.7517L105.532 32.5209L105.532 32.5209L105.088 32.7517ZM107.747 36.1478L107.417 36.523L107.417 36.523L107.747 36.1478ZM108.179 36.5226L107.853 36.9014L107.853 36.9014L108.179 36.5226ZM110.518 40.7622L110.172 40.4017L110.172 40.4017L110.518 40.7622ZM109.992 41.5469L110.423 41.7999L110.423 41.7999L109.992 41.5469ZM107.879 43.5466L108.096 43.9973L108.096 43.9973L107.879 43.5466ZM107.484 43.7363L107.268 43.2856L107.268 43.2856L107.484 43.7363ZM105.632 45.8642L106.108 46.0167L106.108 46.0167L105.632 45.8642ZM42.1616 19.6694L42.0672 19.1784L42.0672 19.1784L42.1616 19.6694ZM42.8501 19.5371L42.7558 19.0461L42.7558 19.0461L42.8501 19.5371ZM41.564 19.8668L41.3475 19.4161L41.3475 19.4161L41.564 19.8668ZM40.279 21.3742L39.7997 21.2317L39.7997 21.2317L40.279 21.3742ZM40.1214 21.9041L39.6421 21.7616L39.6421 21.7616L40.1214 21.9041ZM39.4349 22.7095L39.2183 22.2588L39.2183 22.2588L39.4349 22.7095ZM40.7904 27.3438L40.7113 27.8375L40.7113 27.8375L40.7904 27.3438ZM41.3241 27.4292L41.4031 26.9355L41.4031 26.9355L41.3241 27.4292ZM43.2309 28.5152L42.8466 28.8351L42.8466 28.8351L43.2309 28.5152ZM43.7435 29.131L43.3592 29.4509L43.3663 29.4594L43.3738 29.4676L43.7435 29.131ZM45.2981 30.8383L44.9284 31.1749L44.9284 31.1749L45.2981 30.8383ZM46.8673 31.8868L47.0368 31.4164L47.0368 31.4164L46.8673 31.8868ZM49.9973 31.6805L50.227 32.1246L50.227 32.1246L49.9973 31.6805ZM52.0388 30.6241L52.2686 31.0682L52.2686 31.0682L52.0388 30.6241ZM53.8521 30.4334L53.9845 29.9513L53.9845 29.9513L53.8521 30.4334ZM55.5162 30.8904L55.6486 30.4082L55.6486 30.4082L55.5162 30.8904ZM56.1042 31.4687L56.221 31.9549L56.221 31.9549L56.1042 31.4687ZM57.7681 31.0689L57.6513 30.5828L57.6513 30.5828L57.7681 31.0689ZM58.6014 30.5762L58.2317 30.2396L58.2317 30.2396L58.6014 30.5762ZM59.6155 29.4625L59.9852 29.7991L59.9852 29.7991L59.6155 29.4625ZM60.9115 27.3352L61.3802 27.5094L61.3802 27.5094L60.9115 27.3352ZM61.9668 24.4956L61.4982 24.3214L61.4982 24.3214L61.9668 24.4956ZM61.4884 22.9849L61.7714 22.5726L61.7714 22.5726L61.4884 22.9849ZM59.8384 21.8523L59.5166 22.235L59.5353 22.2507L59.5555 22.2645L59.8384 21.8523ZM57.8947 20.2179L57.5729 20.6006L57.5729 20.6006L57.8947 20.2179ZM56.8609 19.1201L56.4596 19.4184L56.4596 19.4184L56.8609 19.1201ZM56.2033 18.2353L56.6046 17.9371L56.6046 17.9371L56.2033 18.2353ZM55.0043 17.3252L54.8249 17.7919L54.8249 17.7919L55.0043 17.3252ZM53.2865 17.251L53.425 17.7315L53.425 17.7315L53.2865 17.251ZM51.8477 17.6659L51.7091 17.1854L51.7091 17.1854L51.8477 17.6659ZM50.3151 18.4598L50.6276 18.8501L50.6276 18.8501L50.3151 18.4598ZM50.0938 18.637L49.7813 18.2467L49.7813 18.2467L50.0938 18.637ZM47.3166 19.1551L47.0435 19.574L47.0435 19.574L47.3166 19.1551ZM43.913 19.0931L43.6301 18.6809L43.63 18.6809L43.913 19.0931ZM41.2919 27.7536L41.2128 28.2473L41.2128 28.2473L41.2919 27.7536ZM41.8256 27.8391L41.9047 27.3454L41.9047 27.3454L41.8256 27.8391ZM50.4988 32.0904L50.269 31.6463L50.269 31.6463L50.4988 32.0904ZM52.5403 31.034L52.7701 31.4781L52.7701 31.4781L52.5403 31.034ZM54.3536 30.8433L54.2212 31.3255L54.2212 31.3255L54.3536 30.8433ZM56.6057 31.8786L56.4889 31.3924L56.4889 31.3924L56.6057 31.8786ZM58.2697 31.4788L58.1529 30.9927L58.1529 30.9927L58.2697 31.4788ZM59.103 30.9861L59.4727 31.3227L59.4727 31.3227L59.103 30.9861ZM60.117 29.8724L59.7473 29.5357L59.7473 29.5357L60.117 29.8724ZM61.4131 27.7451L61.8818 27.9193L61.8818 27.9193L61.4131 27.7451ZM62.4684 24.9055L61.9997 24.7313L61.9997 24.7313L62.4684 24.9055ZM61.9899 23.3948L62.2729 22.9825L62.2729 22.9825L61.9899 23.3948ZM58.3963 20.6278L58.7181 20.2451L58.7181 20.2451L58.3963 20.6278ZM57.3624 19.53L57.7637 19.2317L57.7637 19.2317L57.3624 19.53ZM56.7048 18.6452L56.3035 18.9435L56.3035 18.9435L56.7048 18.6452ZM46.1386 18.3195L45.7921 18.6801L45.8084 18.6957L45.826 18.7098L46.1386 18.3195ZM44.7972 18.2248L44.5049 17.8192L44.5049 17.8192L44.7972 18.2248ZM44.6146 18.3565L44.3222 17.9509L44.3222 17.9509L44.6146 18.3565ZM47.3688 32.2967L47.1993 32.7671L47.1993 32.7671L47.3688 32.2967ZM99.149 48.8441H102.234V47.8441H99.149V48.8441ZM97.9561 49.693C98.1324 49.1848 98.6112 48.8441 99.149 48.8441V47.8441C98.1852 47.8441 97.3272 48.4547 97.0113 49.3653L97.9561 49.693ZM97.9833 50.5919C97.8642 50.3058 97.8546 49.9858 97.9561 49.693L97.0113 49.3653C96.8293 49.89 96.8467 50.4634 97.0601 50.9762L97.9833 50.5919ZM98.2446 51.2195L97.9833 50.5919L97.0601 50.9762L97.3214 51.6038L98.2446 51.2195ZM98.4729 51.6622C98.3849 51.5211 98.3085 51.373 98.2446 51.2195L97.3214 51.6038C97.4062 51.8077 97.5077 52.0044 97.6247 52.1918L98.4729 51.6622ZM98.9444 52.4174L98.4729 51.6622L97.6247 52.1918L98.0962 52.947L98.9444 52.4174ZM99.6219 53.1027C99.3481 52.9273 99.1167 52.6932 98.9444 52.4174L98.0962 52.947C98.3469 53.3485 98.6838 53.6894 99.0824 53.9448L99.6219 53.1027ZM100.391 53.4099C100.118 53.3573 99.8565 53.2531 99.6219 53.1027L99.0824 53.9448C99.424 54.1636 99.8042 54.3154 100.203 54.3919L100.391 53.4099ZM101.461 53.6154L100.391 53.4099L100.203 54.3919L101.272 54.5974L101.461 53.6154ZM104.881 53.9116L101.41 53.6083L101.323 54.6045L104.794 54.9078L104.881 53.9116ZM106.3 53.9097H104.838V54.9097H106.3V53.9097ZM108.809 55.6228C108.809 54.9231 108.331 54.483 107.85 54.2447C107.37 54.0065 106.787 53.9097 106.3 53.9097V54.9097C106.677 54.9097 107.098 54.9881 107.406 55.1407C107.714 55.2933 107.809 55.4597 107.809 55.6228H108.809ZM108.889 55.7865C108.855 55.7174 108.831 55.6623 108.817 55.6223C108.81 55.6026 108.807 55.5915 108.807 55.5878C108.805 55.5825 108.809 55.5961 108.809 55.6228H107.809C107.809 55.752 107.845 55.8729 107.874 55.9543C107.906 56.0455 107.948 56.1397 107.992 56.229L108.889 55.7865ZM109.03 57.9216C109.333 57.1927 109.198 56.4135 108.889 55.7865L107.992 56.229C108.217 56.6836 108.267 57.1527 108.107 57.5373L109.03 57.9216ZM108.974 58.0565L109.03 57.9216L108.107 57.5373L108.051 57.6722L108.974 58.0565ZM108.049 59.0319C108.467 58.8313 108.796 58.4841 108.974 58.0565L108.051 57.6722C107.967 57.8732 107.812 58.0363 107.616 58.1306L108.049 59.0319ZM107.945 59.0821L108.049 59.0319L107.616 58.1306L107.512 58.1808L107.945 59.0821ZM107.547 59.7149C107.547 59.445 107.701 59.199 107.945 59.0821L107.512 58.1808C106.922 58.4642 106.547 59.0606 106.547 59.7149H107.547ZM107.569 59.8917C107.554 59.834 107.547 59.7746 107.547 59.7149H106.547C106.547 59.8595 106.565 60.0035 106.602 60.1434L107.569 59.8917ZM107.616 60.0724L107.569 59.8917L106.602 60.1435L106.649 60.3242L107.616 60.0724ZM108.391 61.2419C108.01 60.949 107.737 60.5375 107.616 60.0724L106.649 60.3242C106.826 61.0044 107.224 61.6063 107.781 62.0347L108.391 61.2419ZM109.245 61.8986L108.391 61.2419L107.781 62.0347L108.636 62.6913L109.245 61.8986ZM110.054 62.6722L109.287 61.9344L108.594 62.6555L109.361 63.3932L110.054 62.6722ZM110.222 64.3568C110.588 63.8302 110.516 63.1163 110.054 62.6722L109.361 63.3932C109.469 63.497 109.486 63.6638 109.401 63.7868L110.222 64.3568ZM109.15 64.9179C109.578 64.9179 109.979 64.7083 110.222 64.3568L109.401 63.7868C109.344 63.8689 109.25 63.9179 109.15 63.9179V64.9179ZM108.197 64.9179H109.15V63.9179H108.197V64.9179ZM107.007 64.6824C107.385 64.8379 107.789 64.9179 108.197 64.9179V63.9179C107.92 63.9179 107.645 63.8635 107.388 63.7577L107.007 64.6824ZM105.278 63.9704L107.007 64.6824L107.388 63.7577L105.659 63.0458L105.278 63.9704ZM103.742 63.3378L105.278 63.9704L105.659 63.0458L104.123 62.4131L103.742 63.3378ZM102.532 63.0982C102.947 63.0982 103.358 63.1796 103.742 63.3378L104.123 62.4131C103.618 62.2052 103.078 62.0982 102.532 62.0982V63.0982ZM101.901 63.0982H102.532V62.0982H101.901V63.0982ZM100.784 63.5482C101.084 63.2595 101.485 63.0982 101.901 63.0982V62.0982C101.226 62.0982 100.577 62.3595 100.091 62.8272L100.784 63.5482ZM100.288 64.7113C100.288 64.2724 100.467 63.8524 100.784 63.5482L100.091 62.8272C99.578 63.3199 99.2883 64.0003 99.2883 64.7113H100.288ZM100.288 68.1076V64.7113H99.2883V68.1076H100.288ZM99.3342 69.8518C99.9287 69.4709 100.288 68.8136 100.288 68.1076H99.2883C99.2883 68.4727 99.1023 68.8128 98.7948 69.0097L99.3342 69.8518ZM98.7008 70.1217C98.9255 70.0677 99.1396 69.9765 99.3343 69.8518L98.7948 69.0097C98.6942 69.0742 98.5834 69.1214 98.4671 69.1493L98.7008 70.1217ZM98.5525 70.1573L98.7008 70.1217L98.4671 69.1493L98.3189 69.185L98.5525 70.1573ZM96.5686 69.9461C97.1859 70.2427 97.8866 70.3173 98.5525 70.1573L98.3189 69.185C97.8768 69.2912 97.4115 69.2416 97.0017 69.0447L96.5686 69.9461ZM96.3847 69.8577L96.5686 69.9461L97.0017 69.0447L96.8177 68.9563L96.3847 69.8577ZM94.7733 68.2968C95.1275 68.9776 95.6929 69.5253 96.3847 69.8577L96.8178 68.9563C96.3209 68.7176 95.9148 68.3242 95.6604 67.8352L94.7733 68.2968ZM94.5142 67.7988L94.7733 68.2968L95.6604 67.8352L95.4013 67.3373L94.5142 67.7988ZM93.9233 65.383C93.9233 66.224 94.126 67.0527 94.5142 67.7988L95.4013 67.3373C95.0873 66.7337 94.9233 66.0633 94.9233 65.383H93.9233ZM93.9233 64.6059V65.383H94.9233V64.6059H93.9233ZM94.4864 62.3034C94.1165 63.0145 93.9233 63.8043 93.9233 64.6059H94.9233C94.9233 63.965 95.0777 63.3335 95.3736 62.765L94.4864 62.3034ZM94.9292 60.7062C94.8951 61.2637 94.7443 61.8079 94.4864 62.3034L95.3735 62.765C95.696 62.1452 95.8847 61.4646 95.9274 60.7673L94.9292 60.7062ZM95.0529 58.6865L94.9292 60.7062L95.9274 60.7673L96.051 58.7476L95.0529 58.6865ZM93.7613 55.3768C94.6565 56.2371 95.1287 57.4472 95.0529 58.6865L96.051 58.7476C96.1448 57.2154 95.561 55.7194 94.4542 54.6557L93.7613 55.3768ZM93.5834 55.2058L93.7612 55.3768L94.4542 54.6558L94.2763 54.4848L93.5834 55.2058ZM90.588 53.9999C91.7048 53.9999 92.7782 54.432 93.5834 55.2058L94.2763 54.4848C93.2848 53.532 91.9631 52.9999 90.588 52.9999V53.9999ZM87.362 55.4453C88.1822 54.5257 89.3558 53.9999 90.588 53.9999V52.9999C89.0708 52.9999 87.6256 53.6474 86.6157 54.7797L87.362 55.4453ZM87.3197 55.4927L87.362 55.4453L86.6157 54.7797L86.5734 54.8271L87.3197 55.4927ZM86.6909 56.4039C86.8619 56.0753 87.0731 55.7692 87.3197 55.4927L86.5734 54.8271C86.2716 55.1655 86.0131 55.5401 85.8038 55.9423L86.6909 56.4039ZM85.2876 59.101L86.6909 56.4039L85.8038 55.9423L84.4005 58.6395L85.2876 59.101ZM84.9677 59.8434C85.0561 59.5885 85.163 59.3404 85.2876 59.1011L84.4005 58.6395C84.2535 58.922 84.1273 59.2148 84.023 59.5157L84.9677 59.8434ZM84.752 60.4654L84.9677 59.8434L84.0229 59.5157L83.8072 60.1377L84.752 60.4654ZM84.625 61.8253C84.557 61.3684 84.6006 60.9018 84.752 60.4654L83.8072 60.1377C83.603 60.7265 83.5442 61.3559 83.6358 61.9723L84.625 61.8253ZM85.6677 63.6399C85.1037 63.1882 84.7312 62.54 84.625 61.8253L83.6358 61.9723C83.7792 62.9366 84.2817 63.811 85.0426 64.4204L85.6677 63.6399ZM86.0959 63.9828L85.6677 63.6399L85.0426 64.4204L85.4708 64.7633L86.0959 63.9828ZM86.9549 64.8526C86.7033 64.5303 86.415 64.2384 86.0959 63.9828L85.4708 64.7633C85.7293 64.9703 85.9628 65.2068 86.1665 65.4679L86.9549 64.8526ZM87.2958 65.2895L86.9549 64.8526L86.1665 65.4679L86.5075 65.9048L87.2958 65.2895ZM89.0906 68.9247C88.7468 67.6031 88.136 66.366 87.2958 65.2895L86.5075 65.9048C87.2636 66.8736 87.8134 67.987 88.1228 69.1764L89.0906 68.9247ZM89.2266 69.4477L89.0906 68.9247L88.1228 69.1764L88.2588 69.6995L89.2266 69.4477ZM89.7035 70.8178L89.2151 69.4098L88.2703 69.7375L88.7587 71.1455L89.7035 70.8178ZM89.7747 71.9217C89.8512 71.5541 89.8266 71.1726 89.7035 70.8178L88.7587 71.1455C88.8226 71.3295 88.8353 71.5273 88.7956 71.718L89.7747 71.9217ZM88.0235 73.5565C88.8943 73.4369 89.5956 72.7823 89.7747 71.9217L88.7956 71.718C88.7028 72.1643 88.3391 72.5038 87.8875 72.5658L88.0235 73.5565ZM86.9172 73.7083L88.0235 73.5565L87.8875 72.5658L86.7812 72.7176L86.9172 73.7083ZM86.6032 73.713H86.8492V72.713H86.6032V73.713ZM84.56 75.2371C84.8288 74.3329 85.6599 73.713 86.6032 73.713V72.713C85.2174 72.713 83.9963 73.6238 83.6014 74.9521L84.56 75.2371ZM84.5531 75.26L84.5599 75.2372L83.6014 74.952L83.5947 74.9748L84.5531 75.26ZM84.3473 75.7689C84.432 75.6062 84.5009 75.4357 84.5532 75.2599L83.5946 74.9749C83.5605 75.0898 83.5155 75.2011 83.4602 75.3074L84.3473 75.7689ZM83.6757 76.6188C83.9513 76.3805 84.1791 76.0921 84.3473 75.7689L83.4602 75.3074C83.3503 75.5185 83.2015 75.7068 83.0215 75.8625L83.6757 76.6188ZM78.1774 81.3744L83.6757 76.6188L83.0215 75.8625L77.5232 80.618L78.1774 81.3744ZM76.639 81.6887C77.1715 81.8592 77.7544 81.7401 78.1774 81.3743L77.5232 80.618C77.364 80.7557 77.1445 80.8005 76.9441 80.7363L76.639 81.6887ZM75.8106 81.0755C76.0117 81.3655 76.3029 81.581 76.639 81.6887L76.9441 80.7363C76.8176 80.6958 76.7079 80.6147 76.6322 80.5055L75.8106 81.0755ZM75.6957 80.9099L75.8106 81.0755L76.6322 80.5055L76.5173 80.3399L75.6957 80.9099ZM75.3037 79.6572C75.3037 80.1049 75.4405 80.542 75.6957 80.9098L76.5173 80.3399C76.3782 80.1394 76.3037 79.9012 76.3037 79.6572H75.3037ZM75.3037 79.2485V79.6572H76.3037V79.2485H75.3037ZM74.8682 77.9828C75.1504 78.3444 75.3037 78.7899 75.3037 79.2485H76.3037C76.3037 78.5669 76.0759 77.9049 75.6566 77.3675L74.8682 77.9828ZM74.0545 77.3566C74.3743 77.4932 74.6543 77.7086 74.8683 77.9828L75.6566 77.3675C75.3386 76.9601 74.9225 76.6399 74.4472 76.4369L74.0545 77.3566ZM71.8203 76.4023L74.0545 77.3566L74.4472 76.4369L72.2131 75.4827L71.8203 76.4023ZM67.7723 75.2088L71.8749 76.422L72.1584 75.463L68.0558 74.2499L67.7723 75.2088ZM66.9495 74.9133L67.7445 75.1998L68.0836 74.259L67.2885 73.9725L66.9495 74.9133ZM64.6815 72.0506C64.8326 73.358 65.7113 74.467 66.9495 74.9133L67.2885 73.9725C66.4076 73.655 65.7824 72.8659 65.6749 71.9357L64.6815 72.0506ZM64.6213 71.5301L64.6815 72.0506L65.6749 71.9357L65.6147 71.4153L64.6213 71.5301ZM64.808 70.5176C64.646 70.8289 64.581 71.1815 64.6213 71.5301L65.6147 71.4153C65.5973 71.2651 65.6253 71.1132 65.6951 70.9791L64.808 70.5176ZM65.3392 69.9032C65.1166 70.0637 64.9346 70.2741 64.808 70.5176L65.6951 70.9791C65.7497 70.8742 65.828 70.7836 65.9239 70.7145L65.3392 69.9032ZM67.6217 68.2582L65.3392 69.9032L65.9239 70.7145L68.2064 69.0694L67.6217 68.2582ZM68.7309 67.4051L67.6093 68.2674L68.2188 69.0602L69.3404 68.1979L68.7309 67.4051ZM70.1684 67.099C69.6676 66.9786 69.1392 67.0912 68.7309 67.4051L69.3404 68.1979C69.5093 68.0681 69.7277 68.0215 69.9348 68.0713L70.1684 67.099ZM71.4202 68.3275C71.2617 67.7183 70.7805 67.246 70.1684 67.099L69.9348 68.0713C70.1879 68.1321 70.3869 68.3274 70.4524 68.5793L71.4202 68.3275ZM71.5358 68.772L71.4202 68.3275L70.4524 68.5793L70.568 69.0238L71.5358 68.772ZM71.5465 68.7997C71.5419 68.791 71.5383 68.7817 71.5358 68.772L70.568 69.0238C70.5894 69.1061 70.6201 69.1858 70.6593 69.2613L71.5465 68.7997ZM71.7208 68.8578C71.6565 68.8887 71.5794 68.863 71.5464 68.7997L70.6593 69.2613C70.9415 69.8035 71.603 70.0239 72.1539 69.7592L71.7208 68.8578ZM72.0748 68.6877L71.7208 68.8578L72.1539 69.7592L72.5079 69.5891L72.0748 68.6877ZM72.3382 68.4098C72.2875 68.5316 72.1937 68.6306 72.0748 68.6877L72.5079 69.5891C72.8481 69.4256 73.1164 69.1426 73.2614 68.7941L72.3382 68.4098ZM72.6004 67.78L72.3382 68.4098L73.2614 68.7941L73.5236 68.1643L72.6004 67.78ZM72.779 66.8859C72.779 67.1928 72.7183 67.4966 72.6004 67.78L73.5236 68.1643C73.6922 67.7591 73.779 67.3247 73.779 66.8859H72.779ZM72.779 66.8032V66.8859H73.779V66.8032H72.779ZM73.6447 64.4102C73.0853 65.0822 72.779 65.9289 72.779 66.8032H73.779C73.779 66.1627 74.0034 65.5423 74.4132 65.05L73.6447 64.4102ZM74.1019 63.861L73.6447 64.4102L74.4132 65.05L74.8704 64.5008L74.1019 63.861ZM74.1376 63.8073C74.1277 63.8264 74.1157 63.8445 74.1019 63.8611L74.8704 64.5008C74.93 64.4292 74.9817 64.3515 75.0247 64.2688L74.1376 63.8073ZM75.538 63.1298C74.9728 63.0212 74.4033 63.2967 74.1376 63.8073L75.0247 64.2689C75.0863 64.1505 75.2183 64.0867 75.3493 64.1119L75.538 63.1298ZM76.0007 63.2187L75.538 63.1298L75.3493 64.1119L75.8119 64.2008L76.0007 63.2187ZM77.1602 63.928C76.8722 63.5591 76.4603 63.3071 76.0007 63.2187L75.8119 64.2008C76.0339 64.2434 76.2328 64.3651 76.3719 64.5433L77.1602 63.928ZM77.2606 64.0567L77.1602 63.928L76.3719 64.5433L76.4723 64.672L77.2606 64.0567ZM78.0265 64.2929C77.747 64.3824 77.4412 64.2881 77.2606 64.0567L76.4723 64.672C76.9107 65.2337 77.6529 65.4626 78.3315 65.2452L78.0265 64.2929ZM78.1907 64.2156C78.1396 64.2483 78.0844 64.2743 78.0265 64.2929L78.3316 65.2452C78.472 65.2002 78.606 65.1371 78.7302 65.0576L78.1907 64.2156ZM78.8227 63.8107L78.1907 64.2156L78.7302 65.0576L79.3621 64.6527L78.8227 63.8107ZM79.0852 63.6037C79.0046 63.6811 78.9167 63.7504 78.8227 63.8107L79.3621 64.6527C79.5112 64.5572 79.6505 64.4474 79.7781 64.3248L79.0852 63.6037ZM79.5993 62.1735C79.6607 62.7043 79.4705 63.2334 79.0852 63.6037L79.7781 64.3247C80.3886 63.738 80.69 62.8998 80.5927 62.0586L79.5993 62.1735ZM79.4096 60.5327L79.5993 62.1735L80.5927 62.0586L80.403 60.4178L79.4096 60.5327ZM78.3744 59.8468C78.8597 59.8135 79.3 60.1304 79.4224 60.6012L80.3902 60.3494C80.1467 59.4132 79.2711 58.7829 78.306 58.8492L78.3744 59.8468ZM75.6725 60.0323L78.3744 59.8468L78.306 58.8492L75.604 59.0346L75.6725 60.0323ZM74.6325 59.9853C74.9763 60.0404 75.3252 60.0561 75.6725 60.0323L75.604 59.0346C75.3324 59.0533 75.0595 59.041 74.7906 58.9979L74.6325 59.9853ZM72.2719 60.42C72.9856 60.0085 73.8191 59.855 74.6325 59.9853L74.7906 58.9979C73.7506 58.8313 72.6849 59.0276 71.7724 59.5537L72.2719 60.42ZM70.3729 61.515L72.2719 60.42L71.7724 59.5537L69.8734 60.6487L70.3729 61.515ZM65.6174 63.953L70.3512 61.5268L69.8951 60.6369L65.1613 63.0631L65.6174 63.953ZM63.7124 64.8686L65.6059 63.9588L65.1728 63.0574L63.2793 63.9672L63.7124 64.8686ZM61.6151 65.7649L63.6922 64.8777L63.2994 63.9581L61.2223 64.8453L61.6151 65.7649ZM60.3329 66.5446C60.721 66.2249 61.1527 65.9624 61.6151 65.7649L61.2223 64.8453C60.6723 65.0802 60.1588 65.3925 59.6972 65.7727L60.3329 66.5446ZM59.6228 67.1295L60.3329 66.5446L59.6972 65.7727L58.987 66.3576L59.6228 67.1295ZM58.7094 68.6414C58.8328 68.0481 59.1551 67.5148 59.6228 67.1295L58.987 66.3576C58.3435 66.8877 57.9002 67.6215 57.7303 68.4376L58.7094 68.6414ZM58.3728 69.5853C58.5277 69.2876 58.641 68.97 58.7094 68.6414L57.7303 68.4376C57.6806 68.6765 57.5983 68.9073 57.4857 69.1237L58.3728 69.5853ZM58.1188 70.0736L58.3728 69.5853L57.4857 69.1237L57.2317 69.6121L58.1188 70.0736ZM57.3685 73.1411C57.3685 72.0732 57.6259 71.021 58.1188 70.0736L57.2317 69.6121C56.6646 70.702 56.3685 71.9125 56.3685 73.1411H57.3685ZM57.3685 74.5987V73.1411H56.3685V74.5987H57.3685ZM56.8318 76.793C57.1844 76.1153 57.3685 75.3626 57.3685 74.5987H56.3685C56.3685 75.202 56.2231 75.7963 55.9447 76.3315L56.8318 76.793ZM56.7247 76.9988L56.8318 76.793L55.9447 76.3315L55.8376 76.5373L56.7247 76.9988ZM55.5824 78.3198C56.0611 77.9748 56.4524 77.5224 56.7247 76.9988L55.8376 76.5373C55.6374 76.9222 55.3497 77.2549 54.9977 77.5086L55.5824 78.3198ZM53.9709 78.9854C54.5526 78.8922 55.1045 78.6643 55.5824 78.3198L54.9977 77.5086C54.6463 77.7619 54.2405 77.9295 53.8128 77.998L53.9709 78.9854ZM50.9515 79.469L53.9709 78.9854L53.8128 77.998L50.7933 78.4816L50.9515 79.469ZM48.7313 79.7739L50.9404 79.4706L50.8044 78.4799L48.5953 78.7832L48.7313 79.7739ZM46.7152 79.7786H48.6633V78.7786H46.7152V79.7786ZM45.3893 79.4237C45.7925 79.6562 46.2498 79.7786 46.7152 79.7786V78.7786C46.4251 78.7786 46.1401 78.7023 45.8888 78.5574L45.3893 79.4237ZM44.0606 77.124C44.0606 78.0729 44.5672 78.9497 45.3893 79.4237L45.8888 78.5574C45.3764 78.2619 45.0606 77.7154 45.0606 77.124H44.0606ZM44.0606 74.7294V77.124H45.0606V74.7294H44.0606ZM44.0606 70.4689V74.7294H45.0606V70.4689H44.0606ZM43.7881 69.9364C43.9592 70.0598 44.0606 70.2579 44.0606 70.4689H45.0606C45.0606 69.9364 44.8047 69.4365 44.3728 69.1252L43.7881 69.9364ZM43.5239 69.746L43.7881 69.9364L44.3728 69.1252L44.1086 68.9348L43.5239 69.746ZM43.1844 69.77C43.2769 69.6811 43.4198 69.671 43.5239 69.746L44.1086 68.9348C43.6127 68.5774 42.9322 68.6254 42.4915 69.049L43.1844 69.77ZM43.1084 69.9074C43.1193 69.855 43.1458 69.8071 43.1844 69.77L42.4915 69.0489C42.3076 69.2257 42.1813 69.4539 42.1293 69.7037L43.1084 69.9074ZM42.8411 71.1919L43.1084 69.9075L42.1293 69.7037L41.862 70.9882L42.8411 71.1919ZM42.0275 74.5809L42.8377 71.2068L41.8654 70.9733L41.0551 74.3474L42.0275 74.5809ZM41.5785 75.7821C41.7765 75.4015 41.9273 74.9981 42.0275 74.5809L41.0551 74.3474C40.974 74.6854 40.8518 75.0122 40.6914 75.3205L41.5785 75.7821ZM41.4843 75.9632L41.5785 75.7821L40.6914 75.3205L40.5972 75.5016L41.4843 75.9632ZM40.7028 77.0073C41.0183 76.7041 41.2823 76.3514 41.4843 75.9632L40.5972 75.5016C40.4454 75.7933 40.247 76.0584 40.0099 76.2863L40.7028 77.0073ZM40.0063 78.0257C40.166 77.642 40.4031 77.2953 40.7028 77.0073L40.0099 76.2863C39.6111 76.6695 39.2956 77.1308 39.0831 77.6414L40.0063 78.0257ZM39.772 78.5885L40.0063 78.0257L39.0831 77.6414L38.8488 78.2043L39.772 78.5885ZM39.3269 79.2394C39.5184 79.0553 39.6699 78.8338 39.772 78.5885L38.8488 78.2043C38.7995 78.3226 38.7264 78.4295 38.634 78.5184L39.3269 79.2394ZM37.9877 79.7786C38.487 79.7786 38.9669 79.5853 39.3269 79.2394L38.634 78.5184C38.4602 78.6853 38.2286 78.7786 37.9877 78.7786V79.7786ZM37.0627 79.7786H37.9877V78.7786H37.0627V79.7786ZM35.009 80.5155C35.5874 80.0391 36.3134 79.7786 37.0627 79.7786V78.7786C36.0814 78.7786 35.1306 79.1197 34.3732 79.7436L35.009 80.5155ZM34.2134 81.1708L35.009 80.5155L34.3732 79.7436L33.5776 80.399L34.2134 81.1708ZM33.338 81.7775C33.6461 81.5999 33.9389 81.397 34.2134 81.1708L33.5776 80.399C33.3458 80.5899 33.0986 80.7612 32.8384 80.9112L33.338 81.7775ZM32.5874 82.2103L33.338 81.7776L32.8384 80.9112L32.0879 81.344L32.5874 82.2103ZM32.0845 82.6729C32.2159 82.4835 32.3877 82.3255 32.5875 82.2103L32.0879 81.344C31.7602 81.5329 31.4785 81.7921 31.2629 82.1029L32.0845 82.6729ZM31.806 83.5629C31.806 83.2448 31.9032 82.9343 32.0845 82.6729L31.2629 82.1029C30.9654 82.5317 30.806 83.0411 30.806 83.5629H31.806ZM31.806 83.9942V83.5629H30.806V83.9942H31.806ZM31.6791 84.9861C31.7634 84.6622 31.806 84.3289 31.806 83.9942H30.806C30.806 84.2439 30.7742 84.4926 30.7113 84.7343L31.6791 84.9861ZM31.4743 85.7733L31.6791 84.9861L30.7113 84.7343L30.5065 85.5215L31.4743 85.7733ZM29.8786 87.2944C30.6187 87.0912 31.2113 86.5364 31.4628 85.8112L30.518 85.4835C30.3745 85.8974 30.0363 86.2141 29.6138 86.3301L29.8786 87.2944ZM29.0485 87.5223L29.8786 87.2944L29.6138 86.3301L28.7838 86.558L29.0485 87.5223ZM27.9987 87.6638C28.3534 87.6638 28.7065 87.6162 29.0485 87.5223L28.7838 86.558C28.528 86.6282 28.2639 86.6638 27.9987 86.6638V87.6638ZM25.941 87.6638H27.9987V86.6638H25.941V87.6638ZM24.4943 86.217C24.4943 87.0161 25.142 87.6638 25.941 87.6638V86.6638C25.6943 86.6638 25.4943 86.4638 25.4943 86.217H24.4943ZM24.4943 86.0883V86.217H25.4943V86.0883H24.4943ZM24.4758 85.9434C24.4881 85.9907 24.4943 86.0394 24.4943 86.0883H25.4943C25.4943 85.9545 25.4772 85.8212 25.4435 85.6917L24.4758 85.9434ZM24.3955 85.6349L24.4758 85.9434L25.4435 85.6917L25.3633 85.3832L24.3955 85.6349ZM23.7844 84.4448C24.0732 84.7917 24.2819 85.1981 24.3955 85.6349L25.3633 85.3832C25.2126 84.8039 24.9359 84.265 24.553 83.805L23.7844 84.4448ZM23.1378 83.6681L23.7844 84.4448L24.553 83.805L23.9064 83.0283L23.1378 83.6681ZM22.8965 83.3053C22.9637 83.4346 23.0446 83.5562 23.1378 83.6681L23.9064 83.0283C23.859 82.9714 23.8178 82.9095 23.7836 82.8438L22.8965 83.3053ZM22.6967 82.0183C22.6205 82.4576 22.6907 82.9098 22.8965 83.3054L23.7836 82.8438C23.679 82.6426 23.6433 82.4126 23.682 82.1892L22.6967 82.0183ZM22.8587 81.0846L22.6967 82.0183L23.682 82.1892L23.8439 81.2555L22.8587 81.0846ZM23.3444 80.1706C23.0893 80.4158 22.9191 80.736 22.8587 81.0846L23.8439 81.2555C23.868 81.1167 23.9358 80.9892 24.0373 80.8916L23.3444 80.1706ZM23.5475 79.6937C23.5475 79.8737 23.4742 80.0459 23.3444 80.1706L24.0373 80.8916C24.3633 80.5784 24.5475 80.1458 24.5475 79.6937H23.5475ZM23.5475 79.4178V79.6937H24.5475V79.4178H23.5475ZM23.3997 78.8135C23.4968 79.0001 23.5475 79.2074 23.5475 79.4178H24.5475C24.5475 79.0467 24.4581 78.6811 24.2868 78.3519L23.3997 78.8135ZM23.0774 78.1939L23.3997 78.8135L24.2868 78.3519L23.9645 77.7324L23.0774 78.1939ZM22.5173 76.2964C22.58 76.9591 22.7701 77.6034 23.0774 78.1939L23.9645 77.7323C23.7167 77.2562 23.5634 76.7366 23.5128 76.2023L22.5173 76.2964ZM22.2874 73.8666L22.5173 76.2964L23.5128 76.2023L23.283 73.7725L22.2874 73.8666ZM22.2852 71.8263V73.8195H23.2852V71.8263H22.2852ZM21.9712 70.7304C22.1764 71.0591 22.2852 71.4388 22.2852 71.8263H23.2852C23.2852 71.2515 23.1238 70.6883 22.8194 70.2008L21.9712 70.7304ZM20.6992 69.8142C21.2269 69.941 21.6837 70.27 21.9712 70.7304L22.8194 70.2008C22.3931 69.5179 21.7156 69.0299 20.9328 68.8418L20.6992 69.8142ZM18.5383 69.295L20.6992 69.8142L20.9328 68.8418L18.7719 68.3227L18.5383 69.295ZM17.2869 68.8897C17.6929 69.0569 18.1113 69.1924 18.5383 69.295L18.7719 68.3227C18.3952 68.2322 18.026 68.1126 17.6677 67.965L17.2869 68.8897ZM15.7965 68.2758L17.2869 68.8897L17.6677 67.965L16.1773 67.3512L15.7965 68.2758ZM15.6859 68.254C15.7238 68.254 15.7614 68.2614 15.7965 68.2758L16.1773 67.3512C16.0214 67.287 15.8545 67.254 15.6859 67.254V68.254ZM15.5885 68.254H15.6859V67.254H15.5885V68.254ZM15.3955 68.447C15.3955 68.3404 15.4819 68.254 15.5885 68.254V67.254C14.9296 67.254 14.3955 67.7881 14.3955 68.447H15.3955ZM15.4299 68.557C15.4075 68.5247 15.3955 68.4863 15.3955 68.447H14.3955C14.3955 68.69 14.4698 68.9273 14.6083 69.127L15.4299 68.557ZM15.9375 69.2886L15.4299 68.557L14.6083 69.127L15.1159 69.8586L15.9375 69.2886ZM16.8976 70.8253L15.9508 69.3088L15.1026 69.8384L16.0493 71.3548L16.8976 70.8253ZM17.6046 73.1072C17.6046 72.2843 17.3533 71.4811 16.8843 70.805L16.0626 71.3751C16.4155 71.8837 16.6046 72.4881 16.6046 73.1072H17.6046ZM17.6046 73.8195V73.1072H16.6046V73.8195H17.6046ZM16.9632 75.7578C17.3797 75.1974 17.6046 74.5178 17.6046 73.8195H16.6046C16.6046 74.3029 16.4489 74.7734 16.1606 75.1613L16.9632 75.7578ZM16.6019 76.244L16.9632 75.7578L16.1606 75.1613L15.7993 75.6474L16.6019 76.244ZM14.7251 77.7922C15.4669 77.4358 16.1109 76.9045 16.6019 76.244L15.7993 75.6474C15.405 76.1779 14.8877 76.6046 14.292 76.8909L14.7251 77.7922ZM12.5874 78.8194L14.7251 77.7922L14.292 76.8909L12.1543 77.9181L12.5874 78.8194ZM8.73633 80.058L12.5234 78.8449L12.2183 77.8926L8.43127 79.1057L8.73633 80.058ZM8.06563 80.2728L8.73632 80.058L8.43127 79.1057L7.76058 79.3205L8.06563 80.2728ZM5.40625 80.6884C6.30888 80.6884 7.20603 80.5482 8.06563 80.2728L7.76057 79.3205C6.99958 79.5643 6.20534 79.6884 5.40625 79.6884V80.6884ZM4.38752 80.6884H5.40625V79.6884H4.38752V80.6884ZM2.54892 80.2696C3.12264 80.5452 3.75101 80.6884 4.38752 80.6884V79.6884C3.90094 79.6884 3.42059 79.579 2.98202 79.3682L2.54892 80.2696ZM2.14605 80.076L2.54893 80.2696L2.98201 79.3682L2.57914 79.1747L2.14605 80.076ZM0.827779 78.799C1.11758 79.356 1.58012 79.8041 2.14605 80.076L2.57914 79.1747C2.20812 78.9964 1.90488 78.7026 1.71489 78.3375L0.827779 78.799ZM0.827779 76.1187C0.390741 76.9587 0.39074 77.959 0.827779 78.799L1.71489 78.3375C1.42837 77.7868 1.42837 77.131 1.71489 76.5803L0.827779 76.1187ZM0.97021 75.845L0.82778 76.1187L1.71489 76.5803L1.85732 76.3065L0.97021 75.845ZM1.64925 74.9377C1.37508 75.2012 1.14572 75.5077 0.97021 75.845L1.85732 76.3065C1.98264 76.0657 2.1464 75.8469 2.34216 75.6587L1.64925 74.9377ZM2.2412 74.3689L1.64925 74.9377L2.34217 75.6587L2.93411 75.0899L2.2412 74.3689ZM3.81913 72.8525L2.2412 74.3688L2.93411 75.0899L4.51204 73.5735L3.81913 72.8525ZM5.43877 71.6035L3.86084 72.8166L4.47033 73.6094L6.04827 72.3963L5.43877 71.6035ZM6.8128 70.503L5.43097 71.6096L6.05607 72.3901L7.4379 71.2835L6.8128 70.503ZM8.01137 69.7489C7.58454 69.954 7.18243 70.2069 6.81281 70.503L7.4379 71.2835C7.74831 71.0349 8.08601 70.8225 8.44447 70.6502L8.01137 69.7489ZM8.09933 69.7066L8.0114 69.7489L8.44444 70.6502L8.53237 70.608L8.09933 69.7066ZM9.44077 69.2637C8.97641 69.353 8.52552 69.5018 8.0993 69.7066L8.53239 70.608C8.88097 70.4405 9.24973 70.3187 9.62952 70.2457L9.44077 69.2637ZM9.65204 69.2231L9.44076 69.2637L9.62953 70.2457L9.8408 70.2051L9.65204 69.2231ZM10.8343 68.7511C10.4738 68.9821 10.0725 69.1423 9.65205 69.2231L9.8408 70.2051C10.386 70.1003 10.9063 69.8926 11.3737 69.5932L10.8343 68.7511ZM11.3517 68.3432C11.193 68.4957 11.0197 68.6324 10.8343 68.7511L11.3737 69.5932C11.6141 69.4392 11.8388 69.262 12.0446 69.0642L11.3517 68.3432ZM11.3932 68.3033L11.3517 68.3432L12.0446 69.0642L12.0861 69.0243L11.3932 68.3033ZM11.915 67.8018L11.3932 68.3033L12.0861 69.0243L12.608 68.5228L11.915 67.8018ZM11.8708 67.9056C11.8708 67.8664 11.8868 67.8289 11.915 67.8018L12.6079 68.5228C12.7759 68.3614 12.8708 68.1385 12.8708 67.9056H11.8708ZM11.915 68.0094C11.8868 67.9823 11.8708 67.9448 11.8708 67.9056H12.8708C12.8708 67.6727 12.7759 67.4498 12.6079 67.2884L11.915 68.0094ZM11.3932 67.5079L11.915 68.0094L12.608 67.2884L12.0861 66.7869L11.3932 67.5079ZM11.1173 67.3152L11.4473 67.553L12.032 66.7418L11.702 66.5039L11.1173 67.3152ZM10.5642 64.9873C10.145 65.7929 10.3805 66.7842 11.1173 67.3152L11.702 66.5039C11.3681 66.2632 11.2613 65.814 11.4513 65.4488L10.5642 64.9873ZM10.9194 64.5127C10.776 64.6505 10.656 64.8108 10.5642 64.9873L11.4513 65.4488C11.4929 65.3689 11.5473 65.2962 11.6123 65.2337L10.9194 64.5127ZM10.9377 64.4951L10.9194 64.5127L11.6123 65.2337L11.6306 65.2162L10.9377 64.4951ZM11.2397 63.7861C11.2397 64.0537 11.1306 64.3097 10.9377 64.4951L11.6306 65.2162C12.0197 64.8422 12.2397 64.3258 12.2397 63.7861H11.2397ZM11.2397 62.9015V63.7861H12.2397V62.9015H11.2397ZM11.2397 59.8687V62.9015H12.2397V59.8687H11.2397ZM11.2397 59.6827V59.8687H12.2397V59.6827H11.2397ZM11.1645 58.9523C11.2145 59.1926 11.2397 59.4373 11.2397 59.6827H12.2397C12.2397 59.3689 12.2074 59.0558 12.1435 58.7486L11.1645 58.9523ZM11.0897 58.5933L11.1645 58.9523L12.1435 58.7486L12.0688 58.3895L11.0897 58.5933ZM11.2013 56.8624C11.0083 57.4187 10.9698 58.0168 11.0897 58.5933L12.0688 58.3895C11.9856 57.9901 12.0123 57.5756 12.146 57.1901L11.2013 56.8624ZM11.3891 56.4264C11.316 56.567 11.2532 56.7127 11.2013 56.8624L12.146 57.1901C12.182 57.0864 12.2255 56.9854 12.2762 56.888L11.3891 56.4264ZM11.6951 55.8383L11.3891 56.4264L12.2762 56.888L12.5822 56.2999L11.6951 55.8383ZM12.6077 54.9543C12.2159 55.1425 11.8957 55.4527 11.6951 55.8383L12.5822 56.2999C12.683 56.1061 12.8439 55.9502 13.0408 55.8556L12.6077 54.9543ZM12.6631 54.9277L12.6077 54.9543L13.0408 55.8556L13.0962 55.829L12.6631 54.9277ZM14.6037 55.0995C14.0371 54.6911 13.2926 54.6252 12.6631 54.9277L13.0962 55.829C13.3956 55.6852 13.7496 55.7165 14.019 55.9107L14.6037 55.0995ZM15.3955 56.6462C15.3955 56.0333 15.1009 55.4578 14.6037 55.0995L14.019 55.9107C14.2554 56.0811 14.3955 56.3548 14.3955 56.6462H15.3955ZM15.3955 57.7458V56.6462H14.3955V57.7458H15.3955ZM15.3955 59.2622V57.7458H14.3955V59.2622H15.3955ZM16.0361 61.124C15.621 60.5921 15.3955 59.9368 15.3955 59.2622H14.3955C14.3955 60.1598 14.6955 61.0316 15.2477 61.7392L16.0361 61.124ZM16.0737 61.1722L16.0361 61.124L15.2477 61.7392L15.2854 61.7875L16.0737 61.1722ZM16.3795 61.5111C16.2696 61.4056 16.1674 61.2923 16.0737 61.1722L15.2854 61.7875C15.4084 61.9451 15.5424 62.0937 15.6865 62.2322L16.3795 61.5111ZM17.1032 62.2067L16.3794 61.5111L15.6865 62.2322L16.4103 62.9277L17.1032 62.2067ZM17.7806 62.7408C17.5379 62.5853 17.311 62.4064 17.1032 62.2067L16.4103 62.9277C16.6652 63.1727 16.9435 63.3921 17.2411 63.5828L17.7806 62.7408ZM18.1955 63.0066L17.7806 62.7408L17.2411 63.5828L17.6561 63.8486L18.1955 63.0066ZM18.346 63.0774C18.2929 63.0604 18.2424 63.0366 18.1955 63.0066L17.6561 63.8486C17.776 63.9254 17.9053 63.9863 18.0409 64.0297L18.346 63.0774ZM18.4999 63.1267L18.346 63.0774L18.0409 64.0297L18.1949 64.0791L18.4999 63.1267ZM18.9768 62.9649C18.8707 63.1178 18.6772 63.1835 18.4999 63.1267L18.1949 64.0791C18.7909 64.27 19.4417 64.0491 19.7985 63.5349L18.9768 62.9649ZM19.0387 62.6171C19.0697 62.7365 19.0472 62.8635 18.9768 62.9649L19.7985 63.5349C20.035 63.194 20.1109 62.7668 20.0065 62.3653L19.0387 62.6171ZM18.8298 61.8143L19.0387 62.6171L20.0065 62.3653L19.7976 61.5625L18.8298 61.8143ZM18.6002 60.7137L18.8242 61.7903L19.8032 61.5865L19.5792 60.5099L18.6002 60.7137ZM18.4981 59.7228C18.4981 60.0557 18.5323 60.3877 18.6002 60.7137L19.5792 60.5099C19.5253 60.251 19.4981 59.9872 19.4981 59.7228H18.4981ZM18.4981 58.852V59.7228H19.4981V58.852H18.4981ZM18.6452 58.2506C18.5486 58.4363 18.4981 58.6426 18.4981 58.852H19.4981C19.4981 58.8033 19.5099 58.7554 19.5323 58.7122L18.6452 58.2506ZM19.8011 57.5491C19.3151 57.5491 18.8695 57.8195 18.6452 58.2506L19.5323 58.7122C19.5845 58.6119 19.6881 58.5491 19.8011 58.5491V57.5491ZM19.8419 57.5491H19.8011V58.5491H19.8419V57.5491ZM20.1619 57.587C20.0571 57.5618 19.9497 57.5491 19.8419 57.5491V58.5491C19.871 58.5491 19.9 58.5525 19.9283 58.5593L20.1619 57.587ZM20.5359 57.6768L20.1619 57.587L19.9283 58.5593L20.3023 58.6491L20.5359 57.6768ZM22.1572 58.4207C21.6702 58.0697 21.1195 57.817 20.5359 57.6768L20.3023 58.6491C20.7595 58.759 21.191 58.9569 21.5725 59.2319L22.1572 58.4207ZM22.762 58.8566L22.1572 58.4207L21.5725 59.2319L22.1772 59.6678L22.762 58.8566ZM24.2062 59.9666L22.7743 58.8658L22.1649 59.6586L23.5967 60.7594L24.2062 59.9666ZM24.4302 60.1044C24.3509 60.0663 24.2759 60.0202 24.2062 59.9666L23.5967 60.7594C23.7213 60.8551 23.8554 60.9377 23.997 61.0057L24.4302 60.1044ZM25.1314 60.2206C24.8914 60.2494 24.6481 60.2091 24.4301 60.1044L23.997 61.0057C24.3866 61.1929 24.8215 61.265 25.2507 61.2134L25.1314 60.2206ZM26.1607 60.0969L25.1314 60.2206L25.2507 61.2134L26.28 61.0898L26.1607 60.0969ZM26.7034 59.4852C26.7034 59.7971 26.4704 60.0597 26.1607 60.0969L26.28 61.0898C27.0922 60.9922 27.7034 60.3032 27.7034 59.4852H26.7034ZM26.6561 59.2484C26.6873 59.3235 26.7034 59.4039 26.7034 59.4852H27.7034C27.7034 59.272 27.6612 59.0609 27.5793 58.8641L26.6561 59.2484ZM26.4988 58.8706L26.6561 59.2484L27.5793 58.8641L27.422 58.4863L26.4988 58.8706ZM25.4505 57.6347C25.9198 57.9278 26.2862 58.3597 26.4988 58.8706L27.422 58.4863C27.1296 57.7838 26.6257 57.1897 25.9803 56.7865L25.4505 57.6347ZM20.2427 54.3816L25.4505 57.6347L25.9803 56.7865L20.7725 53.5335L20.2427 54.3816ZM19.704 53.9618C19.8686 54.12 20.0491 54.2606 20.2427 54.3816L20.7725 53.5335C20.6375 53.4491 20.5116 53.351 20.3969 53.2407L19.704 53.9618ZM18.9433 52.8496C19.1177 53.2686 19.3767 53.6472 19.7039 53.9618L20.3969 53.2408C20.1687 53.0215 19.9881 52.7575 19.8665 52.4653L18.9433 52.8496ZM18.8238 52.5625L18.9433 52.8496L19.8665 52.4653L19.747 52.1782L18.8238 52.5625ZM18.4981 50.9326C18.4981 51.4921 18.6088 52.046 18.8238 52.5625L19.747 52.1782C19.5827 51.7835 19.4981 51.3602 19.4981 50.9326H18.4981ZM19.1418 48.6863C18.7212 49.3601 18.4981 50.1384 18.4981 50.9326H19.4981C19.4981 50.3256 19.6686 49.7308 19.9901 49.2159L19.1418 48.6863ZM19.5208 48.0793L19.1418 48.6863L19.9901 49.2159L20.369 48.6089L19.5208 48.0793ZM20.3917 45.0401C20.3917 46.1147 20.0899 47.1678 19.5208 48.0793L20.369 48.6089C21.0373 47.5385 21.3917 46.302 21.3917 45.0401H20.3917ZM20.3917 39.085V45.0401H21.3917V39.085H20.3917ZM20.0258 38.5836C20.2438 38.6534 20.3917 38.8561 20.3917 39.085H21.3917C21.3917 38.4213 20.9629 37.8337 20.3309 37.6313L20.0258 38.5836ZM19.782 38.5651C19.8636 38.5521 19.9471 38.5584 20.0258 38.5836L20.3309 37.6313C20.1027 37.5582 19.8604 37.5398 19.6238 37.5777L19.782 38.5651ZM18.5714 38.759L19.7819 38.5651L19.6238 37.5777L18.4133 37.7716L18.5714 38.759ZM17.5004 38.7178C17.8512 38.8021 18.2152 38.8161 18.5714 38.759L18.4133 37.7716C18.1873 37.8078 17.9565 37.7989 17.734 37.7454L17.5004 38.7178ZM17.005 38.5988L17.5004 38.7178L17.734 37.7454L17.2386 37.6264L17.005 38.5988ZM16.1832 38.0365C16.3788 38.3185 16.6713 38.5186 17.005 38.5988L17.2386 37.6264C17.1437 37.6036 17.0604 37.5467 17.0048 37.4665L16.1832 38.0365ZM16.3631 36.2322C15.8681 36.7078 15.7919 37.4725 16.1832 38.0365L17.0048 37.4665C16.8935 37.306 16.9152 37.0885 17.056 36.9532L16.3631 36.2322ZM16.4426 36.1557L16.3631 36.2322L17.056 36.9532L17.1355 36.8768L16.4426 36.1557ZM17.759 35.2008L16.4967 36.1106L17.0814 36.9219L18.3437 36.012L17.759 35.2008ZM19.6096 33.9304L17.7684 35.1942L18.3343 36.0186L20.1755 34.7549L19.6096 33.9304ZM20.2358 33.4203C20.0414 33.6072 19.8319 33.7778 19.6096 33.9304L20.1755 34.7549C20.4429 34.5713 20.6949 34.3661 20.9288 34.1413L20.2358 33.4203ZM21.0012 32.6848L20.2358 33.4203L20.9288 34.1413L21.6941 33.4058L21.0012 32.6848ZM21.1301 32.4835C21.1036 32.5598 21.0594 32.6288 21.0012 32.6848L21.6941 33.4058C21.8662 33.2404 21.9967 33.0367 22.0749 32.8112L21.1301 32.4835ZM22.5584 31.4671C21.9144 31.4671 21.3411 31.875 21.1301 32.4835L22.0749 32.8112C22.1463 32.6052 22.3404 32.4671 22.5584 32.4671V31.4671ZM23.1008 31.4671H22.5584V32.4671H23.1008V31.4671ZM24.6718 30.6449C24.3146 31.1599 23.7276 31.4671 23.1008 31.4671V32.4671C24.0554 32.4671 24.9494 31.9992 25.4935 31.2149L24.6718 30.6449ZM24.7423 30.5433L24.6718 30.6449L25.4935 31.2149L25.564 31.1133L24.7423 30.5433ZM25.1255 29.3187C25.1255 29.7564 24.9918 30.1837 24.7423 30.5433L25.564 31.1133C25.9296 30.5863 26.1255 29.9601 26.1255 29.3187H25.1255ZM25.1255 28.7902V29.3187H26.1255V28.7902H25.1255ZM25.0251 28.006C25.0917 28.2621 25.1255 28.5256 25.1255 28.7902H26.1255C26.1255 28.4407 26.0809 28.0926 25.9929 27.7543L25.0251 28.006ZM24.4221 26.8187C24.7064 27.1664 24.9121 27.5714 25.0251 28.006L25.9929 27.7543C25.8436 27.1801 25.5718 26.6451 25.1963 26.1858L24.4221 26.8187ZM21.4513 23.1852L24.4221 26.8187L25.1963 26.1858L22.2255 22.5522L21.4513 23.1852ZM19.5718 21.0786L21.4653 23.2015L22.2116 22.5359L20.318 20.413L19.5718 21.0786ZM17.5016 19.0912L19.5985 21.1063L20.2914 20.3853L18.1945 18.3702L17.5016 19.0912ZM17.2204 18.7155C17.2931 18.8552 17.3881 18.9821 17.5016 19.0912L18.1945 18.3702C18.1594 18.3364 18.13 18.2971 18.1075 18.2539L17.2204 18.7155ZM17.2603 17.3069C17.0041 17.7378 16.989 18.2707 17.2204 18.7155L18.1075 18.2539C18.0359 18.1162 18.0405 17.9513 18.1198 17.818L17.2603 17.3069ZM18.0785 15.9309L17.2603 17.3069L18.1198 17.818L18.9381 16.4419L18.0785 15.9309ZM18.5282 15.3081C18.3601 15.5019 18.2096 15.7103 18.0785 15.9309L18.9381 16.4419C19.0388 16.2724 19.1545 16.1122 19.2837 15.9633L18.5282 15.3081ZM21.4607 11.9264L18.5282 15.3081L19.2837 15.9633L22.2162 12.5815L21.4607 11.9264ZM22.6974 10.0161L21.4193 11.9814L22.2576 12.5266L23.5357 10.5613L22.6974 10.0161ZM23.6096 9.11013C23.2447 9.34392 22.9337 9.65274 22.6974 10.0161L23.5357 10.5613C23.6946 10.317 23.9037 10.1093 24.149 9.95215L23.6096 9.11013ZM24.2433 8.46901C24.0822 8.72704 23.8657 8.94604 23.6096 9.11013L24.149 9.95215C24.53 9.70809 24.8519 9.38238 25.0915 8.99861L24.2433 8.46901ZM24.4011 8.2163L24.2433 8.46901L25.0915 8.99861L25.2493 8.7459L24.4011 8.2163ZM24.8983 6.74657C24.8489 7.26844 24.6787 7.77165 24.4011 8.2163L25.2493 8.74591C25.6092 8.16951 25.8299 7.51723 25.8938 6.84074L24.8983 6.74657ZM25.0234 5.42406L24.8983 6.74656L25.8938 6.84074L26.019 5.51824L25.0234 5.42406ZM25.8458 3.17388C25.3831 3.84092 25.0999 4.61584 25.0234 5.42406L26.019 5.51824C26.0792 4.88092 26.3026 4.26986 26.6675 3.74387L25.8458 3.17388ZM26.0397 2.92413L25.8625 3.15125L26.6508 3.7665L26.8281 3.53937L26.0397 2.92413ZM28.5502 2.22782C27.6513 1.88229 26.6322 2.16495 26.0397 2.92413L26.8281 3.53938C27.1498 3.12709 27.7033 2.97359 28.1914 3.16124L28.5502 2.22782ZM29.447 2.87042C29.2078 2.58316 28.8991 2.36193 28.5502 2.22782L28.1914 3.16124C28.3809 3.23407 28.5486 3.35421 28.6784 3.51021L29.447 2.87042ZM29.694 3.16719L29.447 2.87042L28.6784 3.51021L28.9255 3.80698L29.694 3.16719ZM30.5437 5.51588C30.5437 4.65774 30.243 3.82671 29.694 3.16719L28.9255 3.80698C29.3249 4.28685 29.5437 4.8915 29.5437 5.51588H30.5437ZM30.5437 6.39527V5.51588H29.5437V6.39527H30.5437ZM30.7233 7.62956C30.6042 7.22895 30.5437 6.81321 30.5437 6.39527H29.5437C29.5437 6.90971 29.6181 7.42143 29.7647 7.91454L30.7233 7.62956ZM30.8283 7.98282L30.7233 7.62956L29.7647 7.91454L29.8698 8.26781L30.8283 7.98282ZM31.8798 9.54557C31.3783 9.14394 31.0114 8.59869 30.8283 7.98282L29.8698 8.2678C30.1109 9.07898 30.5941 9.79713 31.2547 10.3261L31.8798 9.54557ZM33.851 10.2376C33.1344 10.2376 32.4391 9.99351 31.8798 9.54557L31.2547 10.3261C31.9914 10.9161 32.9071 11.2376 33.851 11.2376V10.2376ZM34.4619 10.2376H33.851V11.2376H34.4619V10.2376ZM37.777 9.77776L34.3939 10.2422L34.5299 11.2329L37.9131 10.7685L37.777 9.77776ZM39.6445 9.26083C39.0479 9.51566 38.4198 9.68951 37.777 9.77776L37.9131 10.7685C38.6442 10.6681 39.3586 10.4703 40.0373 10.1805L39.6445 9.26083ZM43.0396 7.81073L39.6445 9.26083L40.0373 10.1805L43.4324 8.73036L43.0396 7.81073ZM44.0606 6.26442C44.0606 6.9378 43.6589 7.54623 43.0396 7.81073L43.4324 8.73036C44.42 8.30856 45.0606 7.33827 45.0606 6.26442H44.0606ZM44.5389 4.73599C44.2275 5.18485 44.0606 5.71812 44.0606 6.26442H45.0606C45.0606 5.92185 45.1653 5.58746 45.3605 5.30599L44.5389 4.73599ZM44.9528 4.13938L44.5389 4.73599L45.3605 5.30599L45.7744 4.70938L44.9528 4.13938ZM46.1972 2.89064C45.7117 3.22994 45.2904 3.65275 44.9528 4.13938L45.7744 4.70938C46.0445 4.32004 46.3816 3.98175 46.77 3.71029L46.1972 2.89064ZM49.008 0.926097L46.1972 2.89065L46.77 3.71029L49.5809 1.74575L49.008 0.926097ZM52.5321 1.32768C51.5937 0.425836 50.1722 0.252642 49.0447 0.902765L49.5442 1.76908C50.2862 1.34124 51.2217 1.45522 51.8392 2.04871L52.5321 1.32768ZM53.1123 1.88526L52.5321 1.32768L51.8392 2.04871L52.4194 2.60629L53.1123 1.88526ZM53.5376 2.3913L53.1502 1.92588L52.3816 2.56567L52.7691 3.03109L53.5376 2.3913ZM55.103 4.7445C54.6669 3.90635 54.1421 3.11744 53.5376 2.3913L52.7691 3.03109C53.3278 3.70223 53.8128 4.43139 54.2159 5.20606L55.103 4.7445ZM56.0303 6.22688L55.0835 4.71048L54.2353 5.24008L55.1821 6.75648L56.0303 6.22688ZM56.4629 6.7768L56.0003 6.18406L55.212 6.79931L55.6746 7.39204L56.4629 6.7768ZM57.4549 7.46868C57.0623 7.34291 56.7166 7.10181 56.4629 6.7768L55.6746 7.39205C56.0518 7.87541 56.5659 8.23397 57.1498 8.42102L57.4549 7.46868ZM57.8133 7.58349L57.4549 7.46868L57.1498 8.42102L57.5082 8.53583L57.8133 7.58349ZM58.8714 7.44528C58.5569 7.64675 58.169 7.69743 57.8133 7.58349L57.5082 8.53583C58.1478 8.74069 58.8454 8.64957 59.4109 8.2873L58.8714 7.44528ZM59.1832 7.16115C59.0961 7.2728 58.9907 7.36888 58.8714 7.44528L59.4109 8.2873C59.6253 8.14991 59.8149 7.97717 59.9716 7.7764L59.1832 7.16115ZM59.7523 6.43205L59.1832 7.16115L59.9716 7.7764L60.5406 7.0473L59.7523 6.43205ZM60.0416 5.98184C59.9591 6.14043 59.8622 6.29113 59.7523 6.43205L60.5406 7.0473C60.6881 6.85826 60.818 6.65611 60.9287 6.4434L60.0416 5.98184ZM60.5075 5.28149C60.3276 5.4976 60.1714 5.73239 60.0416 5.98184L60.9287 6.44339C61.0255 6.25743 61.1419 6.08239 61.276 5.92128L60.5075 5.28149ZM61.2584 4.37944L60.5075 5.28149L61.276 5.92128L62.027 5.01923L61.2584 4.37944ZM62.0408 3.7207C61.7431 3.89233 61.4782 4.11536 61.2584 4.37944L62.027 5.01923C62.1712 4.84596 62.345 4.69962 62.5403 4.587L62.0408 3.7207ZM63.0537 3.13667L62.0408 3.7207L62.5403 4.587L63.5532 4.00297L63.0537 3.13667ZM62.9958 3.23677C62.9958 3.19547 63.0179 3.1573 63.0537 3.13667L63.5532 4.00297C63.8271 3.84505 63.9958 3.55293 63.9958 3.23677H62.9958ZM63.8803 2.35232C63.3918 2.35232 62.9958 2.74831 62.9958 3.23677H63.9958C63.9958 3.30059 63.9441 3.35232 63.8803 3.35232V2.35232ZM64.3079 2.35232H63.8803V3.35232H64.3079V2.35232ZM65.4208 2.9695C65.1811 2.58559 64.7605 2.35232 64.3079 2.35232V3.35232C64.4155 3.35232 64.5155 3.4078 64.5725 3.49911L65.4208 2.9695ZM65.8777 3.70134L65.4208 2.96951L64.5725 3.4991L65.0294 4.23093L65.8777 3.70134ZM66.2049 4.84334C66.2049 4.43955 66.0915 4.04386 65.8777 3.70133L65.0294 4.23094C65.1441 4.41461 65.2049 4.6268 65.2049 4.84334H66.2049ZM66.2049 5.18485V4.84334H65.2049V5.18485H66.2049ZM66.5583 5.74044C66.3429 5.63693 66.2049 5.4175 66.2049 5.18485H65.2049C65.2049 5.80827 65.569 6.37453 66.1252 6.64179L66.5583 5.74044ZM67.4673 7.17951C67.4673 6.5637 67.1076 6.0044 66.5583 5.74044L66.1252 6.64179C66.3338 6.74201 66.4673 6.95446 66.4673 7.17951H67.4673ZM66.8698 8.42341C67.2475 8.12097 67.4673 7.66334 67.4673 7.17951H66.4673C66.4673 7.35974 66.3854 7.5302 66.2447 7.64286L66.8698 8.42341ZM66.2917 8.88638L66.8698 8.42341L66.2447 7.64286L65.6666 8.10583L66.2917 8.88638ZM65.9811 10.1C65.8027 9.67141 65.9294 9.17654 66.2917 8.88638L65.6666 8.10583C64.9565 8.6745 64.7083 9.64434 65.0579 10.4842L65.9811 10.1ZM66.381 10.5769C66.2022 10.4623 66.0627 10.2959 65.9811 10.1L65.0579 10.4842C65.2178 10.8683 65.4912 11.1944 65.8415 11.4189L66.381 10.5769ZM66.3952 10.586L66.381 10.5769L65.8415 11.4189L65.8557 11.428L66.3952 10.586ZM67.2929 11.8231C67.1601 11.3124 66.8395 10.8706 66.3952 10.586L65.8557 11.428C66.0881 11.5768 66.2557 11.8078 66.3251 12.0748L67.2929 11.8231ZM67.3438 12.0186L67.2929 11.8231L66.3251 12.0748L66.376 12.2704L67.3438 12.0186ZM67.2999 13.124C67.4234 12.768 67.4387 12.3833 67.3438 12.0186L66.376 12.2704C66.4212 12.4439 66.4139 12.6269 66.3551 12.7963L67.2999 13.124ZM67.3195 13.7703C67.2339 13.5646 67.2269 13.3346 67.2999 13.124L66.3551 12.7963C66.2017 13.2388 66.2163 13.7222 66.3963 14.1546L67.3195 13.7703ZM67.4465 14.0754L67.3195 13.7703L66.3963 14.1546L66.5233 14.4597L67.4465 14.0754ZM68.1984 14.8687C67.8589 14.7055 67.5912 14.4232 67.4465 14.0754L66.5233 14.4597C66.7624 15.0341 67.2045 15.5005 67.7653 15.77L68.1984 14.8687ZM69.8593 14.6524C69.3973 15.047 68.746 15.1318 68.1984 14.8687L67.7653 15.77C68.6699 16.2047 69.7457 16.0645 70.5088 15.4127L69.8593 14.6524ZM71.6919 13.0869L69.8593 14.6524L70.5088 15.4127L72.3414 13.8473L71.6919 13.0869ZM74.2566 13.1066C73.5342 12.4124 72.3926 12.4124 71.6702 13.1066L72.3631 13.8276C72.6984 13.5053 73.2284 13.5053 73.5637 13.8276L74.2566 13.1066ZM76.7286 13.8769C75.8219 13.8769 74.9381 13.5916 74.2025 13.0615L73.6178 13.8727C74.5237 14.5256 75.612 14.8769 76.7286 14.8769V13.8769ZM78.5929 13.8769H76.7286V14.8769H78.5929V13.8769ZM80.5988 14.8559C80.1166 14.2381 79.3766 13.8769 78.5929 13.8769V14.8769C79.0686 14.8769 79.5178 15.0961 79.8104 15.4711L80.5988 14.8559ZM81.2282 15.3338C80.9805 15.2317 80.7636 15.0671 80.5988 14.8559L79.8105 15.4711C80.082 15.819 80.4393 16.0903 80.8474 16.2584L81.2282 15.3338ZM81.9919 15.6483L81.2282 15.3338L80.8474 16.2584L81.6111 16.573L81.9919 15.6483ZM83.7687 15.9999C83.1592 15.9999 82.5555 15.8804 81.9919 15.6483L81.6111 16.573C82.2955 16.8548 83.0285 16.9999 83.7687 16.9999V15.9999ZM84.9389 15.9999H83.7687V16.9999H84.9389V15.9999ZM86.7078 15.7719C86.1303 15.9233 85.5358 15.9999 84.9389 15.9999V16.9999C85.6214 16.9999 86.3011 16.9123 86.9613 16.7392L86.7078 15.7719ZM88.195 15.3821L86.7078 15.7719L86.9613 16.7392L88.4485 16.3495L88.195 15.3821ZM89.6215 14.4188C89.2693 14.8927 88.7661 15.2324 88.195 15.3821L88.4485 16.3495C89.2395 16.1422 89.9363 15.6716 90.4241 15.0153L89.6215 14.4188ZM89.9028 14.0403L89.6215 14.4188L90.4241 15.0153L90.7054 14.6369L89.9028 14.0403ZM92.0377 12.9671C91.1964 12.9671 90.4047 13.3651 89.9028 14.0403L90.7054 14.6369C91.0186 14.2155 91.5127 13.9671 92.0377 13.9671V12.9671ZM93.1898 13.2295C92.8303 13.0568 92.4366 12.9671 92.0377 12.9671V13.9671C92.2867 13.9671 92.5324 14.0231 92.7567 14.1309L93.1898 13.2295ZM94.5994 13.9068L93.1898 13.2295L92.7567 14.1309L94.1663 14.8082L94.5994 13.9068ZM97.0743 15.6245C96.3456 14.9243 95.5102 14.3445 94.5994 13.9068L94.1663 14.8082C94.9815 15.1999 95.7292 15.7188 96.3814 16.3455L97.0743 15.6245ZM97.6299 16.1585L97.0743 15.6245L96.3814 16.3455L96.937 16.8795L97.6299 16.1585ZM98.1942 16.6034C97.992 16.4739 97.803 16.3248 97.6299 16.1585L96.937 16.8795C97.1572 17.0911 97.3976 17.2807 97.6548 17.4454L98.1942 16.6034ZM98.775 16.9755L98.1942 16.6034L97.6548 17.4454L98.2355 17.8175L98.775 16.9755ZM100.162 19.0629C100.013 18.2034 99.5095 17.446 98.775 16.9755L98.2355 17.8175C98.7339 18.1367 99.0752 18.6506 99.1764 19.2338L100.162 19.0629ZM100.619 20.0524C100.383 19.7683 100.225 19.4271 100.162 19.0629L99.1764 19.2338C99.2695 19.7705 99.5019 20.2735 99.8505 20.6922L100.619 20.0524ZM100.972 20.4766L100.619 20.0524L99.8505 20.6922L100.204 21.1164L100.972 20.4766ZM101.76 21.8717C101.584 21.363 101.317 20.8904 100.972 20.4766L100.204 21.1164C100.471 21.4377 100.678 21.8045 100.815 22.1994L101.76 21.8717ZM101.863 24.462C102.085 23.6074 102.049 22.706 101.76 21.8717L100.815 22.1994C101.04 22.8471 101.068 23.5468 100.895 24.2102L101.863 24.462ZM101.655 25.2596L101.863 24.462L100.895 24.2102L100.688 25.0079L101.655 25.2596ZM101.551 26.0782C101.551 25.802 101.586 25.5269 101.655 25.2596L100.688 25.0079C100.597 25.3574 100.551 25.717 100.551 26.0782H101.551ZM101.551 26.3361V26.0782H100.551V26.3361H101.551ZM103.043 28.8247C102.124 28.3342 101.551 27.3775 101.551 26.3361H100.551C100.551 27.7466 101.328 29.0425 102.572 29.7068L103.043 28.8247ZM104.803 30.8064C104.472 29.957 103.847 29.2541 103.043 28.8247L102.572 29.7068C103.166 30.0239 103.627 30.5428 103.872 31.1699L104.803 30.8064ZM105.303 32.0886L104.803 30.8064L103.872 31.1699L104.372 32.4521L105.303 32.0886ZM105.532 32.5209L105.281 32.0396L104.394 32.5011L104.645 32.9825L105.532 32.5209ZM108.078 35.7727C107.037 34.8555 106.172 33.7516 105.532 32.5209L104.645 32.9825C105.342 34.3228 106.283 35.5245 107.417 36.523L108.078 35.7727ZM108.506 36.1438C108.352 36.0117 108.209 35.8882 108.078 35.7726L107.417 36.523C107.553 36.6429 107.701 36.7702 107.853 36.9014L108.506 36.1438ZM110.865 41.1227C111.287 40.7165 111.437 40.2229 111.367 39.713C111.302 39.2376 111.052 38.7814 110.754 38.3758C110.158 37.5638 109.219 36.7586 108.506 36.1438L107.853 36.9014C108.592 37.5378 109.433 38.2658 109.948 38.9676C110.206 39.3188 110.345 39.6146 110.377 39.8487C110.404 40.0481 110.359 40.2213 110.172 40.4017L110.865 41.1227ZM110.423 41.7999C110.529 41.6208 110.627 41.4601 110.711 41.3337C110.752 41.2705 110.788 41.2192 110.818 41.1802C110.85 41.138 110.865 41.1226 110.865 41.1227L110.172 40.4017C110.071 40.4985 109.966 40.6468 109.877 40.7818C109.779 40.9294 109.67 41.1072 109.561 41.2939L110.423 41.7999ZM108.096 43.9973C109.091 43.5189 109.879 42.7283 110.423 41.7999L109.561 41.2939C109.102 42.076 108.454 42.7156 107.663 43.096L108.096 43.9973ZM107.701 44.187L108.096 43.9973L107.663 43.096L107.268 43.2856L107.701 44.187ZM106.108 46.0167C106.365 45.2138 106.941 44.5521 107.701 44.187L107.268 43.2856C106.26 43.7698 105.496 44.6472 105.155 45.7118L106.108 46.0167ZM102.234 48.8441C104.002 48.8441 105.569 47.7012 106.108 46.0167L105.155 45.7118C104.749 46.9822 103.568 47.8441 102.234 47.8441V48.8441ZM42.256 20.1605L42.9445 20.0281L42.7558 19.0461L42.0672 19.1784L42.256 20.1605ZM41.7806 20.3174C41.9316 20.2449 42.0914 20.1921 42.256 20.1605L42.0672 19.1784C41.8181 19.2263 41.5761 19.3062 41.3475 19.4161L41.7806 20.3174ZM40.7582 21.5167C40.9146 20.9906 41.2859 20.5551 41.7806 20.3174L41.3475 19.4161C40.5986 19.7759 40.0365 20.4353 39.7997 21.2317L40.7582 21.5167ZM40.6007 22.0466L40.7582 21.5167L39.7997 21.2317L39.6421 21.7616L40.6007 22.0466ZM39.6514 23.1602C40.1107 22.9395 40.4555 22.5351 40.6007 22.0466L39.6421 21.7616C39.5773 21.9797 39.4234 22.1603 39.2183 22.2588L39.6514 23.1602ZM39.1941 23.8872C39.1941 23.5771 39.3719 23.2945 39.6514 23.1602L39.2183 22.2588C38.5923 22.5596 38.1941 23.1927 38.1941 23.8872H39.1941ZM39.1941 24.8851V23.8872H38.1941V24.8851H39.1941ZM40.8694 26.8501C39.9042 26.6954 39.1941 25.8626 39.1941 24.8851H38.1941C38.1941 26.3539 39.261 27.6052 40.7113 27.8375L40.8694 26.8501ZM41.4031 26.9355L40.8694 26.8501L40.7113 27.8375L41.245 27.9229L41.4031 26.9355ZM43.6152 28.1953C43.0544 27.5217 42.2686 27.0742 41.4031 26.9355L41.245 27.9229C41.8716 28.0233 42.4406 28.3474 42.8466 28.8351L43.6152 28.1953ZM44.1278 28.8111L43.6152 28.1953L42.8466 28.8351L43.3592 29.4509L44.1278 28.8111ZM45.6678 30.5017L44.1132 28.7943L43.3738 29.4676L44.9284 31.1749L45.6678 30.5017ZM47.0368 31.4164C46.5128 31.2276 46.0428 30.9136 45.6678 30.5017L44.9284 31.1749C45.4131 31.7073 46.0205 32.1131 46.6978 32.3572L47.0368 31.4164ZM49.7675 31.2365C48.922 31.674 47.9324 31.7392 47.0368 31.4164L46.6978 32.3572C47.8553 32.7744 49.1343 32.6901 50.227 32.1246L49.7675 31.2365ZM51.809 30.18L49.7675 31.2365L50.227 32.1246L52.2686 31.0682L51.809 30.18ZM53.1893 29.8441C52.7089 29.8441 52.2356 29.9593 51.809 30.18L52.2686 31.0682C52.5531 30.9209 52.8689 30.8441 53.1893 30.8441V29.8441ZM53.9845 29.9513C53.7254 29.8801 53.4579 29.8441 53.1893 29.8441V30.8441C53.3685 30.8441 53.5469 30.8681 53.7197 30.9156L53.9845 29.9513ZM55.6486 30.4082L53.9845 29.9513L53.7197 30.9156L55.3839 31.3725L55.6486 30.4082ZM56.2358 31.1783C56.2358 30.8187 55.9954 30.5034 55.6486 30.4082L55.3839 31.3725C55.2964 31.3485 55.2358 31.269 55.2358 31.1783H56.2358ZM55.9874 30.9825C56.114 30.9521 56.2358 31.0481 56.2358 31.1783H55.2358C55.2358 31.6949 55.7187 32.0755 56.221 31.9549L55.9874 30.9825ZM57.6513 30.5828L55.9874 30.9825L56.221 31.9549L57.8849 31.5551L57.6513 30.5828ZM58.2317 30.2396C58.077 30.4095 57.8748 30.5291 57.6513 30.5828L57.8849 31.5551C58.3031 31.4546 58.6816 31.2309 58.9711 30.9128L58.2317 30.2396ZM59.2458 29.1259L58.2317 30.2396L58.9711 30.9128L59.9852 29.7991L59.2458 29.1259ZM60.4429 27.161C60.1732 27.8866 59.7669 28.5536 59.2458 29.1259L59.9852 29.7991C60.5924 29.1322 61.066 28.3549 61.3802 27.5094L60.4429 27.161ZM61.4982 24.3214L60.4429 27.161L61.3802 27.5094L62.4355 24.6698L61.4982 24.3214ZM61.5475 24.0469C61.5475 24.1406 61.5308 24.2336 61.4982 24.3214L62.4355 24.6698C62.5096 24.4705 62.5475 24.2595 62.5475 24.0469H61.5475ZM61.2054 23.3971C61.4196 23.5441 61.5475 23.7871 61.5475 24.0469H62.5475C62.5475 23.4576 62.2572 22.9061 61.7714 22.5726L61.2054 23.3971ZM59.5555 22.2645L61.2054 23.3971L61.7714 22.5726L60.1214 21.4401L59.5555 22.2645ZM57.5729 20.6006L59.5166 22.235L60.1602 21.4696L58.2165 19.8352L57.5729 20.6006ZM56.4596 19.4184C56.7836 19.8543 57.1572 20.251 57.5729 20.6006L58.2165 19.8352C57.8602 19.5356 57.5399 19.1955 57.2622 18.8218L56.4596 19.4184ZM55.802 18.5336L56.4596 19.4184L57.2622 18.8218L56.6046 17.9371L55.802 18.5336ZM54.8249 17.7919C55.2143 17.9416 55.5531 18.1988 55.802 18.5336L56.6046 17.9371C56.2427 17.4502 55.75 17.0762 55.1837 16.8585L54.8249 17.7919ZM53.425 17.7315C53.8858 17.5986 54.3773 17.6199 54.8249 17.7919L55.1837 16.8585C54.5328 16.6083 53.8181 16.5774 53.148 16.7706L53.425 17.7315ZM51.9862 18.1463L53.425 17.7315L53.148 16.7706L51.7091 17.1854L51.9862 18.1463ZM50.6276 18.8501C51.0296 18.5282 51.4913 18.289 51.9862 18.1463L51.7091 17.1854C51.0875 17.3647 50.5075 17.6651 50.0025 18.0695L50.6276 18.8501ZM50.4064 19.0273L50.6276 18.8501L50.0025 18.0695L49.7813 18.2467L50.4064 19.0273ZM47.8461 19.9261C48.7769 19.9261 49.6799 19.609 50.4064 19.0273L49.7813 18.2467C49.2322 18.6864 48.5496 18.9261 47.8461 18.9261V19.9261ZM47.0435 19.574C47.1743 19.6592 47.3014 19.7369 47.413 19.7951C47.4685 19.824 47.5287 19.8526 47.5891 19.8752C47.639 19.8937 47.7345 19.9261 47.8461 19.9261V18.9261C47.8871 18.9261 47.9157 18.9323 47.9255 18.9346C47.9369 18.9373 47.9418 18.9394 47.9384 18.9381C47.9308 18.9353 47.9107 18.9268 47.8753 18.9084C47.8053 18.8718 47.7089 18.814 47.5897 18.7363L47.0435 19.574ZM44.196 19.5053C45.0252 18.9361 46.1429 18.9868 47.0435 19.574L47.5897 18.7363C46.4098 17.9671 44.8484 17.8445 43.6301 18.6809L44.196 19.5053ZM42.9445 20.0281C43.3932 19.9419 43.8193 19.7639 44.196 19.5053L43.63 18.6809C43.3669 18.8615 43.0692 18.9858 42.7558 19.0461L42.9445 20.0281ZM41.2128 28.2473L41.7465 28.3328L41.9047 27.3454L41.371 27.2599L41.2128 28.2473ZM50.7286 32.5345L52.7701 31.4781L52.3105 30.5899L50.269 31.6463L50.7286 32.5345ZM54.2212 31.3255L55.6068 31.7059L55.8716 30.7416L54.486 30.3612L54.2212 31.3255ZM56.7225 32.3647L58.3865 31.965L58.1529 30.9927L56.4889 31.3924L56.7225 32.3647ZM59.4727 31.3227L60.4867 30.209L59.7473 29.5357L58.7333 30.6495L59.4727 31.3227ZM61.8818 27.9193L62.9371 25.0797L61.9997 24.7313L60.9444 27.5709L61.8818 27.9193ZM62.2729 22.9825L62.0453 22.8263L61.4794 23.6508L61.707 23.807L62.2729 22.9825ZM60.237 21.5223L58.7181 20.2451L58.0745 21.0105L59.5934 22.2877L60.237 21.5223ZM57.7637 19.2317L57.1061 18.3469L56.3035 18.9435L56.9612 19.8282L57.7637 19.2317ZM47.2442 18.5437C46.9465 18.3204 46.6598 18.0964 46.4511 17.9293L45.826 18.7098C46.0421 18.8828 46.3372 19.1134 46.644 19.3436L47.2442 18.5437ZM44.5049 17.8192L44.3222 17.9509L44.9069 18.7621L45.0896 18.6304L44.5049 17.8192ZM46.485 17.959C45.9453 17.4404 45.1121 17.3816 44.5049 17.8192L45.0896 18.6305C45.305 18.4752 45.6007 18.4961 45.7921 18.6801L46.485 17.959ZM57.1061 18.347C56.871 18.0306 56.5806 17.7619 56.2507 17.5528L55.7153 18.3974C55.9422 18.5412 56.1419 18.726 56.3035 18.9435L57.1061 18.347ZM58.7181 20.2451C58.3617 19.9454 58.0415 19.6054 57.7637 19.2317L56.9612 19.8282C57.2852 20.2642 57.6588 20.6609 58.0745 21.0105L58.7181 20.2451ZM63.0491 24.4568C63.0491 23.8675 62.7587 23.316 62.2729 22.9825L61.707 23.807C61.9211 23.954 62.0491 24.197 62.0491 24.4568H63.0491ZM62.9371 25.0797C63.0111 24.8804 63.0491 24.6694 63.0491 24.4568H62.0491C62.0491 24.5505 62.0324 24.6435 61.9997 24.7313L62.9371 25.0797ZM60.4867 30.209C61.094 29.5421 61.5676 28.7648 61.8818 27.9193L60.9444 27.5709C60.6748 28.2964 60.2684 28.9634 59.7473 29.5357L60.4867 30.209ZM58.3865 31.965C58.8047 31.8645 59.1831 31.6408 59.4727 31.3227L58.7333 30.6495C58.5785 30.8194 58.3763 30.939 58.1529 30.9927L58.3865 31.965ZM55.7373 31.5882C55.7373 32.1047 56.2203 32.4854 56.7225 32.3647L56.4889 31.3924C56.6156 31.362 56.7373 31.458 56.7373 31.5882H55.7373ZM55.7619 31.6846C55.7462 31.6557 55.7373 31.6225 55.7373 31.5882H56.7373C56.7373 31.4515 56.7025 31.3207 56.6401 31.2062L55.7619 31.6846ZM53.6908 31.254C53.87 31.254 54.0484 31.278 54.2212 31.3255L54.486 30.3612C54.2269 30.29 53.9595 30.254 53.6908 30.254V31.254ZM52.7701 31.4781C53.0547 31.3308 53.3704 31.254 53.6908 31.254V30.254C53.2105 30.254 52.7371 30.3692 52.3105 30.5899L52.7701 31.4781ZM47.1993 32.7671C48.3568 33.1842 49.6358 33.0999 50.7286 32.5345L50.269 31.6463C49.4235 32.0838 48.4339 32.1491 47.5383 31.8263L47.1993 32.7671ZM45.6279 31.7887C46.076 32.2214 46.6113 32.5552 47.1993 32.7671L47.5383 31.8263C47.0834 31.6624 46.6692 31.4041 46.3225 31.0693L45.6279 31.7887ZM41.7465 28.3328C42.1157 28.392 42.4648 28.5287 42.7724 28.7308L43.3216 27.8951C42.8967 27.616 42.4145 27.4271 41.9047 27.3454L41.7465 28.3328ZM39.5094 27.3454C39.9489 27.8119 40.5398 28.1396 41.2128 28.2473L41.371 27.2599C40.9228 27.1881 40.5301 26.9706 40.2374 26.6597L39.5094 27.3454ZM44.6388 19.1124C44.6916 18.9724 44.7846 18.8503 44.9069 18.7621L44.3222 17.9509C44.0397 18.1545 43.8249 18.4363 43.703 18.7597L44.6388 19.1124Z" fill="black"/>
</svg>
