<svg width="18" height="23" viewBox="0 0 18 23" fill="none" xmlns="http://www.w3.org/2000/svg">
<path d="M11.0988 2.81967L11.4764 2.72893C11.9274 2.62058 12.3611 2.96239 12.3611 3.42622V4.4205C12.3611 4.56032 12.3041 4.6941 12.2033 4.79098C12.1025 4.88787 12.0455 5.02165 12.0455 5.16147V5.32791C12.0455 5.47328 12.0105 5.61651 11.9434 5.74547L11.7299 6.15573L11.5543 6.49323C11.4624 6.66999 11.4144 6.86632 11.4144 7.06557C11.4144 7.26482 11.4624 7.46114 11.5543 7.6379L11.7299 7.97542L11.962 8.30988C12.2236 8.68699 12.5786 8.98974 12.9923 9.18852L13.6235 9.49181L14.2341 9.68742C14.4568 9.75877 14.6893 9.79509 14.9232 9.79509H15.2843C15.6361 9.79509 15.9742 9.93124 16.2279 10.175C16.3829 10.324 16.5005 10.5075 16.5709 10.7107L16.6492 10.9363C16.7353 11.1847 16.7793 11.4457 16.7793 11.7086V12.5246V13.0864C16.7793 13.7173 16.6616 14.3426 16.4323 14.9303L16.1465 15.6626C15.9425 16.1855 15.578 16.6303 15.1053 16.9331L15.0759 16.952C14.9495 17.033 14.8313 17.1261 14.7231 17.2302C14.4168 17.5245 14.198 17.898 14.0911 18.3091L14.0008 18.6559C13.9598 18.8136 13.939 18.9759 13.939 19.1389C13.939 19.3775 13.8945 19.6141 13.8078 19.8364L13.276 21.1991C13.0937 21.6664 12.7408 22.047 12.2888 22.2643C11.9249 22.4391 11.5163 22.4986 11.1177 22.4347L10.0785 22.2683C9.91735 22.2425 9.75445 22.2295 9.5913 22.2295H9.21396C9.00049 22.2295 8.78976 22.1815 8.59735 22.0891C8.37525 21.9823 8.18464 21.8198 8.04419 21.6173L7.74893 21.1917C7.66805 21.0751 7.57578 20.9669 7.47347 20.8686C7.16252 20.5697 6.94912 20.1839 6.86126 19.7617L6.75378 19.2453C6.7051 19.0113 6.68056 18.773 6.68056 18.5341C6.68056 17.9732 6.5454 17.4205 6.28651 16.923L6.1989 16.7546C6.09943 16.5634 5.98267 16.3817 5.85008 16.2118C5.36571 15.5912 5.10262 14.8265 5.10262 14.0392V13.1564C5.10262 12.7527 4.93813 12.3665 4.64709 12.0868C4.53078 11.975 4.43347 11.845 4.35902 11.7019L4.04102 11.0907C3.90747 10.8341 3.75071 10.5902 3.5727 10.3621L3.27 9.9742C3.02232 9.65685 2.85086 9.28684 2.76884 8.89272L2.66056 8.37245C2.60712 8.11568 2.64406 7.84833 2.76511 7.61566C2.84947 7.45351 2.89352 7.27342 2.89352 7.09064V5.85246V5.01417C2.89352 4.77469 2.79592 4.54556 2.62325 4.37963C2.59308 4.35063 2.56501 4.31952 2.53926 4.28653L1.69289 3.20204C1.6518 3.14938 1.607 3.09973 1.55884 3.05345C1.39895 2.89978 1.2777 2.71044 1.20503 2.50092L1.11459 2.24019C1.04145 2.02932 1.05837 1.79764 1.16139 1.59965C1.26017 1.40979 1.42994 1.26664 1.63376 1.20135L2.00186 1.08344C2.17447 1.02815 2.35462 1 2.53586 1H2.89352C3.31176 1 3.72747 1.06495 4.12577 1.19254L4.47145 1.30327L5.36595 1.73308C5.6107 1.85069 5.84458 1.98969 6.06487 2.14846C6.67638 2.5892 7.38664 2.87328 8.13343 2.97581L8.37924 3.00955C8.9269 3.08474 9.48267 3.07852 10.0285 2.99109L11.0988 2.81967Z" fill="#CDB4DB" stroke="black"/>
</svg>
