<svg width="28" height="30" viewBox="0 0 28 30" fill="none" xmlns="http://www.w3.org/2000/svg">
<path d="M12.0455 24.0492L11.6045 25.1087C11.4791 25.41 11.2929 25.6823 11.0575 25.9085L11.0356 25.9296C10.8684 26.0903 10.6767 26.2233 10.4676 26.3238C10.2585 26.4242 10.0668 26.5573 9.89955 26.7181L9.83643 26.7787L9.72436 26.8864C9.58901 27.0165 9.44124 27.133 9.28318 27.2342C8.82017 27.5309 8.28182 27.6885 7.73193 27.6885H7.31174C6.89961 27.6885 6.49612 27.8067 6.1491 28.029L6.02585 28.108C5.83197 28.2322 5.62276 28.3307 5.40348 28.4009L4.78705 28.5984L3.77073 28.8425C3.6116 28.8808 3.44415 28.8629 3.29664 28.7921C3.05024 28.6737 2.89352 28.4245 2.89352 28.1511V27.9908C2.89352 27.794 2.83341 27.6019 2.72124 27.4402L2.26236 26.7787L1.63118 25.8689L1.3156 25.2623L1.13999 24.9248C1.04802 24.748 1 24.5517 1 24.3525C1 24.1532 1.04802 23.9569 1.13998 23.7802L1.15098 23.759C1.25884 23.5517 1.41914 23.3763 1.61591 23.2502L1.95111 23.0355C2.15773 22.9031 2.38069 22.7982 2.61439 22.7233L3.20911 22.5328L4.21388 22.2914C4.38439 22.2504 4.54684 22.1812 4.6945 22.0866C5.14545 21.7977 5.41821 21.299 5.41821 20.7635V20.7131C5.41821 20.3201 5.28687 19.9383 5.04504 19.6284L4.63606 19.1044C4.52711 18.9648 4.39528 18.8446 4.24617 18.7491L4.03543 18.6141C3.71719 18.4102 3.5247 18.0583 3.5247 17.6803V16.8642C3.5247 16.4362 3.77007 16.046 4.15587 15.8607L4.19783 15.8338C4.79556 15.4508 5.46076 15.1853 6.15788 15.0513L6.44343 14.9964C6.60116 14.9661 6.76141 14.9508 6.92203 14.9508H7.51752C7.79046 14.9508 8.05281 14.8452 8.24961 14.6561C8.45691 14.4569 8.57408 14.1818 8.57408 13.8943V13.7377V13.0828C8.57408 12.7416 8.3785 12.4306 8.071 12.2829C7.98614 12.2421 7.90831 12.1881 7.84043 12.1229L7.76329 12.0487C7.47356 11.7703 7.08731 11.6148 6.68547 11.6148H6.62969C6.45428 11.6148 6.27993 11.5875 6.11288 11.534L5.41821 11.3115L4.87994 11.1391C4.61827 11.0552 4.4003 10.8715 4.27348 10.6277C4.19621 10.4792 4.15587 10.3142 4.15587 10.1468V9.10413C4.15587 8.98326 4.25386 8.88527 4.37473 8.88527C4.43634 8.88527 4.49509 8.85931 4.53657 8.81375L6.55124 6.60106C6.63709 6.50677 6.71036 6.40175 6.76922 6.28863C6.91653 6.0055 7.15165 5.77775 7.43932 5.63952L7.62732 5.54919L7.86399 5.43547C8.10122 5.32148 8.38431 5.36682 8.57408 5.54919L8.88966 5.85246L9.32279 6.2687C9.45395 6.39474 9.56366 6.54133 9.64762 6.7027L9.75804 6.91494C9.80954 7.01392 9.83643 7.12385 9.83643 7.23542C9.83643 7.50237 9.98946 7.74568 10.2301 7.86129L10.4676 7.97542C10.8472 8.1578 11.3001 8.08527 11.6037 7.79349L11.9282 7.48162C12.0062 7.40663 12.0914 7.33946 12.1825 7.28108L12.7165 6.939C12.8999 6.82149 13.0714 6.6863 13.2284 6.53537L13.3315 6.43633C13.5248 6.25053 13.6866 6.03443 13.8103 5.79655C13.8959 5.63217 13.9626 5.45867 14.0092 5.27934L14.2546 4.33609L14.4676 3.51733C14.5327 3.26721 14.7046 3.0584 14.9375 2.94647L14.983 2.92462C15.1248 2.8565 15.2406 2.74427 15.3132 2.60475C15.4384 2.3641 15.6872 2.21313 15.9584 2.21313H16.1481L17.49 2.02891C18.0536 1.95153 18.5782 1.6975 18.9884 1.3033C19.1909 1.10869 19.4609 1 19.7417 1H20.5664H20.7598C21.0407 1 21.3106 1.10869 21.5131 1.30329C21.7156 1.49789 21.9856 1.60658 22.2664 1.60658H22.4599H23.7222H23.8269C24.3767 1.60658 24.9163 1.76502 25.3793 2.06163C25.5363 2.16222 25.6835 2.2782 25.8179 2.4074C26.1009 2.67934 26.3248 3.00668 26.4756 3.369L26.5691 3.59379C26.7731 4.08381 26.8781 4.60935 26.8781 5.14013V5.24591V5.80563C26.8781 6.01965 26.7554 6.21471 26.5625 6.3074C26.3696 6.40008 26.2469 6.59515 26.2469 6.80916V7.0656V7.67215C26.2469 7.85752 26.3532 8.02648 26.5203 8.10676L26.5625 8.12706C26.7554 8.21975 26.8781 8.41482 26.8781 8.62883V8.88527V9.49182V10.9024C26.8781 11.1712 26.8133 11.436 26.6893 11.6744C26.6053 11.8358 26.4956 11.9823 26.3644 12.1084L26.1675 12.2977C26.0104 12.4486 25.839 12.5838 25.6556 12.7013L25.1227 13.0427C25.0308 13.1015 24.945 13.1692 24.8663 13.2448L24.5721 13.5276C24.4324 13.6619 24.3534 13.8472 24.3534 14.041V14.7177C24.3534 15.2644 24.1864 15.7981 23.8748 16.2473C23.7733 16.3936 23.6576 16.5294 23.5293 16.6527L23.4838 16.6964C23.2237 16.9463 23.0053 17.2386 22.8388 17.5586C22.5907 18.0354 22.4599 18.5675 22.4599 19.1051V20.4443C22.4599 21.0036 22.232 21.5387 21.8287 21.9263L21.7167 22.0339C21.5813 22.164 21.4335 22.2805 21.2754 22.3818L21.0978 22.4956C20.7508 22.7179 20.3473 22.8361 19.9352 22.8361H18.6729C18.2679 22.8361 17.8786 22.6794 17.5866 22.3987L17.5358 22.3499C17.4525 22.2699 17.3773 22.1817 17.3114 22.0867L17.0899 21.7673C16.8885 21.477 16.597 21.2613 16.2605 21.1535C15.9806 21.0638 15.6814 21.0527 15.3956 21.1214L14.9958 21.2175C14.7171 21.2844 14.4613 21.4244 14.2546 21.623L13.3079 22.5328L12.8541 22.9689C12.5276 23.2826 12.2545 23.6475 12.0455 24.0492Z" fill="#FFCCD5" stroke="black"/>
</svg>
