<svg width="14" height="16" viewBox="0 0 14 16" fill="none" xmlns="http://www.w3.org/2000/svg">
<path d="M4.27341 1.10808L4.8571 1.02795C5.22789 0.977046 5.60493 0.995791 5.96884 1.08322C7.16171 1.36981 8.07611 2.35078 8.22009 3.56912C8.24371 3.76895 8.25845 3.91951 8.25845 3.98371C8.25845 4.09679 8.07564 4.47777 7.83783 4.92402C7.30967 5.91511 6.54122 7.01649 5.41818 7.01649H4.54709C3.68859 7.01649 2.86335 6.68426 2.24435 6.08939C2.0467 5.89945 1.87331 5.68577 1.72813 5.45324L1.24274 4.67577C1.0841 4.42169 1 4.12818 1 3.82864C1 3.35073 1.21369 2.89785 1.58257 2.59399L2.37985 1.93725C2.92198 1.49069 3.57757 1.20361 4.27341 1.10808Z" fill="#CDB4DB"/>
<path d="M9.08835 15.1766L8.54051 14.9301C7.82994 14.6104 7.46895 13.8113 7.69878 13.0668C7.91415 12.3692 8.58887 11.9178 9.31595 11.985L9.68603 12.0192L11.5346 12.19C12.173 12.249 12.6426 12.8144 12.5835 13.4528C12.5551 13.7595 12.406 14.0424 12.1689 14.239L11.4205 14.86C10.7672 15.402 9.86242 15.5248 9.08835 15.1766Z" fill="#CDB4DB"/>
<path d="M4.27341 1.10808L4.8571 1.02795C5.22789 0.977046 5.60493 0.995791 5.96884 1.08322C7.16171 1.36981 8.07611 2.35078 8.22009 3.56912C8.24371 3.76895 8.25845 3.91951 8.25845 3.98371C8.25845 4.09679 8.07564 4.47777 7.83783 4.92402C7.30967 5.91511 6.54122 7.01649 5.41818 7.01649H4.54709C3.68859 7.01649 2.86335 6.68426 2.24435 6.08939C2.0467 5.89945 1.87331 5.68577 1.72813 5.45324L1.24274 4.67577C1.0841 4.42169 1 4.12818 1 3.82864C1 3.35073 1.21369 2.89785 1.58257 2.59399L2.37985 1.93725C2.92198 1.49069 3.57757 1.20361 4.27341 1.10808Z" stroke="black"/>
<path d="M9.08835 15.1766L8.54051 14.9301C7.82994 14.6104 7.46895 13.8113 7.69878 13.0668C7.91415 12.3692 8.58887 11.9178 9.31595 11.985L9.68603 12.0192L11.5346 12.19C12.173 12.249 12.6426 12.8144 12.5835 13.4528C12.5551 13.7595 12.406 14.0424 12.1689 14.239L11.4205 14.86C10.7672 15.402 9.86242 15.5248 9.08835 15.1766Z" stroke="black"/>
</svg>
