<svg width="165" height="128" viewBox="0 0 165 128" fill="none"
                                                xmlns="http://www.w3.org/2000/svg">
                                                <path
                                                    d="M138.279 107.453C138.279 107.639 138.216 107.789 138.138 107.789H51.5784C51.5 107.789 51.437 107.639 51.437 107.453C51.437 107.362 51.4513 107.283 51.475 107.223H62.1385C62.3655 107.223 62.5878 107.187 62.8065 107.116H138.138C138.216 107.116 138.279 107.266 138.279 107.453Z"
                                                    fill="#3F3D56"/>
                                                <path
                                                    d="M40.9145 76.404C42.9394 77.6333 43.1391 78.2135 44.3659 78.7204C44.9868 78.977 46.1493 79.3299 48.3925 79.01C51.4834 78.5691 53.3893 77.3124 58.7468 74.3772C62.5679 72.2836 64.4362 71.3682 67.0877 70.9026C69.0745 70.5537 70.2292 70.6807 71.1143 70.9026C74.2022 71.6764 75.8878 74.0741 76.2915 74.6667C77.6868 76.7151 77.8634 78.7157 78.0172 80.4577C78.2108 82.652 78.4907 85.8229 76.8667 88.2756C74.8316 91.349 71.9973 89.9869 67.0877 92.9084C61.6613 96.1374 62.5688 99.3217 58.1715 101.016C52.5449 103.183 46.4192 99.7572 46.0916 99.568C40.266 96.2045 39.0741 90.1009 36.025 90.592C34.2032 90.8854 34.0218 93.1619 31.1355 93.777C30.5954 93.8921 28.3727 94.3658 26.8212 92.9084C25.8679 92.0129 25.8975 94.0176 26.3898 92.7636C27.0219 91.1537 28.2971 88.0113 29.1222 86.2487C29.5629 85.3072 29.0661 85.0165 29.4098 82.4846C29.5776 81.2479 29.6624 80.6236 29.985 79.8786C30.7844 78.0327 32.3367 77.0794 33.4364 76.404C34.7744 75.5823 36.0898 74.7745 37.7507 74.9563C38.7012 75.0603 39.4389 75.5082 40.9145 76.404Z"
                                                    fill="#3F3D56"/>
                                                <path
                                                    d="M76.0037 83.3532C76.514 83.774 76.6355 84.6269 76.8666 86.2488C77.0804 87.7492 76.9503 88.6695 76.8666 90.3025C76.7408 92.7535 76.9391 92.5254 76.8666 95.8039C76.8069 98.5015 76.7771 99.8503 76.579 101.016C76.2227 103.112 76.0329 102.306 74.278 107.675C73.922 108.765 73.6384 109.689 72.8399 109.992C71.8395 110.371 70.6868 109.524 70.539 109.413C70.2965 109.23 69.442 108.585 69.3885 107.675C69.3206 106.521 70.619 106.228 71.6895 104.49C72.3579 103.405 72.5185 102.319 72.8399 100.147C73.1456 98.0814 73.2984 97.0486 72.8399 96.0935C72.0034 94.3507 70.0897 93.8106 69.9637 93.7771C68.8185 93.4723 68.4484 93.9038 67.0876 93.7771C65.8146 93.6584 63.7178 93.0554 63.3485 92.0398C62.3362 89.2558 73.5664 81.3432 76.0037 83.3532Z"
                                                    fill="#3F3D56"/>
                                                <path
                                                    d="M71.4022 79.2995C71.9124 79.7203 72.0339 80.5732 72.265 82.195C72.4788 83.6955 72.3488 84.6158 72.265 86.2487C72.1393 88.6998 72.3375 88.4717 72.265 91.7502C72.2053 94.4478 72.1755 95.7966 71.9774 96.9621C71.6212 99.0578 71.4314 98.2526 69.6764 103.622C69.3204 104.711 69.0368 105.636 68.2384 105.938C67.2379 106.317 66.0853 105.471 65.9374 105.359C65.6949 105.176 64.8405 104.531 64.7869 103.622C64.719 102.467 66.0174 102.174 67.0879 100.437C67.7563 99.3517 67.917 98.2656 68.2384 96.0935C68.544 94.0277 68.6968 92.9949 68.2384 92.0397C67.4019 90.297 65.4882 89.7569 65.3622 89.7233C64.2169 89.4186 63.8469 89.8501 62.486 89.7233C61.2131 89.6047 59.1163 89.0017 58.747 87.986C57.7347 85.2021 68.9648 77.2895 71.4022 79.2995Z"
                                                    fill="#3F3D56"/>
                                                <path
                                                    d="M62.7736 93.4875C63.0974 93.9846 63.4688 95.2667 64.2117 97.8308C64.543 98.9742 66.6881 106.498 67.3755 108.834C67.5731 109.505 67.8292 110.344 68.526 111.15C69.1125 111.829 69.4257 111.808 69.6765 112.308C70.3289 113.611 69.0557 115.449 68.8136 115.783C68.5319 116.171 67.2235 117.976 65.3622 117.81C65.1678 117.792 63.9099 117.68 63.6365 116.941C63.2173 115.809 65.6817 114.746 65.6498 112.887C65.631 111.79 64.7572 111.335 63.6365 109.992C61.2321 107.111 62.2576 105.614 60.4727 103.332C57.8029 99.919 52.841 99.8565 52.1318 99.8576C50.2946 99.8603 47.7377 99.8641 46.0918 101.595C43.7972 104.008 44.7455 108.229 43.7909 114.625C43.7909 114.625 43.6361 115.662 43.2156 117.231C42.5218 119.82 41.9682 120.489 41.7775 120.705C41.5185 121 40.7607 121.837 39.4766 122.153C39.2997 122.196 38.4817 122.385 37.4633 122.153C36.7874 121.999 36.1713 121.859 35.7376 121.284C35.3216 120.734 35.1638 119.903 35.4499 119.257C35.7962 118.476 36.5096 118.603 37.4633 117.81C38.1363 117.25 38.4872 116.471 39.189 114.914C39.4996 114.225 39.965 113.18 40.3394 111.729C40.7729 110.05 40.826 108.753 40.9147 106.228C40.9894 104.1 40.9533 102.331 40.9147 100.437C40.8697 98.231 40.8084 97.5106 40.9147 96.0934C41.0262 94.6065 41.1348 93.1588 41.4899 92.3293C43.4001 87.8667 58.5574 87.0138 62.7736 93.4875Z"
                                                    fill="#3F3D56"/>
                                                <path
                                                    d="M74.8532 73.7981C76.0825 73.1136 76.2581 71.512 76.5789 68.5862C76.8125 66.4548 76.9517 65.1856 76.2912 63.6638C75.3998 61.6097 73.7266 60.651 73.4151 60.4788C73.0747 60.2906 70.8405 59.0977 68.5256 59.8997C68.2025 60.0116 67.3471 60.6514 65.6494 61.9265C63.6235 63.4481 63.3262 63.7383 63.0608 64.2429C62.3507 65.593 62.4262 67.4177 63.0608 67.7175C63.5429 67.9453 64.376 67.3064 64.7865 66.8489C65.2773 66.302 65.2035 65.9708 65.6494 65.4011C66.0028 64.9496 66.3352 64.7922 67.3751 64.2429C69.9506 62.8825 70.081 62.702 70.5389 62.7952C71.68 63.0275 72.224 64.424 72.2646 64.5325C72.6129 65.4633 72.374 66.3099 71.977 67.7175C71.7669 68.4624 71.5281 69.0371 71.1141 70.0339C70.3644 71.8391 70.1669 71.9744 70.2513 72.3503C70.5279 73.5833 73.2295 74.7021 74.8532 73.7981Z"
                                                    fill="#3F3D56"/>
                                                <path
                                                    d="M45.3725 78.8652C45.8481 78.9442 46.0788 81.6814 45.3725 84.0771C44.8896 85.7154 43.9153 87.3739 43.7415 87.6664C43.6046 87.8969 43.4727 88.107 43.0716 88.7099C41.1098 91.6588 40.1187 93.1317 39.6202 93.0532C38.9554 92.9485 40.7749 91.3658 40.9145 89.8525C41.1739 87.039 42.4288 86.6911 44.6535 82.6137C45.8574 80.4073 45.0014 78.8035 45.3725 78.8652Z"
                                                    fill="#5295F1"/>
                                                <path
                                                    d="M35.306 77.9966C35.0655 76.7646 36.4326 75.0535 37.8945 74.8115C40.0262 74.4587 41.8768 77.3095 42.4964 79.1548C43.3487 81.6927 42.3916 83.8738 41.9212 84.9458C41.3312 86.2903 40.89 86.3785 40.7707 86.3935C39.9005 86.5032 38.8689 84.8985 38.4698 83.498C38.1185 82.2658 38.5149 82.0971 38.1821 81.1816C37.4971 79.2969 35.5626 79.3113 35.306 77.9966Z"
                                                    fill="#2F2E41"/>
                                                <path
                                                    d="M44.2624 85.4133L101.335 55.9158V55.2421L43.4209 85.221L44.2624 85.4133Z"
                                                    fill="#5295F1"/>
                                                <path
                                                    d="M114.051 18.8729L112.801 14.2589L118.426 12.1616L119.051 16.3562L114.051 18.8729Z"
                                                    fill="#A0616A"/>
                                                <path opacity="0.1"
                                                    d="M114.051 18.8729L112.801 14.2589L116.113 12.8522L115.084 18.2917L114.051 18.8729Z"
                                                    fill="black"/>
                                                <path
                                                    d="M97.5846 58.417C96.5102 57.7735 96.4536 55.874 97.4581 54.1743C97.8978 53.4303 98.4679 52.848 99.0602 52.4823L99.6501 51.512L107.112 38.0443C107.112 38.0443 110.379 25.3425 111.709 23.8067C113.039 22.271 114.962 22.6328 114.962 22.6328L116.667 24.1579L110.58 42.1481L103.068 52.7979L102.061 54.28C102.025 54.9784 101.788 55.7607 101.349 56.5047C100.344 58.2044 98.659 59.0605 97.5846 58.417Z"
                                                    fill="#A0616A"/>
                                                <path
                                                    d="M113.743 17.555C113.743 17.555 116.117 17.4626 117.614 19.3187C119.112 21.1749 111.266 42.0955 111.266 42.0955L104.876 41.8678L113.743 17.555Z"
                                                    fill="#5295F1"/>
                                                <path
                                                    d="M114.364 14.9929C117.585 14.9929 120.197 12.3637 120.197 9.12048C120.197 5.87723 117.585 3.24805 114.364 3.24805C111.142 3.24805 108.53 5.87723 108.53 9.12048C108.53 12.3637 111.142 14.9929 114.364 14.9929Z"
                                                    fill="#A0616A"/>
                                                <path
                                                    d="M100.718 94.3757L96.7592 104.233L94.4676 101.926L93.6343 97.5216L96.9676 93.327L100.718 94.3757Z"
                                                    fill="#A0616A"/>
                                                <path
                                                    d="M137.8 90.8103L141.759 95.4243L139.884 99.1995L135.717 98.5703L133.634 92.6978L137.8 90.8103Z"
                                                    fill="#A0616A"/>
                                                <path
                                                    d="M111.447 35.7562L110.926 44.2502L123.842 41.9432L123.009 36.6999L111.447 35.7562Z"
                                                    fill="#A0616A"/>
                                                <path
                                                    d="M110.822 44.3551L123.842 40.0556C123.842 40.0556 128.634 49.7032 123.426 55.7854C118.217 61.8675 100.926 96.473 100.926 96.473L95.7178 93.9562L103.218 71.9346L111.551 51.5908L110.822 44.3551Z"
                                                    fill="#2F2E41"/>
                                                <path
                                                    d="M123.426 52.22L128.426 74.2416L138.842 91.2297L133.425 94.3757L118.842 74.2416L114.051 58.7216L123.426 52.22Z"
                                                    fill="#2F2E41"/>
                                                <path
                                                    d="M91.7595 96.6827H88.1514C88.1514 96.6827 83.9413 95.0049 82.9546 96.6827C81.9679 98.3606 87.3571 103.119 87.3571 103.119C87.3571 103.119 94.8844 107.379 95.9261 107.169C96.9677 106.959 97.3844 104.443 97.3844 104.443L98.6343 101.507L96.7594 102.136C96.7594 102.136 94.2594 100.668 94.8844 98.1508L91.7595 96.6827Z"
                                                    fill="#2F2E41"/>
                                                <path
                                                    d="M140.925 96.0535V93.9562L143.347 96.0535C143.347 96.0535 147.384 97.5217 144.259 100.668C141.134 103.814 137.175 107.169 137.175 107.169C137.175 107.169 130.926 108.847 130.509 106.959C130.092 105.072 130.509 104.308 130.509 104.308L132.801 103.184L134.884 97.7314L138.217 98.1508L140.925 96.0535Z"
                                                    fill="#2F2E41"/>
                                                <path
                                                    d="M116.134 10.274L114.259 10.0643L110.822 6.60373C110.822 6.60373 107.697 8.28157 107.697 7.02319C107.697 1.15075 111.238 1.36048 114.155 0.94102C117.072 0.521559 116.759 0.416695 117.697 1.98967C118.125 2.70904 119.676 3.14318 119.676 3.14318C119.676 3.14318 122.592 -0.841686 124.051 3.9821C125.509 8.80589 123.634 23.6967 125.092 24.9551C126.551 26.2135 119.105 27.47 119.911 22.5423C120.717 17.6146 122.176 10.0643 121.342 8.38643C120.509 6.7086 120.301 7.12805 120.301 7.12805C121.333 6.70358 122.008 14.1804 118.114 14.5465L118.009 10.9032C118.009 10.9032 117.384 9.01562 116.134 10.274Z"
                                                    fill="#2F2E41"/>
                                                <path
                                                    d="M113.53 17.5097L119.78 14.9929L128.113 40.1605L110.967 39.5318L109.424 32.02C109.424 32.02 107.916 28.1105 109.166 25.8034C110.416 23.4964 113.53 17.5097 113.53 17.5097Z"
                                                    fill="#5295F1"/>
                                                <path
                                                    d="M129.793 59.6686C128.548 59.7763 127.402 58.2663 127.234 56.2958C127.16 55.4332 127.286 54.6254 127.556 53.9807L127.473 52.8462L125.737 37.5242C125.737 37.5242 122.505 24.991 122.697 22.9627C122.888 20.9344 123.19 20.3959 123.19 20.3959L125.459 20.634L130.931 38.8234L130.995 51.8849L131.035 53.6799C131.41 54.2689 131.671 55.0432 131.744 55.9057C131.912 57.8762 131.039 59.5609 129.793 59.6686Z"
                                                    fill="#A0616A"/>
                                                <path
                                                    d="M119.259 16.9854C119.259 16.9854 121.134 15.5172 123.426 16.1464C125.718 16.7756 131.458 38.3778 131.458 38.3778L126.134 41.9432L119.259 16.9854Z"
                                                    fill="#5295F1"/>
                                            </svg>