<svg width="140" height="125" viewBox="0 0 140 125" fill="none"
                                             xmlns="http://www.w3.org/2000/svg">
                                            <path
                                                d="M62.3893 43.2273L60.875 77.1478C60.875 77.1478 64.8122 109.251 63.9036 110.16C62.995 111.068 60.5721 112.886 62.3893 115.006C64.2065 117.126 70.8694 118.64 71.1723 117.428C71.4752 116.217 72.0809 81.6907 72.0809 81.6907L74.2009 40.8044L62.3893 43.2273Z"
                                                fill="#2F2E41"/>
                                            <path opacity="0.2"
                                                  d="M62.3893 43.2273L60.875 77.1478C60.875 77.1478 64.8122 109.251 63.9036 110.16C62.995 111.068 60.5721 112.886 62.3893 115.006C64.2065 117.126 70.8694 118.64 71.1723 117.428C71.4752 116.217 72.0809 81.6907 72.0809 81.6907L74.2009 40.8044L62.3893 43.2273Z"
                                                  fill="black"/>
                                            <path
                                                d="M63.9038 114.4C63.9038 114.4 56.3322 120.154 55.4236 120.154C54.515 120.154 46.3378 122.88 52.0921 124.091C57.8465 125.303 71.7782 124.697 72.081 122.88C72.3839 121.063 71.1724 115.548 71.1724 115.548L63.9038 114.4Z"
                                                fill="#2F2E41"/>
                                            <path opacity="0.2"
                                                  d="M63.9038 114.4C63.9038 114.4 56.3322 120.154 55.4236 120.154C54.515 120.154 46.3378 122.88 52.0921 124.091C57.8465 125.303 71.7782 124.697 72.081 122.88C72.3839 121.063 71.1724 115.548 71.1724 115.548L63.9038 114.4Z"
                                                  fill="black"/>
                                            <path
                                                d="M45.1264 17.7869C45.1264 17.7869 41.7949 18.9983 41.7949 19.9069C41.7949 20.8155 38.7663 32.3242 38.1606 32.93C37.5549 33.5357 37.252 36.2614 37.252 36.2614C37.252 36.2614 34.2234 43.2273 34.8291 43.2273C35.4348 43.2273 40.5835 42.0158 40.8864 43.2273C41.1892 44.4387 43.6121 35.6557 43.6121 35.6557L48.7608 25.3584L45.1264 17.7869Z"
                                                fill="#5068CE"/>
                                            <path
                                                d="M34.8291 44.4387C34.8291 44.4387 35.7377 51.1017 38.1606 51.7074C40.5835 52.3131 38.1606 43.2273 38.1606 43.2273L34.8291 44.4387Z"
                                                fill="#FFB8B8"/>
                                            <path
                                                d="M42.7036 14.1525C42.7036 14.1525 44.5208 18.0897 45.4294 20.2098C46.338 22.3298 54.8181 14.7582 54.8181 14.7582C54.8181 14.7582 50.2752 11.4268 50.2752 9.91246C50.2752 8.39815 42.7036 14.1525 42.7036 14.1525Z"
                                                fill="#FFB8B8"/>
                                            <path
                                                d="M27.5605 125C22.1095 125 16.781 123.384 12.2487 120.355C7.7164 117.327 4.18391 113.023 2.09792 107.987C0.0119376 102.951 -0.533846 97.409 0.52958 92.0628C1.59301 86.7166 4.21788 81.8058 8.07227 77.9514C11.9267 74.097 16.8375 71.4722 22.1837 70.4087C27.5299 69.3453 33.0714 69.8911 38.1074 71.9771C43.1434 74.0631 47.4477 77.5956 50.4761 82.1278C53.5045 86.6601 55.1209 91.9887 55.1209 97.4396C55.1126 104.747 52.2063 111.752 47.0395 116.919C41.8727 122.085 34.8674 124.992 27.5605 125ZM27.5605 70.4849C22.2293 70.4849 17.0179 72.0658 12.5852 75.0276C8.15253 77.9894 4.69768 82.1992 2.65754 87.1245C0.617405 92.0498 0.0836137 97.4695 1.12367 102.698C2.16372 107.927 4.7309 112.73 8.50059 116.499C12.2703 120.269 17.0731 122.836 22.3019 123.876C27.5306 124.916 32.9502 124.383 37.8756 122.343C42.8009 120.302 47.0106 116.848 49.9725 112.415C52.9343 107.982 54.5152 102.771 54.5152 97.4396C54.5071 90.2932 51.6647 83.4419 46.6114 78.3886C41.5582 73.3354 34.7068 70.4929 27.5605 70.4849Z"
                                                fill="#2F2E41"/>
                                            <path
                                                d="M112.362 125C106.911 125 101.582 123.384 97.05 120.355C92.5177 117.327 88.9852 113.023 86.8992 107.987C84.8132 102.951 84.2674 97.409 85.3308 92.0628C86.3943 86.7166 89.0192 81.8058 92.8736 77.9514C96.728 74.097 101.639 71.4722 106.985 70.4087C112.331 69.3453 117.873 69.8911 122.909 71.9771C127.945 74.0631 132.249 77.5956 135.277 82.1278C138.306 86.6601 139.922 91.9887 139.922 97.4396C139.914 104.747 137.008 111.752 131.841 116.919C126.674 122.085 119.669 124.992 112.362 125ZM112.362 70.4849C107.031 70.4849 101.819 72.0658 97.3865 75.0276C92.9538 77.9894 89.4989 82.1992 87.4588 87.1245C85.4187 92.0498 84.8849 97.4695 85.9249 102.698C86.965 107.927 89.5322 112.73 93.3019 116.499C97.0715 120.269 101.874 122.836 107.103 123.876C112.332 124.916 117.752 124.383 122.677 122.343C127.602 120.302 131.812 116.848 134.774 112.415C137.736 107.982 139.316 102.771 139.316 97.4396C139.308 90.2932 136.466 83.4419 131.413 78.3886C126.359 73.3354 119.508 70.4929 112.362 70.4849Z"
                                                fill="#2F2E41"/>
                                            <path
                                                d="M27.5603 99.2568C28.5639 99.2568 29.3775 98.4432 29.3775 97.4396C29.3775 96.436 28.5639 95.6224 27.5603 95.6224C26.5567 95.6224 25.7432 96.436 25.7432 97.4396C25.7432 98.4432 26.5567 99.2568 27.5603 99.2568Z"
                                                fill="#2F2E41"/>
                                            <path
                                                d="M112.968 99.2568C113.971 99.2568 114.785 98.4432 114.785 97.4396C114.785 96.436 113.971 95.6224 112.968 95.6224C111.964 95.6224 111.15 96.436 111.15 97.4396C111.15 98.4432 111.964 99.2568 112.968 99.2568Z"
                                                fill="#2F2E41"/>
                                            <path
                                                d="M30.2619 94.8327L29.7046 94.5949L45.5337 57.4577L90.4208 58.3736L90.5078 58.5098L112.617 93.0361L112.107 93.3629L90.0847 58.9729L45.9304 58.0716L30.2619 94.8327Z"
                                                fill="#2F2E41"/>
                                            <path
                                                d="M77.4189 101.735L89.0528 60.7107L89.6355 60.8758L78.2518 101.018L108.689 97.1389L108.765 97.7401L77.4189 101.735Z"
                                                fill="#2F2E41"/>
                                            <path
                                                d="M44.4343 66.6384L44.002 67.0626L75.1967 98.8631L75.6291 98.4389L44.4343 66.6384Z"
                                                fill="#2F2E41"/>
                                            <path
                                                d="M92.079 51.0217L90.2646 57.6855L90.8491 57.8446L92.6634 51.1809L92.079 51.0217Z"
                                                fill="#2F2E41"/>
                                            <path
                                                d="M46.6332 55.7117L46.042 55.5775L47.4724 49.2847H42.4004V45.3475H43.0061V48.679H48.2314L46.6332 55.7117Z"
                                                fill="#2F2E41"/>
                                            <path
                                                d="M81.167 45.0445C81.167 45.0445 81.167 43.2273 85.1042 44.1359C89.0414 45.0445 101.156 47.4673 102.064 47.1645C102.973 46.8616 102.67 48.9817 98.733 49.8902C94.7958 50.7988 90.2529 48.6788 89.3443 48.0731C88.4357 47.4673 81.167 45.0445 81.167 45.0445Z"
                                                fill="#2F2E41"/>
                                            <path d="M70.2641 99.2567H62.3896V102.285H70.2641V99.2567Z" fill="#5068CE"/>
                                            <path
                                                d="M77.8356 107.434C76.6375 107.434 75.4664 107.079 74.4703 106.413C73.4742 105.748 72.6978 104.802 72.2394 103.695C71.7809 102.588 71.661 101.37 71.8947 100.195C72.1284 99.0201 72.7053 97.9408 73.5525 97.0937C74.3996 96.2465 75.4789 95.6696 76.6538 95.4359C77.8288 95.2022 79.0467 95.3221 80.1536 95.7806C81.2604 96.239 82.2064 97.0154 82.872 98.0115C83.5375 99.0076 83.8928 100.179 83.8928 101.377C83.891 102.983 83.2523 104.522 82.1167 105.658C80.9811 106.793 79.4415 107.432 77.8356 107.434ZM77.8356 95.9252C76.7573 95.9252 75.7034 96.245 74.8069 96.844C73.9104 97.443 73.2116 98.2944 72.799 99.2905C72.3864 100.287 72.2784 101.383 72.4888 102.44C72.6991 103.498 73.2183 104.469 73.9808 105.232C74.7432 105.994 75.7145 106.513 76.772 106.724C77.8295 106.934 78.9256 106.826 79.9218 106.413C80.9179 106.001 81.7693 105.302 82.3683 104.405C82.9674 103.509 83.2871 102.455 83.2871 101.377C83.2854 99.9314 82.7105 98.5458 81.6885 97.5238C80.6665 96.5018 79.2809 95.9269 77.8356 95.9252Z"
                                                fill="#2F2E41"/>
                                            <path
                                                d="M45.4288 17.1812C49.4432 17.1812 52.6975 13.9269 52.6975 9.91249C52.6975 5.89811 49.4432 2.6438 45.4288 2.6438C41.4145 2.6438 38.1602 5.89811 38.1602 9.91249C38.1602 13.9269 41.4145 17.1812 45.4288 17.1812Z"
                                                fill="#FFB8B8"/>
                                            <path
                                                d="M68.447 43.833C68.447 43.833 47.5495 55.9475 47.8524 59.8847C48.1552 63.8219 63.9041 85.3251 63.9041 85.3251C63.9041 85.3251 65.1155 91.6852 66.327 91.6852C67.5384 91.6852 75.11 94.4109 75.4128 92.5937C75.7157 90.7766 72.9899 88.6565 73.2928 87.4451C73.5956 86.2336 59.9669 64.1247 59.9669 64.1247C59.9669 64.1247 89.1346 53.2217 83.0309 43.833C76.9271 34.4443 68.447 43.833 68.447 43.833Z"
                                                fill="#2F2E41"/>
                                            <path
                                                d="M69.0522 90.4738C69.0522 90.4738 65.4178 91.3823 64.8121 92.5938C64.2064 93.8052 53.6062 97.7424 56.6348 98.651C59.6634 99.5596 77.2294 99.8625 77.8352 99.2568C78.4409 98.651 77.8352 91.6208 75.4123 91.653C72.9894 91.6852 70.2636 92.5938 69.0522 90.4738Z"
                                                fill="#2F2E41"/>
                                            <path
                                                d="M45.4294 21.1184L52.2438 12.7897C52.2438 12.7897 59.9667 10.5182 63.2982 15.0611C66.6297 19.6041 75.7156 30.81 78.7442 33.2329C81.7728 35.6557 86.0129 45.0445 84.4986 45.3473C82.9843 45.6502 74.5041 42.0158 71.1726 44.4387C67.8412 46.8616 61.4811 47.1645 61.1782 45.953C60.8753 44.7416 42.7036 24.4499 42.7036 21.7241C42.7036 18.9983 44.64 18.4135 44.64 18.4135L45.4294 21.1184Z"
                                                fill="#5068CE"/>
                                            <path
                                                d="M49.0897 45.1974L39.9523 41.9669C39.4792 41.7997 38.9601 42.0476 38.7928 42.5207C38.6256 42.9938 38.8735 43.5129 39.3466 43.6802L48.484 46.9106C48.9571 47.0779 49.4762 46.8299 49.6434 46.3568C49.8107 45.8837 49.5628 45.3646 49.0897 45.1974Z"
                                                fill="#2F2E41"/>
                                            <path
                                                d="M28.469 41.4102C28.469 41.4102 17.8688 44.4388 18.7774 47.7702C19.686 51.1017 29.3776 43.8331 29.3776 43.8331L28.469 41.4102Z"
                                                fill="#FFB8B8"/>
                                            <path
                                                d="M56.0294 15.0612C56.0294 15.0612 51.7893 18.6955 50.8807 22.9356C49.9722 27.1756 45.4292 34.7472 45.4292 34.7472L26.9547 40.8044C26.9547 40.8044 25.7432 46.5588 27.5604 46.5588C29.3776 46.5588 49.6693 42.3187 50.275 41.4101C50.8807 40.5016 63.9038 23.2384 63.9038 23.2384C63.9038 23.2384 65.1153 13.8497 56.0294 15.0612Z"
                                                fill="#5068CE"/>
                                            <path
                                                d="M40.9148 1.49942C40.7357 1.65371 40.5212 1.76132 40.2905 1.81268C40.1747 1.83333 40.0554 1.80732 39.9587 1.74033C39.862 1.67333 39.7957 1.57079 39.7743 1.45509C39.6408 1.82555 39.3927 2.14379 39.066 2.36356C38.7191 2.54432 38.1829 2.39276 38.1329 2.00488C38.0823 2.29939 37.952 2.57441 37.7561 2.80014C37.654 2.90812 37.5135 2.97147 37.365 2.97643C37.2164 2.9814 37.072 2.92758 36.9629 2.82666C37.1148 3.65666 37.021 4.51023 37.0687 5.35266C37.1164 6.1951 37.3411 7.0882 37.9775 7.64216C38.9058 8.45005 40.3016 8.25066 41.5226 8.0976C41.7072 8.05885 41.8988 8.06933 42.0781 8.12799C42.5353 8.32277 42.5146 8.9592 42.5208 9.45611C42.558 10.328 42.9031 11.1584 43.4947 11.8C44.0863 12.4415 44.8861 12.8527 45.7521 12.9604C46.2367 13.0352 46.7312 12.9145 47.1269 12.6249C47.4736 12.331 47.6507 11.8521 48.0479 11.6314C48.6941 11.2723 49.4778 11.796 49.9502 12.3645C50.4227 12.9331 50.8883 13.6325 51.6202 13.7366C52.5881 13.8742 53.3254 12.8878 53.6871 11.9794C54.1861 10.7064 54.4252 9.34625 54.3902 7.97929C54.3553 6.61234 54.047 5.26622 53.4835 4.0203C51.4624 -0.385422 44.5582 -1.08227 40.9148 1.49942Z"
                                                fill="#2F2E41"/>
                                        </svg>