<svg className="busan" width="35" height="28" viewBox="0 0 35 28"
                                             fill="none"
                                             xmlns="http://www.w3.org/2000/svg">
                                            <path
                                                d="M33.4229 5.10916L33.5722 5.46782C33.7364 5.86241 33.821 6.28559 33.821 6.71299C33.821 7.47046 33.5556 8.20399 33.071 8.78614L32.8861 9.00828C32.6687 9.26946 32.4191 9.50215 32.1434 9.70085L31.5696 10.1144C31.3899 10.244 31.243 10.4138 31.1408 10.6103C31.0356 10.8125 30.9807 11.037 30.9807 11.2648V15.0639C30.9807 15.9029 30.6388 16.7056 30.0339 17.2869L28.8594 18.6414C28.5933 18.9482 28.2672 19.1973 27.9011 19.3732L27.5284 19.5523C27.309 19.6577 27.1207 19.8182 26.982 20.0182C26.7192 20.397 26.2875 20.6229 25.8266 20.6229H24.7042C24.4791 20.6229 24.2627 20.71 24.1005 20.866C24.0588 20.906 24.0212 20.9501 23.9883 20.9976L23.5623 21.6116C23.459 21.7605 23.3765 21.9228 23.3171 22.094L23.234 22.3339C23.1414 22.6008 22.9617 22.8287 22.7239 22.9811L22.3535 23.2184C22.2232 23.3019 22.1443 23.4461 22.1443 23.6009C22.1443 23.8109 22.0003 23.9936 21.7961 24.0426L21.2127 24.1828C20.9964 24.2348 20.7699 24.2264 20.558 24.1585L19.9352 23.959L18.9121 23.7132C18.763 23.6774 18.606 23.72 18.4954 23.8262C18.4071 23.9111 18.3573 24.0282 18.3573 24.1506V26.0366C18.3573 26.419 18.0952 26.7515 17.7234 26.8408L17.561 26.8798C17.2871 26.9456 17.0036 26.8164 16.8736 26.5665C16.8124 26.4488 16.7147 26.3542 16.5951 26.2967L16.2082 26.1108C15.7926 25.9111 15.2965 25.9905 14.964 26.3101C14.912 26.3601 14.8552 26.4048 14.7945 26.4437L14.6481 26.5375C14.1851 26.8341 13.6468 26.9918 13.0969 26.9918H12.9923H11.5444C11.2706 26.9918 11.0195 26.8394 10.8931 26.5965C10.8216 26.4592 10.7954 26.3028 10.8182 26.1497L11.0287 24.7334C11.0743 24.4272 11.0218 24.1144 10.8789 23.8398L10.6641 23.4268C10.5433 23.1948 10.3035 23.0492 10.0418 23.0492C9.90772 23.0492 9.7764 23.0876 9.66346 23.16L9.18169 23.4686C8.98782 23.5928 8.77862 23.6913 8.55934 23.7615L8.02747 23.9319C7.34407 24.1508 6.63085 24.2623 5.91324 24.2623H4.15587H2.26469C1.69646 24.2623 1.17222 23.9066 1.04636 23.3524C1.01811 23.2281 1 23.1203 1 23.0492C1 22.8852 1.09606 22.6197 1.19082 22.4024C1.26833 22.2246 1.34748 22.0474 1.41103 21.8642L1.42847 21.8139C1.56266 21.427 1.63118 21.0204 1.63118 20.6109V20.3969C1.63118 19.9476 1.52292 19.505 1.31558 19.1065C1.10825 18.708 1 18.2654 1 17.8162V17.4712C1 17.3492 1.02042 17.228 1.06042 17.1127C1.21317 16.6723 1.62812 16.377 2.09423 16.377H2.60942C2.79768 16.377 2.9848 16.3478 3.16408 16.2903L4.29203 15.929C4.61998 15.824 4.92933 15.6679 5.2087 15.4666C5.75582 15.0722 6.16798 14.5187 6.38899 13.8816L6.6052 13.2582C6.6552 13.1141 6.72466 12.9774 6.81164 12.852C7.12489 12.4005 7.63954 12.1311 8.18909 12.1311H9.88517C10.2721 12.1311 10.6577 12.0855 11.0339 11.9951L11.5005 11.883C12.4726 11.6494 13.3521 11.1294 14.0252 10.3901L14.2327 10.1623C14.8598 9.47347 15.7024 9.01809 16.6222 8.87076C16.9363 8.82045 17.2434 8.73387 17.5375 8.61274L19.304 7.88522L20.6241 7.32141C21.5923 6.90789 22.341 6.105 22.686 5.11033L22.7186 5.0163C22.7565 4.90719 22.8022 4.80099 22.8555 4.69854C23.2022 4.03217 23.8439 3.56927 24.5856 3.45047L25.3001 3.33603L26.8743 3.11994C27.287 3.06329 27.671 2.8773 27.9714 2.58869L28.2718 2.29996C28.3912 2.18519 28.4692 2.03405 28.4936 1.87021L28.6281 0.965545C28.6796 0.619109 29.1284 0.514276 29.328 0.802049C29.3765 0.87194 29.4467 0.923885 29.5277 0.949835L30.0864 1.12881C30.2611 1.18477 30.4278 1.26321 30.5822 1.36216L30.9277 1.58353C31.1729 1.74056 31.402 1.92122 31.6119 2.12292L32.7089 2.96633C33.0121 3.19942 33.1898 3.56016 33.1898 3.9426C33.1898 4.34302 33.269 4.73948 33.4229 5.10916Z"
                                                fill={selectedItems.includes('부산') ? '#D0F4DE' : '#fff'} // 선택된 지역에 색상을 설정
                                                stroke="black"
                                                onClick={() => toggleRegion('부산')}/>
                                        </svg>