<svg width="153" height="118" viewBox="0 0 153 118" fill="none"
                                                 xmlns="http://www.w3.org/2000/svg">
                                                <g clipPath="url(#clip0_709_2557)">
                                                    <path
                                                        d="M134.815 66.9725L138.161 63.6378C137.856 61.4271 137.426 59.2354 136.874 57.073L134.967 58.0344L136.68 56.3271C135.97 53.6599 135.33 51.9385 135.33 51.9385C135.33 51.9385 128.587 58.7789 125.102 66.8004L127.262 72.4551L124.307 68.82C123.97 69.7691 123.694 70.7384 123.479 71.7221C121.347 81.6475 122.872 90.3874 126.887 91.2431C130.901 92.0988 135.883 84.7464 138.016 74.821C138.677 71.744 138.669 68.3759 138.345 65.1925L134.815 66.9725Z"
                                                        fill="#E6E6E6"/>
                                                    <path
                                                        d="M144.758 73.8989L149.352 72.767C150.238 70.7177 151.008 68.6201 151.657 66.4844L149.526 66.3257L151.878 65.7461C152.654 63.0973 153 61.2943 153 61.2943C153 61.2943 143.678 63.6781 136.532 68.7504L135.447 74.7029L134.804 70.0699C134.023 70.7089 133.283 71.3962 132.589 72.1277C125.613 79.5263 122.384 87.7936 125.376 90.5931C128.369 93.3926 136.449 89.6642 143.425 82.2655C145.587 79.9719 147.329 77.0848 148.703 74.1928L144.758 73.8989Z"
                                                        fill="#E6E6E6"/>
                                                    <path
                                                        d="M100.908 32.783L102.036 23.9583C99.0193 21.0095 95.8377 18.2326 92.5068 15.6408L90.7752 19.2687L91.3532 14.7504C87.2023 11.5863 84.2525 9.75275 84.2525 9.75275C84.2525 9.75275 82.1167 27.7165 86.2119 43.6963L95.9883 49.6527L87.366 47.6249C87.9631 49.429 88.6735 51.1938 89.4931 52.909C97.8139 70.1747 110.22 81.4642 117.203 78.1248C124.186 74.7855 123.101 58.0819 114.78 40.8162C112.201 35.4637 108.286 30.4451 104.113 26.0669L100.908 32.783Z"
                                                        fill="#E6E6E6"/>
                                                    <path
                                                        d="M123.774 31.6861L129.32 24.7129C128.267 20.6351 126.985 16.6197 125.478 12.6858L122.113 14.8999L124.953 11.3296C123.041 6.48371 121.467 3.3952 121.467 3.3952C121.467 3.3952 110.318 17.6733 105.531 33.4614L110.81 43.5942L104.481 37.4186C104.056 39.2704 103.748 41.147 103.56 43.0373C101.723 62.1019 106.485 78.1543 114.196 78.8912C121.906 79.6281 129.645 64.7706 131.482 45.706C132.051 39.7957 131.304 33.4841 130.004 27.5873L123.774 31.6861Z"
                                                        fill="#E6E6E6"/>
                                                    <path
                                                        d="M21.5462 34.08L20.9853 24.8205C17.3203 22.382 13.5201 20.1513 9.60289 18.1391L8.53487 22.1905L8.24767 17.4496C3.37915 15.0093 0 13.7004 0 13.7004C0 13.7004 1.30777 32.5179 8.61344 48.0993L19.7891 52.314L10.5604 51.9015C11.5233 53.6345 12.5946 55.3055 13.7681 56.9046C25.6534 72.9874 40.5612 82.1584 47.0657 77.3886C53.5702 72.6187 49.2082 55.7143 37.3229 39.6314C33.6384 34.6456 28.6512 30.2597 23.5234 26.5799L21.5462 34.08Z"
                                                        fill="#E6E6E6"/>
                                                    <path
                                                        d="M44.7609 28.5402L49.0855 20.3248C47.2134 16.3501 45.1178 12.4838 42.8087 8.74428L39.7921 11.6625L42.0063 7.45625C39.1049 2.86044 36.8914 0 36.8914 0C36.8914 0 28.2465 16.782 26.4152 33.8821L33.7951 43.2445L26.1089 38.1395C26.0339 40.1188 26.084 42.1009 26.2588 44.074C28.0877 63.9615 36.0906 79.4884 44.1338 78.7544C52.1771 78.0205 57.2148 61.3035 55.3859 41.416C54.8189 35.2507 52.8255 28.9282 50.3453 23.1378L44.7609 28.5402Z"
                                                        fill="#E6E6E6"/>
                                                    <path
                                                        d="M68.9548 111.67C72.1044 111.67 74.6577 110.943 74.6577 110.047C74.6577 109.15 72.1044 108.424 68.9548 108.424C65.8052 108.424 63.252 109.15 63.252 110.047C63.252 110.943 65.8052 111.67 68.9548 111.67Z"
                                                        fill="#E6E6E6"/>
                                                    <path
                                                        d="M131.034 118C134.184 118 136.737 117.273 136.737 116.377C136.737 115.48 134.184 114.754 131.034 114.754C127.885 114.754 125.332 115.48 125.332 116.377C125.332 117.273 127.885 118 131.034 118Z"
                                                        fill="#E6E6E6"/>
                                                    <path
                                                        d="M142.929 104.69C146.079 104.69 148.632 103.964 148.632 103.067C148.632 102.171 146.079 101.444 142.929 101.444C139.779 101.444 137.226 102.171 137.226 103.067C137.226 103.964 139.779 104.69 142.929 104.69Z"
                                                        fill="#E6E6E6"/>
                                                    <path
                                                        d="M119.547 99.9835C121.932 99.9835 123.865 99.4333 123.865 98.7546C123.865 98.0759 121.932 97.5256 119.547 97.5256C117.163 97.5256 115.229 98.0759 115.229 98.7546C115.229 99.4333 117.163 99.9835 119.547 99.9835Z"
                                                        fill="#E6E6E6"/>
                                                    <path
                                                        d="M26.0204 98.8241C27.5952 98.8241 28.8718 98.4296 28.8718 97.943C28.8718 97.4564 27.5952 97.0619 26.0204 97.0619C24.4456 97.0619 23.1689 97.4564 23.1689 97.943C23.1689 98.4296 24.4456 98.8241 26.0204 98.8241Z"
                                                        fill="#E6E6E6"/>
                                                    <path
                                                        d="M14.7777 108.725C16.3525 108.725 17.6291 108.331 17.6291 107.844C17.6291 107.357 16.3525 106.963 14.7777 106.963C13.2029 106.963 11.9263 107.357 11.9263 107.844C11.9263 108.331 13.2029 108.725 14.7777 108.725Z"
                                                        fill="#E6E6E6"/>
                                                    <path
                                                        d="M14.7777 93.1433C16.3525 93.1433 17.6291 92.7488 17.6291 92.2622C17.6291 91.7755 16.3525 91.381 14.7777 91.381C13.2029 91.381 11.9263 91.7755 11.9263 92.2622C11.9263 92.7488 13.2029 93.1433 14.7777 93.1433Z"
                                                        fill="#E6E6E6"/>
                                                    <path
                                                        d="M136.879 95.1068L109.251 94.1329L94.6813 95.5174L69.7892 97.8823L60.4218 98.7718L38.7281 105.978C38.641 106.007 38.5475 106.011 38.4583 105.989C38.3692 105.967 38.2881 105.921 38.2245 105.855C38.1609 105.789 38.1173 105.706 38.0989 105.617C38.0805 105.527 38.0879 105.434 38.1203 105.349L38.122 105.347L41.8842 95.4346L41.4883 95.1441L31.1351 87.5658L31.0797 87.5252L17.6552 85.4866C17.4662 85.4577 17.2877 85.3814 17.1365 85.2647C16.9854 85.1481 16.8665 84.995 16.7912 84.8199C16.7159 84.6449 16.6866 84.4536 16.706 84.2641C16.7255 84.0746 16.7931 83.8932 16.9024 83.7369L37.348 54.5112L48.0922 39.1566L49.2572 37.4897L93.9514 36.8745L137.588 93.7401C137.686 93.8682 137.746 94.0214 137.76 94.182C137.774 94.3426 137.743 94.5039 137.668 94.6471C137.594 94.7903 137.48 94.9096 137.341 94.991C137.201 95.0723 137.041 95.1125 136.879 95.1068Z"
                                                        fill="#325ABA"/>
                                                    <path opacity="0.2"
                                                          d="M59.7271 39.8614L41.4882 95.1442L31.1362 87.5659L37.3488 54.5116L48.0617 39.12L48.0921 39.1559L59.7271 39.8614Z"
                                                          fill="black"/>
                                                    <path
                                                        d="M43.4463 61.0394C41.3768 65.9953 40.6441 70.1348 38.1893 69.3873C34.8286 68.364 38.3573 64.7441 40.4268 59.7882C42.4963 54.8323 43.9586 51.0306 45.6838 51.4403C48.9 52.204 45.5158 56.0835 43.4463 61.0394Z"
                                                        fill="#3F3D56"/>
                                                    <path
                                                        d="M48.1353 51.1193C48.1348 50.7913 48.0694 50.4666 47.9429 50.1638C47.8164 49.861 47.6313 49.5859 47.3981 49.3544C47.1649 49.1228 46.8882 48.9393 46.5838 48.8143C46.2794 48.6892 45.9533 48.6251 45.624 48.6257C45.5675 48.6258 45.5115 48.6284 45.4559 48.6322L43.0899 48.3414C42.8184 48.245 42.5322 48.1961 42.244 48.1967C42.1644 48.1969 42.0858 48.2011 42.0081 48.2085L41.9169 48.1973L41.9145 48.2194C41.3592 48.2937 40.8449 48.551 40.4536 48.9504C40.0623 49.3498 39.8166 49.8683 39.7556 50.423C39.6946 50.9778 39.8219 51.5369 40.1172 52.0112C40.4125 52.4855 40.8587 52.8476 41.3847 53.0398L41.3798 53.0847L41.6125 53.1107C41.8213 53.165 42.0362 53.1923 42.252 53.1919C42.276 53.1919 42.2996 53.1907 42.3234 53.19L44.7421 53.4599C45.0265 53.567 45.3281 53.6216 45.6321 53.6209C45.7454 53.6205 45.8586 53.6125 45.9709 53.597L46.1771 53.62L46.1784 53.5598C46.7345 53.4351 47.2313 53.1254 47.587 52.6818C47.9427 52.2382 48.1361 51.687 48.1353 51.1193Z"
                                                        fill="#325ABA"/>
                                                    <path opacity="0.2"
                                                          d="M48.1353 51.1193C48.1348 50.7913 48.0694 50.4666 47.9429 50.1638C47.8164 49.861 47.6313 49.5859 47.3981 49.3544C47.1649 49.1228 46.8882 48.9393 46.5838 48.8143C46.2794 48.6892 45.9533 48.6251 45.624 48.6257C45.5675 48.6258 45.5115 48.6284 45.4559 48.6322L43.0899 48.3414C42.8184 48.245 42.5322 48.1961 42.244 48.1967C42.1644 48.1969 42.0858 48.2011 42.0081 48.2085L41.9169 48.1973L41.9145 48.2194C41.3592 48.2937 40.8449 48.551 40.4536 48.9504C40.0623 49.3498 39.8166 49.8683 39.7556 50.423C39.6946 50.9778 39.8219 51.5369 40.1172 52.0112C40.4125 52.4855 40.8587 52.8476 41.3847 53.0398L41.3798 53.0847L41.6125 53.1107C41.8213 53.165 42.0362 53.1923 42.252 53.1919C42.276 53.1919 42.2996 53.1907 42.3234 53.19L44.7421 53.4599C45.0265 53.567 45.3281 53.6216 45.6321 53.6209C45.7454 53.6205 45.8586 53.6125 45.9709 53.597L46.1771 53.62L46.1784 53.5598C46.7345 53.4351 47.2313 53.1254 47.587 52.6818C47.9427 52.2382 48.1361 51.687 48.1353 51.1193Z"
                                                          fill="white"/>
                                                    <path
                                                        d="M14.6504 85.238L14.3608 85.0866C21.7786 71.0031 42.7586 40.9119 42.9696 40.6096L43.2382 40.7956C43.0273 41.0977 22.0587 71.1723 14.6504 85.238Z"
                                                        fill="#3F3D56"/>
                                                    <path
                                                        d="M37.3721 106.344L37.0566 106.258C37.2095 105.699 52.4032 50.1817 57.6784 40.8165L57.9636 40.9758C52.7079 50.3064 37.5249 105.785 37.3721 106.344Z"
                                                        fill="#3F3D56"/>
                                                    <path
                                                        d="M138.874 95.5807C130.774 82.2887 100.185 41.1226 99.8765 40.7083L100.139 40.5144C100.447 40.9288 131.046 82.1069 139.153 95.4116L138.874 95.5807Z"
                                                        fill="#3F3D56"/>
                                                    <path
                                                        d="M36.7831 107.822C37.4153 107.821 37.9267 107.164 37.9254 106.354C37.9241 105.544 37.4106 104.889 36.7784 104.89C36.1463 104.891 35.6348 105.548 35.6362 106.358C35.6375 107.167 36.151 107.823 36.7831 107.822Z"
                                                        fill="#3F3D56"/>
                                                    <path
                                                        d="M14.7246 85.8678C15.3567 85.8668 15.8681 85.2096 15.8668 84.4C15.8655 83.5904 15.352 82.9348 14.7198 82.9358C14.0877 82.9369 13.5763 83.594 13.5776 84.4037C13.5789 85.2133 14.0924 85.8688 14.7246 85.8678Z"
                                                        fill="#3F3D56"/>
                                                    <path
                                                        d="M139.177 96.3123C139.809 96.3113 140.321 95.6541 140.319 94.8445C140.318 94.0348 139.805 93.3793 139.172 93.3803C138.54 93.3813 138.029 94.0385 138.03 94.8481C138.032 95.6578 138.545 96.3133 139.177 96.3123Z"
                                                        fill="#3F3D56"/>
                                                    <path
                                                        d="M41.6982 42.2265L103.39 42.885C103.348 37.8659 101.315 33.067 97.7364 29.5338C94.1575 26.0007 89.3219 24.0195 84.2832 24.022L60.7392 24.0598C50.8913 24.0755 42.5527 31.7471 41.7556 41.5248L41.6982 42.2265Z"
                                                        fill="#3F3D56"/>
                                                    <path opacity="0.2"
                                                          d="M95.9036 62.5407H73.3561C73.0816 62.5405 72.8098 62.5945 72.5564 62.6998C72.303 62.8051 72.0732 62.9595 71.8802 63.154C71.6872 63.3485 71.5349 63.5792 71.4322 63.8328C71.3295 64.0864 71.2784 64.3578 71.2819 64.6313L71.3015 66.2739L71.5019 83.8586L71.5051 84.1979L71.5117 84.7578L71.5182 85.3048L71.5557 88.6013C71.5618 89.1378 71.777 89.6508 72.1559 90.0321C72.5347 90.4134 73.0474 90.6331 73.5859 90.6448C73.6413 90.6448 73.6983 90.6432 73.7553 90.64L79.1095 90.3153L86.8556 89.8446L89.5897 89.6791L90.1991 89.6418L94.46 89.3837H94.4616L96.0291 89.2879C96.5563 89.2553 97.0513 89.0239 97.4133 88.6406C97.7753 88.2574 97.9772 87.7512 97.9778 87.2249V64.6069C97.9772 64.0591 97.7585 63.5339 97.3697 63.1465C96.9808 62.7592 96.4536 62.5413 95.9036 62.5407Z"
                                                          fill="black"/>
                                                    <path
                                                        d="M100.547 59.6686C100.465 59.6751 100.386 59.6995 100.315 59.74C100.244 59.7805 100.183 59.8362 100.136 59.903L97.6518 59.907V59.2507C97.6512 58.7028 97.4324 58.1776 97.0436 57.7903C96.6547 57.4029 96.1275 57.185 95.5775 57.1844H73.03C72.7555 57.1842 72.4837 57.2383 72.2303 57.3435C71.9769 57.4488 71.7471 57.6032 71.5541 57.7977C71.3611 57.9922 71.2089 58.2229 71.1062 58.4766C71.0035 58.7302 70.9524 59.0016 70.9558 59.275L70.9639 59.9498L69.3616 59.9523C69.2738 59.8592 69.1532 59.8035 69.0251 59.797C68.4636 59.7979 68.0103 61.0196 68.0127 62.5257C68.0151 64.0318 68.4724 65.252 69.0339 65.2512C69.1318 65.2405 69.2256 65.2066 69.3075 65.1522C69.3894 65.0978 69.457 65.0246 69.5046 64.9387L100.144 64.8896C100.191 64.9563 100.252 65.0118 100.324 65.0521C100.395 65.0924 100.474 65.1165 100.555 65.1227C101.117 65.1218 101.57 63.9001 101.568 62.394C101.565 60.8879 101.108 59.6677 100.547 59.6686Z"
                                                        fill="#325ABA"/>
                                                    <path opacity="0.2"
                                                          d="M100.547 59.6686C100.465 59.6751 100.386 59.6995 100.315 59.74C100.244 59.7805 100.183 59.8362 100.136 59.903L97.6518 59.907V59.2507C97.6512 58.7028 97.4325 58.1776 97.0436 57.7903C96.6547 57.4029 96.1275 57.185 95.5776 57.1844H73.0301C72.7555 57.1842 72.4837 57.2383 72.2303 57.3436C71.977 57.4488 71.7471 57.6032 71.5541 57.7977C71.3612 57.9922 71.2089 58.2229 71.1062 58.4766C71.0035 58.7302 70.9524 59.0016 70.9558 59.275L70.9639 59.9498L69.3616 59.9523C69.2738 59.8592 69.1532 59.8035 69.0251 59.797C68.4636 59.7979 68.0103 61.0196 68.0127 62.5257C68.0151 64.0318 68.4724 65.252 69.0339 65.2512C69.1318 65.2405 69.2256 65.2066 69.3075 65.1522C69.3895 65.0978 69.457 65.0246 69.5046 64.9387L100.144 64.8896C100.191 64.9563 100.252 65.0118 100.324 65.0521C100.395 65.0924 100.474 65.1165 100.555 65.1227C101.117 65.1218 101.57 63.9001 101.568 62.394C101.565 60.8879 101.108 59.6677 100.547 59.6686Z"
                                                          fill="white"/>
                                                    <path
                                                        d="M98.0224 94.1497C97.8731 94.2888 97.6936 94.3917 97.4978 94.4502C97.302 94.5087 97.0953 94.5212 96.8938 94.4869C96.6923 94.4526 96.5015 94.3724 96.3363 94.2524C96.1712 94.1325 96.0361 93.9761 95.9417 93.7955L94.7158 91.451L95.2035 90.3984L97.8314 92.0738C98.0015 92.1822 98.1444 92.3278 98.2493 92.4997C98.3542 92.6715 98.4183 92.8649 98.4368 93.0652C98.4552 93.2655 98.4274 93.4673 98.3556 93.6552C98.2838 93.8432 98.1698 94.0123 98.0224 94.1497Z"
                                                        fill="#FFB8B8"/>
                                                    <path
                                                        d="M103.318 107.829C103.288 107.558 103.159 107.308 102.954 107.127C102.75 106.946 102.484 106.848 102.211 106.852C101.962 106.85 101.719 106.932 101.523 107.084C101.326 107.236 101.186 107.45 101.125 107.69L100.04 112.942C100.004 113.095 99.9854 113.252 99.9844 113.41C99.9844 114.594 100.979 115.417 102.211 115.417C103.443 115.417 104.438 114.594 104.438 113.41C104.438 113.22 104.412 113.031 104.361 112.848L103.318 107.829Z"
                                                        fill="#3F3D56"/>
                                                    <path
                                                        d="M111.53 110.178C111.419 110.081 111.3 109.995 111.175 109.919L107.027 107.032C106.624 106.779 106.192 106.787 105.879 107.091C105.742 107.221 105.656 107.394 105.634 107.581C105.612 107.768 105.657 107.956 105.76 108.113L108.891 112.213C108.963 112.313 109.043 112.406 109.13 112.492C109.673 113.096 110.876 113.129 111.538 112.492C112.19 111.844 112.183 110.689 111.53 110.178Z"
                                                        fill="#3F3D56"/>
                                                    <path
                                                        d="M114.646 105.901H110.446C110.311 105.896 110.18 105.944 110.081 106.034C109.982 106.125 109.922 106.251 109.916 106.385C109.914 106.509 109.953 106.63 110.028 106.729C110.103 106.827 110.209 106.898 110.329 106.93L114.291 108.151C114.867 108.285 115.642 107.774 115.642 107.135C115.642 106.324 115.189 105.901 114.646 105.901Z"
                                                        fill="#3F3D56"/>
                                                    <path
                                                        d="M94.6593 106.383C94.6549 106.314 94.6368 106.247 94.6059 106.185C94.5751 106.123 94.5321 106.068 94.4796 106.023C94.4272 105.978 94.3662 105.943 94.3002 105.922C94.2343 105.901 94.1647 105.892 94.0956 105.898H89.8952C89.3661 105.898 88.9199 106.467 88.9199 107.106C88.9199 107.744 89.6727 108.284 90.2501 108.151L94.2722 106.93C94.3928 106.902 94.4989 106.831 94.5703 106.73C94.6416 106.629 94.6733 106.506 94.6593 106.383Z"
                                                        fill="#3F3D56"/>
                                                    <path
                                                        d="M97.542 107.037L93.3935 109.911C93.2647 109.984 93.1446 110.07 93.0356 110.17C92.7306 110.452 92.5508 110.844 92.5357 111.259C92.5206 111.673 92.6715 112.077 92.9552 112.381C92.981 112.409 93.0078 112.435 93.0356 112.461C93.361 112.767 93.7917 112.938 94.2393 112.938C94.6869 112.938 95.1176 112.767 95.443 112.461C95.5317 112.377 95.6116 112.283 95.6816 112.183L98.8155 108.106C98.9205 107.951 98.9662 107.763 98.9443 107.577C98.9224 107.391 98.8344 107.219 98.6962 107.093C98.5415 106.949 98.3407 106.864 98.1294 106.854C97.9181 106.844 97.71 106.909 97.542 107.037Z"
                                                        fill="#3F3D56"/>
                                                    <path
                                                        d="M103.995 101.419C104.043 101.348 104.07 101.265 104.072 101.18C104.072 100.677 103.077 100.327 101.845 100.327C100.613 100.327 99.6182 100.677 99.6182 101.18C99.6199 101.25 99.639 101.318 99.6736 101.379L100.759 103.611C100.884 103.822 101.332 103.969 101.845 103.967C102.423 103.967 102.903 103.785 102.951 103.552L103.995 101.419Z"
                                                        fill="#3F3D56"/>
                                                    <path
                                                        d="M111.171 101.57C110.51 101.299 109.306 101.313 108.763 101.57C108.681 101.604 108.601 101.644 108.525 101.689L105.393 103.431C105.18 103.569 105.23 103.752 105.512 103.865C105.883 103.993 106.285 104.002 106.661 103.891L110.808 102.664C110.928 102.633 111.047 102.597 111.163 102.554C111.816 102.337 111.824 101.846 111.171 101.57Z"
                                                        fill="#3F3D56"/>
                                                    <path
                                                        d="M115.276 103.847C115.276 103.576 114.5 103.358 113.925 103.415L109.962 103.934C109.725 103.967 109.549 104.044 109.549 104.165C109.549 104.287 109.808 104.371 110.079 104.371H114.279C114.822 104.371 115.276 104.192 115.276 103.847Z"
                                                        fill="#3F3D56"/>
                                                    <path
                                                        d="M93.9055 103.934L89.8834 103.415C89.306 103.358 88.5532 103.588 88.5532 103.859C88.5532 104.131 88.9994 104.372 89.5285 104.372H93.7289C94.0212 104.372 94.2926 104.293 94.2926 104.166C94.2926 104.04 94.1673 103.967 93.9055 103.934Z"
                                                        fill="#3F3D56"/>
                                                    <path
                                                        d="M98.3295 103.865C98.623 103.75 98.6576 103.575 98.4488 103.434L95.3149 101.702C95.2387 101.656 95.1589 101.616 95.0763 101.583C94.2968 101.313 93.4485 101.313 92.6689 101.583C92.6411 101.594 92.6143 101.606 92.5885 101.617C91.9978 101.886 92.0338 102.307 92.6689 102.557C92.7856 102.602 92.9051 102.638 93.0268 102.667L97.1753 103.889C97.5532 104 97.9566 103.992 98.3295 103.865Z"
                                                        fill="#3F3D56"/>
                                                    <path
                                                        d="M110.388 101.058C110.388 107.511 106.777 107.631 102.323 107.631C97.8684 107.631 90.5555 106.354 94.2576 101.058C98.1622 95.4712 104.861 84.823 102.323 84.2591C102.323 84.2591 110.388 94.6036 110.388 101.058Z"
                                                        fill="#F9A825"/>
                                                    <path opacity="0.5"
                                                          d="M105.163 105.029C105.163 107.583 103.734 107.631 101.971 107.631C100.208 107.631 97.3128 107.125 98.7782 105.029C100.324 102.818 102.975 98.6027 101.971 98.3795C101.971 98.3795 105.163 102.474 105.163 105.029Z"
                                                          fill="#FF6584"/>
                                                    <path
                                                        d="M97.9779 86.0709V87.2249C97.9773 87.7512 97.7754 88.2574 97.4134 88.6406C97.0514 89.0239 96.5564 89.2553 96.0292 89.2879L73.7554 90.64C73.4749 90.6571 73.1939 90.6172 72.9293 90.5228C72.6648 90.4284 72.4223 90.2814 72.2166 90.0907C72.0108 89.9 71.8461 89.6697 71.7325 89.4136C71.6189 89.1576 71.5588 88.8812 71.5557 88.6013L71.502 83.8586L84.9754 83.6411L97.9779 86.0709Z"
                                                        fill="#3F3D56"/>
                                                    <path
                                                        d="M94.3457 91.7871L84.297 86.5882C84.2507 86.5642 84.21 86.5307 84.1777 86.4898C84.1454 86.449 84.1221 86.4017 84.1095 86.3512L81.9297 77.5998C81.8033 77.092 81.8716 76.5555 82.1213 76.0952C82.371 75.6349 82.7841 75.284 83.2798 75.1112L83.805 74.9281C83.922 74.8873 84.0463 74.8709 84.17 74.8798C84.2937 74.8888 84.4142 74.9229 84.5241 74.9801C84.6341 75.0374 84.731 75.1164 84.809 75.2125C84.887 75.3086 84.9444 75.4196 84.9776 75.5386L87.1261 83.2434C87.1462 83.3155 87.188 83.3798 87.2458 83.4275L95.4331 90.1851C95.5038 90.2434 95.55 90.3259 95.5627 90.4164C95.5755 90.5069 95.5538 90.5988 95.502 90.6742L94.8189 91.6689C94.7681 91.7428 94.692 91.7956 94.6048 91.8174C94.5176 91.8392 94.4255 91.8284 94.3457 91.7871Z"
                                                        fill="#E6E6E6"/>
                                                    <path
                                                        d="M87.7257 78.1722C82.852 75.6163 77.7504 74.3327 72.2822 75.0954C73.9305 72.3127 75.1547 69.7399 75.0729 67.8139C75.0377 67.195 75.1554 66.5769 75.4157 66.0138C75.676 65.4508 76.071 64.9599 76.566 64.5841C77.3625 63.9959 78.3279 63.6785 79.3195 63.6789C80.2049 63.2857 81.208 63.2459 82.122 63.568C82.5099 63.7134 82.8627 63.9388 83.1572 64.2294C83.4517 64.5199 83.6814 64.8691 83.8313 65.2541C84.0182 65.7052 84.4207 66.1005 85.0045 66.4486C85.5452 66.7603 85.9858 67.2188 86.2747 67.7706C86.6593 68.533 86.6858 69.3005 86.1818 70.0754C88.0689 72.0503 88.0742 75.0179 87.7257 78.1722Z"
                                                        fill="#2F2E41"/>
                                                    <path
                                                        d="M80.8171 71.7757C82.7025 71.7757 84.231 70.2532 84.231 68.3751C84.231 66.497 82.7025 64.9744 80.8171 64.9744C78.9317 64.9744 77.4033 66.497 77.4033 68.3751C77.4033 70.2532 78.9317 71.7757 80.8171 71.7757Z"
                                                        fill="#FFB8B8"/>
                                                    <path
                                                        d="M82.4427 75.7432L78.46 76.148C78.6737 73.8283 78.7578 71.6878 78.46 70.0754H82.4427C81.6863 72.6426 81.7527 74.4724 82.4427 75.7432Z"
                                                        fill="#FFB8B8"/>
                                                    <path
                                                        d="M84.5759 75.6555C84.5726 76.0109 84.565 76.3626 84.553 76.7105C84.4699 79.2003 84.1555 81.4418 83.2984 83.0925C83.1244 83.4343 82.9164 83.7578 82.6776 84.0583C82.676 84.0614 82.6737 84.0641 82.6711 84.0664C82.6547 84.0892 82.6367 84.1109 82.6173 84.1313C82.442 84.3481 82.2473 84.5486 82.0356 84.7303L80.4046 86.4345L80.3297 86.5124L79.8539 86.8289L77.4033 88.4553L71.5179 85.3048L71.5114 84.7579L71.5049 84.1979C72.8133 82.3508 73.6296 79.9486 74.1478 77.2136C74.2895 76.4654 74.4101 75.6912 74.5127 74.8958C74.5828 74.3456 74.6447 73.784 74.6985 73.2143C74.7068 73.0394 74.7663 72.8707 74.8696 72.729C74.8696 72.7288 74.8696 72.7286 74.8697 72.7284C74.8698 72.7282 74.8699 72.728 74.87 72.7278C74.8702 72.7277 74.8704 72.7276 74.8706 72.7275C74.8708 72.7274 74.871 72.7274 74.8712 72.7274C75.1221 72.4092 75.6207 72.4157 76.2236 72.3833C77.0693 72.3378 77.9019 71.9012 78.6498 72.3135C78.6683 72.322 78.6863 72.3317 78.7035 72.3427L80.8983 74.7709L81.9069 73.6883L81.9542 73.6379L84.0316 74.5242C84.2441 74.6156 84.4162 74.7805 84.5162 74.9884C84.6162 75.1963 84.6374 75.4332 84.5759 75.6555Z"
                                                        fill="#E6E6E6"/>
                                                    <path
                                                        d="M79.9438 87.5902C79.9439 88.0042 79.8654 88.4144 79.7124 88.7994L79.1096 90.3154L73.7554 90.64C73.6984 90.6432 73.6413 90.6449 73.5859 90.6449C73.0475 90.6332 72.5347 90.4134 72.1559 90.0321C71.7771 89.6508 71.5619 89.1378 71.5557 88.6014L71.5182 85.3048L71.5117 84.7578L73.4605 85.5808L75.3603 84.5647C75.4639 84.5206 75.57 84.4826 75.6781 84.4511C75.8188 84.4067 75.9625 84.3725 76.1082 84.3488H76.1099C76.1799 84.3375 76.25 84.3277 76.32 84.3212C77.1254 84.2408 77.9322 84.4587 78.5865 84.9331C78.969 85.209 79.2865 85.5646 79.5169 85.9752C79.5345 86.0033 79.5503 86.0326 79.5642 86.0628C79.6937 86.3046 79.7912 86.5621 79.8542 86.8289C79.9135 87.0784 79.9435 87.3338 79.9438 87.5902Z"
                                                        fill="#2F2E41"/>
                                                    <path opacity="0.2"
                                                          d="M78.4189 77.8888L79.1312 81.1439L83.4583 84.8521L79.6382 80.9657L78.4189 77.8888Z"
                                                          fill="black"/>
                                                    <path opacity="0.2"
                                                          d="M74.4365 79.4271L75.7369 84.6901L79.5572 86.0666L75.9809 84.2853L74.4365 79.4271Z"
                                                          fill="black"/>
                                                    <path
                                                        d="M84.9214 68.5775C82.4054 67.4244 79.5608 67.0956 77.0371 68.3346L77.3622 65.4198L82.8894 64.5291L84.9214 68.5775Z"
                                                        fill="#2F2E41"/>
                                                    <path
                                                        d="M105.147 94.1913L86.6455 91.0253L86.8723 89.9118L105.147 94.1913Z"
                                                        fill="#3F3D56"/>
                                                    <path
                                                        d="M89.7319 91.7207C89.5826 91.8598 89.403 91.9626 89.2072 92.0211C89.0114 92.0796 88.8047 92.0922 88.6032 92.0579C88.4018 92.0236 88.211 91.9434 88.0458 91.8234C87.8806 91.7034 87.7455 91.5471 87.6511 91.3665L86.4253 89.0219L86.913 87.9694L89.5409 89.6447C89.7109 89.7531 89.8539 89.8988 89.9588 90.0706C90.0637 90.2425 90.1278 90.4359 90.1462 90.6362C90.1646 90.8364 90.1369 91.0383 90.0651 91.2262C89.9933 91.4142 89.8793 91.5833 89.7319 91.7207Z"
                                                        fill="#FFB8B8"/>
                                                    <path
                                                        d="M86.0547 89.3581L76.006 84.1592C75.9597 84.1352 75.919 84.1017 75.8867 84.0608C75.8543 84.02 75.8311 83.9727 75.8185 83.9222L73.6387 75.1708C73.5122 74.663 73.5805 74.1265 73.8302 73.6662C74.08 73.2059 74.4931 72.855 74.9888 72.6822L75.514 72.4991C75.631 72.4583 75.7553 72.4418 75.879 72.4508C76.0027 72.4597 76.1232 72.4939 76.2331 72.5511C76.3431 72.6083 76.44 72.6874 76.518 72.7835C76.596 72.8796 76.6534 72.9906 76.6866 73.1096L78.8351 80.8144C78.8552 80.8865 78.897 80.9507 78.9548 80.9985L87.1421 87.7561C87.2128 87.8144 87.259 87.8969 87.2717 87.9874C87.2845 88.0778 87.2628 88.1698 87.211 88.2452L86.5278 89.2399C86.4771 89.3138 86.4009 89.3666 86.3138 89.3884C86.2266 89.4102 86.1344 89.3994 86.0547 89.3581Z"
                                                        fill="#E6E6E6"/>
                                                    <path
                                                        d="M103.153 94.7677C103.242 94.785 103.334 94.7666 103.409 94.7166C103.484 94.6666 103.537 94.5889 103.555 94.5006L103.74 93.5764C103.758 93.4879 103.74 93.396 103.69 93.3209C103.639 93.2458 103.561 93.1937 103.472 93.176L100.787 92.6412C100.698 92.6237 100.606 92.642 100.53 92.692C100.455 92.7421 100.403 92.8198 100.385 92.9083L100.2 93.8325C100.191 93.8763 100.191 93.9214 100.199 93.9653C100.208 94.0091 100.225 94.0508 100.25 94.088C100.275 94.1252 100.307 94.1571 100.344 94.182C100.382 94.2068 100.423 94.2241 100.467 94.2329L103.153 94.7677Z"
                                                        fill="#E6E6E6"/>
                                                </g>
                                                <defs>
                                                    <clipPath id="clip0_709_2557">
                                                        <rect width="153" height="118" fill="white"/>
                                                    </clipPath>
                                                </defs>
                                            </svg>