<svg className="chungbook" width="90" height="92" viewBox="0 0 90 92"
                                             fill="none"
                                             xmlns="http://www.w3.org/2000/svg">
                                            <path
                                                d="M87.8971 16.8503L88.5883 17.3485C88.8485 17.536 88.9214 17.8918 88.756 18.1666C88.7407 18.1921 88.7236 18.2164 88.7048 18.2394L88.5646 18.4105C88.4667 18.53 88.3815 18.6592 88.3102 18.7962L88.2375 18.9361C88.1479 19.1081 88.025 19.2606 87.8759 19.3845L87.8492 19.4067C87.6046 19.61 87.2966 19.7212 86.9785 19.7212H86.8205C86.4406 19.7212 86.0886 19.5222 85.8927 19.1967L85.8342 19.069C85.6777 18.7272 85.3363 18.5081 84.9604 18.5081H84.2588C84.1154 18.5081 83.9992 18.6243 83.9992 18.7677C83.9992 18.7966 83.9944 18.8254 83.9849 18.8527L83.5164 20.2034C83.4214 20.4771 83.2212 20.7016 82.9601 20.8271C82.8132 20.8977 82.6522 20.9343 82.4892 20.9343H81.7901H81.5271C81.1069 20.9343 80.7217 21.1682 80.5278 21.5409C80.3189 21.9426 80.0458 22.3075 79.7193 22.6212L79.581 22.754L78.3187 23.6639C78.1086 23.8657 77.9157 24.0846 77.742 24.3184L77.214 25.0287C76.689 25.7351 76.1062 26.3966 75.4716 27.0064L75.1628 27.3032L74.216 28.213L74.1689 28.2583C73.8324 28.5817 73.7805 29.1016 74.0466 29.4851C74.1569 29.6442 74.216 29.8332 74.216 30.0268V31.7586C74.216 32.0215 74.1721 32.2825 74.0859 32.5308L74.0439 32.652C73.9496 32.9238 73.7923 33.1694 73.5849 33.3688L73.143 33.7934C72.8085 34.1148 72.4251 34.381 72.0069 34.5819L71.0602 35.1885L70.9979 35.2184C70.6234 35.3983 70.2133 35.4917 69.7978 35.4917H68.8511H68.6311C68.3604 35.4917 68.0932 35.4309 67.8493 35.3137C67.6767 35.2307 67.5184 35.1208 67.3803 34.9881L67.1997 34.8146C67.0387 34.6598 66.8934 34.4894 66.7661 34.3059L66.642 34.127C66.4321 33.8244 66.1926 33.5435 65.9272 33.2884L64.4329 31.8524L63.4861 30.9425L63.2598 30.7251C62.9947 30.4703 62.6665 30.2907 62.3089 30.2048L62.0032 30.1314C61.7376 30.0675 61.4581 30.0973 61.212 30.2156C61.0472 30.2948 60.9029 30.411 60.7904 30.5551L60.3407 31.1313C60.1256 31.4069 59.9692 31.7236 59.8812 32.062C59.7621 32.5198 59.5185 32.9357 59.1774 33.2635L59.0679 33.3688L58.7523 33.672L58.6621 33.7587C58.3599 34.0491 57.8823 34.0491 57.5801 33.7587C57.5204 33.7013 57.4519 33.6538 57.3773 33.6179L56.8588 33.3688L56.4435 33.1027C56.0965 32.8804 55.693 32.7622 55.2809 32.7622H55.1247C54.8328 32.7622 54.5652 32.9247 54.4304 33.1836C54.3673 33.3049 54.2735 33.4076 54.1583 33.4814L53.3873 33.9753L53.0406 34.1419C52.8534 34.2319 52.6483 34.2786 52.4406 34.2786H52.125H51.1782C50.9757 34.2786 50.7811 34.357 50.6351 34.4973L50.6089 34.5224C50.5678 34.562 50.5229 34.5974 50.4748 34.6282L49.7382 35.1001C49.6465 35.1589 49.5608 35.2265 49.4822 35.3019C49.3514 35.4276 49.242 35.5738 49.1583 35.7347L49.0242 35.9924C48.9877 36.0625 48.9401 36.1262 48.8831 36.181L48.6105 36.4429C48.4618 36.5859 48.4618 36.8238 48.6105 36.9668C48.639 36.9941 48.6628 37.026 48.6811 37.061L48.9691 37.6147L49.0827 37.8329C49.2165 38.0901 49.3913 38.3237 49.6003 38.5245L49.7179 38.6375C49.849 38.7635 49.9587 38.9101 50.0426 39.0714L50.1486 39.2751C50.203 39.3797 50.2315 39.4959 50.2315 39.6139C50.2315 39.6958 50.2452 39.7771 50.272 39.8545L50.4207 40.2832C50.5014 40.5157 50.4827 40.7712 50.3691 40.9895C50.2798 41.1612 50.1372 41.2993 49.9628 41.3831L49.8566 41.4341C49.6879 41.5152 49.5031 41.5573 49.3159 41.5573H49.2847C49.077 41.5573 48.8719 41.5106 48.6847 41.4206L48.5327 41.3476C48.4037 41.2856 48.2854 41.2035 48.1821 41.1043L48.1412 41.0649C48.0625 40.9893 47.9967 40.9014 47.9463 40.8046C47.7961 40.5158 47.5151 40.3179 47.1926 40.2736L45.7808 40.0798C45.5932 40.054 45.4108 39.9992 45.2401 39.9172C44.9942 39.799 44.7248 39.7376 44.452 39.7376H44.0154C43.7447 39.7376 43.4775 39.7985 43.2335 39.9157C43.0609 39.9987 42.9026 40.1085 42.7646 40.2412L42.2919 40.6954C41.919 41.0538 41.4217 41.254 40.9044 41.254H40.7726C40.5591 41.254 40.3484 41.302 40.156 41.3945L40.1209 41.4114C39.9218 41.507 39.7509 41.6527 39.6251 41.8342L39.5167 41.9904C39.3133 42.2836 39.2891 42.6653 39.4538 42.9819C39.4855 43.0429 39.5237 43.1004 39.5677 43.1532L39.7911 43.4215C40.4197 44.1766 40.7639 45.1281 40.7639 46.1106V47.0163V47.5544C40.7639 47.9272 40.4617 48.2294 40.0889 48.2294C39.9145 48.2294 39.7469 48.162 39.6212 48.0411L39.5642 47.9864C39.5225 47.9463 39.4849 47.9022 39.452 47.8548L39.1859 47.4712C38.9761 47.1687 38.7366 46.8878 38.4712 46.6327L38.2392 46.4098L37.7528 45.9424C37.6569 45.8502 37.5469 45.7738 37.427 45.7162C37.1379 45.5773 36.8066 45.5544 36.5012 45.6523L36.264 45.7283C36.1087 45.778 35.9606 45.8477 35.8233 45.9357L33.7441 47.2677C33.3987 47.489 33.1898 47.871 33.1898 48.2812C33.1898 48.6333 33.344 48.9677 33.6117 49.1963L36.0301 51.2622L37.2924 52.4753L37.3608 52.5411C37.8816 53.0415 38.0103 53.8252 37.6769 54.4658C37.6311 54.554 37.5773 54.6377 37.5162 54.716L36.826 55.6003C36.7169 55.7401 36.6316 55.8969 36.5735 56.0644C36.4281 56.4836 36.4617 56.9443 36.6666 57.338L36.7483 57.4951C36.8984 57.7837 36.9768 58.1042 36.9768 58.4295V58.473C36.9768 58.7187 36.9357 58.9627 36.8552 59.1948L36.7973 59.3618C36.707 59.6222 36.6501 59.8931 36.6281 60.1678L36.3457 63.6966V64.3032V64.9098V65.5163V66.1229V66.1697C36.3457 66.5273 36.1999 66.8695 35.9421 67.1173C35.7925 67.261 35.6791 67.4382 35.6111 67.6342L35.5278 67.8741C35.4425 68.1202 35.3171 68.3506 35.1568 68.556L34.6816 69.1649C34.529 69.3605 34.3945 69.5697 34.28 69.7898L33.9742 70.3776C33.8735 70.5711 33.821 70.7859 33.821 71.0039C33.821 71.3732 33.9715 71.7265 34.2377 71.9824L34.2797 72.0227C34.3939 72.1325 34.5249 72.2234 34.6678 72.292L35.7145 72.795L36.1235 72.9915C36.6852 73.2614 37.3004 73.4016 37.9236 73.4016H38.3106C38.8723 73.4016 39.4121 73.6189 39.8171 74.0081C40.2221 74.3973 40.762 74.6147 41.3237 74.6147H41.3951H41.9041C42.185 74.6147 42.4549 74.506 42.6574 74.3114C42.8599 74.1168 43.1298 74.0081 43.4107 74.0081H44.4744C44.7304 74.0081 44.9811 74.0815 45.1967 74.2196C45.5809 74.4658 45.8133 74.8907 45.8133 75.347V76.2642C45.8133 76.5257 45.6013 76.7376 45.3399 76.7376C45.0784 76.7376 44.8665 76.9496 44.8665 77.211V77.4774C44.8665 77.7388 45.0784 77.9507 45.3399 77.9507C45.6013 77.9507 45.8133 78.1627 45.8133 78.4241V78.8606C45.8133 79.2126 45.5634 79.5152 45.2176 79.5816L44.3984 79.7391C44.2899 79.7599 44.1797 79.7704 44.0693 79.7704H43.3231C43.0926 79.7704 42.8651 79.7186 42.6574 79.6188C42.4497 79.519 42.2222 79.4671 41.9917 79.4671H41.5812C41.4587 79.4671 41.3377 79.4947 41.2272 79.5478C40.944 79.6838 40.7639 79.9703 40.7639 80.2845V83.3382C40.7639 83.5777 40.6663 83.8068 40.4936 83.9728C40.4634 84.0018 40.4354 84.0329 40.4096 84.0659L40.2855 84.2249C39.7775 84.8758 39.5015 85.6779 39.5015 86.5037V88.1278C39.5015 88.4074 39.3876 88.675 39.1859 88.8688C38.7694 89.2691 38.277 89.5821 37.7377 89.7894L36.9768 90.0819L35.9682 90.3242C35.8003 90.3646 35.6402 90.4327 35.4948 90.5259C35.0429 90.8155 34.4732 90.8502 33.9894 90.6178L33.8714 90.561C33.6305 90.4453 33.3666 90.3852 33.0993 90.3852H30.7872C30.5064 90.3852 30.2364 90.4939 30.0339 90.6884C29.8315 90.883 29.5615 90.9917 29.2807 90.9917H27.8248H27.235C26.601 90.9917 25.9916 90.7464 25.5345 90.3071C25.3789 90.1576 25.2044 90.0293 25.0153 89.9254L23.5993 89.1479C23.2658 88.9648 22.8916 88.8688 22.5112 88.8688H20.4818C20.3542 88.8688 20.2508 88.7654 20.2508 88.6378C20.2508 88.5907 20.2364 88.5448 20.2096 88.5061L19.7798 87.8866C19.6733 87.7331 19.5834 87.5687 19.5116 87.3962L19.4062 87.143C19.1306 86.4809 18.7216 85.8828 18.2045 85.386L18.1594 85.3426C17.6645 84.8669 17.2626 84.3032 16.9745 83.6801L16.6574 82.9944C16.3219 82.2691 16.1481 81.4794 16.1481 80.6803V77.9507V77.1891C16.1481 76.3194 15.7937 75.4872 15.1666 74.8845C14.9801 74.7053 14.7725 74.5494 14.5484 74.4202L14.3362 74.2978C12.7236 73.3679 11.7299 71.648 11.7299 69.7866V69.0572C11.7299 67.739 12.1325 66.4524 12.8839 65.3693L12.9923 65.213L14.4821 63.5427C14.7421 63.2512 14.8858 62.8742 14.8858 62.4835C14.8858 62.1056 14.6933 61.7537 14.3751 61.5498L14.0831 61.3627C13.9873 61.3013 13.8977 61.2307 13.8157 61.1519L13.3335 60.6885C13.1075 60.4713 12.9185 60.2188 12.7739 59.9408C12.7092 59.8164 12.6536 59.6875 12.6077 59.5551L12.4738 59.1691C12.3992 58.954 12.3611 58.7279 12.3611 58.5003V58.1659C12.3611 57.8242 12.2219 57.4973 11.9755 57.2605C11.8147 57.106 11.6156 56.997 11.3988 56.945L11.1155 56.8769C10.7016 56.7775 10.265 56.8511 9.90649 57.0807L9.74462 57.1844C9.59849 57.278 9.42859 57.3278 9.25504 57.3278H9.1085C8.96808 57.3278 8.83311 57.3821 8.73186 57.4794C8.63062 57.5767 8.49565 57.6311 8.35523 57.6311H7.9429C7.75398 57.6311 7.5858 57.5114 7.52389 57.3329L7.36807 56.8837C7.33076 56.7762 7.31171 56.6631 7.31171 56.5493C7.31171 56.2716 7.19856 56.0059 6.99835 55.8135L6.51408 55.3481C6.41533 55.2532 6.33273 55.1429 6.26951 55.0214C6.12767 54.7488 5.89103 54.5374 5.60419 54.4272L5.10185 54.234C4.72207 54.0881 4.47145 53.7232 4.47145 53.3163C4.47145 52.9813 4.6421 52.6693 4.92424 52.4885L5.06514 52.3982C5.29459 52.2512 5.47156 52.0353 5.57063 51.7814L6.01795 50.6351C6.24728 50.0474 6.36497 49.4221 6.36497 48.7912V48.2294V47.4134C6.36497 47.1505 6.32098 46.8895 6.23483 46.6412L6.15656 46.4155C6.0861 46.2124 5.96856 46.0288 5.81354 45.8798C5.55987 45.6361 5.22171 45.4999 4.86989 45.4999H4.5088C4.27492 45.4999 4.04246 45.4636 3.81973 45.3923L3.20909 45.1966L2.57792 44.8934C2.16423 44.6946 1.80921 44.3918 1.5476 44.0147L1.31557 43.6803L1.13997 43.3427C1.04801 43.166 1 42.9697 1 42.7704C1 42.5712 1.04802 42.3748 1.13998 42.1981L1.31557 41.8606L1.52904 41.4503C1.59614 41.3213 1.63117 41.1781 1.63117 41.0328V40.8663C1.63117 40.7265 1.68815 40.5927 1.78896 40.4958C1.88977 40.3989 1.94675 40.2652 1.94675 40.1253V39.1311V38.8574C1.94675 38.4509 2.11238 38.0621 2.40545 37.7804C2.5197 37.6706 2.6507 37.5797 2.79353 37.5111L2.83421 37.4915C3.08079 37.3731 3.29666 37.1992 3.46497 36.9835L4.15585 36.0983L4.39902 35.7478C4.65065 35.385 5.01489 35.1155 5.43529 34.9808L5.56574 34.939C5.6771 34.9033 5.79333 34.8852 5.91027 34.8852C6.20202 34.8852 6.48246 34.9981 6.69282 35.2002L7.1855 35.6737C7.26911 35.7541 7.36497 35.8206 7.46949 35.8708L7.57015 35.9192C7.80576 36.0324 8.08005 36.0324 8.31565 35.9192C8.4834 35.8386 8.6205 35.7058 8.7064 35.5407L8.75605 35.4452C8.84383 35.2765 8.88966 35.0892 8.88966 34.899V32.2001C8.88966 31.5904 8.6412 31.0071 8.20161 30.5846C8.03023 30.4199 7.83373 30.2835 7.61949 30.1806L6.68054 29.7294L6.28536 29.4763C5.91853 29.2412 5.5756 28.9709 5.26148 28.669L4.78777 28.2137C4.57829 28.0124 4.40305 27.7783 4.26896 27.5206C4.19371 27.376 4.10539 27.2386 4.00509 27.11L3.3737 26.301C3.26475 26.1614 3.13292 26.0413 2.98381 25.9458L2.92427 25.9076C2.51182 25.6434 2.26234 25.1873 2.26234 24.6974C2.26234 24.6151 2.25527 24.5329 2.2412 24.4518L2.03156 23.2431C1.98727 22.9877 2.18388 22.754 2.44309 22.754C2.53075 22.754 2.61619 22.7264 2.6873 22.6752L6.36497 20.0245C6.77592 19.6296 7.29772 19.3697 7.8605 19.2795L8.47612 19.1809C8.74537 19.1378 8.99501 19.0134 9.19162 18.8245C9.40505 18.6194 9.54444 18.3493 9.58796 18.0565L9.64552 17.6693C9.76088 16.8933 10.3359 16.2652 11.0988 16.0819L12.2522 15.8971C12.725 15.8214 13.1466 15.5562 13.4195 15.1628C13.5541 14.9688 13.6482 14.7496 13.6964 14.5185L13.8414 13.8216C13.9029 13.5258 14.0987 13.2756 14.371 13.1448C14.5021 13.0818 14.6457 13.0491 14.7912 13.0491H17.3851C17.8064 13.0491 18.2113 13.2121 18.515 13.504C18.8188 13.7959 19.2237 13.9589 19.645 13.9589H19.8862C20.3295 13.9589 20.7628 13.8268 21.1307 13.5793L23.7222 11.836L24.6665 11.1554C24.877 11.0037 25.0601 10.8172 25.2081 10.604C25.4735 10.2214 25.6157 9.76678 25.6157 9.3011V8.49993V7.62113C25.6157 7.45995 25.6814 7.30573 25.7976 7.19404C25.8847 7.1104 25.9952 7.05534 26.1144 7.03625L27.3741 6.8345C27.6644 6.788 27.9617 6.84996 28.2092 7.00857L28.3272 7.08416C28.6034 7.26112 28.9516 7.28236 29.2473 7.14029C29.3501 7.09089 29.4431 7.0233 29.5219 6.94079L30.3495 6.0737C30.7172 5.72036 31.2823 5.67345 31.7032 5.96133L32.7746 6.69405C32.841 6.73947 32.9035 6.79032 32.9615 6.84606C33.112 6.99071 33.2919 7.10131 33.4889 7.17037L33.8211 7.28681C34.4463 7.54127 35.115 7.67213 35.79 7.67213H42.1292C42.2467 7.67213 42.3419 7.5769 42.3419 7.45943C42.3419 7.40156 42.3655 7.34618 42.4073 7.30608L42.6575 7.06557L42.9731 6.7623C43.3764 6.37477 43.6043 5.83964 43.6043 5.28035V3.69503C43.6043 3.13576 43.8322 2.60064 44.2354 2.21311L44.6391 1.82522C44.7851 1.68492 44.9797 1.60656 45.1822 1.60656C45.3847 1.60656 45.5793 1.5282 45.7253 1.38789L45.8134 1.30328C46.0159 1.10868 46.2858 1 46.5666 1H48.4094C48.9711 1 49.511 1.21737 49.916 1.60656C50.3193 1.99408 50.5472 2.52921 50.5472 3.08849V4.79591C50.5472 5.0834 50.6643 5.35849 50.8716 5.5577C51.0684 5.74683 51.3308 5.85246 51.6037 5.85246H52.1251C52.7326 5.85246 53.3165 5.61737 53.7545 5.19645L54.5103 4.47014C54.8023 4.18952 55.1916 4.03279 55.5966 4.03279H58.4492C58.6166 4.03279 58.7524 3.89701 58.7524 3.72951C58.7524 3.56201 58.8882 3.42623 59.0557 3.42623H59.2024C59.3187 3.42623 59.4304 3.38124 59.5142 3.30069L59.7872 3.03834C59.9332 2.89803 60.1279 2.81966 60.3304 2.81966C60.5328 2.81966 60.7275 2.7413 60.8735 2.601L60.9615 2.51639C61.164 2.32179 61.434 2.21311 61.7148 2.21311H61.8252C62.0855 2.21311 62.3404 2.28775 62.5596 2.42818L62.9329 2.66738C63.091 2.76866 63.2388 2.88518 63.3742 3.01527L63.474 3.11118C63.6911 3.31988 63.9401 3.4927 64.2116 3.62316L64.8458 3.92786C64.9875 3.99597 65.1034 4.1082 65.176 4.24772C65.3012 4.48837 65.5499 4.63934 65.8212 4.63934H67.3779C67.9278 4.63934 68.4661 4.797 68.9291 5.09362L69.0977 5.20167C69.1436 5.23108 69.1866 5.26492 69.2259 5.30271L69.2837 5.35831C69.4106 5.48025 69.4824 5.64865 69.4824 5.82465C69.4824 6.03255 69.3824 6.22777 69.2138 6.34933L68.22 7.06557L67.502 7.7556C67.3501 7.9016 67.181 8.02861 66.9985 8.13386L66.1021 8.65068C65.8504 8.79582 65.6953 9.06428 65.6953 9.35483V9.3642C65.6953 9.44868 65.6812 9.53255 65.6535 9.61236C65.5069 10.0352 65.7569 10.4922 66.192 10.5968L66.2904 10.6204C66.5151 10.6744 66.7521 10.6345 66.9466 10.5098L67.2032 10.3454C67.455 10.1841 67.7478 10.0984 68.0469 10.0984H68.22C68.4225 10.0984 68.6171 10.02 68.7631 9.87969L68.8512 9.79508C69.0537 9.60049 69.3236 9.49181 69.6044 9.49181H71.2994C71.5554 9.49181 71.806 9.56521 72.0216 9.70332L72.3511 9.9144C72.53 10.029 72.6382 10.2269 72.6382 10.4394C72.6382 10.609 72.7074 10.7714 72.8297 10.8889L73.2694 11.3115L73.697 11.7224C73.8324 11.8525 73.9802 11.969 74.1383 12.0703L74.1852 12.1004C74.6175 12.3774 75.1202 12.5246 75.6337 12.5246H78.1326C78.2354 12.5246 78.3188 12.6079 78.3188 12.7108C78.3188 12.7823 78.3598 12.8476 78.4243 12.8786L78.95 13.1311L79.7772 13.5287C80.0667 13.6678 80.3433 13.8322 80.6039 14.0199C81.1789 14.4344 81.8292 14.7327 82.5183 14.8983L82.737 14.9508L85.1192 15.8093C85.2131 15.8432 85.2989 15.8964 85.3709 15.9656C85.5033 16.0928 85.6799 16.1639 85.8636 16.1639H86.1819C86.4071 16.1639 86.6294 16.2146 86.8324 16.3121L87.6633 16.7114C87.7452 16.7507 87.8234 16.7972 87.8971 16.8503Z"
                                                onClick={() => toggleRegion('충북')}
                                                stroke="black"
                                                fill={selectedItems.includes('충북') ? '#FFCCD5' : '#fff'}/>
                                        </svg>