<svg className="daejeon" width="21" height="24" viewBox="0 0 21 24"
                                             fill="none"
                                             xmlns="http://www.w3.org/2000/svg">
                                            <path
                                                d="M6.06836 5.14786L4.85594 4.95366C4.81008 4.94632 4.7637 4.94263 4.71725 4.94263C4.23291 4.94263 3.84027 5.33526 3.84027 5.8196V8.73422C3.84027 9.23433 3.74133 9.72951 3.54915 10.1912L3.41985 10.5019C3.28084 10.8358 3.07448 11.1376 2.81365 11.3882C2.6571 11.5387 2.51977 11.7079 2.40478 11.8921L1.63118 13.1311L1.40195 13.5717C1.34445 13.6822 1.29509 13.7968 1.25426 13.9145C1.08847 14.3925 1.06797 14.9088 1.19534 15.3984L1.19886 15.412C1.27607 15.7088 1.40504 15.9896 1.57984 16.2416L1.72414 16.4496C1.87147 16.662 2.0539 16.8477 2.2636 16.9989L2.71702 17.3257C3.02601 17.5484 3.2091 17.906 3.2091 18.2869V19.0334C3.2091 19.5347 3.3622 20.024 3.64791 20.4358L3.73788 20.5655C3.80582 20.6635 3.86008 20.7702 3.89914 20.8828C4.05723 21.3386 4.45305 21.6706 4.92938 21.7468L5.75442 21.879C5.94017 21.9087 6.12912 21.8496 6.26476 21.7193C6.3307 21.6559 6.41025 21.6085 6.49733 21.5806L6.73408 21.5047C7.07823 21.3945 7.31172 21.0745 7.31172 20.7131V19.1185C7.31172 18.9747 7.37031 18.8372 7.47397 18.7375C7.57236 18.643 7.70353 18.5902 7.84 18.5902H8.08202C8.19896 18.5902 8.31519 18.6083 8.42655 18.644L8.55698 18.6858C8.97739 18.8205 9.34163 19.09 9.59326 19.4528L9.83643 19.8033L9.88057 19.8881C10.0609 20.2348 10.2017 20.6008 10.3001 20.979L10.4011 21.3674C10.4453 21.5371 10.4676 21.7117 10.4676 21.887V22.1185C10.4676 22.3882 10.55 22.6516 10.7038 22.8732C10.9512 23.2299 11.3577 23.4426 11.7918 23.4426H12.0455H12.6767C13.0888 23.4426 13.4923 23.3245 13.8393 23.1021L14.2546 22.8361L14.7774 22.5012C15.052 22.3252 15.2595 22.0619 15.3664 21.7537C15.4644 21.4713 15.6471 21.2259 15.8897 21.051L16.506 20.6068C16.6857 20.4773 16.8326 20.3075 16.9348 20.111C17.04 19.9088 17.0949 19.6843 17.0949 19.4564V16.2556C17.0949 14.8137 17.5353 13.4061 18.3573 12.2213L19.847 10.551C20.1071 10.2595 20.2508 9.88246 20.2508 9.4918C20.2508 9.11386 20.0583 8.76193 19.74 8.55805L19.4481 8.37101C19.3523 8.30962 19.2627 8.23899 19.1806 8.16013L18.6984 7.69674C18.4725 7.4796 18.2835 7.22706 18.1388 6.94907C18.0741 6.82472 18.0186 6.69582 17.9727 6.56339L17.8388 6.17737C17.7642 5.96228 17.7261 5.73622 17.7261 5.50856V5.17414C17.7261 4.83246 17.5868 4.50553 17.3405 4.26878C17.1797 4.11425 16.9806 4.00533 16.7638 3.95323L16.4805 3.88518C16.0665 3.78574 15.6299 3.85934 15.2715 4.08899L15.1096 4.1927C14.9635 4.28632 14.7936 4.33607 14.62 4.33607H14.4735C14.3331 4.33607 14.1981 4.39041 14.0968 4.48771C13.9956 4.585 13.8606 4.63934 13.7202 4.63934H13.3079C13.119 4.63934 12.9508 4.51967 12.8889 4.34118L12.733 3.89198C12.6957 3.78443 12.6767 3.6714 12.6767 3.55757C12.6767 3.27989 12.5635 3.01421 12.3633 2.82181L11.879 2.35641C11.7803 2.26152 11.6977 2.15116 11.6345 2.02968C11.4926 1.75705 11.256 1.54571 10.9691 1.43546L10.3407 1.19391C10.0236 1.07206 9.66754 1.10829 9.38154 1.29149L9.26966 1.36315C9.03288 1.51482 8.88966 1.77666 8.88966 2.05785C8.88966 2.16046 8.87051 2.26217 8.83321 2.35776L8.22663 3.91222C8.0443 4.37948 7.69147 4.76016 7.23937 4.97739C6.87553 5.15222 6.46695 5.2117 6.06836 5.14786Z"
                                                fill={selectedItems.includes('대전') ? '#A2D2FF' : '#fff'} // 선택된 지역에 색상을 설정
                                                stroke="black"
                                                onClick={() => toggleRegion('대전')}/>
                                        </svg>