<svg className="gangwon" width="136" height="121" viewBox="0 0 136 121"
                                             fill="none"
                                             xmlns="http://www.w3.org/2000/svg">
                                            <path
                                                d="M2.77044 17.3349L2.49011 17.5594C1.7333 18.1655 1.22414 19.0273 1.05846 19.9826L1.03063 20.1431C1.01025 20.2606 1 20.3796 1 20.4989V20.6664C1 20.891 1.05412 21.1123 1.15779 21.3115L1.27639 21.5395C1.30214 21.589 1.31558 21.644 1.31558 21.6997C1.31558 21.8332 1.3921 21.9549 1.5124 22.0127L1.77894 22.1407C1.8894 22.1938 2.01038 22.2214 2.13294 22.2214H2.26234C2.67447 22.2214 3.07796 22.3395 3.42497 22.5619L3.7022 22.7395C3.79403 22.7983 3.87988 22.866 3.95852 22.9416C4.28623 23.2565 4.47145 23.6914 4.47145 24.1459V24.3454C4.47145 24.4918 4.48648 24.6378 4.51631 24.7811L4.75939 25.9491C4.77777 26.0375 4.78703 26.1274 4.78703 26.2177V26.3591C4.78703 26.5721 4.86079 26.7786 4.99578 26.9434C5.06642 27.0296 5.12084 27.128 5.15639 27.2337L5.20036 27.3643C5.27057 27.573 5.38119 27.7658 5.52593 27.9317L6.27343 28.7886C6.33434 28.8584 6.38899 28.9334 6.43676 29.0128L6.47561 29.0774C6.60931 29.2996 6.8051 29.4779 7.03886 29.5902L7.10618 29.6225C7.24148 29.6876 7.38968 29.7213 7.53979 29.7213H7.61365C7.82491 29.7213 8.02798 29.6396 8.18031 29.4932C8.2322 29.4433 8.27728 29.3868 8.31438 29.3251L8.41628 29.1558C8.52102 28.9817 8.64828 28.8222 8.79476 28.6814L8.88966 28.5902L9.3124 28.184C9.45047 28.0513 9.60878 27.9414 9.78139 27.8585L9.94643 27.7792C10.0817 27.7142 10.2299 27.6804 10.3801 27.6804C10.6387 27.6804 10.8873 27.7805 11.0738 27.9597L11.4144 28.287C11.822 28.6787 12.0785 29.2017 12.1386 29.7639L12.2806 31.0911C12.3339 31.5899 12.4677 32.0768 12.6767 32.5329L12.9923 33.0574L13.7528 34.0978C13.8699 34.2579 14.0563 34.3525 14.2546 34.3525H14.5702C14.9813 34.2991 15.3666 34.1224 15.6754 33.8458L16.4637 33.1394L16.6398 32.9702C16.9318 32.6896 17.3211 32.5329 17.7261 32.5329H17.7454C18.1408 32.5329 18.5237 32.6712 18.8278 32.9239C18.9345 33.0125 19.0517 33.0878 19.1767 33.1478L19.6196 33.3607L20.143 33.6121C20.2144 33.6464 20.2799 33.6919 20.337 33.7468C20.4835 33.8876 20.5664 34.0821 20.5664 34.2853V34.3525C20.5664 34.4979 20.6014 34.6411 20.6685 34.7701L20.7242 34.8771C20.8278 35.0763 20.8819 35.2976 20.8819 35.5222V36.0902L21.1646 38.8069C21.1864 39.0162 21.2422 39.2205 21.3299 39.4118C21.4505 39.6749 21.6287 39.9076 21.8513 40.0926L21.9225 40.1517C22.0698 40.2742 22.2316 40.378 22.4042 40.461L22.7755 40.6393L23.1127 40.8014C23.3082 40.8953 23.5123 40.9701 23.7222 41.0247L24.669 41.3279L25.3002 41.6312C25.9289 42.034 26.5051 42.5135 27.0155 43.0585L28.6198 44.7715C28.9299 45.1027 29.1934 45.4746 29.4028 45.8771L29.5784 46.2146C29.6703 46.3914 29.7184 46.5877 29.7184 46.787C29.7184 49.0091 28.6067 51.0838 26.7567 52.3147L25.8953 52.8878C25.71 53.0111 25.544 53.1613 25.403 53.3335L25.3899 53.3496C25.3301 53.4225 25.2758 53.4996 25.2272 53.5804C25.0677 53.8454 24.9734 54.1445 24.952 54.453L24.7087 57.9603C24.6822 58.3418 24.6636 58.7301 24.5199 59.0846C24.4776 59.1891 24.4232 59.3084 24.3534 59.4426C24.2087 59.7207 23.9631 60.4816 23.8248 60.9265C23.7556 61.149 23.7222 61.3806 23.7222 61.6136V61.9773C23.7222 62.2994 23.8337 62.6116 24.0378 62.8607L24.2316 63.047C24.5111 63.3155 24.669 63.6863 24.669 64.0738V64.2427C24.669 64.5224 24.555 64.7899 24.3534 64.9837C24.1518 65.1774 24.0378 65.445 24.0378 65.7247V65.8935V67.2632C24.0378 67.5507 24.155 67.8258 24.3623 68.025L24.4414 68.1011C24.5874 68.2414 24.7821 68.3197 24.9846 68.3197C25.1871 68.3197 25.3817 68.3981 25.5277 68.5384L25.6157 68.623C25.8182 68.8176 26.0882 68.9263 26.369 68.9263H28.1404C29.5579 68.9263 30.9203 69.4748 31.9424 70.457L32.2431 70.746L33.0005 71.4739C33.335 71.7953 33.7185 72.0615 34.1366 72.2624L34.7677 72.5656L35.3989 72.8689L35.6079 72.9693C35.8858 73.1029 36.1902 73.1722 36.4985 73.1722H38.2515C38.419 73.1722 38.5548 73.308 38.5548 73.4755C38.5548 73.643 38.6906 73.7788 38.8581 73.7788H39.043C39.1363 73.7788 39.2277 73.8055 39.3063 73.8559L41.0795 74.9919L41.7951 75.3357C42.1293 75.4963 42.3418 75.8342 42.3418 76.205C42.3418 76.5874 42.1641 76.9482 41.8609 77.1812L40.7639 78.0247L40.6567 78.1276C40.5187 78.2603 40.3603 78.3702 40.1877 78.4531L39.9227 78.5805C39.8532 78.6139 39.7771 78.6312 39.7 78.6312H39.4892C39.3217 78.6312 39.186 78.767 39.186 78.9345C39.186 79.102 39.0502 79.2378 38.8827 79.2378H38.736C38.6197 79.2378 38.508 79.2828 38.4242 79.3633L38.2481 79.5325C38.0408 79.7317 37.9236 80.0068 37.9236 80.2943V80.7542V81.0575C37.9236 81.445 38.0815 81.8158 38.361 82.0843L38.435 82.1555C38.5147 82.232 38.5865 82.3163 38.6494 82.407L39.0131 82.9312C39.1256 83.0935 39.186 83.2862 39.186 83.4837V84.0902C39.186 84.4812 39.0665 84.8689 38.8437 85.1902L38.6728 85.4365C38.5955 85.548 38.4905 85.6375 38.3681 85.6963L38.3172 85.7208C38.0766 85.8364 37.9236 86.0797 37.9236 86.3466C37.9236 86.4582 37.8967 86.5681 37.8452 86.6671L37.7348 86.8794C37.6508 87.0407 37.5411 87.1873 37.41 87.3133L36.8002 87.8994C36.7114 87.9847 36.6613 88.1024 36.6613 88.2255C36.6613 88.2982 36.6438 88.3698 36.6102 88.4343L36.3457 88.9427C36.1383 89.3412 36.0301 89.7836 36.0301 90.2328V91.3689C36.0301 91.451 35.3989 91.451 35.3989 91.9755V94.705V95.5328C35.3989 95.8361 35.0833 97.5737 35.0833 97.6557C35.0833 97.7168 34.9087 98.7392 34.8193 99.259C34.785 99.4579 34.7677 99.6589 34.7677 99.8607V100.385V104.728C34.7677 104.913 34.8432 105.089 34.9766 105.217C35.0469 105.285 35.131 105.336 35.223 105.369L35.7145 105.541C36.3398 105.795 37.0084 105.926 37.6834 105.926H44.0227C44.1401 105.926 44.2353 105.831 44.2353 105.714C44.2353 105.656 44.2589 105.6 44.3007 105.56L44.5509 105.32L44.8665 105.016C45.2698 104.629 45.4977 104.094 45.4977 103.535V101.949C45.4977 101.39 45.7256 100.855 46.1289 100.467L46.5325 100.079C46.6785 99.9391 46.8731 99.8607 47.0756 99.8607C47.2781 99.8607 47.4727 99.7824 47.6187 99.6421L47.7068 99.5575C47.9093 99.3629 48.1792 99.2542 48.4601 99.2542H50.3028C50.8645 99.2542 51.4044 99.4715 51.8094 99.8607C52.2127 100.248 52.4406 100.783 52.4406 101.343V103.05C52.4406 103.338 52.5578 103.613 52.765 103.812C52.9618 104.001 53.2242 104.107 53.4972 104.107H54.0185C54.626 104.107 55.2099 103.872 55.6479 103.451L56.4037 102.724C56.6957 102.444 57.085 102.287 57.49 102.287H60.3426C60.5101 102.287 60.6458 102.151 60.6458 101.984C60.6458 101.816 60.7816 101.68 60.9491 101.68H61.0958C61.2121 101.68 61.3238 101.635 61.4076 101.555L61.6806 101.293C61.8266 101.152 62.0213 101.074 62.2238 101.074C62.4263 101.074 62.6209 100.995 62.7669 100.855L62.8549 100.771C63.0574 100.576 63.3274 100.467 63.6082 100.467H63.7186C63.9789 100.467 64.2338 100.542 64.453 100.682L64.8263 100.922C64.9844 101.023 65.1322 101.139 65.2676 101.269L65.3674 101.365C65.5846 101.574 65.8336 101.747 66.105 101.877L66.7392 102.182C66.8809 102.25 66.9968 102.362 67.0694 102.502C67.1946 102.743 67.4433 102.894 67.7146 102.894H69.2713C69.8212 102.894 70.3595 103.051 70.8225 103.348L70.9911 103.456C71.0371 103.485 71.08 103.519 71.1193 103.557L71.1772 103.612C71.3041 103.734 71.3758 103.903 71.3758 104.079C71.3758 104.287 71.2758 104.482 71.1072 104.604L70.1134 105.32L69.3954 106.01C69.2435 106.156 69.0744 106.283 68.8919 106.388L67.9955 106.905C67.7438 107.05 67.5887 107.318 67.5887 107.609V107.618C67.5887 107.703 67.5746 107.787 67.5469 107.867C67.4003 108.289 67.6503 108.746 68.0854 108.851L68.1838 108.875C68.4085 108.929 68.6455 108.889 68.84 108.764L69.0966 108.6C69.3484 108.438 69.6412 108.353 69.9403 108.353H70.1134C70.3159 108.353 70.5106 108.274 70.6566 108.134L70.7446 108.049C70.9471 107.855 71.217 107.746 71.4979 107.746H73.1928C73.4488 107.746 73.6995 107.819 73.915 107.957L74.2445 108.169C74.4234 108.283 74.5316 108.481 74.5316 108.694C74.5316 108.863 74.6008 109.026 74.7231 109.143L75.1628 109.566L75.5904 109.977C75.7258 110.107 75.8736 110.223 76.0317 110.324L76.0786 110.355C76.5109 110.632 77.0136 110.779 77.5271 110.779H80.026C80.1288 110.779 80.2122 110.862 80.2122 110.965C80.2122 111.037 80.2532 111.102 80.3177 111.133L80.8434 111.385L81.6706 111.783C81.9601 111.922 82.2367 112.086 82.4973 112.274C83.0723 112.689 83.7226 112.987 84.4117 113.152L84.6304 113.205L87.0126 114.063C87.1065 114.097 87.1923 114.151 87.2643 114.22C87.3967 114.347 87.5733 114.418 87.757 114.418H88.0753C88.3005 114.418 88.5228 114.469 88.7258 114.566L89.3265 114.855C89.5615 114.968 89.7862 115.101 89.9977 115.254L90.9421 115.935L91.8865 116.615C92.0981 116.768 92.3227 116.901 92.5577 117.014L92.8979 117.178C93.2724 117.357 93.6825 117.451 94.098 117.451H94.2027C94.7525 117.451 95.2908 117.293 95.7538 116.997C95.9119 116.895 96.0597 116.779 96.1951 116.649L97.5694 115.328L98.2791 114.816C98.6267 114.566 99.0725 114.495 99.4805 114.626C99.6766 114.689 99.8557 114.796 100.004 114.938L100.094 115.025L100.535 115.448C100.661 115.569 100.806 115.67 100.964 115.746C101.221 115.869 101.442 116.058 101.605 116.293L101.728 116.47C101.899 116.717 102.118 116.928 102.372 117.09C102.739 117.326 103.166 117.451 103.603 117.451H104.802C105.012 117.451 105.204 117.334 105.301 117.148C105.398 116.961 105.591 116.844 105.801 116.844H106.09C106.492 116.844 106.883 116.689 107.173 116.41C107.292 116.296 107.428 116.201 107.577 116.13L107.874 115.987C108.362 115.753 108.896 115.631 109.437 115.631H110.264C110.826 115.631 111.366 115.849 111.771 116.238C112.176 116.627 112.716 116.844 113.277 116.844H114.226C114.687 116.844 115.142 116.741 115.558 116.541L116.174 116.344C116.394 116.273 116.603 116.175 116.797 116.051L117.192 115.797C117.361 115.689 117.558 115.631 117.76 115.631H118.056C118.266 115.631 118.459 115.748 118.556 115.935C118.653 116.121 118.846 116.238 119.056 116.238H119.455C119.788 116.238 120.106 116.373 120.337 116.613L123.201 119.595C123.56 119.969 124.056 120.18 124.574 120.18H125.03C125.23 120.18 125.421 120.103 125.565 119.965C125.626 119.907 125.676 119.839 125.715 119.765L126.094 119.037C126.431 118.39 126.887 117.812 127.438 117.335L128.57 116.356C129.36 115.673 130.227 115.083 131.152 114.598L133.231 113.508C134.411 112.752 135.124 111.448 135.124 110.046V107.75C135.124 105.996 134.446 104.31 133.231 103.045L132.07 101.836C131.6 101.347 131.337 100.695 131.337 100.017C131.337 99.3332 131.071 98.6767 130.595 98.1864L127.863 95.3734C127.235 94.7276 126.681 94.0148 126.209 93.2478L124.17 89.9305C123.285 88.4914 122.816 86.8352 122.816 85.1459V84.5087C122.816 82.6765 122.142 80.9084 120.923 79.5411L120.874 79.4861C119.686 78.1542 119.029 76.4318 119.029 74.647C119.029 73.4788 118.748 72.3279 118.209 71.2915L116.82 68.623L105.775 53.1558L99.463 44.3607L95.9915 37.9919C95.3648 36.5323 94.9886 34.9776 94.8787 33.393L94.7722 31.8579C94.7436 31.4462 94.6607 31.0402 94.5254 30.6504C94.451 30.4357 94.3609 30.2267 94.256 30.025L92.4999 26.6498C92.0939 25.8693 91.7771 25.0457 91.5556 24.1943C91.3575 23.4328 91.0832 22.6933 90.7367 21.9869L89.3642 19.1886L87.7863 15.5493L86.8395 12.8197C86.4193 11.4063 86.1295 9.95583 85.8212 8.51389C85.5124 7.07022 85.1362 5.83947 84.7305 4.79979C83.3239 1.19439 78.5552 -0.50385 77.0385 3.05662C76.5851 4.12103 76.246 5.52543 76.1096 7.3607C75.7202 12.5995 70.4262 16.4917 66.0457 18.6478C63.7958 19.7552 61.252 19.9953 58.7523 19.7951L55.2809 19.1886L51.4938 18.582L49.6003 18.2787L48.848 18.1582C48.0977 18.0381 47.3298 18.0962 46.6062 18.328C45.485 18.6872 44.2714 18.6253 43.1925 18.1541L42.6318 17.9091C41.8161 17.5528 40.9356 17.3689 40.0455 17.3689H31.5625C30.7773 17.3689 30.0156 17.6363 29.4028 18.1271C28.7899 18.6179 28.0282 18.8853 27.2431 18.8853H26.0004C25.5395 18.8853 25.0844 18.7816 24.669 18.582L23.7222 17.9755L22.4599 17.0656C21.6392 16.4741 20.6531 16.1558 19.6415 16.1558H16.8238C16.3791 16.1558 15.94 16.2558 15.5392 16.4484L14.8858 16.7623C14.4868 16.954 14.0224 16.954 13.6235 16.7623L11.7299 15.8525L11.2947 15.5868C11.1646 15.5074 11.0254 15.4437 10.8801 15.3972L10.8189 15.3776C10.3906 15.2404 9.92613 15.2725 9.52083 15.4672L9.12471 15.6983C8.86477 15.85 8.58056 15.9556 8.28465 16.0104L8.09229 16.0461C7.99314 16.0645 7.89686 16.0959 7.80598 16.1396L7.73993 16.1713C7.46928 16.3014 7.15419 16.3014 6.88354 16.1713C6.74992 16.1071 6.60358 16.0738 6.45534 16.0738H5.8916C5.37227 16.0738 4.85958 16.1906 4.39148 16.4155L3.71566 16.7402C3.37905 16.9019 3.06194 17.1015 2.77044 17.3349Z"
                                                fill="#FDE2B9"/>
                                            <path
                                                d="M34.7677 100.385C34.7677 100.649 34.7677 103.733 34.7677 104.728C34.7677 104.913 34.8432 105.089 34.9766 105.217V105.217C35.0469 105.285 35.131 105.336 35.223 105.369L35.7145 105.541V105.541C36.3398 105.795 37.0084 105.926 37.6834 105.926H44.0227C44.1401 105.926 44.2353 105.831 44.2353 105.714V105.714C44.2353 105.656 44.2589 105.6 44.3007 105.56L44.5509 105.32L44.8665 105.016V105.016C45.2698 104.629 45.4977 104.094 45.4977 103.535V101.949C45.4977 101.39 45.7256 100.855 46.1289 100.467V100.467L46.5325 100.079C46.6785 99.9391 46.8731 99.8607 47.0756 99.8607V99.8607C47.2781 99.8607 47.4727 99.7824 47.6187 99.6421L47.7068 99.5575C47.9093 99.3629 48.1792 99.2542 48.4601 99.2542H50.3028C50.8645 99.2542 51.4044 99.4715 51.8094 99.8607V99.8607V99.8607C52.2127 100.248 52.4406 100.783 52.4406 101.343V103.05C52.4406 103.338 52.5578 103.613 52.765 103.812V103.812C52.9618 104.001 53.2242 104.107 53.4972 104.107H54.0185C54.626 104.107 55.2099 103.872 55.6479 103.451L56.4037 102.724C56.6957 102.444 57.085 102.287 57.49 102.287V102.287H60.3426C60.5101 102.287 60.6458 102.151 60.6458 101.984V101.984C60.6458 101.816 60.7816 101.68 60.9491 101.68H61.0958C61.2121 101.68 61.3238 101.635 61.4076 101.555L61.6806 101.293C61.8266 101.152 62.0213 101.074 62.2238 101.074V101.074C62.4263 101.074 62.6209 100.995 62.7669 100.855L62.8549 100.771C63.0574 100.576 63.3274 100.467 63.6082 100.467H63.7186C63.9789 100.467 64.2338 100.542 64.453 100.682L64.8263 100.922C64.9844 101.023 65.1322 101.139 65.2676 101.269L65.3674 101.365C65.5846 101.574 65.8336 101.747 66.105 101.877L66.7392 102.182C66.8809 102.25 66.9968 102.362 67.0694 102.502V102.502C67.1946 102.743 67.4433 102.894 67.7146 102.894H69.2713C69.8212 102.894 70.3595 103.051 70.8225 103.348L70.9911 103.456C71.0371 103.485 71.08 103.519 71.1193 103.557L71.1772 103.612C71.3041 103.734 71.3758 103.903 71.3758 104.079V104.079C71.3758 104.287 71.2758 104.482 71.1072 104.604L70.1134 105.32L69.3954 106.01C69.2435 106.156 69.0744 106.283 68.8919 106.388L67.9955 106.905C67.7438 107.05 67.5887 107.318 67.5887 107.609V107.618C67.5887 107.703 67.5746 107.787 67.5469 107.867V107.867C67.4003 108.289 67.6503 108.746 68.0854 108.851L68.1838 108.875C68.4085 108.929 68.6455 108.889 68.84 108.764L69.0966 108.6C69.3484 108.438 69.6412 108.353 69.9403 108.353H70.1134V108.353C70.3159 108.353 70.5106 108.274 70.6566 108.134L70.7446 108.049C70.9471 107.855 71.217 107.746 71.4979 107.746H73.1928C73.4488 107.746 73.6995 107.819 73.915 107.957L74.2445 108.169C74.4234 108.283 74.5316 108.481 74.5316 108.694V108.694C74.5316 108.863 74.6008 109.026 74.7231 109.143L75.1628 109.566L75.5904 109.977C75.7258 110.107 75.8736 110.223 76.0317 110.324L76.0786 110.355C76.5109 110.632 77.0136 110.779 77.5271 110.779H80.026C80.1288 110.779 80.2122 110.862 80.2122 110.965V110.965C80.2122 111.037 80.2532 111.102 80.3177 111.133L80.8434 111.385L81.6706 111.783C81.9601 111.922 82.2367 112.086 82.4973 112.274V112.274C83.0723 112.689 83.7226 112.987 84.4117 113.152L84.6304 113.205L87.0126 114.063C87.1065 114.097 87.1923 114.151 87.2643 114.22V114.22C87.3967 114.347 87.5733 114.418 87.757 114.418H88.0753C88.3005 114.418 88.5228 114.469 88.7258 114.566L89.3265 114.855C89.5616 114.968 89.7862 115.101 89.9977 115.254L90.9421 115.935L91.8865 116.615C92.0981 116.768 92.3227 116.901 92.5578 117.014L92.8979 117.178C93.2724 117.357 93.6825 117.451 94.098 117.451V117.451H94.2027C94.7525 117.451 95.2908 117.293 95.7538 116.997V116.997C95.9119 116.895 96.0597 116.779 96.1951 116.649L97.5694 115.328L98.2791 114.816C98.6267 114.566 99.0725 114.495 99.4805 114.626V114.626C99.6766 114.689 99.8557 114.796 100.004 114.938L100.094 115.025L100.535 115.448C100.661 115.569 100.806 115.67 100.964 115.746V115.746C101.221 115.869 101.442 116.058 101.605 116.293L101.728 116.47C101.899 116.717 102.118 116.928 102.372 117.09V117.09C102.739 117.326 103.166 117.451 103.603 117.451H104.802C105.012 117.451 105.204 117.334 105.301 117.148V117.148C105.398 116.961 105.591 116.844 105.801 116.844H106.09V116.844C106.492 116.844 106.883 116.689 107.173 116.41V116.41C107.292 116.296 107.428 116.201 107.577 116.13L107.874 115.987C108.362 115.753 108.896 115.631 109.437 115.631H110.264C110.826 115.631 111.366 115.849 111.771 116.238V116.238V116.238C112.176 116.627 112.716 116.844 113.277 116.844H114.226C114.687 116.844 115.142 116.741 115.558 116.541V116.541L116.174 116.344C116.394 116.273 116.603 116.175 116.797 116.051L117.192 115.797C117.361 115.689 117.558 115.631 117.76 115.631H118.056C118.266 115.631 118.459 115.748 118.556 115.935V115.935C118.653 116.121 118.846 116.238 119.056 116.238H119.455C119.788 116.238 120.106 116.373 120.337 116.613L123.201 119.595C123.56 119.969 124.056 120.18 124.574 120.18H125.03C125.23 120.18 125.421 120.103 125.565 119.965V119.965C125.626 119.907 125.676 119.839 125.715 119.765L126.094 119.037C126.431 118.39 126.887 117.812 127.438 117.335L128.57 116.356C129.36 115.673 130.227 115.083 131.152 114.598L133.231 113.508V113.508C134.411 112.752 135.124 111.448 135.124 110.046V107.75C135.124 105.996 134.446 104.31 133.231 103.045L132.07 101.836C131.6 101.347 131.337 100.695 131.337 100.017V100.017C131.337 99.3332 131.071 98.6767 130.595 98.1864L127.863 95.3734C127.235 94.7276 126.681 94.0148 126.209 93.2478L124.17 89.9305C123.285 88.4915 122.816 86.8352 122.816 85.1459V84.5087C122.816 82.6765 122.142 80.9084 120.923 79.5411L120.874 79.4861C119.686 78.1542 119.029 76.4318 119.029 74.647V74.647C119.029 73.4788 118.748 72.3279 118.209 71.2915L116.82 68.623L105.775 53.1558L99.463 44.3607L95.9915 37.9919V37.9919C95.3648 36.5323 94.9886 34.9776 94.8787 33.393L94.7722 31.8579C94.7436 31.4462 94.6607 31.0402 94.5254 30.6504V30.6504C94.451 30.4357 94.3609 30.2267 94.256 30.025L92.4999 26.6498C92.0939 25.8693 91.7771 25.0457 91.5556 24.1943V24.1943C91.3575 23.4328 91.0832 22.6933 90.7367 21.9869L89.3642 19.1886L87.7863 15.5493L86.8395 12.8197V12.8197C86.4193 11.4063 86.1295 9.95583 85.8212 8.51389C85.5124 7.07022 85.1362 5.83947 84.7305 4.79979C83.3239 1.19439 78.5552 -0.50385 77.0385 3.05662C76.5851 4.12103 76.246 5.52543 76.1096 7.3607C75.7202 12.5995 70.4262 16.4917 66.0457 18.6478C63.7958 19.7552 61.252 19.9953 58.7523 19.7951V19.7951L55.2809 19.1886L51.4938 18.582L49.6003 18.2787L48.848 18.1582C48.0977 18.0381 47.3298 18.0962 46.6062 18.328V18.328C45.485 18.6872 44.2714 18.6253 43.1925 18.1541L42.6318 17.9091C41.8161 17.5528 40.9356 17.3689 40.0455 17.3689H31.5625C30.7773 17.3689 30.0156 17.6363 29.4028 18.1271V18.1271C28.7899 18.6179 28.0282 18.8853 27.2431 18.8853H26.0004C25.5395 18.8853 25.0844 18.7816 24.669 18.582V18.582L23.7222 17.9755L22.4599 17.0656V17.0656C21.6392 16.4741 20.6531 16.1558 19.6415 16.1558H16.8238C16.3791 16.1558 15.94 16.2558 15.5392 16.4484L14.8858 16.7623C14.4868 16.954 14.0224 16.954 13.6235 16.7623V16.7623L11.7299 15.8525L11.2947 15.5868C11.1646 15.5074 11.0254 15.4437 10.8801 15.3972L10.8189 15.3776C10.3906 15.2404 9.92613 15.2725 9.52083 15.4672V15.4672L9.12471 15.6983C8.86477 15.85 8.58056 15.9556 8.28465 16.0104L8.09229 16.0461C7.99314 16.0645 7.89686 16.0959 7.80598 16.1396L7.73993 16.1713C7.46928 16.3013 7.15419 16.3014 6.88354 16.1713V16.1713C6.74992 16.1071 6.60358 16.0738 6.45534 16.0738H5.8916C5.37226 16.0738 4.85958 16.1906 4.39148 16.4155L3.71566 16.7402C3.37905 16.9019 3.06194 17.1015 2.77044 17.3349L2.49011 17.5594C1.7333 18.1655 1.22414 19.0273 1.05846 19.9826L1.03063 20.1431C1.01025 20.2606 1 20.3796 1 20.4989V20.6664C1 20.891 1.05412 21.1123 1.15779 21.3115L1.27639 21.5395C1.30214 21.589 1.31558 21.644 1.31558 21.6997V21.6997C1.31558 21.8332 1.3921 21.9549 1.5124 22.0127L1.77894 22.1407C1.8894 22.1938 2.01038 22.2214 2.13294 22.2214H2.26234V22.2214C2.67447 22.2214 3.07796 22.3395 3.42497 22.5619L3.7022 22.7395C3.79403 22.7983 3.87988 22.866 3.95852 22.9416V22.9416C4.28623 23.2565 4.47145 23.6914 4.47145 24.1459V24.3454C4.47145 24.4918 4.48648 24.6378 4.51631 24.7811L4.75939 25.9491C4.77777 26.0375 4.78703 26.1274 4.78703 26.2177V26.3591C4.78703 26.5721 4.86079 26.7786 4.99578 26.9434V26.9434C5.06642 27.0296 5.12084 27.128 5.15639 27.2337L5.20036 27.3643C5.27057 27.573 5.38119 27.7658 5.52593 27.9317L6.27343 28.7886C6.33434 28.8584 6.38899 28.9334 6.43676 29.0128L6.47561 29.0774C6.60931 29.2996 6.8051 29.4779 7.03886 29.5902L7.10618 29.6225C7.24148 29.6876 7.38968 29.7213 7.53979 29.7213H7.61365C7.82491 29.7213 8.02798 29.6396 8.18031 29.4932V29.4932C8.2322 29.4433 8.27728 29.3868 8.31438 29.3251L8.41628 29.1558C8.52102 28.9817 8.64828 28.8222 8.79476 28.6814L8.88966 28.5902L9.3124 28.184C9.45047 28.0513 9.60878 27.9414 9.78139 27.8585L9.94643 27.7792C10.0817 27.7142 10.2299 27.6804 10.3801 27.6804V27.6804C10.6387 27.6804 10.8873 27.7805 11.0738 27.9597L11.4144 28.287V28.287C11.822 28.6787 12.0785 29.2017 12.1386 29.7639L12.2806 31.0911C12.3339 31.5899 12.4677 32.0768 12.6767 32.5329V32.5329L12.9923 33.0574L13.7528 34.0978C13.8699 34.2579 14.0563 34.3525 14.2546 34.3525V34.3525H14.5702V34.3525C14.9813 34.2991 15.3666 34.1224 15.6754 33.8458L16.4637 33.1394L16.6398 32.9702C16.9318 32.6896 17.3211 32.5329 17.7261 32.5329V32.5329H17.7454C18.1408 32.5329 18.5237 32.6712 18.8278 32.9239V32.9239C18.9345 33.0125 19.0517 33.0878 19.1767 33.1478L19.6196 33.3607L20.143 33.6121C20.2144 33.6464 20.2799 33.6919 20.337 33.7468V33.7468C20.4835 33.8876 20.5664 34.0821 20.5664 34.2853V34.3525C20.5664 34.4979 20.6014 34.6411 20.6685 34.7701L20.7242 34.8771C20.8278 35.0763 20.8819 35.2976 20.8819 35.5222V36.0902L21.1646 38.8069C21.1864 39.0162 21.2422 39.2205 21.3299 39.4118V39.4118C21.4505 39.6749 21.6287 39.9076 21.8513 40.0926L21.9225 40.1517C22.0698 40.2742 22.2316 40.378 22.4042 40.461L22.7755 40.6393L23.1127 40.8014C23.3082 40.8953 23.5123 40.9701 23.7222 41.0247V41.0247L24.669 41.3279L25.3002 41.6312V41.6312C25.9289 42.034 26.5051 42.5135 27.0155 43.0585L28.6198 44.7715C28.9299 45.1027 29.1934 45.4746 29.4028 45.8771V45.8771L29.5784 46.2146C29.6704 46.3914 29.7184 46.5877 29.7184 46.787V46.787V46.787C29.7184 49.0091 28.6067 51.0838 26.7567 52.3147L25.8953 52.8878C25.71 53.0111 25.544 53.1613 25.403 53.3335L25.3899 53.3496C25.3301 53.4225 25.2758 53.4996 25.2272 53.5804V53.5804C25.0677 53.8454 24.9734 54.1445 24.952 54.453L24.7087 57.9603C24.6822 58.3418 24.6636 58.7301 24.5199 59.0846C24.4776 59.1891 24.4232 59.3084 24.3534 59.4426C24.2087 59.7207 23.9631 60.4816 23.8248 60.9265C23.7556 61.149 23.7222 61.3806 23.7222 61.6136V61.9773C23.7222 62.2994 23.8337 62.6116 24.0378 62.8607V62.8607L24.2316 63.047C24.5111 63.3155 24.669 63.6863 24.669 64.0738V64.2427C24.669 64.5224 24.555 64.7899 24.3534 64.9837V64.9837C24.1518 65.1774 24.0378 65.445 24.0378 65.7247V65.8935V67.2632C24.0378 67.5507 24.155 67.8258 24.3623 68.025L24.4414 68.1011C24.5874 68.2414 24.7821 68.3197 24.9846 68.3197V68.3197C25.1871 68.3197 25.3817 68.3981 25.5277 68.5384L25.6157 68.623C25.8182 68.8176 26.0882 68.9263 26.369 68.9263H28.1404C29.5579 68.9263 30.9203 69.4748 31.9424 70.457L32.2431 70.746L33.0005 71.4739C33.335 71.7953 33.7185 72.0615 34.1366 72.2624V72.2624L34.7677 72.5656L35.3989 72.8689L35.6079 72.9693C35.8858 73.1029 36.1902 73.1722 36.4985 73.1722H38.2515C38.419 73.1722 38.5548 73.308 38.5548 73.4755V73.4755C38.5548 73.643 38.6906 73.7788 38.8581 73.7788H39.043C39.1363 73.7788 39.2277 73.8055 39.3063 73.8559L41.0795 74.9919L41.7951 75.3357C42.1293 75.4963 42.3418 75.8342 42.3418 76.205V76.205V76.205C42.3418 76.5874 42.1641 76.9482 41.8609 77.1812L40.7639 78.0247L40.6567 78.1276C40.5187 78.2603 40.3603 78.3702 40.1877 78.4531L39.9227 78.5805C39.8532 78.6139 39.7771 78.6312 39.7 78.6312H39.4892C39.3217 78.6312 39.186 78.767 39.186 78.9345V78.9345C39.186 79.102 39.0502 79.2378 38.8827 79.2378H38.736C38.6197 79.2378 38.508 79.2828 38.4242 79.3633L38.2481 79.5325C38.0408 79.7317 37.9236 80.0068 37.9236 80.2943V80.7542V81.0575V81.0575C37.9236 81.445 38.0815 81.8158 38.361 82.0843L38.435 82.1555C38.5147 82.232 38.5865 82.3163 38.6494 82.407L39.0131 82.9312C39.1256 83.0935 39.186 83.2862 39.186 83.4837V83.4837V84.0902V84.0902C39.186 84.4812 39.0665 84.8689 38.8437 85.1902L38.6728 85.4365C38.5955 85.548 38.4905 85.6375 38.3681 85.6963L38.3172 85.7208C38.0766 85.8364 37.9236 86.0797 37.9236 86.3466V86.3466C37.9236 86.4582 37.8967 86.5681 37.8452 86.6671L37.7348 86.8794C37.6508 87.0407 37.5411 87.1873 37.41 87.3133L36.8002 87.8994C36.7114 87.9847 36.6613 88.1024 36.6613 88.2255V88.2255C36.6613 88.2982 36.6438 88.3698 36.6102 88.4343L36.3457 88.9427C36.1383 89.3412 36.0301 89.7836 36.0301 90.2328C36.0301 90.7291 36.0301 91.3218 36.0301 91.3689C36.0301 91.451 35.3989 91.451 35.3989 91.9755C35.3989 92.5 35.3989 94.705 35.3989 94.705V94.705C35.3989 94.705 35.3989 95.2295 35.3989 95.5328C35.3989 95.8361 35.0833 97.5737 35.0833 97.6557C35.0833 97.7168 34.9087 98.7392 34.8193 99.259C34.785 99.4579 34.7677 99.6589 34.7677 99.8607V99.8607C34.7677 99.8607 34.7677 99.8607 34.7677 99.8607C34.7677 99.8607 34.7677 100.082 34.7677 100.385ZM34.7677 100.385L34.7584 100.418"
                                                onClick={() => toggleRegion('강원')}
                                                fill={selectedItems.includes('강원') ? '#FDE2B9' : '#fff'}
                                                stroke="black"/>
                                        </svg>