<svg className="gwangju" width="25" height="16" viewBox="0 0 25 16"
                                             fill="none"
                                             xmlns="http://www.w3.org/2000/svg">
                                            <path
                                                d="M4.16179 2.66962L4.85034 2.53728C5.23143 2.46403 5.59327 2.31286 5.91321 2.09325C6.93702 1.39049 8.27656 1.4771 9.3168 2.1553C9.56678 2.31828 9.76384 2.42622 9.84634 2.42622C10.6635 2.42622 11.4562 2.14792 12.094 1.63715L12.3153 1.45997C12.7687 1.09681 13.2896 0.826977 13.8479 0.666035L15.2867 0.251208C15.8521 0.0882046 16.4553 0.114245 17.0045 0.325373C17.4823 0.50904 17.8981 0.824671 18.2035 1.23551L18.8611 2.12026C19.162 2.52505 19.5089 2.89346 19.8949 3.21806L21.8386 4.85246L23.4886 5.98504C23.8386 6.22528 24.0477 6.62254 24.0477 7.04705C24.0477 7.20024 24.0204 7.35219 23.967 7.49578L22.9117 10.3354C22.6198 11.1209 22.1798 11.843 21.6157 12.4626L20.6016 13.5764C20.3795 13.8204 20.0892 13.992 19.7683 14.0691L18.1044 14.4689C17.9166 14.514 17.736 14.3716 17.736 14.1785C17.736 14.044 17.6461 13.9261 17.5164 13.8905L15.8523 13.4336C15.6363 13.3743 15.4134 13.3443 15.1895 13.3443C14.7891 13.3443 14.3946 13.4403 14.039 13.6243L11.9975 14.6807C11.0283 15.1822 9.89404 15.2569 8.86749 14.887C8.26682 14.6705 7.72813 14.3106 7.29827 13.8385L5.74372 12.1311L5.23112 11.5154C4.74773 10.9347 4.07029 10.5489 3.32426 10.4294L2.79056 10.3439C1.58277 10.1505 0.694336 9.10842 0.694336 7.88524V6.88736C0.694336 6.38505 0.982298 5.9272 1.43506 5.70965C1.76724 5.55004 2.01657 5.25756 2.1216 4.9043L2.27916 4.37435C2.47575 3.71313 2.94243 3.16569 3.56421 2.86693C3.75407 2.7757 3.95493 2.70938 4.16179 2.66962Z"
                                                fill={selectedItems.includes('광주') ? '#CDB4DB' : '#fff'} // 선택된 지역에 색상을 설정
                                                stroke="black"
                                                onClick={() => toggleRegion('광주')}/>
                                        </svg>