<svg className="gyeonggi" width="89" height="104" viewBox="0 0 89 104"
                                             fill="none"
                                             xmlns="http://www.w3.org/2000/svg">
                                            <path fillRule="evenodd" clipRule="evenodd"
                                                  d="M80.8435 82.3735V81.849C80.8435 81.6472 80.8608 81.4462 80.895 81.2473C80.9845 80.7274 81.1591 79.705 81.1591 79.644C81.1591 79.616 81.196 79.3941 81.2446 79.1021C81.3381 78.5408 81.4746 77.7206 81.4746 77.5211V76.6933V73.9638C81.4746 73.5879 81.7988 73.4814 81.9825 73.421C82.0551 73.3971 82.1058 73.3805 82.1058 73.3572V72.2211C82.1058 71.7719 82.2141 71.3295 82.4214 70.931L82.6859 70.4226C82.7195 70.3581 82.737 70.2865 82.737 70.2138C82.737 70.0907 82.7872 69.9729 82.8759 69.8876L83.4857 69.3016C83.6169 69.1756 83.7266 69.029 83.8105 68.8676L83.921 68.6554C83.9725 68.5564 83.9993 68.4465 83.9993 68.3349C83.9993 68.068 84.1524 67.8247 84.393 67.709L84.4439 67.6846C84.5662 67.6258 84.6712 67.5363 84.7486 67.4248L84.9194 67.1785C85.1423 66.8572 85.2617 66.4695 85.2617 66.0785V65.472C85.2617 65.2745 85.2014 65.0817 85.0888 64.9195L84.7252 64.3953C84.6622 64.3045 84.5904 64.2203 84.5108 64.1438L84.4367 64.0726C84.1573 63.804 83.9993 63.4333 83.9993 63.0457V62.7424V62.2826C83.9993 61.9951 84.1165 61.72 84.3238 61.5208L84.4999 61.3516C84.5837 61.271 84.6954 61.2261 84.8117 61.2261H84.9584C85.1259 61.2261 85.2617 61.0903 85.2617 60.9228C85.2617 60.7553 85.3975 60.6195 85.565 60.6195H85.7758C85.8528 60.6195 85.9289 60.6022 85.9984 60.5688L86.2635 60.4414C86.4361 60.3585 86.5944 60.2486 86.7325 60.1159L86.8396 60.0129L87.9367 59.1695C88.2399 58.9364 88.4175 58.5757 88.4175 58.1933C88.4175 57.8225 88.205 57.4846 87.8708 57.324L87.1552 56.9802L85.3821 55.8442C85.3035 55.7938 85.2121 55.767 85.1187 55.767H84.9338C84.7663 55.767 84.6305 55.6313 84.6305 55.4638C84.6305 55.2963 84.4947 55.1605 84.3272 55.1605H82.5742C82.2659 55.1605 81.9615 55.0911 81.6836 54.9576L81.4746 54.8572L80.8435 54.5539L80.2123 54.2506C79.7942 54.0497 79.4107 53.7836 79.0762 53.4622L78.3188 52.7342L78.0181 52.4453C76.9961 51.4631 75.6336 50.9146 74.2162 50.9146H72.4447C72.1639 50.9146 71.894 50.8059 71.6915 50.6113L71.6034 50.5267C71.4574 50.3864 71.2628 50.308 71.0603 50.308C70.8578 50.308 70.6632 50.2297 70.5172 50.0893L70.438 50.0133C70.2307 49.8141 70.1135 49.539 70.1135 49.2515V47.8818V47.7129C70.1135 47.4333 70.2275 47.1657 70.4291 46.972C70.6308 46.7782 70.7447 46.5106 70.7447 46.231V46.0621C70.7447 45.6746 70.5868 45.3038 70.3074 45.0353L70.1135 44.849C69.9095 44.5998 69.798 44.2877 69.798 43.9656V43.6019C69.798 43.3689 69.8314 43.1372 69.9005 42.9148C70.0389 42.4699 70.2845 41.709 70.4291 41.4309C70.499 41.2967 70.5533 41.1773 70.5957 41.0728C70.7305 40.74 70.7552 40.3774 70.7796 40.0185C70.7812 39.9951 70.7828 39.9718 70.7844 39.9485L71.0277 36.4413C71.0491 36.1328 71.1434 35.8337 71.3029 35.5687C71.3515 35.4879 71.4059 35.4107 71.4656 35.3378L71.4787 35.3218C71.6198 35.1496 71.7857 34.9994 71.971 34.876L72.8324 34.303C74.6824 33.0721 75.7941 30.9973 75.7941 28.7752C75.7941 28.576 75.7461 28.3797 75.6541 28.2029L75.4785 27.8654C75.2691 27.4629 75.0057 27.0909 74.6955 26.7598L73.0912 25.0467C72.5808 24.5017 72.0046 24.0223 71.3759 23.6195L70.7447 23.3162L69.798 23.0129C69.5881 22.9584 69.3839 22.8836 69.1885 22.7897L68.8512 22.6276L68.48 22.4492C68.3073 22.3663 68.1455 22.2624 67.9982 22.14L67.927 22.0809C67.7044 21.8959 67.5262 21.6632 67.4056 21.4001C67.318 21.2088 67.2621 21.0045 67.2404 20.7952L66.9577 18.0784V17.5105C66.9577 17.2859 66.9035 17.0646 66.7999 16.8653L66.7442 16.7583C66.6771 16.6294 66.6421 16.4861 66.6421 16.3408V16.2736C66.6421 16.0703 66.5593 15.8759 66.4127 15.7351C66.3556 15.6802 66.2901 15.6347 66.2187 15.6004L65.6953 15.3489L65.2524 15.1361C65.1274 15.076 65.0102 15.0008 64.9035 14.9122C64.5994 14.6595 64.2165 14.5211 63.8212 14.5211H63.8018C63.3968 14.5211 63.0075 14.6779 62.7155 14.9585L62.5395 15.1277L61.7511 15.834C61.4424 16.1107 61.0571 16.2874 60.6459 16.3408H60.3303C60.132 16.3408 59.9456 16.2462 59.8286 16.086L59.068 15.0456L58.7524 14.5211C58.5434 14.0651 58.4096 13.5782 58.3563 13.0794L58.2143 11.7522C58.1542 11.19 57.8978 10.667 57.4901 10.2752L57.1496 9.94798C56.9631 9.76876 56.7144 9.66867 56.4558 9.66867C56.3057 9.66867 56.1575 9.70243 56.0222 9.76744L55.8571 9.84675C55.6845 9.92969 55.5262 10.0396 55.3881 10.1723L54.9654 10.5785L54.8705 10.6697C54.724 10.8105 54.5967 10.97 54.492 11.1441L54.3901 11.3134C54.353 11.3751 54.3079 11.4316 54.256 11.4814C54.1037 11.6278 53.9006 11.7096 53.6894 11.7096H53.6155C53.4654 11.7096 53.3172 11.6758 53.1819 11.6108L53.1146 11.5785C52.8808 11.4661 52.685 11.2879 52.5513 11.0657L52.5125 11.0011C52.4647 10.9217 52.4101 10.8467 52.3492 10.7769L51.6017 9.91997C51.4569 9.75406 51.3463 9.56127 51.2761 9.3526L51.2321 9.22193C51.1966 9.11626 51.1422 9.01792 51.0715 8.93167C50.9365 8.76685 50.8628 8.56039 50.8628 8.34735V8.20593C50.8628 8.11571 50.8535 8.02572 50.8351 7.93739L50.592 6.76941C50.5622 6.62608 50.5472 6.48006 50.5472 6.33366V6.13416C50.5472 5.67965 50.362 5.24478 50.0343 4.92984C49.9556 4.85427 49.8698 4.78658 49.7779 4.72775L49.5007 4.55015C49.1537 4.32782 48.7502 4.20966 48.3381 4.20966H48.2087C48.0861 4.20966 47.9651 4.1821 47.8547 4.12902L47.5881 4.00095C47.4678 3.94314 47.3913 3.82149 47.3913 3.68801C47.3913 3.63222 47.3779 3.57726 47.3521 3.52777L47.2335 3.29982C47.1299 3.10057 47.0757 2.87927 47.0757 2.65467V2.39393C47.0757 2.33671 47.0806 2.2796 47.0904 2.22322L47.1182 2.063C47.2385 1.36927 46.5567 0.809096 45.8995 1.06173C45.8422 1.08374 45.7874 1.1115 45.7357 1.1446L43.9199 2.30794L42.5804 2.99654C42.0024 3.34513 41.4651 3.7571 40.9784 4.2248L40.7639 4.43089L40.0443 4.96493C39.6342 5.26921 39.1915 5.52685 38.7244 5.73307L38.4537 5.85258C38.3109 5.91562 38.1732 5.98958 38.0417 6.07379C37.5525 6.38724 36.9836 6.55384 36.4025 6.55384H35.8723C34.945 6.55384 34.0372 6.81972 33.2564 7.31994L33.034 7.46239C32.7179 7.66495 32.4223 7.89799 32.1516 8.15817L31.6119 8.6768C31.4103 8.87056 31.2963 9.13812 31.2963 9.41776V11.7096V12.8169C31.2963 13.0857 31.3611 13.3505 31.4851 13.5889L31.5557 13.7245C31.5929 13.796 31.6415 13.861 31.6997 13.9169C31.8452 14.0568 31.9275 14.2499 31.9275 14.4517V14.7424V15.1946C31.9275 16.093 31.711 16.9782 31.2963 17.7752C30.877 18.5811 30.3644 19.335 29.7692 20.0214L29.0872 20.8079C28.8856 21.0017 28.7716 21.2693 28.7716 21.5489V23.1945C28.7716 23.8183 28.6213 24.433 28.3333 24.9864C28.2051 25.2328 28.0508 25.4648 27.873 25.6783L27.6847 25.9046C27.1558 26.5399 26.473 27.0293 25.7013 27.3259C25.4344 27.4285 25.1589 27.5072 24.8781 27.5612L24.4532 27.6429C23.9703 27.7357 23.5095 27.9196 23.0955 28.1849C22.8827 28.3212 22.6837 28.4781 22.5014 28.6533L22.0217 29.1143C21.8933 29.2376 21.7776 29.3734 21.6762 29.5196C21.3645 29.9689 21.1975 30.5026 21.1975 31.0493V33.008C21.1975 33.7677 21.2943 34.5243 21.4856 35.2596L21.5131 35.3653L21.7256 35.978C21.7943 36.1758 21.8772 36.3684 21.9739 36.5542C22.2932 37.1679 22.4599 37.8494 22.4599 38.5412V39.9145V40.0532C22.4599 40.4791 22.1146 40.8243 21.6888 40.8243C21.5731 40.8243 21.459 40.7983 21.3548 40.7483L20.7225 40.4444C20.4094 40.294 20.1182 40.102 19.8567 39.8735L17.1324 37.4935C16.8995 37.29 16.6239 37.1352 16.3294 37.0409C16.005 36.9369 15.7016 36.7559 15.456 36.5199C15.2888 36.3592 15.0949 36.224 14.8858 36.1235L14.6825 36.0258C14.6081 35.9901 14.5399 35.9427 14.4804 35.8856C14.3355 35.7464 14.1424 35.6686 13.9415 35.6686H9.83642H9.64295C9.3621 35.6686 9.09215 35.5599 8.88966 35.3653C8.68716 35.1707 8.41722 35.062 8.13637 35.062H7.96941C7.74423 35.062 7.52193 35.0114 7.31897 34.9139L6.99614 34.7588C6.58068 34.5591 6.12565 34.4555 5.66472 34.4555H5.41821H5.28025C4.54608 34.4555 3.82729 34.666 3.2091 35.062L2.66041 35.4839C2.01148 35.9828 1.63117 36.7549 1.63117 37.5734V37.8444C1.63117 38.2049 1.74128 38.5568 1.94676 38.853C2.15224 39.1492 2.26234 39.5011 2.26234 39.8616V40.7887C2.26234 41.4128 2.13886 42.0308 1.899 42.6071L1.63117 43.2506L1.27996 43.9256C1.09603 44.2791 1 44.6717 1 45.0702V45.3873C1 45.5775 1.04583 45.7649 1.13361 45.9336C1.25174 46.1606 1.44028 46.3433 1.67096 46.4541L1.78556 46.5092C1.89234 46.5605 1.99029 46.6285 2.07571 46.7106C2.19851 46.8286 2.34666 46.9169 2.50885 46.9689L2.90856 47.0969C3.10771 47.1607 3.31557 47.1932 3.52469 47.1932H4.12957C4.33965 47.1932 4.53228 47.3101 4.62924 47.4965C4.7262 47.6828 4.91883 47.7998 5.12891 47.7998H6.36497H7.62732H8.18699C8.43974 47.7998 8.68718 47.7273 8.89999 47.5909L8.93121 47.5709C9.29771 47.3361 9.75968 47.308 10.152 47.4965L10.7832 47.7998L11.0198 47.9135C11.2562 48.027 11.5353 47.9755 11.7299 47.7998C12.0283 47.5304 12.4874 47.2174 12.7619 47.0376C12.9143 46.9378 13.0602 46.8246 13.1915 46.6984C13.4732 46.4277 13.8169 46.2214 14.189 46.1022C14.4416 46.0213 14.7053 45.9801 14.9706 45.9801H15.978C16.4799 45.9801 16.95 46.2261 17.2361 46.6385C17.3512 46.8045 17.4981 46.946 17.6682 47.055L17.7304 47.0949C18.1334 47.3531 18.4242 47.7538 18.5447 48.217L18.5743 48.3307C18.6395 48.5813 18.7484 48.8185 18.896 49.0312L18.97 49.138C19.1905 49.4558 19.4717 49.7268 19.7974 49.9355L19.9389 50.0262C20.1463 50.1591 20.3402 50.3119 20.5178 50.4826L20.6784 50.6369C20.8138 50.767 20.9616 50.8835 21.1196 50.9848L21.2972 51.0986C21.6443 51.3209 22.0478 51.4391 22.4599 51.4391L22.4463 51.7715C22.5135 51.6514 22.6419 51.5702 22.7893 51.5702C22.9358 51.5702 23.0701 51.4887 23.1377 51.3588L23.2469 51.1488C23.31 51.0275 23.4038 50.9249 23.519 50.8511L23.7945 50.6746C24.118 50.4673 24.4942 50.3571 24.8785 50.3571H26.0882C27.5739 50.3571 29.0092 49.8185 30.128 48.841L31.742 47.431C31.8227 47.3605 31.8895 47.2756 31.9389 47.1805C32.0869 46.8962 32.3807 46.7178 32.7013 46.7178H33.442H34.0469C34.257 46.7178 34.4496 46.8347 34.5466 47.0211L34.5587 47.0444C34.6482 47.2164 34.826 47.3243 35.0199 47.3243C35.4183 47.3243 35.7944 47.1408 36.0394 46.8268L36.477 46.2661C36.5575 46.163 36.6452 46.0657 36.7395 45.9751L37.8602 44.8981L38.6722 44.3128C38.965 44.1018 39.3168 43.9883 39.6776 43.9883C39.9355 43.9883 40.19 44.0462 40.4224 44.1579L41.1812 44.5225C41.699 44.7713 42.1798 45.1066 42.594 45.5047C42.7956 45.6984 42.9096 45.966 42.9096 46.2456V51.267V51.5316C42.9096 51.7562 42.8555 51.9775 42.7518 52.1768L42.6332 52.4047C42.6075 52.4542 42.594 52.5092 42.594 52.565C42.594 52.6985 42.6705 52.8201 42.7908 52.8779L43.2252 53.0866L43.5441 53.1888C43.9548 53.3203 44.3937 53.3366 44.813 53.2359L45.263 53.1278C45.3752 53.1008 45.4781 53.0445 45.5613 52.9646C45.6823 52.8483 45.8436 52.7834 46.0114 52.7834H46.1122C46.6093 52.7834 47.0122 53.1863 47.0122 53.6833V53.9965C47.0122 54.3895 46.8809 54.7713 46.639 55.0812L46.2938 55.5235C46.1427 55.7172 45.9598 55.8839 45.7529 56.0164L45.6643 56.0732C45.3109 56.2996 45.0439 56.6383 44.9064 57.0349C44.838 57.2319 44.8031 57.439 44.8031 57.6476V58.2424C44.8031 59.0174 44.4873 59.759 43.9284 60.2961L43.8564 60.3653L41.3317 62.185L40.64 62.6835C40.269 62.9509 39.8232 63.0948 39.3659 63.0948C38.9992 63.0948 38.6385 63.0023 38.3171 62.8258L37.4277 62.3374C36.8833 62.0385 36.2722 61.8817 35.6511 61.8817H34.653C34.4772 61.8817 34.3019 61.8984 34.1292 61.9316L33.1086 62.1278C32.9205 62.1639 32.7593 62.2841 32.6709 62.454C32.5629 62.6614 32.3486 62.7915 32.1148 62.7915H31.7363C31.4133 62.7915 31.1028 62.6665 30.8699 62.4427L30.7813 62.3576C30.6624 62.2433 30.5259 62.1486 30.3772 62.0771L29.9706 61.8817L29.3241 61.4676C29.1273 61.3415 28.967 61.1661 28.8592 60.9588C28.76 60.7681 28.7082 60.5564 28.7082 60.3415V59.4555V59.1522C28.7082 58.9797 28.5781 58.835 28.4066 58.8167L26.2049 58.5816C25.9833 58.558 25.7703 58.4831 25.5826 58.3629C25.1705 58.0988 24.9212 57.643 24.9212 57.1535V55.5129C24.9212 54.9567 24.6024 54.4498 24.1011 54.209L23.915 54.1196C23.7453 54.038 23.5897 53.93 23.4539 53.7995L23.1301 53.4884C23.0622 53.4231 22.9844 53.3691 22.8996 53.3284C22.6378 53.2026 22.4571 52.9585 22.4092 52.6782L22.3965 52.9883L21.662 53.2132C21.5629 53.2435 21.4662 53.2813 21.3727 53.3262C21.0511 53.4808 20.775 53.7162 20.5716 54.0094L20.2508 54.4719L20.0288 54.8985C19.9666 55.0181 19.9181 55.1443 19.8841 55.2748L19.7057 55.9607C19.6525 56.165 19.7139 56.3821 19.8661 56.5284C19.9118 56.5724 19.9501 56.6236 19.9794 56.6799L20.2508 57.2014L20.727 57.8879C20.8286 58.0343 20.9664 58.1518 21.1269 58.2289C21.3741 58.3477 21.5637 58.5602 21.6535 58.8193L21.7378 59.0622C21.798 59.2357 21.8287 59.4181 21.8287 59.6018V60.5375C21.8287 60.9154 21.6362 61.2673 21.318 61.4712L21.026 61.6583C20.9302 61.7197 20.8406 61.7903 20.7586 61.8691L20.3138 62.2965C20.062 62.5386 19.7878 62.7563 19.4951 62.9469L18.1887 63.7976C17.9989 63.9212 17.8557 64.1045 17.7818 64.3186C17.7449 64.4255 17.7261 64.5378 17.7261 64.6509V65.9654C17.7261 67.9229 18.5238 69.7959 19.9352 71.1522L19.9785 71.1939C20.1399 71.349 20.1798 71.5919 20.0765 71.7904C19.9897 71.9573 19.8172 72.062 19.629 72.062H17.0949L14.5702 71.7588L13.6793 71.5447C13.4325 71.4855 13.1797 71.4555 12.9259 71.4555C11.9682 71.4555 11.06 71.8811 10.4473 72.6172L10.152 72.9719L8.45145 74.6061C8.32312 74.7294 8.20738 74.8652 8.10594 75.0115C7.79431 75.4607 7.62732 75.9944 7.62732 76.5411V76.6112V76.991C7.62732 77.1411 7.65243 77.2902 7.70163 77.432C7.85197 77.8655 8.21272 78.1925 8.65877 78.2996L9.20525 78.4309L10.9052 78.7032C11.034 78.7238 11.1612 78.7542 11.2855 78.794C11.7807 78.9526 12.2166 79.2567 12.5365 79.6666L14.7641 82.5209C14.8451 82.6247 14.9335 82.7226 15.0284 82.8139L15.3408 83.1141C15.6563 83.4173 16.077 83.5866 16.5146 83.5866C16.69 83.5866 16.8644 83.5594 17.0314 83.5059L17.7261 83.2834L18.0644 83.2183C18.8889 83.0599 19.7267 82.9801 20.5664 82.9801H21.4908C21.7076 82.9801 21.916 83.064 22.0723 83.2142C22.3086 83.4412 22.3911 83.7849 22.2837 84.0944L22.2304 84.2483C22.1738 84.4114 22.0794 84.5589 21.9549 84.6785L19.7662 86.7818C19.0677 87.4531 18.6728 88.3801 18.6728 89.3489C18.6728 90.3246 19.0369 91.2652 19.6937 91.9866L20.8819 93.2915L22.1443 94.808L23.4066 96.3243L25.3002 98.4473L26.375 99.7384C26.499 99.8874 26.595 100.058 26.6586 100.241L26.7298 100.446C26.8247 100.72 27.0249 100.944 27.286 101.07C27.433 101.14 27.5939 101.177 27.7569 101.177H32.5113C33.17 101.177 33.8248 101.074 34.4522 100.874L35.3181 100.665C35.5814 100.602 35.8513 100.57 36.1222 100.57C36.881 100.57 37.6186 100.319 38.2202 99.857L39.4636 98.9011C40.1021 98.4102 40.885 98.144 41.6904 98.144C42.5206 98.144 43.3261 98.4268 43.9741 98.9458L44.8665 99.6604L47.9913 102.163C48.4274 102.512 48.9352 102.761 49.4784 102.891L49.741 102.954C49.8572 102.982 49.9763 102.996 50.0958 102.996C50.3903 102.996 50.6784 102.911 50.9251 102.75L54.1305 100.661C54.3061 100.547 54.4576 100.399 54.5763 100.226C54.8247 99.865 55.2104 99.6211 55.6435 99.5518L56.4453 99.4234C56.7145 99.3802 56.9641 99.2559 57.1608 99.0669C57.3742 98.8618 57.5136 98.5917 57.5571 98.299L57.5975 98.027C57.7195 97.2064 58.3884 96.5765 59.2149 96.504C59.3356 96.4934 59.455 96.4706 59.5711 96.436L60.29 96.2215C60.7246 96.0917 61.1023 95.818 61.3608 95.4453C61.5138 95.2248 61.6208 94.9759 61.6754 94.7132L61.8105 94.064C61.8721 93.7683 62.0679 93.5181 62.3402 93.3873C62.4713 93.3243 62.6149 93.2915 62.7603 93.2915H65.3543C65.7755 93.2915 66.1804 93.4546 66.4842 93.7465C66.7879 94.0384 67.1928 94.2014 67.6141 94.2014H67.8553C68.2987 94.2014 68.732 94.0692 69.0999 93.8217L71.6914 92.0785L72.6356 91.3979C72.8461 91.2461 73.0293 91.0597 73.1772 90.8464C73.4426 90.4638 73.5849 90.0092 73.5849 89.5435V88.7424V87.8636C73.5849 87.7024 73.6506 87.5482 73.7668 87.4365C73.8538 87.3529 73.9643 87.2978 74.0835 87.2787L75.3432 87.077C75.6335 87.0304 75.9308 87.0924 76.1784 87.251L76.2964 87.3266C76.5726 87.5036 76.9207 87.5248 77.2164 87.3827C77.3192 87.3333 77.4123 87.2658 77.491 87.1832L78.3187 86.3162L78.7126 85.9376C78.8648 85.7913 79.0678 85.7096 79.2789 85.7096C79.6444 85.7096 79.9655 85.467 80.0652 85.1154L80.8342 82.4063L80.8435 82.3735Z"
                                                  fill="none"
                                                  onClick={() => toggleRegion('경기')} // SVG 클릭 시 toggleRegion 호출
                                                  style={{
                                                      cursor: 'pointer',
                                                      fill: selectedItems.includes('경기') ? '#FFD1A9' : '#fff',
                                                  }}/>
                                            <path
                                                d="M80.8435 82.3735L81.3245 82.51L81.3435 82.4431V82.3735H80.8435ZM80.895 81.2473L80.4022 81.1625V81.1625L80.895 81.2473ZM81.2446 79.1021L80.7514 79.02L81.2446 79.1021ZM81.9825 73.421L82.1386 73.896L81.9825 73.421ZM82.4214 70.931L82.865 71.1618L82.865 71.1618L82.4214 70.931ZM82.6859 70.4226L82.2424 70.1918L82.6859 70.4226ZM82.8759 69.8876L82.5294 69.5271L82.5294 69.5271L82.8759 69.8876ZM83.4857 69.3016L83.1393 68.9411L83.4857 69.3016ZM83.8105 68.8676L84.2541 69.0984V69.0984L83.8105 68.8676ZM83.921 68.6554L83.4774 68.4246L83.4774 68.4246L83.921 68.6554ZM84.393 67.709L84.1765 67.2584L84.1764 67.2584L84.393 67.709ZM84.4439 67.6846L84.6604 68.1353L84.6604 68.1353L84.4439 67.6846ZM84.7486 67.4248L85.1594 67.7098L84.7486 67.4248ZM84.9194 67.1785L84.5086 66.8935L84.9194 67.1785ZM85.0888 64.9195L84.678 65.2045L85.0888 64.9195ZM84.7252 64.3953L85.136 64.1103L85.136 64.1103L84.7252 64.3953ZM84.5108 64.1438L84.8572 63.7832L84.8572 63.7832L84.5108 64.1438ZM84.4367 64.0726L84.0902 64.4331V64.4331L84.4367 64.0726ZM84.3238 61.5208L83.9773 61.1603L83.9773 61.1603L84.3238 61.5208ZM84.4999 61.3516L84.8463 61.7121L84.4999 61.3516ZM85.9984 60.5688L85.7819 60.1181L85.7819 60.1181L85.9984 60.5688ZM86.2635 60.4414L86.48 60.8921L86.48 60.8921L86.2635 60.4414ZM86.7325 60.1159L86.386 59.7554L86.386 59.7554L86.7325 60.1159ZM86.8396 60.0129L86.5349 59.6165L86.513 59.6333L86.4932 59.6524L86.8396 60.0129ZM87.9367 59.1695L87.6319 58.7731L87.9367 59.1695ZM87.8708 57.324L88.0874 56.8733L88.0873 56.8733L87.8708 57.324ZM87.1552 56.9802L86.8855 57.4012L86.9111 57.4176L86.9386 57.4308L87.1552 56.9802ZM85.3821 55.8442L85.6518 55.4232L85.6518 55.4232L85.3821 55.8442ZM81.6836 54.9576L81.4671 55.4083L81.4671 55.4083L81.6836 54.9576ZM81.4746 54.8572L81.6912 54.4065L81.6912 54.4065L81.4746 54.8572ZM80.8435 54.5539L80.6269 55.0046L80.6269 55.0046L80.8435 54.5539ZM80.2123 54.2506L80.4289 53.8L80.4288 53.8L80.2123 54.2506ZM79.0762 53.4622L79.4227 53.1016L79.0762 53.4622ZM78.3188 52.7342L78.6652 52.3737L78.3188 52.7342ZM78.0181 52.4453L77.6716 52.8058H77.6716L78.0181 52.4453ZM71.6915 50.6113L71.345 50.9718L71.6915 50.6113ZM71.6034 50.5267L71.9499 50.1662V50.1662L71.6034 50.5267ZM70.5172 50.0893L70.8636 49.7288V49.7288L70.5172 50.0893ZM70.438 50.0133L70.0915 50.3738L70.0915 50.3738L70.438 50.0133ZM70.3074 45.0353L69.9609 45.3958V45.3958L70.3074 45.0353ZM70.1135 44.849L69.7267 45.1658L69.7456 45.1889L69.7671 45.2095L70.1135 44.849ZM69.9005 42.9148L69.4231 42.7663V42.7663L69.9005 42.9148ZM70.4291 41.4309L70.8727 41.6617L70.4291 41.4309ZM70.5957 41.0728L71.0591 41.2606L71.0591 41.2606L70.5957 41.0728ZM70.7796 40.0185L71.2785 40.0524V40.0524L70.7796 40.0185ZM70.7844 39.9485L71.2832 39.9832V39.9831L70.7844 39.9485ZM71.0277 36.4413L71.5265 36.4759V36.4759L71.0277 36.4413ZM71.3029 35.5687L70.8744 35.3109L70.8744 35.3109L71.3029 35.5687ZM71.4656 35.3378L71.8524 35.6547L71.8525 35.6545L71.4656 35.3378ZM71.4787 35.3218L71.0919 35.005L71.0918 35.0051L71.4787 35.3218ZM71.971 34.876L72.248 35.2923H72.248L71.971 34.876ZM72.8324 34.303L72.5554 33.8867L72.5554 33.8867L72.8324 34.303ZM75.6541 28.2029L75.2105 28.4337L75.6541 28.2029ZM75.4785 27.8654L75.9221 27.6346V27.6346L75.4785 27.8654ZM74.6955 26.7598L74.3306 27.1016L74.6955 26.7598ZM73.0912 25.0467L73.4562 24.705V24.705L73.0912 25.0467ZM71.3759 23.6195L71.6456 23.1985L71.6199 23.182L71.5924 23.1688L71.3759 23.6195ZM70.7447 23.3162L70.9613 22.8655L70.9301 22.8506L70.8972 22.84L70.7447 23.3162ZM69.798 23.0129L69.9505 22.5368L69.9372 22.5325L69.9238 22.529L69.798 23.0129ZM69.1885 22.7897L68.9719 23.2403L68.9719 23.2404L69.1885 22.7897ZM68.8512 22.6276L68.6346 23.0783V23.0783L68.8512 22.6276ZM68.48 22.4492L68.6965 21.9986L68.6965 21.9986L68.48 22.4492ZM67.9982 22.14L67.6787 22.5246L67.9982 22.14ZM67.927 22.0809L67.6075 22.4654L67.6075 22.4654L67.927 22.0809ZM67.4056 21.4001L67.8602 21.1917V21.1917L67.4056 21.4001ZM67.2404 20.7952L67.7377 20.7434V20.7434L67.2404 20.7952ZM66.9577 18.0784H66.4577V18.1044L66.4604 18.1302L66.9577 18.0784ZM66.7999 16.8653L66.3563 17.0961L66.3563 17.0961L66.7999 16.8653ZM66.7442 16.7583L67.1878 16.5276L67.1878 16.5275L66.7442 16.7583ZM66.4127 15.7351L66.7592 15.3746L66.7592 15.3746L66.4127 15.7351ZM66.2187 15.6004L66.4352 15.1497V15.1497L66.2187 15.6004ZM65.6953 15.3489L65.9119 14.8983L65.9119 14.8983L65.6953 15.3489ZM65.2524 15.1361L65.469 14.6854L65.2524 15.1361ZM64.9035 14.9122L65.2231 14.5276L65.2231 14.5276L64.9035 14.9122ZM62.7155 14.9585L62.3691 14.598L62.3691 14.598L62.7155 14.9585ZM62.5395 15.1277L62.8731 15.5001L62.8796 15.4942L62.8859 15.4882L62.5395 15.1277ZM61.7511 15.834L61.4175 15.4616L61.7511 15.834ZM60.6459 16.3408V16.8408H60.6783L60.7104 16.8366L60.6459 16.3408ZM59.8286 16.086L60.2322 15.791V15.791L59.8286 16.086ZM59.068 15.0456L58.6396 15.3034L58.6511 15.3226L58.6644 15.3407L59.068 15.0456ZM58.7524 14.5211L58.2979 14.7295L58.3096 14.7549L58.324 14.7789L58.7524 14.5211ZM58.3563 13.0794L58.8535 13.0262V13.0262L58.3563 13.0794ZM58.2143 11.7522L57.7172 11.8054L58.2143 11.7522ZM57.4901 10.2752L57.8365 9.91472L57.8365 9.91471L57.4901 10.2752ZM57.1496 9.94798L57.496 9.58746L57.496 9.58746L57.1496 9.94798ZM56.0222 9.76744L55.8056 9.31677L56.0222 9.76744ZM55.8571 9.84675L55.6406 9.39607L55.6406 9.39607L55.8571 9.84675ZM55.3881 10.1723L55.0417 9.81175V9.81175L55.3881 10.1723ZM54.9654 10.5785L55.3118 10.939V10.939L54.9654 10.5785ZM54.8705 10.6697L54.524 10.3092V10.3092L54.8705 10.6697ZM54.492 11.1441L54.0636 10.8863L54.0636 10.8863L54.492 11.1441ZM54.3901 11.3134L54.8185 11.5712L54.8185 11.5712L54.3901 11.3134ZM54.256 11.4814L54.6025 11.8419L54.6025 11.8419L54.256 11.4814ZM53.1819 11.6108L52.9654 12.0615L52.9654 12.0615L53.1819 11.6108ZM53.1146 11.5785L52.898 12.0291L52.898 12.0291L53.1146 11.5785ZM52.5513 11.0657L52.9798 10.8079L52.9798 10.8079L52.5513 11.0657ZM52.5125 11.0011L52.0841 11.2589L52.0841 11.2589L52.5125 11.0011ZM52.3492 10.7769L52.7259 10.4482V10.4482L52.3492 10.7769ZM51.6017 9.91997L51.2249 10.2487V10.2487L51.6017 9.91997ZM51.2761 9.3526L51.75 9.19316V9.19316L51.2761 9.3526ZM51.2321 9.22193L50.7582 9.38136L50.7582 9.38137L51.2321 9.22193ZM51.0715 8.93167L50.6847 9.24849L50.6847 9.24849L51.0715 8.93167ZM50.8351 7.93739L51.3246 7.83554L51.3246 7.83552L50.8351 7.93739ZM50.592 6.76941L50.1025 6.87128L50.1025 6.87129L50.592 6.76941ZM50.0343 4.92984L49.6878 5.29035L49.6878 5.29036L50.0343 4.92984ZM49.7779 4.72775L49.5082 5.14876V5.14876L49.7779 4.72775ZM49.5007 4.55015L49.231 4.97115V4.97115L49.5007 4.55015ZM47.8547 4.12902L48.0712 3.67835L48.0712 3.67835L47.8547 4.12902ZM47.5881 4.00095L47.3716 4.45162L47.3716 4.45162L47.5881 4.00095ZM47.3521 3.52777L46.9086 3.75855L46.9086 3.75855L47.3521 3.52777ZM47.2335 3.29982L46.79 3.53059V3.5306L47.2335 3.29982ZM47.0904 2.22322L47.5831 2.30866V2.30866L47.0904 2.22322ZM47.1182 2.063L46.6256 1.97756V1.97756L47.1182 2.063ZM45.8995 1.06173L45.7201 0.595021L45.7201 0.595024L45.8995 1.06173ZM45.7357 1.1446L45.466 0.72359V0.72359L45.7357 1.1446ZM43.9199 2.30794L44.1485 2.75262L44.1696 2.74176L44.1896 2.72895L43.9199 2.30794ZM42.5804 2.99654L42.3518 2.55186L42.3367 2.55962L42.3222 2.56838L42.5804 2.99654ZM40.9784 4.2248L41.3248 4.58532V4.58532L40.9784 4.2248ZM40.7639 4.43089L41.0619 4.83242L41.0874 4.81346L41.1104 4.79141L40.7639 4.43089ZM40.0443 4.96493L40.3422 5.36645V5.36645L40.0443 4.96493ZM38.7244 5.73307L38.5225 5.27567V5.27567L38.7244 5.73307ZM38.4537 5.85258L38.2518 5.39517V5.39517L38.4537 5.85258ZM38.0417 6.07379L38.3115 6.49479L38.3115 6.49479L38.0417 6.07379ZM33.2564 7.31994L33.5261 7.74095V7.74095L33.2564 7.31994ZM33.034 7.46239L32.7643 7.04138L32.7643 7.04138L33.034 7.46239ZM32.1516 8.15817L32.498 8.51869V8.51869L32.1516 8.15817ZM31.6119 8.6768L31.2654 8.31628L31.2654 8.31629L31.6119 8.6768ZM31.4851 13.5889L31.0415 13.8196L31.0415 13.8196L31.4851 13.5889ZM31.5557 13.7245L31.9992 13.4937L31.9992 13.4937L31.5557 13.7245ZM31.6997 13.9169L32.0462 13.5564L32.0461 13.5564L31.6997 13.9169ZM31.2963 17.7752L30.8527 17.5444L31.2963 17.7752ZM29.7692 20.0214L30.147 20.349L29.7692 20.0214ZM29.0872 20.8079L29.4336 21.1685L29.45 21.1527L29.4649 21.1355L29.0872 20.8079ZM28.3333 24.9864L28.7769 25.2171L28.7769 25.2171L28.3333 24.9864ZM27.873 25.6783L27.4888 25.3584L27.873 25.6783ZM27.6847 25.9046L28.069 26.2245L28.069 26.2245L27.6847 25.9046ZM25.7013 27.3259L25.8807 27.7926V27.7926L25.7013 27.3259ZM24.8781 27.5612L24.7837 27.0702H24.7837L24.8781 27.5612ZM24.4532 27.6429L24.3588 27.1519L24.4532 27.6429ZM23.0955 28.1849L23.3652 28.6059H23.3652L23.0955 28.1849ZM22.5014 28.6533L22.8479 29.0138V29.0138L22.5014 28.6533ZM22.0217 29.1143L21.6752 28.7538L22.0217 29.1143ZM21.6762 29.5196L22.087 29.8046L22.087 29.8046L21.6762 29.5196ZM21.4856 35.2596L21.0017 35.3855V35.3855L21.4856 35.2596ZM21.5131 35.3653L21.0292 35.4912L21.0342 35.5104L21.0407 35.5292L21.5131 35.3653ZM21.7256 35.978L21.2532 36.1418L21.7256 35.978ZM21.9739 36.5542L21.5303 36.785L21.5303 36.785L21.9739 36.5542ZM21.3548 40.7483L21.5714 40.2976H21.5713L21.3548 40.7483ZM20.7225 40.4444L20.939 39.9938L20.939 39.9937L20.7225 40.4444ZM19.8567 39.8735L19.5277 40.25L19.8567 39.8735ZM17.1324 37.4935L16.8035 37.87V37.87L17.1324 37.4935ZM16.3294 37.0409L16.1768 37.517H16.1768L16.3294 37.0409ZM15.456 36.5199L15.8025 36.1594L15.8025 36.1594L15.456 36.5199ZM14.8858 36.1235L14.6693 36.5742L14.6693 36.5742L14.8858 36.1235ZM14.6825 36.0258L14.4659 36.4765L14.4659 36.4765L14.6825 36.0258ZM14.4804 35.8856L14.8269 35.5251L14.8269 35.5251L14.4804 35.8856ZM8.88966 35.3653L9.23611 35.0048H9.23611L8.88966 35.3653ZM7.31897 34.9139L7.10242 35.3646H7.10242L7.31897 34.9139ZM6.99614 34.7588L6.7796 35.2094L6.99614 34.7588ZM3.2091 35.062L2.93938 34.641L2.92134 34.6526L2.90435 34.6656L3.2091 35.062ZM2.66041 35.4839L2.35566 35.0875H2.35566L2.66041 35.4839ZM1.899 42.6071L1.43739 42.415L1.899 42.6071ZM1.63117 43.2506L2.07473 43.4813L2.08458 43.4624L2.09278 43.4427L1.63117 43.2506ZM1.27996 43.9256L0.836406 43.6948H0.836405L1.27996 43.9256ZM1.13361 45.9336L0.690056 46.1644L0.690057 46.1644L1.13361 45.9336ZM1.67096 46.4541L1.45441 46.9048L1.45442 46.9048L1.67096 46.4541ZM1.78556 46.5092L2.00211 46.0585L2.0021 46.0585L1.78556 46.5092ZM2.07571 46.7106L1.72926 47.0711H1.72926L2.07571 46.7106ZM2.50885 46.9689L2.66138 46.4927H2.66138L2.50885 46.9689ZM2.90856 47.0969L3.0611 46.6208L2.90856 47.0969ZM8.89999 47.5909L9.16972 48.012L9.16973 48.0119L8.89999 47.5909ZM8.93121 47.5709L8.66148 47.1499L8.66147 47.1499L8.93121 47.5709ZM10.152 47.4965L10.3686 47.0458H10.3686L10.152 47.4965ZM10.7832 47.7998L10.5666 48.2504H10.5666L10.7832 47.7998ZM11.0198 47.9135L10.8033 48.3641L10.8033 48.3641L11.0198 47.9135ZM11.7299 47.7998L12.065 48.1709L11.7299 47.7998ZM12.7619 47.0376L13.0358 47.4559L13.0358 47.4559L12.7619 47.0376ZM13.1915 46.6984L13.538 47.059L13.538 47.0589L13.1915 46.6984ZM14.189 46.1022L14.0364 45.626H14.0364L14.189 46.1022ZM17.2361 46.6385L17.6469 46.3535L17.6469 46.3535L17.2361 46.6385ZM17.6682 47.055L17.3984 47.476L17.3984 47.476L17.6682 47.055ZM17.7304 47.0949L18.0001 46.6739L18.0001 46.6739L17.7304 47.0949ZM18.5447 48.217L19.0286 48.0911L18.5447 48.217ZM18.5743 48.3307L18.0904 48.4566V48.4566L18.5743 48.3307ZM18.896 49.0312L19.3068 48.7462L19.3068 48.7462L18.896 49.0312ZM18.97 49.138L18.5592 49.423L18.5592 49.423L18.97 49.138ZM19.7974 49.9355L19.5276 50.3565L19.5276 50.3565L19.7974 49.9355ZM19.9389 50.0262L19.6692 50.4472H19.6692L19.9389 50.0262ZM20.5178 50.4826L20.8643 50.1221L20.8643 50.1221L20.5178 50.4826ZM20.6784 50.6369L20.3319 50.9974L20.3319 50.9974L20.6784 50.6369ZM21.1196 50.9848L20.8499 51.4058L20.8499 51.4058L21.1196 50.9848ZM21.2972 51.0986L21.567 50.6776H21.567L21.2972 51.0986ZM22.4599 51.4391L22.9595 51.4595L22.9808 50.9391H22.4599V51.4391ZM22.4463 51.7715L21.9467 51.751L22.8826 52.0157L22.4463 51.7715ZM23.1377 51.3588L23.5812 51.5895L23.1377 51.3588ZM23.2469 51.1488L23.6905 51.3796L23.2469 51.1488ZM23.519 50.8511L23.2493 50.4301L23.2493 50.4301L23.519 50.8511ZM23.7945 50.6746L24.0642 51.0956H24.0642L23.7945 50.6746ZM30.128 48.841L30.457 49.2175L30.128 48.841ZM31.742 47.431L31.413 47.0545L31.413 47.0545L31.742 47.431ZM31.9389 47.1805L31.4954 46.9497L31.4954 46.9497L31.9389 47.1805ZM34.5466 47.0211L34.9901 46.7903L34.9901 46.7903L34.5466 47.0211ZM34.5587 47.0444L34.1151 47.2752V47.2752L34.5587 47.0444ZM36.0394 46.8268L35.6453 46.5191L36.0394 46.8268ZM36.477 46.2661L36.8712 46.5737L36.8712 46.5737L36.477 46.2661ZM36.7395 45.9751L36.393 45.6146L36.7395 45.9751ZM37.8602 44.8981L37.5679 44.4925L37.5392 44.5131L37.5138 44.5376L37.8602 44.8981ZM38.6722 44.3128L38.3799 43.9072L38.3799 43.9072L38.6722 44.3128ZM40.4224 44.1579L40.6389 43.7072L40.6389 43.7072L40.4224 44.1579ZM41.1812 44.5225L41.3977 44.0718L41.1812 44.5225ZM42.594 45.5047L42.9405 45.1441L42.9405 45.1441L42.594 45.5047ZM42.7518 52.1768L43.1954 52.4076V52.4076L42.7518 52.1768ZM42.6332 52.4047L43.0768 52.6355L43.0768 52.6355L42.6332 52.4047ZM42.7908 52.8779L42.5743 53.3286L42.7908 52.8779ZM43.2252 53.0866L43.0086 53.5373L43.0398 53.5523L43.0727 53.5628L43.2252 53.0866ZM43.5441 53.1888L43.6966 52.7126H43.6966L43.5441 53.1888ZM44.813 53.2359L44.6962 52.7497L44.813 53.2359ZM45.263 53.1278L45.3798 53.614L45.3798 53.614L45.263 53.1278ZM45.5613 52.9646L45.9078 53.3251V53.3251L45.5613 52.9646ZM46.639 55.0812L47.0332 55.3888L47.0332 55.3888L46.639 55.0812ZM46.2938 55.5235L45.8997 55.2159L45.8997 55.2159L46.2938 55.5235ZM45.7529 56.0164L46.0226 56.4374L46.0226 56.4374L45.7529 56.0164ZM45.6643 56.0732L45.3946 55.6521L45.3946 55.6522L45.6643 56.0732ZM44.9064 57.0349L45.3788 57.1987L44.9064 57.0349ZM43.9284 60.2961L43.582 59.9355L43.582 59.9356L43.9284 60.2961ZM43.8564 60.3653L44.1487 60.7709L44.1774 60.7503L44.2028 60.7258L43.8564 60.3653ZM41.3317 62.185L41.0393 61.7794L41.3317 62.185ZM40.64 62.6835L40.9323 63.0892V63.0892L40.64 62.6835ZM38.3171 62.8258L38.5577 62.3875L38.3171 62.8258ZM37.4277 62.3374L37.1871 62.7757H37.1871L37.4277 62.3374ZM34.1292 61.9316L34.0349 61.4406H34.0349L34.1292 61.9316ZM33.1086 62.1278L33.0143 61.6367H33.0143L33.1086 62.1278ZM32.6709 62.454L32.2273 62.2232L32.6709 62.454ZM30.8699 62.4427L30.5235 62.8032L30.5235 62.8032L30.8699 62.4427ZM30.7813 62.3576L31.1278 61.9971L31.1278 61.9971L30.7813 62.3576ZM30.3772 62.0771L30.5937 61.6264L30.3772 62.0771ZM29.9706 61.8817L29.7008 62.3027L29.7265 62.3192L29.754 62.3324L29.9706 61.8817ZM29.3241 61.4676L29.5938 61.0465L29.5938 61.0465L29.3241 61.4676ZM28.8592 60.9588L28.4156 61.1895L28.4156 61.1895L28.8592 60.9588ZM28.4066 58.8167L28.3535 59.3139H28.3536L28.4066 58.8167ZM26.2049 58.5816L26.258 58.0845H26.258L26.2049 58.5816ZM25.5826 58.3629L25.3129 58.7839L25.3129 58.7839L25.5826 58.3629ZM24.1011 54.209L23.8845 54.6596L23.8845 54.6597L24.1011 54.209ZM23.915 54.1196L23.6985 54.5702L23.915 54.1196ZM23.4539 53.7995L23.1074 54.16L23.1074 54.16L23.4539 53.7995ZM23.1301 53.4884L22.7837 53.8489L22.7837 53.8489L23.1301 53.4884ZM22.8996 53.3284L23.1161 52.8777L23.1161 52.8777L22.8996 53.3284ZM22.4092 52.6782L22.902 52.5939L21.9096 52.6577L22.4092 52.6782ZM22.3965 52.9883L22.5429 53.4664L22.8816 53.3626L22.8961 53.0087L22.3965 52.9883ZM21.662 53.2132L21.5156 52.7351L21.5156 52.7351L21.662 53.2132ZM21.3727 53.3262L21.5893 53.7769H21.5893L21.3727 53.3262ZM20.5716 54.0094L20.9824 54.2944L20.9824 54.2944L20.5716 54.0094ZM20.2508 54.4719L19.8399 54.1869L19.8219 54.213L19.8072 54.2411L20.2508 54.4719ZM20.0288 54.8985L19.5853 54.6677L20.0288 54.8985ZM19.8841 55.2748L20.368 55.4006L19.8841 55.2748ZM19.7057 55.9607L19.2218 55.8348V55.8348L19.7057 55.9607ZM19.8661 56.5284L20.2125 56.1679H20.2125L19.8661 56.5284ZM19.9794 56.6799L19.5359 56.9106L19.5359 56.9106L19.9794 56.6799ZM20.2508 57.2014L19.8072 57.4322L19.8219 57.4603L19.8399 57.4864L20.2508 57.2014ZM20.727 57.8879L20.3162 58.1729V58.1729L20.727 57.8879ZM21.1269 58.2289L21.3435 57.7783H21.3435L21.1269 58.2289ZM21.6535 58.8193L22.1259 58.6555L21.6535 58.8193ZM21.7378 59.0622L22.2102 58.8983H22.2102L21.7378 59.0622ZM21.318 61.4712L21.0482 61.0502L21.318 61.4712ZM21.026 61.6583L21.2957 62.0793V62.0793L21.026 61.6583ZM20.7586 61.8691L20.4121 61.5086L20.4121 61.5086L20.7586 61.8691ZM20.3138 62.2965L20.6603 62.657H20.6603L20.3138 62.2965ZM19.4951 62.9469L19.2223 62.5279H19.2223L19.4951 62.9469ZM18.1887 63.7976L17.9159 63.3786L18.1887 63.7976ZM17.7818 64.3186L18.2544 64.4818V64.4818L17.7818 64.3186ZM19.9352 71.1522L20.2816 70.7917L20.2816 70.7917L19.9352 71.1522ZM19.9785 71.1939L19.6321 71.5544L19.6321 71.5544L19.9785 71.1939ZM20.0765 71.7904L19.6329 71.5597H19.6329L20.0765 71.7904ZM17.0949 72.062L17.0353 72.5585L17.065 72.562H17.0949V72.062ZM14.5702 71.7588L14.4534 72.2449L14.4817 72.2517L14.5106 72.2552L14.5702 71.7588ZM13.6793 71.5447L13.7961 71.0586L13.7961 71.0585L13.6793 71.5447ZM10.4473 72.6172L10.063 72.2973H10.063L10.4473 72.6172ZM10.152 72.9719L10.4985 73.3324L10.5185 73.3131L10.5363 73.2918L10.152 72.9719ZM8.45145 74.6061L8.105 74.2456H8.105L8.45145 74.6061ZM8.10594 75.0115L7.69511 74.7264L7.69511 74.7265L8.10594 75.0115ZM7.70163 77.432L8.17402 77.2682L7.70163 77.432ZM8.65877 78.2996L8.54196 78.7858H8.54197L8.65877 78.2996ZM9.20525 78.4309L9.08845 78.9171L9.10717 78.9216L9.12617 78.9246L9.20525 78.4309ZM10.9052 78.7032L10.8261 79.1969H10.8261L10.9052 78.7032ZM11.2855 78.794L11.438 78.3178L11.438 78.3178L11.2855 78.794ZM12.5365 79.6666L12.9307 79.359H12.9307L12.5365 79.6666ZM14.7641 82.5209L15.1583 82.2132L14.7641 82.5209ZM15.0284 82.8139L15.3749 82.4534L15.3749 82.4533L15.0284 82.8139ZM15.3408 83.1141L14.9943 83.4746L14.9943 83.4746L15.3408 83.1141ZM17.0314 83.5059L16.8789 83.0297H16.8789L17.0314 83.5059ZM17.7261 83.2834L17.6317 82.7924L17.6022 82.798L17.5735 82.8072L17.7261 83.2834ZM18.0644 83.2183L18.1587 83.7094L18.0644 83.2183ZM22.0723 83.2142L22.4188 82.8537L22.4188 82.8537L22.0723 83.2142ZM22.2837 84.0944L21.8114 83.9306L22.2837 84.0944ZM22.2304 84.2483L22.7028 84.4122L22.2304 84.2483ZM21.9549 84.6785L21.6085 84.318H21.6084L21.9549 84.6785ZM19.7662 86.7818L19.4198 86.4213H19.4198L19.7662 86.7818ZM19.6937 91.9866L19.324 92.3232V92.3232L19.6937 91.9866ZM20.8819 93.2915L21.2662 92.9716L21.2591 92.9631L21.2516 92.9549L20.8819 93.2915ZM22.1443 94.808L21.76 95.1278H21.76L22.1443 94.808ZM23.4066 96.3243L23.0224 96.6442L23.0278 96.6508L23.0335 96.6572L23.4066 96.3243ZM25.3002 98.4473L25.6844 98.1274L25.679 98.1208L25.6733 98.1145L25.3002 98.4473ZM26.375 99.7384L26.7593 99.4185L26.7593 99.4185L26.375 99.7384ZM26.6586 100.241L27.1309 100.077L27.1309 100.077L26.6586 100.241ZM26.7298 100.446L26.2574 100.61L26.2574 100.61L26.7298 100.446ZM27.286 101.07L27.5026 100.619L27.5026 100.619L27.286 101.07ZM34.4522 100.874L34.3354 100.387L34.3173 100.392L34.2996 100.397L34.4522 100.874ZM35.3181 100.665L35.4349 101.152H35.4349L35.3181 100.665ZM38.2202 99.857L37.9154 99.4606L38.2202 99.857ZM39.4636 98.9011L39.1588 98.5047L39.4636 98.9011ZM43.9741 98.9458L43.6616 99.336L43.9741 98.9458ZM44.8665 99.6604L45.1791 99.2701L44.8665 99.6604ZM47.9913 102.163L48.3039 101.773L48.3039 101.773L47.9913 102.163ZM49.4784 102.891L49.3616 103.378H49.3616L49.4784 102.891ZM49.741 102.954L49.8578 102.468H49.8577L49.741 102.954ZM50.9251 102.75L51.1981 103.169L51.1981 103.169L50.9251 102.75ZM54.1305 100.661L54.4035 101.08L54.4035 101.08L54.1305 100.661ZM54.5763 100.226L54.1642 99.9433L54.5763 100.226ZM55.6435 99.5518L55.7225 100.045H55.7225L55.6435 99.5518ZM56.4453 99.4234L56.3662 98.9296H56.3662L56.4453 99.4234ZM57.1608 99.0669L56.8143 98.7064L56.8143 98.7064L57.1608 99.0669ZM57.5571 98.299L58.0517 98.3725L57.5571 98.299ZM57.5975 98.027L57.103 97.9535L57.5975 98.027ZM59.2149 96.504L59.2586 97.0021H59.2586L59.2149 96.504ZM59.5711 96.436L59.7141 96.9151L59.7141 96.9151L59.5711 96.436ZM60.29 96.2215L60.433 96.7006H60.433L60.29 96.2215ZM61.3608 95.4453L61.7717 95.7303L61.7717 95.7303L61.3608 95.4453ZM61.6754 94.7132L62.1649 94.815L61.6754 94.7132ZM61.8105 94.064L61.321 93.9622L61.8105 94.064ZM62.3402 93.3873L62.1236 92.9366L62.1236 92.9366L62.3402 93.3873ZM66.4842 93.7465L66.1377 94.107L66.1377 94.107L66.4842 93.7465ZM69.0999 93.8217L68.8208 93.4069H68.8208L69.0999 93.8217ZM71.6914 92.0785L71.9704 92.4933L71.9771 92.4888L71.9837 92.4841L71.6914 92.0785ZM72.6356 91.3979L72.3433 90.9922L72.3432 90.9922L72.6356 91.3979ZM73.1772 90.8464L73.588 91.1314L73.1772 90.8464ZM73.7668 87.4365L74.1132 87.797L74.1132 87.797L73.7668 87.4365ZM74.0835 87.2787L74.1626 87.7724H74.1626L74.0835 87.2787ZM75.3432 87.077L75.4223 87.5707L75.3432 87.077ZM76.1784 87.251L76.4481 86.83L76.4481 86.83L76.1784 87.251ZM76.2964 87.3266L76.0266 87.7476V87.7476L76.2964 87.3266ZM77.2164 87.3827L77.433 87.8334L77.2164 87.3827ZM77.491 87.1832L77.8527 87.5285L77.8527 87.5285L77.491 87.1832ZM78.3187 86.3162L77.9722 85.9556L77.9644 85.9631L77.957 85.9709L78.3187 86.3162ZM78.7126 85.9376L79.059 86.2981V86.2981L78.7126 85.9376ZM80.0652 85.1154L79.5842 84.9789V84.9789L80.0652 85.1154ZM80.8342 82.4063L81.3152 82.5428L81.3152 82.5427L80.8342 82.4063ZM23.5824 50.7199L23.8521 51.141L23.8521 51.141L23.5824 50.7199ZM23.8579 50.5434L23.5882 50.1224L23.5882 50.1224L23.8579 50.5434ZM30.1914 48.7099L30.5204 49.0864L30.1914 48.7099ZM31.8054 47.2999L31.4764 46.9233L31.4764 46.9233L31.8054 47.2999ZM34.61 46.8899L35.0535 46.6591L35.0535 46.6591L34.61 46.8899ZM34.6221 46.9132L34.1785 47.144V47.144L34.6221 46.9132ZM36.1028 46.6956L35.7087 46.388L36.1028 46.6956ZM36.5404 46.1349L36.9346 46.4426L36.9346 46.4425L36.5404 46.1349ZM36.8029 45.844L36.4564 45.4835L36.8029 45.844ZM37.9236 44.767L37.6313 44.3613L37.6026 44.382L37.5772 44.4065L37.9236 44.767ZM38.7356 44.1817L38.4433 43.7761L38.4433 43.7761L38.7356 44.1817ZM40.4857 44.0268L40.2692 44.4774H40.2692L40.4857 44.0268ZM41.2446 44.3914L41.028 44.8421L41.028 44.8421L41.2446 44.3914ZM42.8152 52.0457L43.2588 52.2764L43.2588 52.2764L42.8152 52.0457ZM42.8542 52.7468L42.6377 53.1975L42.6377 53.1975L42.8542 52.7468ZM43.2886 52.9555L43.072 53.4062L43.1031 53.4211L43.136 53.4317L43.2886 52.9555ZM43.6075 53.0577L43.455 53.5338L43.455 53.5338L43.6075 53.0577ZM44.8764 53.1048L44.9932 53.5909V53.5909L44.8764 53.1048ZM45.3264 52.9967L45.2096 52.5105L45.3264 52.9967ZM45.6247 52.8334L45.9712 53.1939V53.1939L45.6247 52.8334ZM42.6574 45.3735L43.0039 45.013L43.0039 45.013L42.6574 45.3735ZM23.3103 51.0177L22.8667 50.7869L23.3103 51.0177ZM44.9698 56.9037L44.4974 56.7399V56.7399L44.9698 56.9037ZM32.0023 47.0494L32.4459 47.2801L32.4459 47.2801L32.0023 47.0494ZM80.3435 81.849V82.3735H81.3435V81.849H80.3435ZM80.4022 81.1625C80.3632 81.3892 80.3435 81.6186 80.3435 81.849H81.3435C81.3435 81.6758 81.3583 81.5032 81.3877 81.3321L80.4022 81.1625ZM80.6591 79.644C80.6591 79.607 80.664 79.5853 80.6564 79.6387C80.652 79.6698 80.6452 79.7138 80.6365 79.7692C80.6191 79.8795 80.5948 80.0275 80.5674 80.1912C80.5128 80.5182 80.4469 80.9028 80.4022 81.1625L81.3877 81.3321C81.4325 81.072 81.4987 80.6854 81.5537 80.356C81.5812 80.1915 81.6061 80.0399 81.6243 79.9251C81.6333 79.868 81.6409 79.8181 81.6464 79.7795C81.6487 79.7633 81.6591 79.6963 81.6591 79.644H80.6591ZM80.7514 79.02C80.7272 79.1654 80.7055 79.2956 80.6899 79.3928C80.6822 79.4413 80.6755 79.4839 80.6707 79.5173C80.6689 79.5295 80.6591 79.5922 80.6591 79.644H81.6591C81.6591 79.6744 81.6558 79.6963 81.6573 79.6835C81.6577 79.6802 81.6586 79.6727 81.6605 79.6599C81.6641 79.6346 81.6698 79.5982 81.6773 79.5512C81.6923 79.4575 81.7134 79.3308 81.7378 79.1842L80.7514 79.02ZM80.9746 77.5211C80.9746 77.5203 80.9746 77.5247 80.974 77.5357C80.9734 77.5462 80.9723 77.56 80.9707 77.5775C80.9675 77.6127 80.9625 77.6574 80.9557 77.7111C80.9423 77.8184 80.923 77.9522 80.9004 78.1005C80.8552 78.3967 80.7983 78.7386 80.7514 79.02L81.7378 79.1842C81.7844 78.9043 81.8425 78.5555 81.889 78.2514C81.932 77.9691 81.9746 77.6683 81.9746 77.5211H80.9746ZM80.9746 76.6933V77.5211H81.9746V76.6933H80.9746ZM80.9746 73.9638V76.6933H81.9746V73.9638H80.9746ZM81.8264 72.946C81.7442 72.973 81.5347 73.0373 81.352 73.1799C81.1426 73.3434 80.9746 73.6027 80.9746 73.9638H81.9746C81.9746 73.9446 81.978 73.9476 81.9715 73.96C81.9659 73.9709 81.9608 73.9733 81.9673 73.9682C81.9755 73.9619 81.9927 73.951 82.0243 73.9372C82.0568 73.9232 82.091 73.9117 82.1386 73.896L81.8264 72.946ZM81.6058 73.3572C81.6058 73.1621 81.7165 73.0424 81.7656 72.999C81.8139 72.9563 81.857 72.9371 81.8616 72.935C81.8723 72.93 81.8743 72.9302 81.8264 72.946L82.1386 73.896C82.1633 73.8879 82.227 73.8678 82.2812 73.8427C82.3076 73.8305 82.3678 73.8014 82.4279 73.7483C82.4888 73.6945 82.6058 73.5639 82.6058 73.3572H81.6058ZM81.6058 72.2211V73.3572H82.6058V72.2211H81.6058ZM81.9779 70.7002C81.7335 71.1699 81.6058 71.6915 81.6058 72.2211H82.6058C82.6058 71.8522 82.6947 71.489 82.865 71.1618L81.9779 70.7002ZM82.2424 70.1918L81.9779 70.7002L82.865 71.1618L83.1295 70.6533L82.2424 70.1918ZM82.237 70.2138C82.237 70.2061 82.2388 70.1986 82.2424 70.1918L83.1295 70.6533C83.2001 70.5176 83.237 70.3668 83.237 70.2138H82.237ZM82.5294 69.5271C82.3426 69.7067 82.237 69.9546 82.237 70.2138H83.237C83.237 70.2268 83.2317 70.2392 83.2224 70.2481L82.5294 69.5271ZM83.1393 68.9411L82.5294 69.5271L83.2224 70.2482L83.8322 69.6621L83.1393 68.9411ZM83.367 68.6369C83.3081 68.75 83.2312 68.8527 83.1393 68.9411L83.8322 69.6621C84.0025 69.4984 84.145 69.308 84.2541 69.0984L83.367 68.6369ZM83.4774 68.4246L83.367 68.6369L84.2541 69.0984L84.3645 68.8862L83.4774 68.4246ZM83.4993 68.3349C83.4993 68.3662 83.4918 68.3969 83.4774 68.4246L84.3645 68.8862C84.4531 68.7159 84.4993 68.5268 84.4993 68.3349H83.4993ZM84.1764 67.2584C83.7626 67.4572 83.4993 67.8757 83.4993 68.3349H84.4993C84.4993 68.2602 84.5422 68.1921 84.6095 68.1597L84.1764 67.2584ZM84.2273 67.2339L84.1765 67.2584L84.6095 68.1597L84.6604 68.1353L84.2273 67.2339ZM84.3377 67.1398C84.3097 67.1802 84.2717 67.2126 84.2273 67.2339L84.6604 68.1353C84.8607 68.039 85.0327 67.8924 85.1594 67.7098L84.3377 67.1398ZM84.5086 66.8935L84.3377 67.1398L85.1594 67.7098L85.3302 67.4635L84.5086 66.8935ZM84.7617 66.0785C84.7617 66.3693 84.6725 66.6572 84.5086 66.8935L85.3302 67.4635C85.6121 67.0572 85.7617 66.5697 85.7617 66.0785H84.7617ZM84.7617 65.472V66.0785H85.7617V65.472H84.7617ZM84.678 65.2045C84.7325 65.283 84.7617 65.3763 84.7617 65.472H85.7617C85.7617 65.1726 85.6703 64.8804 85.4996 64.6345L84.678 65.2045ZM84.3144 64.6803L84.678 65.2045L85.4996 64.6345L85.136 64.1103L84.3144 64.6803ZM84.1643 64.5043C84.22 64.5578 84.2703 64.6168 84.3144 64.6803L85.136 64.1103C85.0541 63.9923 84.9608 63.8828 84.8572 63.7832L84.1643 64.5043ZM84.0902 64.4331L84.1643 64.5043L84.8572 63.7832L84.7831 63.712L84.0902 64.4331ZM83.4993 63.0457C83.4993 63.5693 83.7127 64.0703 84.0902 64.4331L84.7831 63.7121C84.6018 63.5378 84.4993 63.2972 84.4993 63.0457H83.4993ZM83.4993 62.7424V63.0457H84.4993V62.7424H83.4993ZM83.4993 62.2826V62.7424H84.4993V62.2826H83.4993ZM83.9773 61.1603C83.6719 61.4538 83.4993 61.8591 83.4993 62.2826H84.4993C84.4993 62.1312 84.5611 61.9863 84.6703 61.8813L83.9773 61.1603ZM84.1534 60.9911L83.9773 61.1603L84.6702 61.8813L84.8463 61.7121L84.1534 60.9911ZM84.8117 60.7261C84.5663 60.7261 84.3304 60.821 84.1534 60.9911L84.8463 61.7121C84.837 61.7211 84.8246 61.7261 84.8117 61.7261V60.7261ZM84.9584 60.7261H84.8117V61.7261H84.9584V60.7261ZM84.7617 60.9228C84.7617 60.8141 84.8497 60.7261 84.9584 60.7261V61.7261C85.4021 61.7261 85.7617 61.3664 85.7617 60.9228H84.7617ZM85.565 60.1195C85.1213 60.1195 84.7617 60.4791 84.7617 60.9228H85.7617C85.7617 61.0314 85.6736 61.1195 85.565 61.1195V60.1195ZM85.7758 60.1195H85.565V61.1195H85.7758V60.1195ZM85.7819 60.1181C85.78 60.119 85.7779 60.1195 85.7758 60.1195V61.1195C85.9278 61.1195 86.0779 61.0853 86.215 61.0194L85.7819 60.1181ZM86.0469 59.9907L85.7819 60.1181L86.215 61.0195L86.48 60.8921L86.0469 59.9907ZM86.386 59.7554C86.2862 59.8513 86.1717 59.9308 86.0469 59.9907L86.48 60.8921C86.7004 60.7862 86.9026 60.6459 87.0789 60.4764L86.386 59.7554ZM86.4932 59.6524L86.386 59.7554L87.0789 60.4764L87.1861 60.3735L86.4932 59.6524ZM87.6319 58.7731L86.5349 59.6165L87.1444 60.4093L88.2414 59.5659L87.6319 58.7731ZM87.9175 58.1933C87.9175 58.4204 87.812 58.6347 87.6319 58.7731L88.2414 59.5659C88.6677 59.2382 88.9175 58.731 88.9175 58.1933H87.9175ZM87.6543 57.7747C87.8152 57.852 87.9175 58.0147 87.9175 58.1933H88.9175C88.9175 57.6303 88.5948 57.1172 88.0874 56.8733L87.6543 57.7747ZM86.9386 57.4308L87.6543 57.7747L88.0873 56.8733L87.3717 56.5295L86.9386 57.4308ZM85.1123 56.2652L86.8855 57.4012L87.4249 56.5591L85.6518 55.4232L85.1123 56.2652ZM85.1187 56.267C85.1164 56.267 85.1142 56.2664 85.1124 56.2652L85.6518 55.4232C85.4927 55.3212 85.3077 55.267 85.1187 55.267V56.267ZM84.9338 56.267H85.1187V55.267H84.9338V56.267ZM84.1305 55.4638C84.1305 55.9074 84.4901 56.267 84.9338 56.267V55.267C85.0424 55.267 85.1305 55.3551 85.1305 55.4638H84.1305ZM84.3272 55.6605C84.2186 55.6605 84.1305 55.5724 84.1305 55.4638H85.1305C85.1305 55.0201 84.7709 54.6605 84.3272 54.6605V55.6605ZM82.5742 55.6605H84.3272V54.6605H82.5742V55.6605ZM81.4671 55.4083C81.8126 55.5743 82.1909 55.6605 82.5742 55.6605V54.6605C82.3409 54.6605 82.1105 54.608 81.9002 54.5069L81.4671 55.4083ZM81.2581 55.3079L81.4671 55.4083L81.9002 54.5069L81.6912 54.4065L81.2581 55.3079ZM80.6269 55.0046L81.2581 55.3079L81.6912 54.4065L81.06 54.1032L80.6269 55.0046ZM79.9958 54.7013L80.6269 55.0046L81.06 54.1032L80.4289 53.8L79.9958 54.7013ZM78.7298 53.8227C79.1025 54.1808 79.5298 54.4774 79.9958 54.7013L80.4288 53.8C80.0585 53.622 79.7189 53.3863 79.4227 53.1016L78.7298 53.8227ZM77.9723 53.0948L78.7298 53.8227L79.4227 53.1016L78.6652 52.3737L77.9723 53.0948ZM77.6716 52.8058L77.9723 53.0948L78.6652 52.3737L78.3645 52.0848L77.6716 52.8058ZM74.2162 51.4146C75.5044 51.4146 76.7428 51.9131 77.6716 52.8058L78.3646 52.0848C77.2494 51.0131 75.7628 50.4146 74.2162 50.4146V51.4146ZM72.4447 51.4146H74.2162V50.4146H72.4447V51.4146ZM71.345 50.9718C71.6406 51.2559 72.0347 51.4146 72.4447 51.4146V50.4146C72.2931 50.4146 72.1473 50.3559 72.0379 50.2508L71.345 50.9718ZM71.257 50.8872L71.345 50.9718L72.0379 50.2508L71.9499 50.1662L71.257 50.8872ZM71.0603 50.808C71.1336 50.808 71.2041 50.8364 71.257 50.8872L71.9499 50.1662C71.7107 49.9364 71.392 49.808 71.0603 49.808V50.808ZM70.1707 50.4499C70.4099 50.6797 70.7286 50.808 71.0603 50.808V49.808C70.987 49.808 70.9165 49.7796 70.8636 49.7288L70.1707 50.4499ZM70.0915 50.3738L70.1707 50.4499L70.8636 49.7288L70.7844 49.6527L70.0915 50.3738ZM69.6135 49.2515C69.6135 49.675 69.7861 50.0803 70.0915 50.3738L70.7845 49.6528C70.6753 49.5478 70.6135 49.4029 70.6135 49.2515H69.6135ZM69.6135 47.8818V49.2515H70.6135V47.8818H69.6135ZM69.6135 47.7129V47.8818H70.6135V47.7129H69.6135ZM70.0827 46.6114C69.7829 46.8995 69.6135 47.2972 69.6135 47.7129H70.6135C70.6135 47.5693 70.6721 47.432 70.7756 47.3325L70.0827 46.6114ZM70.2447 46.231C70.2447 46.3746 70.1862 46.512 70.0827 46.6114L70.7756 47.3325C71.0753 47.0444 71.2447 46.6467 71.2447 46.231H70.2447ZM70.2447 46.0621V46.231H71.2447V46.0621H70.2447ZM69.9609 45.3958C70.1422 45.57 70.2447 45.8106 70.2447 46.0621H71.2447C71.2447 45.5385 71.0313 45.0375 70.6538 44.6747L69.9609 45.3958ZM69.7671 45.2095L69.9609 45.3958L70.6538 44.6748L70.46 44.4885L69.7671 45.2095ZM69.298 43.9656C69.298 44.4032 69.4495 44.8273 69.7267 45.1658L70.5004 44.5322C70.3695 44.3724 70.298 44.1722 70.298 43.9656H69.298ZM69.298 43.6019V43.9656H70.298V43.6019H69.298ZM69.4231 42.7663C69.3382 43.0392 69.298 43.3211 69.298 43.6019H70.298C70.298 43.4167 70.3245 43.2352 70.378 43.0632L69.4231 42.7663ZM69.9856 41.2001C69.8935 41.3771 69.7848 41.6716 69.6898 41.9473C69.5906 42.2348 69.4929 42.5417 69.4231 42.7663L70.378 43.0632C70.4465 42.8429 70.5407 42.547 70.6351 42.2733C70.7336 41.9878 70.8201 41.7627 70.8727 41.6617L69.9856 41.2001ZM70.1323 40.885C70.0961 40.9743 70.0484 41.0793 69.9856 41.2001L70.8727 41.6617C70.9495 41.5141 71.0105 41.3804 71.0591 41.2606L70.1323 40.885ZM70.2808 39.9845C70.2554 40.3582 70.232 40.6388 70.1323 40.8851L71.0591 41.2606C71.229 40.8411 71.2551 40.3966 71.2785 40.0524L70.2808 39.9845ZM70.2856 39.9139C70.284 39.9376 70.2824 39.9613 70.2808 39.9845L71.2785 40.0524C71.2801 40.029 71.2816 40.0061 71.2832 39.9832L70.2856 39.9139ZM70.5289 36.4067L70.2856 39.9139L71.2832 39.9831L71.5265 36.4759L70.5289 36.4067ZM70.8744 35.3109C70.6742 35.6437 70.5558 36.0192 70.5289 36.4067L71.5265 36.4759C71.5425 36.2463 71.6126 36.0237 71.7313 35.8265L70.8744 35.3109ZM71.0788 35.021C71.0038 35.1126 70.9355 35.2095 70.8744 35.3109L71.7313 35.8265C71.7675 35.7663 71.808 35.7089 71.8524 35.6547L71.0788 35.021ZM71.0918 35.0051L71.0787 35.0211L71.8525 35.6545L71.8656 35.6385L71.0918 35.0051ZM71.6941 34.4598C71.4674 34.6106 71.2644 34.7943 71.0919 35.005L71.8655 35.6386C71.9751 35.5048 72.104 35.3881 72.248 35.2923L71.6941 34.4598ZM72.5554 33.8867L71.6941 34.4598L72.248 35.2923L73.1093 34.7193L72.5554 33.8867ZM75.2941 28.7752C75.2941 30.83 74.2662 32.7485 72.5554 33.8867L73.1093 34.7193C75.0987 33.3957 76.2941 31.1647 76.2941 28.7752H75.2941ZM75.2105 28.4337C75.2654 28.5392 75.2941 28.6563 75.2941 28.7752H76.2941C76.2941 28.4956 76.2267 28.2202 76.0977 27.9721L75.2105 28.4337ZM75.035 28.0962L75.2105 28.4337L76.0977 27.9721L75.9221 27.6346L75.035 28.0962ZM74.3306 27.1016C74.6096 27.3995 74.8466 27.7341 75.035 28.0962L75.9221 27.6346C75.6916 27.1917 75.4018 26.7824 75.0605 26.418L74.3306 27.1016ZM72.7263 25.3885L74.3306 27.1016L75.0605 26.418L73.4562 24.705L72.7263 25.3885ZM71.1062 24.0405C71.7 24.4209 72.2442 24.8738 72.7263 25.3885L73.4562 24.705C72.9174 24.1297 72.3092 23.6237 71.6456 23.1985L71.1062 24.0405ZM70.5282 23.7669L71.1593 24.0702L71.5924 23.1688L70.9613 22.8655L70.5282 23.7669ZM69.6454 23.4891L70.5922 23.7924L70.8972 22.84L69.9505 22.5368L69.6454 23.4891ZM68.9719 23.2404C69.1965 23.3483 69.431 23.4342 69.6721 23.4968L69.9238 22.529C69.7451 22.4826 69.5714 22.4189 69.405 22.339L68.9719 23.2404ZM68.6346 23.0783L68.9719 23.2403L69.405 22.339L69.0677 22.1769L68.6346 23.0783ZM68.2634 22.8999L68.6346 23.0783L69.0677 22.1769L68.6965 21.9986L68.2634 22.8999ZM67.6787 22.5246C67.8575 22.6732 68.0538 22.7992 68.2634 22.8999L68.6965 21.9986C68.5608 21.9333 68.4336 21.8517 68.3178 21.7555L67.6787 22.5246ZM67.6075 22.4654L67.6787 22.5246L68.3178 21.7555L68.2466 21.6963L67.6075 22.4654ZM66.9511 21.6084C67.1029 21.9396 67.3272 22.2325 67.6075 22.4654L68.2466 21.6963C68.0816 21.5592 67.9495 21.3868 67.8602 21.1917L66.9511 21.6084ZM66.743 20.8469C66.7705 21.1104 66.8407 21.3676 66.9511 21.6084L67.8602 21.1917C67.7952 21.05 67.7538 20.8986 67.7377 20.7434L66.743 20.8469ZM66.4604 18.1302L66.743 20.8469L67.7377 20.7434L67.455 18.0267L66.4604 18.1302ZM66.4577 17.5105V18.0784H67.4577V17.5105H66.4577ZM66.3563 17.0961C66.4229 17.2241 66.4577 17.3662 66.4577 17.5105H67.4577C67.4577 17.2055 67.3842 16.9051 67.2434 16.6345L66.3563 17.0961ZM66.3007 16.9891L66.3563 17.0961L67.2434 16.6345L67.1878 16.5276L66.3007 16.9891ZM66.1421 16.3408C66.1421 16.5665 66.1965 16.7889 66.3007 16.9891L67.1878 16.5275C67.1578 16.4699 67.1421 16.4058 67.1421 16.3408H66.1421ZM66.1421 16.2736V16.3408H67.1421V16.2736H66.1421ZM66.0663 16.0956C66.1147 16.1421 66.1421 16.2064 66.1421 16.2736H67.1421C67.1421 15.9343 67.0038 15.6097 66.7592 15.3746L66.0663 16.0956ZM66.0021 16.0511C66.0257 16.0624 66.0474 16.0774 66.0663 16.0956L66.7592 15.3746C66.6638 15.2829 66.5545 15.207 66.4352 15.1497L66.0021 16.0511ZM65.4788 15.7996L66.0021 16.0511L66.4352 15.1497L65.9119 14.8983L65.4788 15.7996ZM65.0359 15.5868L65.4788 15.7996L65.9119 14.8983L65.469 14.6854L65.0359 15.5868ZM64.5839 15.2967C64.7221 15.4115 64.8739 15.509 65.0359 15.5868L65.469 14.6854C65.3808 14.6431 65.2983 14.5901 65.2231 14.5276L64.5839 15.2967ZM63.8212 15.0211C64.0998 15.0211 64.3697 15.1186 64.584 15.2967L65.2231 14.5276C64.8292 14.2003 64.3333 14.0211 63.8212 14.0211V15.0211ZM63.8018 15.0211H63.8212V14.0211H63.8018V15.0211ZM63.062 15.319C63.2609 15.1279 63.526 15.0211 63.8018 15.0211V14.0211C63.2677 14.0211 62.7542 14.2278 62.3691 14.598L63.062 15.319ZM62.8859 15.4882L63.062 15.319L62.3691 14.598L62.193 14.7672L62.8859 15.4882ZM62.0848 16.2064L62.8731 15.5001L62.2058 14.7553L61.4175 15.4616L62.0848 16.2064ZM60.7104 16.8366C61.2217 16.7702 61.7008 16.5505 62.0848 16.2064L61.4175 15.4616C61.1839 15.6709 60.8925 15.8046 60.5815 15.845L60.7104 16.8366ZM60.3303 16.8408H60.6459V15.8408H60.3303V16.8408ZM59.4249 16.3811C59.6361 16.67 59.9725 16.8408 60.3303 16.8408V15.8408C60.2916 15.8408 60.2551 15.8223 60.2322 15.791L59.4249 16.3811ZM58.6644 15.3407L59.4249 16.3811L60.2322 15.791L59.4717 14.7506L58.6644 15.3407ZM58.324 14.7789L58.6396 15.3034L59.4964 14.7879L59.1809 14.2634L58.324 14.7789ZM57.8591 13.1325C57.9182 13.685 58.0664 14.2243 58.2979 14.7295L59.207 14.3128C59.0204 13.9058 58.9011 13.4713 58.8535 13.0262L57.8591 13.1325ZM57.7172 11.8054L57.8591 13.1325L58.8535 13.0262L58.7115 11.699L57.7172 11.8054ZM57.1436 10.6357C57.4665 10.946 57.6696 11.3602 57.7172 11.8054L58.7115 11.699C58.6389 11.0198 58.3291 10.388 57.8365 9.91472L57.1436 10.6357ZM56.8031 10.3085L57.1436 10.6357L57.8365 9.91471L57.496 9.58746L56.8031 10.3085ZM56.4558 10.1687C56.5853 10.1687 56.7097 10.2188 56.8031 10.3085L57.496 9.58746C57.2164 9.31875 56.8436 9.16867 56.4558 9.16867V10.1687ZM56.2387 10.2181C56.3065 10.1856 56.3806 10.1687 56.4558 10.1687V9.16867C56.2307 9.16867 56.0085 9.21929 55.8056 9.31677L56.2387 10.2181ZM56.0737 10.2974L56.2387 10.2181L55.8056 9.31677L55.6406 9.39607L56.0737 10.2974ZM55.7346 10.5328C55.8344 10.4368 55.9489 10.3574 56.0737 10.2974L55.6406 9.39607C55.4202 9.50199 55.218 9.6423 55.0417 9.81175L55.7346 10.5328ZM55.3118 10.939L55.7346 10.5328L55.0417 9.81175L54.6189 10.218L55.3118 10.939ZM55.217 11.0302L55.3118 10.939L54.6189 10.218L54.524 10.3092L55.217 11.0302ZM54.9204 11.4018C55.0025 11.2655 55.1022 11.1405 55.217 11.0302L54.524 10.3092C54.3458 10.4805 54.191 10.6745 54.0636 10.8863L54.9204 11.4018ZM54.8185 11.5712L54.9204 11.4018L54.0636 10.8863L53.9617 11.0556L54.8185 11.5712ZM54.6025 11.8419C54.6861 11.7616 54.7587 11.6706 54.8185 11.5712L53.9617 11.0556C53.9473 11.0796 53.9297 11.1015 53.9096 11.1209L54.6025 11.8419ZM53.6894 12.2096C54.0298 12.2096 54.357 12.0778 54.6025 11.8419L53.9096 11.1209C53.8504 11.1778 53.7715 11.2096 53.6894 11.2096V12.2096ZM53.6155 12.2096H53.6894V11.2096H53.6155V12.2096ZM52.9654 12.0615C53.1682 12.159 53.3904 12.2096 53.6155 12.2096V11.2096C53.5404 11.2096 53.4662 11.1927 53.3984 11.1601L52.9654 12.0615ZM52.898 12.0291L52.9654 12.0615L53.3984 11.1601L53.3311 11.1278L52.898 12.0291ZM52.1229 11.3235C52.3069 11.6293 52.5764 11.8746 52.898 12.0291L53.3311 11.1278C53.1853 11.0577 53.0632 10.9465 52.9798 10.8079L52.1229 11.3235ZM52.0841 11.2589L52.1229 11.3235L52.9798 10.8079L52.9409 10.7433L52.0841 11.2589ZM51.9724 11.1055C52.014 11.1533 52.0514 11.2046 52.0841 11.2589L52.9409 10.7433C52.878 10.6388 52.8061 10.5401 52.7259 10.4482L51.9724 11.1055ZM51.2249 10.2487L51.9724 11.1055L52.7259 10.4482L51.9784 9.59128L51.2249 10.2487ZM50.8022 9.51204C50.8933 9.78296 51.037 10.0333 51.2249 10.2487L51.9784 9.59128C51.8769 9.47487 51.7993 9.33958 51.75 9.19316L50.8022 9.51204ZM50.7582 9.38137L50.8022 9.51204L51.75 9.19316L51.706 9.06249L50.7582 9.38137ZM50.6847 9.24849C50.717 9.28798 50.742 9.333 50.7582 9.38136L51.706 9.0625C51.6512 8.89952 51.5673 8.74785 51.4583 8.61484L50.6847 9.24849ZM50.3628 8.34735C50.3628 8.6759 50.4765 8.99431 50.6847 9.24849L51.4583 8.61484C51.3965 8.5394 51.3628 8.44488 51.3628 8.34735H50.3628ZM50.3628 8.20593V8.34735H51.3628V8.20593H50.3628ZM50.3456 8.03925C50.357 8.09409 50.3628 8.14994 50.3628 8.20593H51.3628C51.3628 8.08148 51.35 7.95736 51.3246 7.83554L50.3456 8.03925ZM50.1025 6.87129L50.3456 8.03927L51.3246 7.83552L51.0815 6.66754L50.1025 6.87129ZM50.0472 6.33366C50.0472 6.51429 50.0657 6.69444 50.1025 6.87128L51.0816 6.66755C51.0587 6.55772 51.0472 6.44583 51.0472 6.33366H50.0472ZM50.0472 6.13416V6.33366H51.0472V6.13416H50.0472ZM49.6878 5.29036C49.9174 5.51101 50.0472 5.81571 50.0472 6.13416H51.0472C51.0472 5.5436 50.8065 4.97854 50.3807 4.56933L49.6878 5.29036ZM49.5082 5.14876C49.5726 5.18998 49.6327 5.23741 49.6878 5.29035L50.3807 4.56934C50.2785 4.47114 50.167 4.38318 50.0477 4.30674L49.5082 5.14876ZM49.231 4.97115L49.5082 5.14876L50.0477 4.30674L49.7704 4.12914L49.231 4.97115ZM48.3381 4.70966C48.6546 4.70966 48.9645 4.80041 49.231 4.97115L49.7704 4.12914C49.3429 3.85523 48.8458 3.70966 48.3381 3.70966V4.70966ZM48.2087 4.70966H48.3381V3.70966H48.2087V4.70966ZM47.6381 4.57969C47.8162 4.66524 48.0112 4.70966 48.2087 4.70966V3.70966C48.1611 3.70966 48.1141 3.69896 48.0712 3.67835L47.6381 4.57969ZM47.3716 4.45162L47.6381 4.5797L48.0712 3.67835L47.8047 3.55027L47.3716 4.45162ZM46.8913 3.68801C46.8913 4.01371 47.078 4.31056 47.3716 4.45162L47.8047 3.55027C47.8576 3.57572 47.8913 3.62927 47.8913 3.68801H46.8913ZM46.9086 3.75855C46.8972 3.73676 46.8913 3.71256 46.8913 3.68801H47.8913C47.8913 3.55189 47.8585 3.41776 47.7957 3.29699L46.9086 3.75855ZM46.79 3.5306L46.9086 3.75855L47.7957 3.29699L47.6771 3.06904L46.79 3.5306ZM46.5757 2.65467C46.5757 2.95962 46.6492 3.26007 46.79 3.53059L47.6771 3.06905C47.6105 2.94107 47.5757 2.79893 47.5757 2.65467H46.5757ZM46.5757 2.39393V2.65467H47.5757V2.39393H46.5757ZM46.5978 2.13779C46.5831 2.22237 46.5757 2.30806 46.5757 2.39393H47.5757C47.5757 2.36536 47.5782 2.33683 47.5831 2.30866L46.5978 2.13779ZM46.6256 1.97756L46.5978 2.13779L47.5831 2.30866L47.6109 2.14843L46.6256 1.97756ZM46.0789 1.52843C46.3737 1.41511 46.6795 1.66638 46.6256 1.97756L47.6109 2.14844C47.7975 1.07215 46.7397 0.203079 45.7201 0.595021L46.0789 1.52843ZM46.0054 1.56561C46.0286 1.55076 46.0532 1.53831 46.0789 1.52843L45.7201 0.595024C45.6313 0.62917 45.5461 0.672245 45.466 0.72359L46.0054 1.56561ZM44.1896 2.72895L46.0054 1.56561L45.466 0.72359L43.6501 1.88694L44.1896 2.72895ZM42.809 3.44122L44.1485 2.75262L43.6913 1.86326L42.3518 2.55186L42.809 3.44122ZM41.3248 4.58532C41.7847 4.14337 42.2925 3.7541 42.8386 3.4247L42.3222 2.56838C41.7123 2.93617 41.1454 3.37083 40.6319 3.86429L41.3248 4.58532ZM41.1104 4.79141L41.3248 4.58532L40.6319 3.86429L40.4175 4.07038L41.1104 4.79141ZM40.3422 5.36645L41.0619 4.83242L40.466 4.02937L39.7463 4.5634L40.3422 5.36645ZM38.9263 6.19048C39.4274 5.96925 39.9023 5.69287 40.3422 5.36645L39.7463 4.5634C39.3661 4.84555 38.9556 5.08444 38.5225 5.27567L38.9263 6.19048ZM38.6557 6.30999L38.9263 6.19048L38.5225 5.27567L38.2518 5.39517L38.6557 6.30999ZM38.3115 6.49479C38.4213 6.42444 38.5364 6.36266 38.6557 6.30999L38.2518 5.39517C38.0855 5.46859 37.9251 5.55471 37.772 5.65278L38.3115 6.49479ZM36.4025 7.05384C37.0792 7.05384 37.7417 6.85983 38.3115 6.49479L37.772 5.65278C37.3633 5.91466 36.888 6.05384 36.4025 6.05384V7.05384ZM35.8723 7.05384H36.4025V6.05384H35.8723V7.05384ZM33.5261 7.74095C34.2264 7.2923 35.0406 7.05384 35.8723 7.05384V6.05384C34.8494 6.05384 33.8479 6.34713 32.9866 6.89894L33.5261 7.74095ZM33.3038 7.8834L33.5261 7.74095L32.9866 6.89893L32.7643 7.04138L33.3038 7.8834ZM32.498 8.51869C32.7452 8.28112 33.0151 8.06834 33.3038 7.88339L32.7643 7.04138C32.4207 7.26155 32.0994 7.51486 31.8051 7.79766L32.498 8.51869ZM31.9583 9.03731L32.498 8.51869L31.8051 7.79766L31.2654 8.31628L31.9583 9.03731ZM31.7963 9.41776C31.7963 9.27418 31.8548 9.1368 31.9583 9.03731L31.2654 8.31629C30.9657 8.60433 30.7963 9.00207 30.7963 9.41776H31.7963ZM31.7963 11.7096V9.41776H30.7963V11.7096H31.7963ZM31.7963 12.8169V11.7096H30.7963V12.8169H31.7963ZM31.9287 13.3581C31.8417 13.191 31.7963 13.0053 31.7963 12.8169H30.7963C30.7963 13.166 30.8804 13.51 31.0415 13.8196L31.9287 13.3581ZM31.9992 13.4937L31.9287 13.3581L31.0415 13.8196L31.1121 13.9553L31.9992 13.4937ZM32.0461 13.5564C32.0272 13.5382 32.0114 13.517 31.9992 13.4937L31.1121 13.9553C31.1744 14.075 31.2559 14.1839 31.3533 14.2775L32.0461 13.5564ZM32.4275 14.4517C32.4275 14.1138 32.2898 13.7905 32.0462 13.5564L31.3533 14.2774C31.4007 14.323 31.4275 14.3859 31.4275 14.4517H32.4275ZM32.4275 14.7424V14.4517H31.4275V14.7424H32.4275ZM32.4275 15.1946V14.7424H31.4275V15.1946H32.4275ZM31.7399 18.0059C32.1916 17.1377 32.4275 16.1733 32.4275 15.1946H31.4275C31.4275 16.0126 31.2303 16.8187 30.8527 17.5444L31.7399 18.0059ZM30.147 20.349C30.7678 19.633 31.3025 18.8466 31.7399 18.0059L30.8527 17.5444C30.4515 18.3156 29.961 19.037 29.3915 19.6938L30.147 20.349ZM29.4649 21.1355L30.147 20.349L29.3915 19.6938L28.7094 20.4804L29.4649 21.1355ZM29.2716 21.5489C29.2716 21.4053 29.3301 21.2679 29.4336 21.1685L28.7407 20.4474C28.441 20.7355 28.2716 21.1332 28.2716 21.5489H29.2716ZM29.2716 23.1945V21.5489H28.2716V23.1945H29.2716ZM28.7769 25.2171C29.1019 24.5925 29.2716 23.8986 29.2716 23.1945H28.2716C28.2716 23.738 28.1406 24.2734 27.8898 24.7556L28.7769 25.2171ZM28.2573 25.9982C28.4579 25.7572 28.6321 25.4953 28.7769 25.2171L27.8898 24.7556C27.7781 24.9703 27.6436 25.1724 27.4888 25.3584L28.2573 25.9982ZM28.069 26.2245L28.2573 25.9982L27.4888 25.3584L27.3004 25.5847L28.069 26.2245ZM25.8807 27.7926C26.7321 27.4653 27.4854 26.9255 28.069 26.2245L27.3004 25.5847C26.8261 26.1544 26.2138 26.5932 25.5219 26.8592L25.8807 27.7926ZM24.9725 28.0522C25.2823 27.9927 25.5862 27.9058 25.8807 27.7926L25.5219 26.8592C25.2826 26.9512 25.0355 27.0218 24.7837 27.0702L24.9725 28.0522ZM24.5475 28.1339L24.9725 28.0522L24.7837 27.0702L24.3588 27.1519L24.5475 28.1339ZM23.3652 28.6059C23.7258 28.3749 24.127 28.2147 24.5475 28.1339L24.3588 27.1519C23.8136 27.2566 23.2933 27.4644 22.8258 27.7639L23.3652 28.6059ZM22.8479 29.0138C23.0066 28.8613 23.1799 28.7246 23.3652 28.6059L22.8258 27.7639C22.5854 27.9178 22.3608 28.095 22.155 28.2928L22.8479 29.0138ZM22.3681 29.4748L22.8479 29.0138L22.155 28.2928L21.6752 28.7538L22.3681 29.4748ZM22.087 29.8046C22.1695 29.6856 22.2637 29.5752 22.3681 29.4748L21.6752 28.7538C21.523 28.9001 21.3857 29.0612 21.2653 29.2346L22.087 29.8046ZM21.6975 31.0493C21.6975 30.6044 21.8334 30.1702 22.087 29.8046L21.2653 29.2346C20.8956 29.7676 20.6975 30.4007 20.6975 31.0493H21.6975ZM21.6975 33.008V31.0493H20.6975V33.008H21.6975ZM21.9695 35.1337C21.7889 34.4396 21.6975 33.7252 21.6975 33.008H20.6975C20.6975 33.8102 20.7998 34.6091 21.0017 35.3855L21.9695 35.1337ZM21.997 35.2394L21.9695 35.1337L21.0017 35.3855L21.0292 35.4912L21.997 35.2394ZM22.198 35.8141L21.9855 35.2015L21.0407 35.5292L21.2532 36.1418L22.198 35.8141ZM22.4174 36.3234C22.332 36.1592 22.2587 35.989 22.198 35.8141L21.2532 36.1418C21.3298 36.3627 21.4224 36.5776 21.5303 36.785L22.4174 36.3234ZM22.9599 38.5412C22.9599 37.7691 22.7738 37.0084 22.4174 36.3234L21.5303 36.785C21.8125 37.3274 21.9599 37.9298 21.9599 38.5412H22.9599ZM22.9599 39.9145V38.5412H21.9599V39.9145H22.9599ZM22.9599 40.0532V39.9145H21.9599V40.0532H22.9599ZM21.6888 41.3243C22.3908 41.3243 22.9599 40.7552 22.9599 40.0532H21.9599C21.9599 40.203 21.8385 40.3243 21.6888 40.3243V41.3243ZM21.1382 41.1989C21.31 41.2815 21.4982 41.3243 21.6888 41.3243V40.3243C21.6481 40.3243 21.608 40.3152 21.5714 40.2976L21.1382 41.1989ZM20.5059 40.8951L21.1382 41.1989L21.5713 40.2976L20.939 39.9938L20.5059 40.8951ZM19.5277 40.25C19.8232 40.5082 20.1522 40.7252 20.5059 40.8951L20.939 39.9937C20.6666 39.8629 20.4132 39.6958 20.1856 39.4969L19.5277 40.25ZM16.8035 37.87L19.5277 40.25L20.1856 39.4969L17.4614 37.1169L16.8035 37.87ZM16.1768 37.517C16.4072 37.5908 16.6225 37.7119 16.8035 37.87L17.4614 37.1169C17.1765 36.868 16.8407 36.6796 16.4819 36.5647L16.1768 37.517ZM15.1096 36.8804C15.4101 37.1692 15.7797 37.3898 16.1768 37.517L16.4819 36.5647C16.2302 36.4841 15.9932 36.3426 15.8025 36.1594L15.1096 36.8804ZM14.6693 36.5742C14.8299 36.6514 14.9801 36.7559 15.1096 36.8804L15.8025 36.1594C15.5975 35.9624 15.3598 35.7966 15.1023 35.6728L14.6693 36.5742ZM14.4659 36.4765L14.6693 36.5742L15.1023 35.6728L14.899 35.5752L14.4659 36.4765ZM14.134 36.2461C14.2317 36.34 14.3438 36.4178 14.4659 36.4765L14.899 35.5752C14.8725 35.5624 14.8481 35.5455 14.8269 35.5251L14.134 36.2461ZM13.9415 36.1686C14.0132 36.1686 14.0822 36.1964 14.134 36.2461L14.8269 35.5251C14.5889 35.2963 14.2716 35.1686 13.9415 35.1686V36.1686ZM9.83642 36.1686H13.9415V35.1686H9.83642V36.1686ZM9.64295 36.1686H9.83642V35.1686H9.64295V36.1686ZM8.5432 35.7258C8.83883 36.0099 9.23293 36.1686 9.64295 36.1686V35.1686C9.49127 35.1686 9.34548 35.1099 9.23611 35.0048L8.5432 35.7258ZM8.13637 35.562C8.28805 35.562 8.43384 35.6207 8.54321 35.7258L9.23611 35.0048C8.94049 34.7207 8.54638 34.562 8.13637 34.562V35.562ZM7.96941 35.562H8.13637V34.562H7.96941V35.562ZM7.10242 35.3646C7.37296 35.4945 7.66926 35.562 7.96941 35.562V34.562C7.8192 34.562 7.67091 34.5283 7.53552 34.4632L7.10242 35.3646ZM6.7796 35.2094L7.10242 35.3646L7.53552 34.4632L7.21269 34.3081L6.7796 35.2094ZM5.66472 34.9555C6.05068 34.9555 6.43171 35.0423 6.7796 35.2094L7.21269 34.3081C6.72966 34.076 6.20062 33.9555 5.66472 33.9555V34.9555ZM5.41821 34.9555H5.66472V33.9555H5.41821V34.9555ZM5.28025 34.9555H5.41821V33.9555H5.28025V34.9555ZM3.47883 35.483C4.01651 35.1386 4.64169 34.9555 5.28025 34.9555V33.9555C4.45046 33.9555 3.63807 34.1934 2.93938 34.641L3.47883 35.483ZM2.96516 35.8803L3.51385 35.4584L2.90435 34.6656L2.35566 35.0875L2.96516 35.8803ZM2.13117 37.5734C2.13117 36.9101 2.43933 36.2845 2.96516 35.8803L2.35566 35.0875C1.58362 35.681 1.13117 36.5996 1.13117 37.5734H2.13117ZM2.13117 37.8444V37.5734H1.13117V37.8444H2.13117ZM2.35758 38.568C2.21017 38.3555 2.13117 38.1031 2.13117 37.8444H1.13117C1.13117 38.3068 1.27239 38.7581 1.53593 39.138L2.35758 38.568ZM2.76234 39.8616C2.76234 39.3993 2.62112 38.9479 2.35758 38.568L1.53593 39.138C1.68335 39.3505 1.76234 39.603 1.76234 39.8616H2.76234ZM2.76234 40.7887V39.8616H1.76234V40.7887H2.76234ZM2.36061 42.7992C2.62581 42.1621 2.76234 41.4788 2.76234 40.7887H1.76234C1.76234 41.3469 1.65191 41.8996 1.43739 42.415L2.36061 42.7992ZM2.09278 43.4427L2.36061 42.7992L1.43739 42.415L1.16956 43.0584L2.09278 43.4427ZM1.72352 44.1564L2.07473 43.4813L1.18762 43.0198L0.836406 43.6948L1.72352 44.1564ZM1.5 45.0702C1.5 44.7521 1.57667 44.4386 1.72352 44.1564L0.836405 43.6948C0.615393 44.1196 0.5 44.5914 0.5 45.0702H1.5ZM1.5 45.3873V45.0702H0.5V45.3873H1.5ZM1.57717 45.7028C1.52647 45.6054 1.5 45.4972 1.5 45.3873H0.5C0.5 45.6578 0.565193 45.9244 0.690056 46.1644L1.57717 45.7028ZM1.88751 46.0034C1.75428 45.9394 1.64539 45.8339 1.57717 45.7028L0.690057 46.1644C0.858088 46.4873 1.12628 46.7471 1.45441 46.9048L1.88751 46.0034ZM2.0021 46.0585L1.88751 46.0034L1.45442 46.9048L1.56901 46.9599L2.0021 46.0585ZM2.42216 46.35C2.2985 46.2312 2.15671 46.1328 2.00211 46.0585L1.56901 46.9599C1.62798 46.9882 1.68208 47.0257 1.72926 47.0711L2.42216 46.35ZM2.66138 46.4927C2.57181 46.464 2.48998 46.4152 2.42216 46.35L1.72926 47.0711C1.90703 47.2419 2.12152 47.3698 2.35632 47.445L2.66138 46.4927ZM3.0611 46.6208L2.66138 46.4927L2.35631 47.445L2.75602 47.5731L3.0611 46.6208ZM3.52469 46.6932C3.36734 46.6932 3.21094 46.6688 3.0611 46.6208L2.75602 47.5731C3.00448 47.6527 3.2638 47.6932 3.52469 47.6932V46.6932ZM4.12957 46.6932H3.52469V47.6932H4.12957V46.6932ZM5.0728 47.2657C4.88976 46.9139 4.52614 46.6932 4.12957 46.6932V47.6932C4.15317 47.6932 4.1748 47.7063 4.18568 47.7272L5.0728 47.2657ZM5.12891 47.2998C5.10531 47.2998 5.08368 47.2866 5.0728 47.2657L4.18568 47.7272C4.36872 48.0791 4.73234 48.2998 5.12891 48.2998V47.2998ZM6.36497 47.2998H5.12891V48.2998H6.36497V47.2998ZM7.62732 47.2998H6.36497V48.2998H7.62732V47.2998ZM8.18699 47.2998H7.62732V48.2998H8.18699V47.2998ZM8.63027 47.1699C8.49796 47.2547 8.34412 47.2998 8.18699 47.2998V48.2998C8.53535 48.2998 8.8764 48.1999 9.16972 48.012L8.63027 47.1699ZM8.66147 47.1499L8.63026 47.1699L9.16973 48.0119L9.20095 47.9919L8.66147 47.1499ZM10.3686 47.0458C9.81996 46.7822 9.17397 46.8216 8.66148 47.1499L9.20094 47.992C9.42145 47.8507 9.69941 47.8337 9.93546 47.9471L10.3686 47.0458ZM10.9997 47.3491L10.3686 47.0458L9.93546 47.9471L10.5666 48.2504L10.9997 47.3491ZM11.2364 47.4628L10.9997 47.3491L10.5666 48.2504L10.8033 48.3641L11.2364 47.4628ZM11.3949 47.4286C11.3374 47.4805 11.2739 47.4808 11.2364 47.4628L10.8033 48.3641C11.2384 48.5732 11.7332 48.4704 12.065 48.1709L11.3949 47.4286ZM12.488 46.6193C12.2137 46.7989 11.7251 47.1305 11.3949 47.4286L12.065 48.1709C12.3315 47.9303 12.761 47.6359 13.0358 47.4559L12.488 46.6193ZM12.8451 46.3379C12.7392 46.4397 12.6182 46.534 12.488 46.6193L13.0358 47.4559C13.2103 47.3416 13.3813 47.2095 13.538 47.059L12.8451 46.3379ZM14.0364 45.626C13.5908 45.7688 13.181 46.0151 12.8451 46.3379L13.538 47.0589C13.7655 46.8403 14.043 46.674 14.3415 46.5784L14.0364 45.626ZM14.9706 45.4801C14.6535 45.4801 14.3384 45.5293 14.0364 45.626L14.3415 46.5784C14.5448 46.5132 14.757 46.4801 14.9706 46.4801V45.4801ZM15.978 45.4801H14.9706V46.4801H15.978V45.4801ZM17.6469 46.3535C17.2674 45.8064 16.6438 45.4801 15.978 45.4801V46.4801C16.316 46.4801 16.6326 46.6457 16.8252 46.9235L17.6469 46.3535ZM17.9379 46.634C17.8233 46.5606 17.7244 46.4653 17.6469 46.3535L16.8252 46.9235C16.978 47.1437 17.1728 47.3314 17.3984 47.476L17.9379 46.634ZM18.0001 46.6739L17.9379 46.634L17.3984 47.476L17.4607 47.5159L18.0001 46.6739ZM19.0286 48.0911C18.8764 47.5061 18.5091 47 18.0001 46.6739L17.4607 47.5159C17.7577 47.7062 17.972 48.0015 18.0608 48.3428L19.0286 48.0911ZM19.0582 48.2048L19.0286 48.0911L18.0608 48.3428L18.0904 48.4566L19.0582 48.2048ZM19.3068 48.7462C19.1927 48.5818 19.1086 48.3985 19.0582 48.2048L18.0904 48.4566C18.1704 48.7641 18.304 49.0551 18.4852 49.3162L19.3068 48.7462ZM19.3809 48.853L19.3068 48.7462L18.4851 49.3162L18.5592 49.423L19.3809 48.853ZM20.0671 49.5145C19.797 49.3414 19.5637 49.1166 19.3809 48.853L18.5592 49.423C18.8173 49.795 19.1464 50.1123 19.5276 50.3565L20.0671 49.5145ZM20.2086 49.6052L20.0671 49.5145L19.5276 50.3565L19.6692 50.4472L20.2086 49.6052ZM20.8643 50.1221C20.6631 49.9288 20.4435 49.7557 20.2086 49.6052L19.6692 50.4472C19.8491 50.5625 20.0173 50.6951 20.1714 50.8431L20.8643 50.1221ZM21.0249 50.2764L20.8643 50.1221L20.1714 50.8431L20.3319 50.9974L21.0249 50.2764ZM21.3894 50.5638C21.2588 50.4802 21.1367 50.3839 21.0248 50.2764L20.3319 50.9974C20.4909 51.1502 20.6643 51.2869 20.8499 51.4058L21.3894 50.5638ZM21.567 50.6776L21.3894 50.5638L20.8499 51.4058L21.0275 51.5196L21.567 50.6776ZM22.4599 50.9391C22.1434 50.9391 21.8335 50.8483 21.567 50.6776L21.0275 51.5196C21.455 51.7935 21.9521 51.9391 22.4599 51.9391V50.9391ZM22.9459 51.7919L22.9595 51.4595L21.9603 51.4187L21.9467 51.751L22.9459 51.7919ZM22.7893 51.0702C22.4536 51.0702 22.162 51.2557 22.01 51.5273L22.8826 52.0157C22.865 52.0471 22.8301 52.0702 22.7893 52.0702V51.0702ZM22.6941 51.128C22.7126 51.0925 22.7493 51.0702 22.7893 51.0702V52.0702C23.1222 52.0702 23.4276 51.8849 23.5812 51.5895L22.6941 51.128ZM22.8033 50.9181L22.6941 51.128L23.5812 51.5895L23.6905 51.3796L22.8033 50.9181ZM23.2493 50.4301C23.0605 50.551 22.9068 50.7192 22.8033 50.9181L23.6905 51.3796C23.7133 51.3358 23.7471 51.2987 23.7887 51.2721L23.2493 50.4301ZM23.5248 50.2536L23.2493 50.4301L23.7887 51.2721L24.0642 51.0956L23.5248 50.2536ZM24.8785 49.8571C24.3986 49.8571 23.9288 49.9947 23.5248 50.2536L24.0642 51.0956C24.3073 50.9399 24.5898 50.8571 24.8785 50.8571V49.8571ZM26.0882 49.8571H24.8785V50.8571H26.0882V49.8571ZM29.7991 48.4645C28.7713 49.3623 27.4529 49.8571 26.0882 49.8571V50.8571C27.6949 50.8571 29.247 50.2746 30.457 49.2175L29.7991 48.4645ZM31.413 47.0545L29.7991 48.4645L30.457 49.2175L32.0709 47.8076L31.413 47.0545ZM31.4954 46.9497C31.4747 46.9895 31.4467 47.025 31.413 47.0545L32.0709 47.8076C32.1986 47.696 32.3042 47.5616 32.3825 47.4113L31.4954 46.9497ZM32.7013 46.2178C32.1942 46.2178 31.7294 46.4999 31.4954 46.9497L32.3825 47.4113C32.4443 47.2924 32.5672 47.2178 32.7013 47.2178V46.2178ZM33.442 46.2178H32.7013V47.2178H33.442V46.2178ZM34.0469 46.2178H33.442V47.2178H34.0469V46.2178ZM34.9901 46.7903C34.8071 46.4385 34.4435 46.2178 34.0469 46.2178V47.2178C34.0705 47.2178 34.0921 47.2309 34.103 47.2518L34.9901 46.7903ZM35.0023 46.8136L34.9901 46.7903L34.103 47.2518L34.1151 47.2752L35.0023 46.8136ZM35.0199 46.8243C35.0125 46.8243 35.0057 46.8202 35.0023 46.8136L34.1151 47.2752C34.2907 47.6126 34.6395 47.8243 35.0199 47.8243V46.8243ZM35.6453 46.5191C35.4949 46.7117 35.2643 46.8243 35.0199 46.8243V47.8243C35.5723 47.8243 36.0938 47.5698 36.4336 47.1344L35.6453 46.5191ZM36.0829 45.9584L35.6453 46.5191L36.4336 47.1344L36.8712 46.5737L36.0829 45.9584ZM36.393 45.6146C36.2816 45.7217 36.1779 45.8366 36.0828 45.9585L36.8712 46.5737C36.937 46.4893 37.0088 46.4098 37.086 46.3356L36.393 45.6146ZM37.5138 44.5376L36.393 45.6146L37.086 46.3356L38.2067 45.2586L37.5138 44.5376ZM38.3799 43.9072L37.5679 44.4925L38.1526 45.3037L38.9646 44.7185L38.3799 43.9072ZM39.6776 43.4883C39.2118 43.4883 38.7578 43.6348 38.3799 43.9072L38.9646 44.7185C39.1722 44.5688 39.4217 44.4883 39.6776 44.4883V43.4883ZM40.6389 43.7072C40.339 43.5631 40.0104 43.4883 39.6776 43.4883V44.4883C39.8605 44.4883 40.041 44.5294 40.2058 44.6086L40.6389 43.7072ZM41.3977 44.0718L40.6389 43.7072L40.2058 44.6086L40.9646 44.9732L41.3977 44.0718ZM42.9405 45.1441C42.4885 44.7099 41.964 44.3439 41.3977 44.0718L40.9646 44.9732C41.4339 45.1987 41.871 45.5033 42.2476 45.8652L42.9405 45.1441ZM43.4096 46.2456C43.4096 45.8299 43.2402 45.4322 42.9405 45.1441L42.2476 45.8652C42.3511 45.9647 42.4096 46.1021 42.4096 46.2456H43.4096ZM43.4096 51.267V46.2456H42.4096V51.267H43.4096ZM43.4096 51.5316V51.267H42.4096V51.5316H43.4096ZM43.1954 52.4076C43.3361 52.1371 43.4096 51.8366 43.4096 51.5316H42.4096C42.4096 51.6759 42.3748 51.818 42.3083 51.946L43.1954 52.4076ZM43.0768 52.6355L43.1954 52.4076L42.3083 51.946L42.1897 52.174L43.0768 52.6355ZM43.094 52.565C43.094 52.5895 43.0881 52.6137 43.0768 52.6355L42.1897 52.1739C42.1268 52.2947 42.094 52.4289 42.094 52.565H43.094ZM43.0074 52.4273C43.0603 52.4527 43.094 52.5062 43.094 52.565H42.094C42.094 52.8907 42.2807 53.1875 42.5743 53.3286L43.0074 52.4273ZM43.4417 52.636L43.0074 52.4273L42.5743 53.3286L43.0086 53.5373L43.4417 52.636ZM43.6966 52.7126L43.3777 52.6105L43.0727 53.5628L43.3916 53.665L43.6966 52.7126ZM44.6962 52.7497C44.3659 52.8291 44.0201 52.8163 43.6966 52.7126L43.3916 53.665C43.8894 53.8244 44.4215 53.8442 44.9298 53.7221L44.6962 52.7497ZM45.1462 52.6416L44.6962 52.7497L44.9298 53.7221L45.3798 53.614L45.1462 52.6416ZM45.2149 52.604C45.1957 52.6224 45.172 52.6354 45.1462 52.6416L45.3798 53.614C45.5783 53.5663 45.7606 53.4665 45.9078 53.3251L45.2149 52.604ZM46.0114 52.2834C45.7144 52.2834 45.429 52.3983 45.2149 52.604L45.9078 53.3251C45.9356 53.2983 45.9728 53.2834 46.0114 53.2834V52.2834ZM46.1122 52.2834H46.0114V53.2834H46.1122V52.2834ZM47.5122 53.6833C47.5122 52.9101 46.8854 52.2834 46.1122 52.2834V53.2834C46.3331 53.2834 46.5122 53.4624 46.5122 53.6833H47.5122ZM47.5122 53.9965V53.6833H46.5122V53.9965H47.5122ZM47.0332 55.3888C47.3436 54.9911 47.5122 54.501 47.5122 53.9965H46.5122C46.5122 54.2781 46.4181 54.5516 46.2449 54.7736L47.0332 55.3888ZM46.688 55.8311L47.0332 55.3888L46.2449 54.7736L45.8997 55.2159L46.688 55.8311ZM46.0226 56.4374C46.2771 56.2744 46.5021 56.0694 46.688 55.8311L45.8997 55.2159C45.7833 55.365 45.6425 55.4933 45.4832 55.5954L46.0226 56.4374ZM45.934 56.4942L46.0226 56.4374L45.4832 55.5954L45.3946 55.6521L45.934 56.4942ZM45.3788 57.1987C45.4795 56.9082 45.6751 56.66 45.934 56.4942L45.3946 55.6522C44.9466 55.9391 44.6083 56.3684 44.434 56.871L45.3788 57.1987ZM45.3031 57.6476C45.3031 57.4948 45.3287 57.3431 45.3788 57.1987L44.434 56.871C44.3473 57.1208 44.3031 57.3833 44.3031 57.6476H45.3031ZM45.3031 58.2424V57.6476H44.3031V58.2424H45.3031ZM44.2749 60.6566C44.9318 60.0253 45.3031 59.1535 45.3031 58.2424H44.3031C44.3031 58.8814 44.0427 59.4928 43.582 59.9355L44.2749 60.6566ZM44.2028 60.7258L44.2749 60.6566L43.582 59.9356L43.5099 60.0048L44.2028 60.7258ZM41.624 62.5906L44.1487 60.7709L43.564 59.9597L41.0393 61.7794L41.624 62.5906ZM40.9323 63.0892L41.624 62.5906L41.0393 61.7794L40.3476 62.2779L40.9323 63.0892ZM39.3659 63.5948C39.9282 63.5948 40.4762 63.4179 40.9323 63.0892L40.3476 62.2779C40.0617 62.484 39.7183 62.5948 39.3659 62.5948V63.5948ZM38.0764 63.2641C38.4715 63.4811 38.9151 63.5948 39.3659 63.5948V62.5948C39.0834 62.5948 38.8054 62.5235 38.5577 62.3875L38.0764 63.2641ZM37.1871 62.7757L38.0764 63.2641L38.5577 62.3875L37.6684 61.8992L37.1871 62.7757ZM35.6511 62.3817C36.1881 62.3817 36.7164 62.5172 37.1871 62.7757L37.6684 61.8992C37.0502 61.5597 36.3564 61.3817 35.6511 61.3817V62.3817ZM34.653 62.3817H35.6511V61.3817H34.653V62.3817ZM34.2236 62.4226C34.3651 62.3954 34.5089 62.3817 34.653 62.3817V61.3817C34.4456 61.3817 34.2386 61.4014 34.0349 61.4406L34.2236 62.4226ZM33.203 62.6188L34.2236 62.4226L34.0349 61.4406L33.0143 61.6367L33.203 62.6188ZM33.1144 62.6848C33.1323 62.6504 33.1649 62.6261 33.203 62.6188L33.0143 61.6367C32.6761 61.7017 32.3862 61.9178 32.2273 62.2232L33.1144 62.6848ZM32.1148 63.2915C32.5351 63.2915 32.9204 63.0576 33.1144 62.6848L32.2273 62.2232C32.2055 62.2652 32.1621 62.2915 32.1148 62.2915V63.2915ZM31.7363 63.2915H32.1148V62.2915H31.7363V63.2915ZM30.5235 62.8032C30.8495 63.1166 31.2841 63.2915 31.7363 63.2915V62.2915C31.5425 62.2915 31.3561 62.2165 31.2164 62.0822L30.5235 62.8032ZM30.4349 62.7181L30.5235 62.8032L31.2164 62.0822L31.1278 61.9971L30.4349 62.7181ZM30.1607 62.5278C30.2616 62.5763 30.3542 62.6405 30.4349 62.7181L31.1278 61.9971C30.9706 61.846 30.7903 61.7209 30.5937 61.6264L30.1607 62.5278ZM29.754 62.3324L30.1607 62.5278L30.5937 61.6264L30.1871 61.431L29.754 62.3324ZM29.0544 61.8886L29.7008 62.3027L30.2403 61.4607L29.5938 61.0465L29.0544 61.8886ZM28.4156 61.1895C28.5638 61.4744 28.784 61.7154 29.0544 61.8886L29.5938 61.0465C29.4706 60.9676 29.3703 60.8578 29.3027 60.728L28.4156 61.1895ZM28.2082 60.3415C28.2082 60.6367 28.2794 60.9276 28.4156 61.1895L29.3027 60.728C29.2406 60.6086 29.2082 60.4761 29.2082 60.3415H28.2082ZM28.2082 59.4555V60.3415H29.2082V59.4555H28.2082ZM28.2082 59.1522V59.4555H29.2082V59.1522H28.2082ZM28.3536 59.3139C28.2709 59.3051 28.2082 59.2353 28.2082 59.1522H29.2082C29.2082 58.7241 28.8854 58.365 28.4597 58.3196L28.3536 59.3139ZM26.1518 59.0788L28.3535 59.3139L28.4597 58.3196L26.258 58.0845L26.1518 59.0788ZM25.3129 58.7839C25.5659 58.9459 25.8531 59.0469 26.1518 59.0788L26.258 58.0845C26.1135 58.069 25.9746 58.0202 25.8523 57.9418L25.3129 58.7839ZM24.4212 57.1535C24.4212 57.8134 24.7572 58.4279 25.3129 58.7839L25.8523 57.9418C25.5837 57.7697 25.4212 57.4726 25.4212 57.1535H24.4212ZM24.4212 55.5129V57.1535H25.4212V55.5129H24.4212ZM23.8845 54.6597C24.2125 54.8173 24.4212 55.1489 24.4212 55.5129H25.4212C25.4212 54.7645 24.9922 54.0824 24.3176 53.7583L23.8845 54.6597ZM23.6985 54.5702L23.8845 54.6596L24.3176 53.7583L24.1316 53.6689L23.6985 54.5702ZM23.1074 54.16C23.2814 54.3273 23.4809 54.4657 23.6985 54.5702L24.1316 53.6689C24.0097 53.6103 23.8979 53.5327 23.8003 53.439L23.1074 54.16ZM22.7837 53.8489L23.1074 54.16L23.8004 53.439L23.4766 53.1279L22.7837 53.8489ZM22.683 53.779C22.7201 53.7968 22.754 53.8204 22.7837 53.8489L23.4766 53.1279C23.3704 53.0259 23.2488 52.9414 23.1161 52.8777L22.683 53.779ZM21.9163 52.7625C21.9913 53.2007 22.2736 53.5823 22.683 53.779L23.1161 52.8777C23.0019 52.8228 22.9229 52.7163 22.902 52.5939L21.9163 52.7625ZM22.8961 53.0087L22.9088 52.6986L21.9096 52.6577L21.8969 52.9678L22.8961 53.0087ZM21.8084 53.6913L22.5429 53.4664L22.2501 52.5102L21.5156 52.7351L21.8084 53.6913ZM21.5893 53.7769C21.6601 53.7429 21.7333 53.7143 21.8084 53.6913L21.5156 52.7351C21.3925 52.7728 21.2723 52.8198 21.1562 52.8755L21.5893 53.7769ZM20.9824 54.2944C21.1365 54.0723 21.3456 53.894 21.5893 53.7769L21.1562 52.8755C20.7565 53.0676 20.4135 53.3601 20.1607 53.7245L20.9824 54.2944ZM20.6616 54.7569L20.9824 54.2944L20.1607 53.7244L19.8399 54.1869L20.6616 54.7569ZM20.4724 55.1293L20.6943 54.7027L19.8072 54.2411L19.5853 54.6677L20.4724 55.1293ZM20.368 55.4006C20.3925 55.3065 20.4275 55.2155 20.4724 55.1293L19.5853 54.6677C19.5057 54.8206 19.4436 54.982 19.4002 55.1489L20.368 55.4006ZM20.1896 56.0866L20.368 55.4006L19.4002 55.1489L19.2218 55.8348L20.1896 56.0866ZM20.2125 56.1679C20.1907 56.147 20.1819 56.1159 20.1896 56.0866L19.2218 55.8348C19.1231 56.2142 19.237 56.6173 19.5196 56.8889L20.2125 56.1679ZM20.423 56.4491C20.3686 56.3445 20.2975 56.2496 20.2125 56.1679L19.5196 56.8889C19.5262 56.8952 19.5317 56.9026 19.5359 56.9106L20.423 56.4491ZM20.6943 56.9706L20.423 56.4491L19.5359 56.9106L19.8072 57.4322L20.6943 56.9706ZM21.1378 57.6029L20.6616 56.9164L19.8399 57.4864L20.3162 58.1729L21.1378 57.6029ZM21.3435 57.7783C21.2609 57.7386 21.1901 57.6782 21.1378 57.6029L20.3162 58.1729C20.4671 58.3904 20.6718 58.565 20.9104 58.6796L21.3435 57.7783ZM22.1259 58.6555C21.9924 58.2705 21.7107 57.9547 21.3435 57.7783L20.9104 58.6796C21.0375 58.7407 21.1349 58.85 21.1811 58.9832L22.1259 58.6555ZM22.2102 58.8983L22.1259 58.6555L21.1811 58.9832L21.2654 59.226L22.2102 58.8983ZM22.3287 59.6018C22.3287 59.3624 22.2886 59.1246 22.2102 58.8983L21.2654 59.226C21.3073 59.3469 21.3287 59.4739 21.3287 59.6018H22.3287ZM22.3287 60.5375V59.6018H21.3287V60.5375H22.3287ZM21.5877 61.8922C22.0494 61.5964 22.3287 61.0858 22.3287 60.5375H21.3287C21.3287 60.745 21.223 60.9383 21.0482 61.0502L21.5877 61.8922ZM21.2957 62.0793L21.5877 61.8922L21.0482 61.0502L20.7563 61.2373L21.2957 62.0793ZM21.105 62.2297C21.1635 62.1734 21.2274 62.1231 21.2957 62.0793L20.7563 61.2373C20.633 61.3163 20.5177 61.4071 20.4121 61.5086L21.105 62.2297ZM20.6603 62.657L21.105 62.2296L20.4121 61.5086L19.9674 61.936L20.6603 62.657ZM19.7679 63.366C20.087 63.1582 20.3858 62.9208 20.6603 62.657L19.9674 61.936C19.7382 62.1563 19.4887 62.3545 19.2223 62.5279L19.7679 63.366ZM18.4615 64.2166L19.7679 63.366L19.2223 62.5279L17.9159 63.3786L18.4615 64.2166ZM18.2544 64.4818C18.2921 64.3728 18.3649 64.2795 18.4615 64.2166L17.9159 63.3786C17.6329 63.5629 17.4194 63.8362 17.3092 64.1555L18.2544 64.4818ZM18.2261 64.6509C18.2261 64.5933 18.2357 64.5362 18.2544 64.4818L17.3092 64.1555C17.2542 64.3149 17.2261 64.4823 17.2261 64.6509H18.2261ZM18.2261 65.9654V64.6509H17.2261V65.9654H18.2261ZM20.2816 70.7917C18.9683 69.5296 18.2261 67.7868 18.2261 65.9654H17.2261C17.2261 68.059 18.0792 70.0621 19.5887 71.5127L20.2816 70.7917ZM20.325 70.8334L20.2816 70.7917L19.5887 71.5127L19.6321 71.5544L20.325 70.8334ZM20.5201 72.0212C20.7258 71.6258 20.6463 71.1422 20.325 70.8334L19.6321 71.5544C19.6335 71.5558 19.6339 71.5579 19.6329 71.5597L20.5201 72.0212ZM19.629 72.562C20.0036 72.562 20.3471 72.3536 20.5201 72.0212L19.6329 71.5597C19.6322 71.5611 19.6307 71.562 19.629 71.562V72.562ZM17.0949 72.562H19.629V71.562H17.0949V72.562ZM14.5106 72.2552L17.0353 72.5585L17.1545 71.5656L14.6298 71.2623L14.5106 72.2552ZM13.5625 72.0309L14.4534 72.2449L14.687 71.2726L13.7961 71.0586L13.5625 72.0309ZM12.9259 71.9555C13.1403 71.9555 13.354 71.9808 13.5625 72.0309L13.7961 71.0585C13.5111 70.9901 13.219 70.9555 12.9259 70.9555V71.9555ZM10.8316 72.9371C11.3493 72.3152 12.1167 71.9555 12.9259 71.9555V70.9555C11.8197 70.9555 10.7707 71.4471 10.063 72.2973L10.8316 72.9371ZM10.5363 73.2918L10.8316 72.9371L10.063 72.2973L9.76773 72.652L10.5363 73.2918ZM8.7979 74.9666L10.4985 73.3324L9.80555 72.6114L8.105 74.2456L8.7979 74.9666ZM8.51676 75.2964C8.59931 75.1775 8.69348 75.067 8.7979 74.9666L8.105 74.2456C7.95277 74.3919 7.81546 74.553 7.69511 74.7264L8.51676 75.2964ZM8.12732 76.5411C8.12732 76.0962 8.26319 75.662 8.51676 75.2964L7.69511 74.7265C7.32542 75.2594 7.12732 75.8925 7.12732 76.5411H8.12732ZM8.12732 76.6112V76.5411H7.12732V76.6112H8.12732ZM8.12732 76.991V76.6112H7.12732V76.991H8.12732ZM8.17402 77.2682C8.1431 77.179 8.12732 77.0854 8.12732 76.991H7.12732C7.12732 77.1969 7.16177 77.4014 7.22924 77.5959L8.17402 77.2682ZM8.77558 77.8135C8.49523 77.7461 8.2685 77.5406 8.17402 77.2682L7.22924 77.5959C7.43543 78.1903 7.9302 78.6388 8.54196 78.7858L8.77558 77.8135ZM9.32205 77.9447L8.77557 77.8135L8.54197 78.7858L9.08845 78.9171L9.32205 77.9447ZM10.9842 78.2095L9.28432 77.9372L9.12617 78.9246L10.8261 79.1969L10.9842 78.2095ZM11.438 78.3178C11.2897 78.2703 11.138 78.2341 10.9842 78.2095L10.8261 79.1969C10.9301 79.2135 11.0327 79.238 11.133 79.2702L11.438 78.3178ZM12.9307 79.359C12.549 78.8699 12.0289 78.5071 11.438 78.3178L11.133 79.2702C11.5325 79.3982 11.8842 79.6435 12.1424 79.9742L12.9307 79.359ZM15.1583 82.2132L12.9307 79.359L12.1424 79.9742L14.3699 82.8285L15.1583 82.2132ZM15.3749 82.4533C15.2971 82.3786 15.2247 82.2983 15.1583 82.2132L14.3699 82.8285C14.4656 82.951 14.5699 83.0666 14.682 83.1744L15.3749 82.4533ZM15.6872 82.7535L15.3749 82.4534L14.682 83.1744L14.9943 83.4746L15.6872 82.7535ZM16.5146 83.0866C16.2061 83.0866 15.9096 82.9673 15.6872 82.7535L14.9943 83.4746C15.403 83.8673 15.9478 84.0866 16.5146 84.0866V83.0866ZM16.8789 83.0297C16.7611 83.0674 16.6382 83.0866 16.5146 83.0866V84.0866C16.7418 84.0866 16.9676 84.0514 17.1839 83.982L16.8789 83.0297ZM17.5735 82.8072L16.8789 83.0297L17.1839 83.9821L17.8786 83.7595L17.5735 82.8072ZM17.97 82.7273L17.6317 82.7924L17.8205 83.7744L18.1587 83.7094L17.97 82.7273ZM20.5664 82.4801C19.695 82.4801 18.8257 82.5629 17.97 82.7273L18.1587 83.7094C18.9522 83.5568 19.7584 83.4801 20.5664 83.4801V82.4801ZM21.4908 82.4801H20.5664V83.4801H21.4908V82.4801ZM22.4188 82.8537C22.1693 82.614 21.8368 82.4801 21.4908 82.4801V83.4801C21.5784 83.4801 21.6627 83.514 21.7259 83.5747L22.4188 82.8537ZM22.7561 84.2583C22.9275 83.7644 22.7957 83.216 22.4188 82.8537L21.7259 83.5747C21.8214 83.6665 21.8548 83.8055 21.8114 83.9306L22.7561 84.2583ZM22.7028 84.4122L22.7561 84.2583L21.8114 83.9306L21.758 84.0845L22.7028 84.4122ZM22.3014 85.039C22.4828 84.8647 22.6203 84.6499 22.7028 84.4122L21.758 84.0845C21.7273 84.173 21.676 84.253 21.6085 84.318L22.3014 85.039ZM20.1127 87.1423L22.3014 85.039L21.6084 84.318L19.4198 86.4213L20.1127 87.1423ZM19.1728 89.3489C19.1728 88.5162 19.5122 87.7194 20.1127 87.1423L19.4198 86.4213C18.6231 87.1869 18.1728 88.2441 18.1728 89.3489H19.1728ZM20.0634 91.6499C19.4904 91.0206 19.1728 90.2001 19.1728 89.3489H18.1728C18.1728 90.4491 18.5833 91.5097 19.324 92.3232L20.0634 91.6499ZM21.2516 92.9549L20.0634 91.6499L19.324 92.3232L20.5122 93.6282L21.2516 92.9549ZM22.5286 94.4881L21.2662 92.9716L20.4977 93.6114L21.76 95.1278L22.5286 94.4881ZM23.7909 96.0044L22.5286 94.4881L21.76 95.1278L23.0224 96.6442L23.7909 96.0044ZM25.6733 98.1145L23.7798 95.9915L23.0335 96.6572L24.927 98.7801L25.6733 98.1145ZM26.7593 99.4185L25.6844 98.1274L24.9159 98.7672L25.9907 100.058L26.7593 99.4185ZM27.1309 100.077C27.0477 99.8367 26.9218 99.6138 26.7593 99.4185L25.9907 100.058C26.0762 100.161 26.1424 100.278 26.1862 100.404L27.1309 100.077ZM27.2022 100.282L27.1309 100.077L26.1862 100.404L26.2574 100.61L27.2022 100.282ZM27.5026 100.619C27.3616 100.551 27.2534 100.43 27.2021 100.282L26.2574 100.61C26.396 101.009 26.6883 101.337 27.0695 101.52L27.5026 100.619ZM27.7569 100.677C27.6689 100.677 27.5819 100.657 27.5026 100.619L27.0695 101.52C27.284 101.623 27.5189 101.677 27.7569 101.677V100.677ZM32.5113 100.677H27.7569V101.677H32.5113V100.677ZM34.2996 100.397C33.7216 100.583 33.1183 100.677 32.5113 100.677V101.677C33.2218 101.677 33.928 101.566 34.6047 101.35L34.2996 100.397ZM35.2013 100.179L34.3354 100.387L34.569 101.36L35.4349 101.152L35.2013 100.179ZM36.1222 100.07C35.812 100.07 35.5029 100.107 35.2013 100.179L35.4349 101.152C35.66 101.098 35.8907 101.07 36.1222 101.07V100.07ZM37.9154 99.4606C37.4012 99.8559 36.7708 100.07 36.1222 100.07V101.07C36.9913 101.07 37.836 100.783 38.5249 100.253L37.9154 99.4606ZM39.1588 98.5047L37.9154 99.4606L38.5249 100.253L39.7683 99.2974L39.1588 98.5047ZM41.6904 97.644C40.7747 97.644 39.8848 97.9466 39.1588 98.5047L39.7683 99.2974C40.3195 98.8737 40.9952 98.644 41.6904 98.644V97.644ZM44.2867 98.5555C43.5499 97.9655 42.6342 97.644 41.6904 97.644V98.644C42.407 98.644 43.1022 98.8881 43.6616 99.336L44.2867 98.5555ZM45.1791 99.2701L44.2867 98.5555L43.6616 99.336L44.554 100.051L45.1791 99.2701ZM48.3039 101.773L45.1791 99.2701L44.554 100.051L47.6788 102.553L48.3039 101.773ZM49.5952 102.405C49.1235 102.292 48.6826 102.076 48.3039 101.773L47.6788 102.553C48.1723 102.948 48.7469 103.23 49.3616 103.378L49.5952 102.405ZM49.8577 102.468L49.5952 102.405L49.3616 103.378L49.6242 103.441L49.8577 102.468ZM50.0958 102.496C50.0156 102.496 49.9357 102.487 49.8578 102.468L49.6241 103.441C49.7786 103.478 49.9369 103.496 50.0958 103.496V102.496ZM50.6522 102.331C50.4866 102.439 50.2933 102.496 50.0958 102.496V103.496C50.4872 103.496 50.8702 103.383 51.1981 103.169L50.6522 102.331ZM53.8575 100.243L50.6521 102.331L51.1981 103.169L54.4035 101.08L53.8575 100.243ZM54.1642 99.9433C54.0825 100.062 53.9783 100.164 53.8575 100.243L54.4035 101.08C54.6339 100.93 54.8326 100.736 54.9884 100.51L54.1642 99.9433ZM55.5644 99.0581C54.9962 99.1491 54.4901 99.469 54.1642 99.9433L54.9884 100.51C55.1593 100.261 55.4246 100.093 55.7225 100.045L55.5644 99.0581ZM56.3662 98.9296L55.5644 99.0581L55.7225 100.045L56.5243 99.9171L56.3662 98.9296ZM56.8143 98.7064C56.6912 98.8248 56.5348 98.9026 56.3662 98.9296L56.5243 99.9171C56.8942 99.8578 57.2371 99.687 57.5072 99.4275L56.8143 98.7064ZM57.0625 98.2254C57.0353 98.4088 56.948 98.578 56.8143 98.7064L57.5072 99.4275C57.8004 99.1457 57.9919 98.7747 58.0517 98.3725L57.0625 98.2254ZM57.103 97.9535L57.0625 98.2254L58.0517 98.3725L58.0921 98.1005L57.103 97.9535ZM59.1712 96.0059C58.1143 96.0986 57.259 96.9041 57.103 97.9535L58.0921 98.1005C58.1801 97.5087 58.6625 97.0544 59.2586 97.0021L59.1712 96.0059ZM59.4282 95.9569C59.3444 95.9819 59.2583 95.9983 59.1712 96.0059L59.2586 97.0021C59.413 96.9886 59.5656 96.9594 59.7141 96.9151L59.4282 95.9569ZM60.147 95.7423L59.4282 95.9569L59.7141 96.9151L60.433 96.7006L60.147 95.7423ZM60.95 95.1603C60.7561 95.4398 60.4729 95.6451 60.147 95.7423L60.433 96.7006C60.9763 96.5384 61.4484 96.1962 61.7717 95.7303L60.95 95.1603ZM61.1859 94.6113C61.1449 94.8083 61.0647 94.995 60.95 95.1603L61.7717 95.7303C61.9628 95.4547 62.0966 95.1434 62.1649 94.815L61.1859 94.6113ZM61.321 93.9622L61.1859 94.6113L62.1649 94.815L62.3 94.1659L61.321 93.9622ZM62.1236 92.9366C61.711 93.1348 61.4143 93.514 61.321 93.9622L62.3 94.1659C62.3299 94.0226 62.4248 93.9013 62.5567 93.8379L62.1236 92.9366ZM62.7603 92.7915C62.5399 92.7915 62.3223 92.8411 62.1236 92.9366L62.5567 93.8379C62.6203 93.8074 62.6899 93.7915 62.7603 93.7915V92.7915ZM65.3543 92.7915H62.7603V93.7915H65.3543V92.7915ZM66.8306 93.386C66.4338 93.0046 65.9047 92.7915 65.3543 92.7915V93.7915C65.6464 93.7915 65.9271 93.9046 66.1377 94.107L66.8306 93.386ZM67.6141 93.7014C67.322 93.7014 67.0412 93.5883 66.8306 93.386L66.1377 94.107C66.5346 94.4884 67.0637 94.7014 67.6141 94.7014V93.7014ZM67.8553 93.7014H67.6141V94.7014H67.8553V93.7014ZM68.8208 93.4069C68.5354 93.5988 68.1992 93.7014 67.8553 93.7014V94.7014C68.3981 94.7014 68.9286 94.5396 69.3789 94.2366L68.8208 93.4069ZM71.4123 91.6636L68.8208 93.4069L69.3789 94.2366L71.9704 92.4933L71.4123 91.6636ZM72.3432 90.9922L71.399 91.6728L71.9837 92.4841L72.928 91.8035L72.3432 90.9922ZM72.7664 90.5614C72.6508 90.728 72.5077 90.8737 72.3433 90.9922L72.928 91.8035C73.1845 91.6186 73.4077 91.3913 73.588 91.1314L72.7664 90.5614ZM73.0849 89.5435C73.0849 89.9074 72.9737 90.2625 72.7664 90.5614L73.588 91.1314C73.9115 90.6651 74.0849 90.1111 74.0849 89.5435H73.0849ZM73.0849 88.7424V89.5435H74.0849V88.7424H73.0849ZM73.0849 87.8636V88.7424H74.0849V87.8636H73.0849ZM73.4203 87.076C73.206 87.2819 73.0849 87.5663 73.0849 87.8636H74.0849C74.0849 87.8384 74.0951 87.8144 74.1132 87.797L73.4203 87.076ZM74.0045 86.785C73.7847 86.8202 73.5808 86.9217 73.4203 87.076L74.1132 87.797C74.1268 87.784 74.144 87.7754 74.1626 87.7724L74.0045 86.785ZM75.2641 86.5832L74.0045 86.785L74.1626 87.7724L75.4223 87.5707L75.2641 86.5832ZM76.4481 86.83C76.0971 86.6052 75.6757 86.5173 75.2641 86.5832L75.4223 87.5707C75.5913 87.5436 75.7645 87.5797 75.9087 87.672L76.4481 86.83ZM76.5661 86.9056L76.4481 86.83L75.9087 87.672L76.0266 87.7476L76.5661 86.9056ZM76.9999 86.9321C76.8605 86.999 76.6963 86.989 76.5661 86.9056L76.0266 87.7476C76.4488 88.0181 76.981 88.0506 77.433 87.8334L76.9999 86.9321ZM77.1294 86.838C77.0922 86.8769 77.0483 86.9088 76.9999 86.9321L77.433 87.8334C77.5901 87.7579 77.7323 87.6546 77.8527 87.5285L77.1294 86.838ZM77.957 85.9709L77.1293 86.838L77.8527 87.5285L78.6804 86.6614L77.957 85.9709ZM78.3661 85.5771L77.9722 85.9556L78.6651 86.6767L79.059 86.2981L78.3661 85.5771ZM79.2789 85.2096C78.9386 85.2096 78.6115 85.3413 78.3661 85.5771L79.059 86.2981C79.1181 86.2413 79.1969 86.2096 79.2789 86.2096V85.2096ZM79.5842 84.9789C79.5455 85.1154 79.4208 85.2096 79.2789 85.2096V86.2096C79.868 86.2096 80.3854 85.8186 80.5462 85.2519L79.5842 84.9789ZM80.3532 82.2698L79.5842 84.9789L80.5462 85.2519L81.3152 82.5428L80.3532 82.2698ZM80.3624 82.2371L80.3532 82.2698L81.3152 82.5427L81.3245 82.51L80.3624 82.2371ZM23.8521 51.141L24.1276 50.9644L23.5882 50.1224L23.3127 50.2989L23.8521 51.141ZM24.9419 50.726H26.1516V49.726H24.9419V50.726ZM30.5204 49.0864L32.1343 47.6764L31.4764 46.9233L29.8625 48.3333L30.5204 49.0864ZM32.7646 47.0866H33.5054V46.0866H32.7646V47.0866ZM33.5054 47.0866H34.1103V46.0866H33.5054V47.0866ZM34.1664 47.1207L34.1785 47.144L35.0656 46.6825L35.0535 46.6591L34.1664 47.1207ZM36.497 47.0032L36.9346 46.4426L36.1462 45.8273L35.7087 46.388L36.497 47.0032ZM37.1493 46.2045L38.2701 45.1275L37.5772 44.4065L36.4564 45.4835L37.1493 46.2045ZM38.216 45.1726L39.028 44.5873L38.4433 43.7761L37.6313 44.3613L38.216 45.1726ZM40.2692 44.4774L41.028 44.8421L41.4611 43.9407L40.7023 43.5761L40.2692 44.4774ZM42.473 46.1145V51.1358H43.473V46.1145H42.473ZM42.473 51.1358V51.4005H43.473V51.1358H42.473ZM42.3716 51.8149L42.355 51.8469L43.2421 52.3085L43.2588 52.2764L42.3716 51.8149ZM42.6377 53.1975L43.072 53.4062L43.5051 52.5048L43.0708 52.2961L42.6377 53.1975ZM43.136 53.4317L43.455 53.5338L43.76 52.5815L43.4411 52.4793L43.136 53.4317ZM44.9932 53.5909L45.4432 53.4828L45.2096 52.5105L44.7596 52.6186L44.9932 53.5909ZM46.0748 53.1522H46.1756V52.1522H46.0748V53.1522ZM46.5756 53.5522V53.8653H47.5756V53.5522H46.5756ZM44.3665 57.5165V58.1112H45.3665V57.5165H44.3665ZM22.7517 52.59L22.5779 52.5224L22.215 53.4542L22.3888 53.5219L22.7517 52.59ZM22.4599 51.9391H22.616V50.9391H22.4599V51.9391ZM45.9712 53.1939C45.999 53.1672 46.0361 53.1522 46.0748 53.1522V52.1522C45.7778 52.1522 45.4924 52.2671 45.2782 52.4729L45.9712 53.1939ZM43.455 53.5338C43.9528 53.6933 44.4849 53.713 44.9932 53.5909L44.7596 52.6186C44.4293 52.6979 44.0835 52.6851 43.76 52.5815L43.455 53.5338ZM41.028 44.8421C41.4973 45.0676 41.9344 45.3722 42.311 45.734L43.0039 45.013C42.5519 44.5787 42.0274 44.2128 41.4611 43.9407L41.028 44.8421ZM36.9346 46.4425C37.0004 46.3582 37.0722 46.2786 37.1493 46.2045L36.4564 45.4835C36.345 45.5905 36.2413 45.7055 36.1462 45.8273L36.9346 46.4425ZM35.0833 47.6932C35.6357 47.6932 36.1572 47.4387 36.497 47.0032L35.7087 46.388C35.5583 46.5806 35.3277 46.6932 35.0833 46.6932V47.6932ZM23.7539 51.2485C23.7766 51.2047 23.8105 51.1676 23.8521 51.141L23.3127 50.2989C23.1239 50.4198 22.9702 50.5881 22.8667 50.7869L23.7539 51.2485ZM22.8667 50.7869C22.8181 50.8804 22.7214 50.9391 22.616 50.9391V51.9391C23.0944 51.9391 23.5331 51.6729 23.7539 51.2485L22.8667 50.7869ZM44.4974 56.7399C44.4107 56.9896 44.3665 57.2521 44.3665 57.5165H45.3665C45.3665 57.3637 45.3921 57.2119 45.4422 57.0676L44.4974 56.7399ZM44.5642 56.5689C44.5398 56.6248 44.5175 56.6819 44.4974 56.7399L45.4422 57.0676C45.4538 57.034 45.4667 57.001 45.4808 56.9687L44.5642 56.5689ZM46.5756 53.8653C46.5756 54.0744 46.5237 54.2791 46.426 54.4615L47.3076 54.9335C47.4826 54.6067 47.5756 54.24 47.5756 53.8653H46.5756ZM45.4432 53.4828C45.6417 53.4351 45.8239 53.3354 45.9712 53.1939L45.2782 52.4729C45.2591 52.4913 45.2354 52.5043 45.2096 52.5105L45.4432 53.4828ZM42.1574 52.4338C42.1574 52.7595 42.3441 53.0564 42.6377 53.1975L43.0708 52.2961C43.1237 52.3216 43.1574 52.3751 43.1574 52.4338H42.1574ZM42.201 52.1655C42.1722 52.2517 42.1574 52.3423 42.1574 52.4338H43.1574C43.1574 52.4504 43.1547 52.4667 43.1495 52.4822L42.201 52.1655ZM42.3109 45.734C42.4145 45.8335 42.473 45.9709 42.473 46.1145H43.473C43.473 45.6988 43.3036 45.3011 43.0039 45.013L42.3109 45.734ZM39.741 44.3571C39.9239 44.3571 40.1044 44.3982 40.2692 44.4774L40.7023 43.5761C40.4023 43.432 40.0738 43.3571 39.741 43.3571V44.3571ZM39.028 44.5873C39.2356 44.4377 39.4851 44.3571 39.741 44.3571V43.3571C39.2752 43.3571 38.8212 43.5037 38.4433 43.7761L39.028 44.5873ZM34.1785 47.144C34.3541 47.4815 34.7029 47.6932 35.0833 47.6932V46.6932C35.0759 46.6932 35.0691 46.6891 35.0656 46.6825L34.1785 47.144ZM32.4459 47.2801C32.5077 47.1612 32.6306 47.0866 32.7646 47.0866V46.0866C32.2576 46.0866 31.7928 46.3688 31.5588 46.8186L32.4459 47.2801ZM46.1756 53.1522C46.3965 53.1522 46.5756 53.3313 46.5756 53.5522H47.5756C47.5756 52.779 46.9488 52.1522 46.1756 52.1522V53.1522ZM26.1516 50.726C27.7583 50.726 29.3104 50.1435 30.5204 49.0864L29.8625 48.3333C28.8347 49.2312 27.5163 49.726 26.1516 49.726V50.726ZM24.1276 50.9644C24.3707 50.8087 24.6532 50.726 24.9419 50.726V49.726C24.462 49.726 23.9922 49.8636 23.5882 50.1224L24.1276 50.9644ZM34.1103 47.0866C34.1339 47.0866 34.1555 47.0998 34.1664 47.1207L35.0535 46.6591C34.8705 46.3073 34.5069 46.0866 34.1103 46.0866V47.0866ZM42.473 51.4005C42.473 51.5448 42.4382 51.6869 42.3716 51.8149L43.2588 52.2764C43.3995 52.0059 43.473 51.7055 43.473 51.4005H42.473ZM32.1343 47.6764C32.262 47.5649 32.3676 47.4305 32.4459 47.2801L31.5588 46.8186C31.5381 46.8583 31.5101 46.8939 31.4764 46.9233L32.1343 47.6764Z"
                                                stroke="black"/>
                                        </svg>