<svg className="gyeongnam" width="107" height="83" viewBox="0 0 107 83"
                                             fill="none"
                                             xmlns="http://www.w3.org/2000/svg">
                                            <path
                                                d="M105.647 44.7447L105.547 45.5124C105.49 45.95 105.286 46.3552 104.967 46.661C104.672 46.9452 104.293 47.1284 103.887 47.1842L102.303 47.4016L101.589 47.5161C100.847 47.6349 100.205 48.0978 99.8586 48.7641C99.8053 48.8666 99.7595 48.9728 99.7217 49.0819L99.6891 49.1759C99.3441 50.1706 98.5954 50.9735 97.6272 51.387L96.3071 51.9508L94.5406 52.6783C94.2465 52.7995 93.9393 52.8861 93.6253 52.9364C92.7054 53.0837 91.8629 53.5391 91.2357 54.2279L91.0283 54.4557C90.3552 55.195 89.4757 55.715 88.5036 55.9486L88.037 56.0607C87.6608 56.1511 87.2752 56.1967 86.8882 56.1967H85.1922C84.6426 56.1967 84.128 56.4661 83.8147 56.9176C83.7277 57.043 83.6583 57.1796 83.6083 57.3238L83.3921 57.9472C83.1711 58.5843 82.7589 59.1378 82.2118 59.5322C81.9324 59.7335 81.6231 59.8896 81.2951 59.9946L80.1672 60.3559C79.9879 60.4134 79.8008 60.4426 79.6125 60.4426H79.0973C78.6312 60.4426 78.2162 60.7379 78.0635 61.1783C78.0235 61.2936 78.0031 61.4148 78.0031 61.5368V61.8818C78.0031 62.331 78.1113 62.7736 78.3187 63.1721C78.526 63.5706 78.6343 64.0132 78.6343 64.4625V64.6765C78.6343 65.086 78.5657 65.4926 78.4315 65.8795L78.4141 65.9298C78.3506 66.113 78.2714 66.2902 78.1939 66.468C78.0991 66.6853 78.0031 66.9508 78.0031 67.1148C78.0031 67.2722 77.8995 67.418 77.7421 67.418H75.1628H74.8375C73.4538 67.418 72.1515 66.7634 71.3261 65.6528C71.1493 65.4149 70.9488 65.1957 70.7276 64.9983L67.0732 61.7373C66.806 61.4988 66.4326 61.4195 66.0916 61.5288C65.8377 61.6101 65.6262 61.7884 65.5031 62.025L65.4972 62.0362C65.42 62.1848 65.3796 62.3497 65.3796 62.5171V63.0588C65.3796 63.3354 65.4149 63.6109 65.4845 63.8786L65.5942 64.3002C65.661 64.557 65.7726 64.8001 65.9239 65.0182C66.186 65.396 66.3264 65.8447 66.3264 66.3044V66.7177C66.3264 66.9805 66.2824 67.2416 66.1963 67.4899L66.0887 67.7999C66.0375 67.9476 65.952 68.081 65.8394 68.1893C65.7442 68.2808 65.6318 68.3523 65.5086 68.3996L65.1668 68.531C64.5069 68.7846 63.7658 68.7092 63.1705 68.3279L61.277 66.8115L60.9322 66.5906C60.5391 66.3388 60.0822 66.2049 59.6154 66.2049H57.7809C57.4459 66.2049 57.1744 66.4765 57.1744 66.8115V69.8443C57.1744 71.0069 56.7006 72.1193 55.8623 72.9248L54.8389 73.9084C53.9115 74.7996 53.3873 76.0303 53.3873 77.3165V77.6683C53.3873 78.4941 53.1114 79.2962 52.6033 79.9472L52.564 79.9976C52.4818 80.1029 52.3922 80.2022 52.2959 80.2948L52.1566 80.4287C51.9284 80.648 51.7553 80.9182 51.6516 81.2172L51.5676 81.4595C51.5191 81.5993 51.4382 81.7256 51.3316 81.8281L51.1275 82.0241C50.9682 82.1772 50.7306 82.2153 50.5315 82.1196L50.3945 82.0537C50.2948 82.0059 50.2315 81.9051 50.2315 81.7946C50.2315 81.7163 50.1996 81.6415 50.1432 81.5873L49.8279 81.2842C49.6819 81.1439 49.4872 81.0656 49.2847 81.0656C49.0822 81.0656 48.8876 81.1439 48.7416 81.2842L48.6535 81.3688C48.4511 81.5634 48.1811 81.6721 47.9003 81.6721H47.7068L45.4977 81.9754C45.0927 81.9754 44.7034 81.8187 44.4114 81.5381L44.1053 81.2439C43.9868 81.13 43.9198 80.9726 43.9198 80.8082C43.9198 80.5921 44.0351 80.3925 44.2222 80.2846L45.329 79.6465C45.441 79.5819 45.5448 79.5039 45.6381 79.4143L45.6915 79.3629C45.9709 79.0944 46.1289 78.7236 46.1289 78.3361V78.0994C46.1289 77.5601 45.6917 77.123 45.1525 77.123C44.9657 77.123 44.783 77.1765 44.6257 77.2772L44.3931 77.4262C44.084 77.6243 43.7246 77.7295 43.3576 77.7295H43.1692C42.6313 77.7295 42.107 77.5603 41.6706 77.2457L41.4113 77.0588C40.4492 76.3654 39.1611 76.3301 38.1625 76.9699C38.0036 77.0717 37.8551 77.1888 37.719 77.3196L37.6761 77.3608C37.025 77.9866 36.1569 78.3361 35.2537 78.3361H34.492C33.2421 78.3361 32.0311 77.9015 31.0664 77.1069L30.3495 76.5164C29.543 75.7413 29.0872 74.6711 29.0872 73.5525V69.8443V68.424C29.0872 67.9892 28.8551 67.5875 28.4785 67.3703L28.3554 67.2994C27.8771 67.0236 27.2672 67.1604 26.9525 67.614C26.9031 67.6853 26.8626 67.7623 26.8319 67.8435L25.813 70.5361C25.6849 70.8746 25.4512 71.1628 25.1465 71.358C24.8367 71.5565 24.4704 71.6481 24.1037 71.6187L22.8582 71.5189C21.5824 71.4167 20.3119 71.7715 19.2736 72.5199L18.9687 72.7397C18.5624 73.0324 18.1234 73.2767 17.6604 73.4674L17.5344 73.5192C16.6191 73.8962 15.6388 74.0902 14.6489 74.0902H13.138C12.8344 74.0902 12.5346 74.1585 12.2609 74.29C11.724 74.548 11.3279 75.0292 11.1779 75.6056L11.1467 75.7255C11.1149 75.8479 11.0988 75.9738 11.0988 76.1003V76.1141C11.0988 76.7219 10.7244 77.2669 10.1571 77.4849C9.7536 77.64 9.30225 77.6095 8.92333 77.4014L7.58055 76.664C7.40211 76.566 7.23738 76.4449 7.0906 76.3039C6.45333 75.6915 6.22022 74.7697 6.48972 73.928L6.79618 72.9708C7.12528 71.943 7.86286 71.0958 8.83567 70.6284L9.09084 70.5058C9.98453 70.0764 10.7023 69.3613 11.2039 68.5061C11.4185 68.1403 11.6178 67.8291 11.7299 67.7213C13.079 66.4249 10.3631 64.3438 8.95916 63.107C7.87181 62.1491 6.96866 60.9964 6.29983 59.7109L6.04938 59.2295L5.54905 57.9473C5.26096 57.2091 4.71839 56.5982 4.0193 56.2249C2.93779 55.6475 2.26234 54.5212 2.26234 53.2952V53.0373C2.26234 52.7187 2.30295 52.4013 2.38317 52.0929L2.59068 51.2953C2.78814 50.5362 2.75635 49.7357 2.49933 48.9947L2.42448 48.7789C2.31727 48.4698 2.15511 48.1827 1.9458 47.9312C1.3561 47.2229 1.16586 46.2638 1.44052 45.384L1.81394 44.1878C1.90232 43.9047 2.0156 43.63 2.15248 43.3669L2.56911 42.5661C2.78224 42.1565 2.89352 41.7015 2.89352 41.2398C2.89352 40.1789 3.47796 39.2044 4.41379 38.7047L4.55565 38.629C5.30848 38.2271 5.86542 37.5362 6.09842 36.7152L6.25394 36.1672C6.5302 35.1938 6.46892 34.1555 6.08008 33.2213L5.82159 32.6003C5.55813 31.9673 5.48043 31.2724 5.59759 30.5969L5.69347 30.044C5.72003 29.8908 5.7797 29.7453 5.86831 29.6176C6.15743 29.2008 6.11366 28.6382 5.76355 28.2711L3.8682 26.2841C3.27588 25.6631 3.10639 24.7509 3.43617 23.9586C3.49501 23.8172 3.5687 23.6825 3.65599 23.5566L4.78703 21.9262L4.8323 21.8566C5.85154 20.2894 6.712 18.6246 7.40093 16.8867C8.38835 14.3958 9.72661 12.0587 11.3751 9.94642L11.7299 9.49181L12.542 8.32125C12.8414 7.88957 13.1831 7.48874 13.5619 7.1247C14.433 6.28764 15.4839 5.66087 16.6344 5.29233L17.7261 4.94261L18.1944 4.85259C18.924 4.71237 19.6108 4.40352 20.1998 3.9507C20.6509 3.60386 21.0363 3.17903 21.3377 2.69633L21.8287 1.90984L21.8662 1.85586C22.2241 1.33989 22.8621 1.09664 23.4727 1.24333C23.6379 1.28302 23.7953 1.35008 23.9383 1.44172L24.3205 1.68659C24.5523 1.83506 24.7689 2.00588 24.9674 2.19658L29.6113 6.65941C30.2875 7.30921 31.1889 7.67212 32.1267 7.67212H32.3553C32.9002 7.67212 33.4337 7.82835 33.8924 8.12229C34.0548 8.2263 34.2273 8.31356 34.4072 8.38273L34.6653 8.48193C35.3578 8.74813 35.9901 9.15007 36.525 9.66413L41.6301 14.5702C41.8924 14.8223 42.1119 15.1154 42.2798 15.4381L42.5174 15.8949C42.6094 16.0717 42.6574 16.268 42.6574 16.4672V17.3645C42.6574 17.5663 42.5752 17.7594 42.4296 17.8992C42.3715 17.9551 42.3228 18.0201 42.2856 18.0916L42.184 18.2869C42.0795 18.4877 41.943 18.6702 41.7797 18.827L41.5857 19.0136C41.4594 19.1349 41.3146 19.2354 41.1568 19.3112C40.8993 19.435 40.6783 19.6234 40.5154 19.8582L40.2791 20.1988C40.1838 20.3362 40.1327 20.4995 40.1327 20.6667C40.1327 20.8901 40.2238 21.1039 40.3848 21.2587L40.7639 21.623L41.1426 21.9869C41.3098 22.1476 41.5016 22.2807 41.7107 22.3812L41.914 22.4788C41.9883 22.5146 42.0565 22.5619 42.116 22.6191C42.2609 22.7583 42.454 22.8361 42.655 22.8361H48.0224H48.4426C48.9925 22.8361 49.5308 22.9937 49.9938 23.2903C50.1519 23.3916 50.2996 23.5081 50.435 23.6382L50.6733 23.8672C51.0078 24.1887 51.3913 24.4548 51.8094 24.6557C52.2249 24.8554 52.6799 24.959 53.1408 24.959H54.3764C54.5563 24.959 54.7339 24.9995 54.896 25.0774C55.1449 25.197 55.4275 25.2271 55.696 25.1626L56.5432 24.959L57.1597 24.7615C57.3789 24.6913 57.5881 24.5929 57.782 24.4686L57.9053 24.3897C58.2523 24.1674 58.6558 24.0492 59.0679 24.0492H59.4881C60.038 24.0492 60.5763 23.8915 61.0393 23.5949C61.1974 23.4936 61.3452 23.3771 61.4805 23.247L61.5926 23.1394C61.7754 22.9637 62.0576 22.9438 62.2632 23.092L62.6903 23.3998C62.9918 23.6171 63.1705 23.9661 63.1705 24.3378V24.4304C63.1705 24.5796 63.1955 24.7277 63.2444 24.8686L63.3445 25.1573C63.4385 25.4282 63.569 25.685 63.7324 25.9206L64.1173 26.4754L64.6872 27.3883C64.9353 27.7856 65.2687 28.1229 65.6632 28.3756C65.8939 28.5235 66.143 28.6407 66.404 28.7243L66.6439 28.8012C66.8517 28.8677 67.0687 28.9016 67.2869 28.9016H67.3421C67.7092 28.9016 68.0686 28.7964 68.3777 28.5984C68.6868 28.4003 69.0462 28.2951 69.4133 28.2951H71.8293C72.5635 28.2951 73.2823 28.5056 73.9004 28.9016L74.9383 29.4003C75.087 29.4718 75.2234 29.5665 75.3424 29.6808C75.6321 29.9592 76.0184 30.1148 76.4203 30.1148H79.4854C79.7561 30.1148 80.0233 30.0539 80.2672 29.9367C80.4398 29.8537 80.5981 29.7439 80.7362 29.6112L80.7621 29.5863C81.022 29.3366 81.3437 29.1605 81.6941 29.0763L82.4213 28.9016L83.2683 28.7389C83.7512 28.646 84.2119 28.4621 84.626 28.1968C84.8388 28.0605 85.0378 27.9036 85.22 27.7285L85.4758 27.4826C85.752 27.2172 86.0686 26.9974 86.4139 26.8316C86.9018 26.5971 87.4361 26.4754 87.9774 26.4754H88.1932C88.5518 26.4754 88.9092 26.5177 89.2579 26.6015L89.3978 26.6351C89.795 26.7306 90.181 26.8679 90.5493 27.0449L90.5643 27.0521C91.0247 27.2733 91.5116 27.4341 92.0131 27.5304L92.8356 27.6885L94.2373 27.8809C94.7 27.9445 95.0447 28.3398 95.0447 28.8069C95.0447 29.0612 94.9411 29.3045 94.7577 29.4807L94.2753 29.9443C94.1574 30.0577 94.0286 30.1592 93.8909 30.2474L93.3583 30.5886C93.2206 30.6769 93.0918 30.7784 92.9739 30.8918L92.3612 31.4806C92.2611 31.5768 92.2045 31.7096 92.2045 31.8485C92.2045 31.9054 92.195 31.9619 92.1763 32.0157L92.0917 32.2596C91.9595 32.6408 91.9431 33.0527 92.0447 33.4432L92.1072 33.6833C92.1717 33.9312 92.2735 34.1679 92.4092 34.3853C92.8708 35.1246 93.6808 35.5738 94.5524 35.5738H96.6227H96.6321C97.031 35.5738 97.4145 35.7282 97.7022 36.0046C97.8233 36.121 97.9246 36.2563 98.0021 36.4053L98.2006 36.7869L98.5162 37.3934C98.7263 37.7972 98.9682 38.1835 99.2397 38.5488L100.146 39.7685C100.322 40.0044 100.516 40.2253 100.728 40.429L101.169 40.8523C101.293 40.9718 101.397 41.1109 101.477 41.2639C101.605 41.5099 101.795 41.7181 102.028 41.8676L102.123 41.9284C102.447 42.1357 102.823 42.2459 103.207 42.2459H103.974C104.305 42.2459 104.608 42.4299 104.761 42.7233C104.805 42.8088 104.863 42.8865 104.933 42.9533L105.06 43.0758C105.51 43.5076 105.727 44.1269 105.647 44.7447Z"
                                                onClick={() => toggleRegion('경남')}
                                                stroke="black"
                                                fill={selectedItems.includes('경남') ? '#FDE2B9' : '#fff'}/>
                                        </svg>