<svg className="incheon" width="13" height="20" viewBox="0 0 13 20"
                                             fill="none"
                                             xmlns="http://www.w3.org/2000/svg">
                                            <path
                                                d="M2.34757 2.05751C2.07301 2.2373 1.61396 2.55032 1.31559 2.81968C1.10882 3.00634 1.0087 3.28188 1.02394 3.56002L1.22929 7.30963C1.28571 8.3398 1.62696 9.33409 2.21503 10.1818L2.86337 11.1164C3.08848 11.4409 3.20911 11.8264 3.20911 12.2213V12.5834C3.20911 12.7328 3.12344 12.869 2.98876 12.9337C2.7732 13.0373 2.70141 13.3091 2.83773 13.5056L3.20911 14.041L6.16198 17.73C6.29338 17.8942 6.36497 18.0982 6.36497 18.3084V18.3278C6.36497 18.4988 6.41586 18.666 6.51117 18.8081C6.7723 19.1973 7.29652 19.3066 7.69143 19.0542L7.9429 18.8934L9.52083 17.6803L10.3442 16.8891C10.4263 16.8102 10.5158 16.7396 10.6117 16.6782L10.9036 16.4911C11.2219 16.2873 11.4144 15.9353 11.4144 15.5574V14.6217C11.4144 14.4381 11.3836 14.2557 11.3234 14.0821L11.2392 13.8392C11.1493 13.5801 10.9597 13.3676 10.7126 13.2489C10.552 13.1717 10.4142 13.0542 10.3127 12.9078L9.83642 12.2213L9.56507 11.6998C9.53577 11.6435 9.49749 11.5923 9.45173 11.5484C9.2995 11.4021 9.23816 11.185 9.29131 10.9806L9.46976 10.2947C9.5037 10.1642 9.55224 10.038 9.61446 9.91841L9.6192 9.9093C9.76182 9.63518 9.96967 9.40034 10.2244 9.22546L11.6143 8.2714C11.8842 8.08613 12.0455 7.77978 12.0455 7.4524V6.94722C12.0455 6.67759 11.827 6.45902 11.5573 6.45902C11.464 6.45902 11.3726 6.43225 11.294 6.38189L10.7053 6.00475C10.5472 5.90346 10.3994 5.78694 10.264 5.65685L10.1035 5.50255C9.92587 5.33186 9.73196 5.17897 9.52453 5.04608L9.38302 4.95542C9.05733 4.74676 8.77615 4.47572 8.55568 4.15791L8.48162 4.05116C8.33402 3.8384 8.22512 3.60126 8.15993 3.35065L8.13033 3.23688C8.00983 2.77368 7.71905 2.37298 7.31605 2.11478L7.2538 2.07491C7.08371 1.96593 6.93686 1.82438 6.82172 1.6584C6.53562 1.246 6.06557 1 5.56364 1H4.5562C4.29092 1 4.02725 1.0412 3.77461 1.12213C3.40254 1.24132 3.05889 1.44764 2.77718 1.71835C2.64587 1.84454 2.49993 1.95774 2.34757 2.05751Z"
                                                fill={selectedItems.includes('인천') ? '#FFCCD5' : '#fff'} // 선택된 지역에 색상을 설정
                                                stroke="black"
                                                onClick={() => toggleRegion('인천')}/>
                                        </svg>