<svg width="132" height="132" viewBox="0 0 132 132" fill="none" xmlns="http://www.w3.org/2000/svg">
                                                <g clip-path="url(#clip0_1018_7981)">
                                                <path d="M120.333 60.8352C120.344 76.6254 114.197 91.8005 103.193 103.149C92.1887 114.497 77.1905 121.129 61.3726 121.639C60.7042 121.662 60.0329 121.673 59.3587 121.672C44.7959 121.694 30.7102 116.494 19.669 107.02C18.1321 105.705 16.6647 104.318 15.267 102.857C12.1879 99.6423 9.46979 96.1017 7.16092 92.2983C3.86939 86.8766 1.4529 80.9722 0 74.8014V46.869C1.48625 40.5614 3.97868 34.533 7.38198 29.0144C9.32539 30.1949 11.6267 30.6461 13.8733 30.2871C16.1199 29.9281 18.1649 28.7825 19.6417 27.0555C21.1184 25.3286 21.9303 23.1333 21.9318 20.8632C21.9333 18.5931 21.1243 16.3968 19.6499 14.6679C28.4588 7.13199 39.2381 2.25745 50.7245 0.615572C62.2109 -1.02631 73.9284 0.632503 84.5037 5.39758C85.1199 5.67545 85.7302 5.96373 86.3348 6.26244C106.479 16.1944 120.333 36.9006 120.333 60.8352Z" fill="#F2F2F2"/>
                                                <path d="M12.8808 27.9737C16.0531 27.9737 18.6248 25.4078 18.6248 22.2427C18.6248 19.0776 16.0531 16.5117 12.8808 16.5117C9.70842 16.5117 7.13672 19.0776 7.13672 22.2427C7.13672 25.4078 9.70842 27.9737 12.8808 27.9737Z" fill="#F2F2F2"/>
                                                <path d="M132 132L19.6689 131.826V74.3704C19.7333 74.3617 19.8047 74.353 19.883 74.3426C20.8752 74.2158 22.9709 73.971 25.923 73.7469C32.8907 73.219 44.6225 72.8074 57.8529 74.3426C59.8703 74.5771 61.919 74.8584 63.9991 75.1866C65.7275 75.4628 67.4705 75.7759 69.2279 76.1262C69.992 76.279 70.7579 76.4399 71.5255 76.609C73.1983 76.9754 74.8751 77.3812 76.5559 77.8263C82.2232 79.3041 87.7498 81.274 93.0727 83.7136C95.2972 84.7469 97.4869 85.874 99.6244 87.1088C102.763 88.9125 105.762 90.9471 108.597 93.1958C119.546 101.909 128.221 114.472 132 132Z" fill="#2F2E41"/>
                                                <path d="M112.331 132H0V74.5446C0.064403 74.5359 0.135768 74.5272 0.214096 74.5168C0.360308 74.4977 0.52915 74.4768 0.722367 74.4543C1.83985 74.3188 3.73538 74.1121 6.25406 73.9211C8.00338 73.7891 10.0538 73.6641 12.3549 73.5738C16.6299 73.4088 21.7665 73.3689 27.4287 73.6415C30.8456 73.8065 34.4556 74.0843 38.184 74.5168C40.2014 74.7512 42.2501 75.0326 44.3301 75.3608C46.0586 75.6369 47.8015 75.9501 49.559 76.3003C50.3231 76.4531 51.089 76.6141 51.8566 76.7831C53.5293 77.1496 55.2061 77.5554 56.887 78.0005C61.134 79.116 65.3059 80.4988 69.3777 82.1407C70.7319 82.6895 72.0739 83.2719 73.4037 83.8878C74.1557 84.2369 74.9036 84.5975 75.6474 84.9697C77.1026 85.6957 78.5386 86.4667 79.9554 87.283C82.1516 88.5468 84.2809 89.9229 86.3348 91.4058C86.4915 91.5152 86.6481 91.6298 86.8048 91.7444C87.5219 92.2724 88.2298 92.8142 88.9283 93.37C89.1668 93.561 89.4053 93.752 89.642 93.9465C90.8308 94.919 91.9912 95.9373 93.1232 97.0013C95.9043 99.616 98.4426 102.476 100.707 105.547C105.978 112.699 110.04 121.4 112.324 131.969C112.326 131.979 112.329 131.99 112.331 132Z" fill="#3F3D56"/>
                                                <path opacity="0.1" d="M53.4742 97.1335C53.9491 96.0846 50.499 93.5059 45.7681 91.3737C41.0373 89.2416 36.8172 88.3634 36.3423 89.4123C35.8674 90.4612 39.3175 93.04 44.0484 95.1721C48.7792 97.3043 52.9993 98.1824 53.4742 97.1335Z" fill="black"/>
                                                <path opacity="0.1" d="M70.7066 101.474C71.1815 100.425 67.7314 97.8467 63.0005 95.7145C58.2697 93.5824 54.0496 92.7042 53.5747 93.7531C53.0998 94.802 56.55 97.3808 61.2808 99.5129C66.0116 101.645 70.2317 102.523 70.7066 101.474Z" fill="black"/>
                                                <path d="M12.3545 75.538V62.6152" stroke="#3F3D56" strokeWidth="2" strokeMiterlimit="10"/>
                                                <path d="M12.3541 64.443C13.3657 64.443 14.1857 63.6248 14.1857 62.6155C14.1857 61.6063 13.3657 60.7881 12.3541 60.7881C11.3425 60.7881 10.5225 61.6063 10.5225 62.6155C10.5225 63.6248 11.3425 64.443 12.3541 64.443Z" fill="#3F3D56"/>
                                                <path d="M12.3542 70.5805C12.3542 70.5805 12.0926 64.9656 6.72852 65.6182L12.3542 70.5805Z" fill="#3F3D56"/>
                                                <path d="M41.6064 24.1762L42.916 24.2961L47.3726 24.7056L54.5669 25.3657L55.2835 17.6041C55.3515 16.8745 55.2747 16.1386 55.0574 15.4387C54.8401 14.7387 54.4866 14.0884 54.0171 13.5249C53.5476 12.9614 52.9714 12.4959 52.3213 12.1549C51.6713 11.8139 50.9602 11.6041 50.2288 11.5376C48.6645 11.3926 47.0945 11.7468 45.745 12.5491C44.3954 13.3514 43.3359 14.5604 42.7191 16.0019L42.7181 16.0045C42.4148 16.7141 42.2244 17.4666 42.1538 18.2348L41.6064 24.1762Z" fill="#2F2E41"/>
                                                <path d="M47.0841 20.7666C47.0841 20.7666 47.6063 25.1082 47.0841 25.2819C46.5619 25.4556 44.8213 26.1502 44.8213 26.1502L47.9544 29.4499L52.48 29.6236L53.5244 26.3239L52.48 25.4556L52.1319 21.1139L47.0841 20.7666Z" fill="#FFB8B8"/>
                                                <path opacity="0.1" d="M47.0841 20.7666C47.0841 20.7666 47.6063 25.1082 47.0841 25.2819C46.5619 25.4556 44.8213 26.1502 44.8213 26.1502L47.9544 29.4499L52.48 29.6236L53.5244 26.3239L52.48 25.4556L52.1319 21.1139L47.0841 20.7666Z" fill="black"/>
                                                <path d="M40.2957 28.7559L38.9032 40.7388L36.9886 52.8954C36.9886 52.8954 35.422 58.8001 38.3811 58.6264C41.3401 58.4527 39.2514 52.5481 39.2514 52.5481L42.0364 42.3018L43.2548 31.8818L40.2957 28.7559Z" fill="#FFB8B8"/>
                                                <path d="M58.9205 28.9289L60.1389 41.2592L67.2755 48.0321C67.2755 48.0321 71.9752 50.4635 71.1049 52.0264C70.2345 53.5894 65.3608 49.4215 65.3608 49.4215L56.8318 43.3432L56.3096 35.7019L56.8318 28.0605L58.9205 28.9289Z" fill="#FFB8B8"/>
                                                <path d="M40.8174 87.2812C40.8174 87.2812 38.3805 91.4491 39.599 91.9701C40.8174 92.4911 44.2987 94.0541 44.2987 94.0541C44.2987 94.0541 49.6946 95.0961 49.5205 93.5331C49.3465 91.9701 47.2577 91.9701 47.2577 91.9701C47.2577 91.9701 44.3097 89.0178 44.3912 87.9758C44.4727 86.9338 40.8174 87.2812 40.8174 87.2812Z" fill="#2F2E41"/>
                                                <path opacity="0.1" d="M40.8174 87.2812C40.8174 87.2812 38.3805 91.4491 39.599 91.9701C40.8174 92.4911 44.2987 94.0541 44.2987 94.0541C44.2987 94.0541 49.6946 95.0961 49.5205 93.5331C49.3465 91.9701 47.2577 91.9701 47.2577 91.9701C47.2577 91.9701 44.3097 89.0178 44.3912 87.9758C44.4727 86.9338 40.8174 87.2812 40.8174 87.2812Z" fill="black"/>
                                                <path d="M56.1346 53.2422L56.6568 56.0208L52.8274 71.4771L50.5646 73.9084L44.6465 87.9754H40.2949C40.2949 87.9754 43.0799 77.0344 45.1687 73.7348C47.2574 70.4351 50.7386 53.5895 50.7386 53.5895L56.1346 53.2422Z" fill="#2F2E41"/>
                                                <path opacity="0.1" d="M48.911 65.3123L52.0441 65.8333L52.8274 71.4774L50.5646 73.9088L44.6465 87.9757H40.2949C40.2949 87.9757 43.0799 77.0347 45.1687 73.7351C47.2574 70.4354 50.7386 53.5898 50.7386 53.5898L48.911 65.3123Z" fill="black"/>
                                                <path d="M43.6026 48.5539C43.6026 48.5539 40.8176 53.7639 45.3433 60.1895C49.8689 66.6152 51.7836 73.0408 51.7836 73.0408C51.7836 73.0408 51.4354 84.6764 55.0907 89.3654L56.4832 92.4914L60.6607 90.06C60.6607 90.06 55.961 82.9398 57.0054 74.2565C57.0054 74.2565 58.0498 71.4778 57.0054 69.2201C55.961 66.9625 53.1761 56.1952 53.1761 56.1952L56.6573 56.0215C56.6573 56.0215 57.7017 49.4222 55.961 48.5539C54.2204 47.6856 43.6026 48.5539 43.6026 48.5539Z" fill="#2F2E41"/>
                                                <path d="M59.4422 89.5391C59.4422 89.5391 63.2716 92.8387 65.5344 93.186C67.7972 93.5334 67.7972 95.0964 65.1863 95.4437C65.1863 95.4437 59.9644 97.5277 56.6572 95.9647V91.6231L59.4422 89.5391Z" fill="#2F2E41"/>
                                                <path d="M49.9558 22.5908C52.263 22.5908 54.1333 20.7248 54.1333 18.4229C54.1333 16.121 52.263 14.2549 49.9558 14.2549C47.6486 14.2549 45.7783 16.121 45.7783 18.4229C45.7783 20.7248 47.6486 22.5908 49.9558 22.5908Z" fill="#FFB8B8"/>
                                                <path d="M46.5616 26.3241L47.1708 25.1953C47.1708 25.1953 38.9029 28.0608 39.7732 29.4501C40.6435 30.8395 43.0803 32.9234 43.0803 32.9234V35.7021C43.0803 35.7021 45.6913 43.6907 43.0803 48.2061C40.4694 52.7214 57.3534 51.332 56.8313 48.2061C56.3091 45.0801 55.6128 41.7804 56.3091 40.2174C57.0053 38.6544 58.2238 36.9178 57.1794 32.7498L59.7903 29.9711C59.7903 29.9711 58.92 27.1925 56.6572 26.6715C54.3944 26.1505 52.5667 25.5426 52.5667 25.5426C52.5667 25.5426 53.6981 27.7135 51.7835 27.8871C49.8688 28.0608 46.5616 26.3241 46.5616 26.3241Z" fill="#5068CE"/>
                                                <path d="M42.9158 24.296C43.3231 24.7747 43.8629 25.1228 44.4676 25.2968C45.0723 25.4708 45.715 25.4629 46.3152 25.274C46.9154 25.0852 47.4464 24.7239 47.8417 24.2353C48.237 23.7467 48.479 23.1527 48.5375 22.5275C45.0178 20.5382 46.1665 17.8616 49.2415 14.8997C49.2995 14.2698 49.1685 13.637 48.865 13.0817C48.5614 12.5264 48.0992 12.0737 47.5371 11.7812C46.4695 12.0821 45.4829 12.6172 44.6492 13.3475C43.8156 14.0777 43.1561 14.9846 42.7189 16.0019L42.7179 16.0044L42.169 21.9421C42.1296 22.3644 42.1754 22.7902 42.3036 23.1945C42.4319 23.5988 42.6401 23.9733 42.9158 24.296Z" fill="#2F2E41"/>
                                                <path d="M47.8164 16.3198L54.2258 16.4665L54.2853 13.8796C53.7774 13.1591 53.1059 12.5688 52.3256 12.1568L47.9144 12.0566L47.8164 16.3198Z" fill="#2F2E41"/>
                                                <path d="M60.6728 132H0V96.0251C2.25759 96.263 3.96513 93.8751 6.02081 92.7723C7.62914 91.9092 9.53338 91.838 11.3593 91.8276C14.3027 91.8119 17.3 91.9144 20.0868 92.8591C20.9816 93.1604 21.8403 93.5593 22.6472 94.0488C24.3739 95.0977 25.8221 96.5704 26.5915 98.4182C27.0562 99.5331 27.3904 100.9 28.5027 101.377C29.1223 101.645 29.8308 101.549 30.4992 101.45C32.8473 101.1 35.1954 100.749 37.5435 100.4C39.2806 100.139 41.1901 99.9135 42.6731 100.853C44.9602 102.301 44.962 105.585 44.5773 108.262C44.1909 110.938 43.8393 114.095 45.8236 115.936C48.2291 118.169 52.0985 116.775 55.35 117.242C56.8692 117.483 58.2891 118.148 59.4457 119.16C60.6022 120.172 61.4483 121.489 61.886 122.961C62.725 125.942 61.7677 129.068 60.6728 132Z" fill="#2F2E41"/>
                                                <path d="M14.8125 131.915L15.3749 95.9102" stroke="#3F3D56" strokeWidth="2" strokeMiterlimit="10"/>
                                                <path d="M15.3749 98.4112C16.7593 98.4112 17.8816 97.2915 17.8816 95.9102C17.8816 94.5289 16.7593 93.4092 15.3749 93.4092C13.9905 93.4092 12.8682 94.5289 12.8682 95.9102C12.8682 97.2915 13.9905 98.4112 15.3749 98.4112Z" fill="#3F3D56"/>
                                                <path d="M15.2153 106.095C15.2153 106.095 14.9772 98.4054 7.62305 99.1843L15.2153 106.095Z" fill="#3F3D56"/>
                                                <path d="M14.8235 131.228C14.8235 131.228 16.6656 116.477 7.36719 115.618" stroke="#3F3D56" strokeWidth="2" strokeMiterlimit="10"/>
                                                <path d="M7.36708 118.119C8.75151 118.119 9.87381 116.999 9.87381 115.618C9.87381 114.237 8.75151 113.117 7.36708 113.117C5.98265 113.117 4.86035 114.237 4.86035 115.618C4.86035 116.999 5.98265 118.119 7.36708 118.119Z" fill="#3F3D56"/>
                                                <path d="M29.2383 131.979V119.057" stroke="#3F3D56" strokeWidth="2" strokeMiterlimit="10"/>
                                                <path d="M29.2379 120.884C30.2495 120.884 31.0695 120.066 31.0695 119.057C31.0695 118.048 30.2495 117.229 29.2379 117.229C28.2263 117.229 27.4062 118.048 27.4062 119.057C27.4062 120.066 28.2263 120.884 29.2379 120.884Z" fill="#3F3D56"/>
                                                <path d="M29.238 127.022C29.238 127.022 28.9763 121.407 23.6123 122.06L29.238 127.022Z" fill="#3F3D56"/>
                                                <path d="M93.1228 53.1553H89.6416V106.123H93.1228V53.1553Z" fill="#3F3D56"/>
                                                <path d="M114.011 51.4189H68.7549V72.6062H114.011V51.4189Z" fill="#3F3D56"/>
                                                <path d="M105.481 56.9766H76.5869V57.6712H105.481V56.9766Z" fill="#5068CE"/>
                                                <path d="M105.481 59.0605H76.5869V59.7552H105.481V59.0605Z" fill="#5068CE"/>
                                                <path d="M105.481 61.1445H76.5869V61.8392H105.481V61.1445Z" fill="#5068CE"/>
                                                <path d="M91.3822 53.85C92.728 53.85 93.8191 52.7614 93.8191 51.4186C93.8191 50.0758 92.728 48.9873 91.3822 48.9873C90.0363 48.9873 88.9453 50.0758 88.9453 51.4186C88.9453 52.7614 90.0363 53.85 91.3822 53.85Z" fill="#5068CE"/>
                                                <path d="M102 70.0016C103.25 70.0016 104.263 68.9909 104.263 67.744C104.263 66.4971 103.25 65.4863 102 65.4863C100.75 65.4863 99.7373 66.4971 99.7373 67.744C99.7373 68.9909 100.75 70.0016 102 70.0016Z" stroke="#5068CE" strokeWidth="2" strokeMiterlimit="10"/>
                                                <path d="M101.13 67.223C101.323 67.223 101.478 67.0675 101.478 66.8757C101.478 66.6838 101.323 66.5283 101.13 66.5283C100.938 66.5283 100.782 66.6838 100.782 66.8757C100.782 67.0675 100.938 67.223 101.13 67.223Z" fill="#5068CE"/>
                                                <path d="M102.871 67.223C103.063 67.223 103.219 67.0675 103.219 66.8757C103.219 66.6838 103.063 66.5283 102.871 66.5283C102.678 66.5283 102.522 66.6838 102.522 66.8757C102.522 67.0675 102.678 67.223 102.871 67.223Z" fill="#5068CE"/>
                                                <path d="M100.956 68.2646C100.956 68.2646 101.826 69.4803 103.045 68.2646H100.956Z" fill="#5068CE"/>
                                                <path d="M101.13 65.6595L102.871 63.2285L103.675 66.2272C103.675 66.2272 102.871 65.1381 101.13 65.6595Z" fill="#5068CE"/>
                                                </g>
                                                <defs>
                                                <clipPath id="clip0_1018_7981">
                                                <rect width="132" height="132" fill="white"/>
                                                </clipPath>
                                                </defs>
                                            </svg>