<svg className="all" width="269" height="371" viewBox="0 0 269 371"
                                             fill="none"
                                             xmlns="http://www.w3.org/2000/svg">
                                            <path
                                                d="M89.9955 18.5L91.3416 17.422C91.7053 17.1307 92.1011 16.8817 92.5211 16.6799L93.0714 16.4155C93.5395 16.1906 94.0522 16.0738 94.5715 16.0738H95.1352C95.2835 16.0738 95.4298 16.1071 95.5634 16.1713V16.1713C95.8341 16.3014 96.1492 16.3013 96.4198 16.1713L96.4859 16.1396C96.5768 16.0959 96.673 16.0645 96.7722 16.0461L96.9645 16.0104C97.2605 15.9556 97.5447 15.85 97.8046 15.6983L98.2007 15.4672V15.4672C98.606 15.2725 99.0705 15.2404 99.4988 15.3776L99.56 15.3972C99.7053 15.4437 99.8444 15.5074 99.9746 15.5868L100.41 15.8525L102.303 16.7623V16.7623C102.702 16.954 103.167 16.954 103.566 16.7623L104.219 16.4484C104.62 16.2558 105.059 16.1558 105.504 16.1558H108.321C109.333 16.1558 110.319 16.4741 111.14 17.0656V17.0656L112.402 17.9755L113.349 18.582V18.582C113.764 18.7816 114.219 18.8853 114.68 18.8853H115.923C116.708 18.8853 117.47 18.6179 118.083 18.1271V18.1271C118.696 17.6363 119.457 17.3689 120.242 17.3689H128.725C129.616 17.3689 130.496 17.5528 131.312 17.9091L131.872 18.1541C132.951 18.6253 134.165 18.6872 135.286 18.328V18.328C136.01 18.0962 136.778 18.0381 137.528 18.1582L138.28 18.2787L140.174 18.582L143.961 19.1886L147.432 19.7951V19.7951C149.932 19.9953 152.476 19.7552 154.726 18.6478C159.106 16.4917 164.4 12.5995 164.789 7.3607C164.926 5.52543 165.265 4.12103 165.718 3.05662C167.235 -0.50385 172.004 1.19439 173.41 4.79979C173.816 5.83947 174.192 7.07022 174.501 8.51389C174.809 9.95583 175.099 11.4063 175.519 12.8197V12.8197L176.466 15.5493L178.044 19.1886L179.417 21.9869C179.763 22.6933 180.037 23.4328 180.236 24.1943V24.1943C180.457 25.0457 180.774 25.8693 181.18 26.6498L182.936 30.025C183.041 30.2267 183.131 30.4357 183.205 30.6504V30.6504C183.341 31.0402 183.424 31.4462 183.452 31.8579L183.559 33.393C183.668 34.9776 184.045 36.5323 184.671 37.9919V37.9919L188.143 44.3607L194.455 53.1558L205.5 68.623L206.889 71.2915C207.428 72.3279 207.709 73.4788 207.709 74.647V74.647C207.709 76.4318 208.366 78.1542 209.554 79.4861L209.603 79.5411C210.822 80.9084 211.496 82.6765 211.496 84.5087V85.1459C211.496 86.8352 211.965 88.4915 212.85 89.9305L214.889 93.2478C215.361 94.0148 215.915 94.7276 216.543 95.3734L219.275 98.1864C219.751 98.6767 220.017 99.3332 220.017 100.017V100.017C220.017 100.695 220.28 101.347 220.749 101.836L221.911 103.045C223.126 104.31 223.804 105.996 223.804 107.75V112.295M89.9955 18.5L89.7105 20.1431C89.6901 20.2606 89.6799 20.3796 89.6799 20.4989V20.6664C89.6799 20.891 89.734 21.1123 89.8377 21.3115L89.9563 21.5395C89.982 21.589 89.9955 21.644 89.9955 21.6997V21.6997C89.9955 21.8332 90.072 21.9549 90.1923 22.0127L90.4588 22.1407C90.5693 22.1938 90.6903 22.2214 90.8128 22.2214H90.9422V22.2214C91.3544 22.2214 91.7579 22.3395 92.1049 22.5619L92.3821 22.7395C92.4739 22.7983 92.5598 22.866 92.6384 22.9416V22.9416C92.9661 23.2565 93.1513 23.6914 93.1513 24.1459V24.3454C93.1513 24.4918 93.1664 24.6378 93.1962 24.7811L93.4393 25.9491C93.4577 26.0375 93.4669 26.1274 93.4669 26.2177V26.3591C93.4669 26.5721 93.5407 26.7786 93.6757 26.9434V26.9434C93.7463 27.0296 93.8007 27.128 93.8363 27.2337L93.8803 27.3643C93.9505 27.573 94.0611 27.7658 94.2058 27.9317L94.9533 28.7886C95.0142 28.8584 95.0689 28.9334 95.1167 29.0128L95.1555 29.0774C95.2892 29.2996 95.485 29.4779 95.7188 29.5902L95.7861 29.6225C95.9214 29.6876 96.0696 29.7213 96.2197 29.7213H96.2935C96.5048 29.7213 96.7079 29.6396 96.8602 29.4932V29.4932C96.9121 29.4433 96.9572 29.3868 96.9943 29.3251L97.0962 29.1558C97.2009 28.9817 97.3282 28.8222 97.4747 28.6814L97.5696 28.5902L97.9923 28.184C98.1304 28.0513 98.2887 27.9414 98.4613 27.8585L98.6263 27.7792C98.7616 27.7142 98.9098 27.6804 99.06 27.6804V27.6804C99.3186 27.6804 99.5672 27.7805 99.7537 27.9597L100.094 28.287V28.287C100.502 28.6787 100.758 29.2017 100.819 29.7639L100.96 31.0911C101.014 31.5899 101.148 32.0768 101.357 32.5329V32.5329L101.672 33.0574L102.433 34.0978C102.55 34.2579 102.736 34.3525 102.935 34.3525V34.3525H103.25V34.3525C103.661 34.2991 104.047 34.1224 104.355 33.8458L105.144 33.1394L105.32 32.9702C105.612 32.6896 106.001 32.5329 106.406 32.5329V32.5329H106.425C106.821 32.5329 107.204 32.6712 107.508 32.9239V32.9239C107.614 33.0125 107.732 33.0878 107.857 33.1478L108.3 33.3607L108.823 33.6121C108.894 33.6464 108.96 33.6919 109.017 33.7468V33.7468C109.163 33.8876 109.246 34.0821 109.246 34.2853V34.3525C109.246 34.4979 109.281 34.6411 109.348 34.7701L109.404 34.8771C109.508 35.0763 109.562 35.2976 109.562 35.5222V36.0902L109.845 38.8069C109.866 39.0162 109.922 39.2205 110.01 39.4118V39.4118C110.13 39.6749 110.309 39.9076 110.531 40.0926L110.602 40.1517C110.75 40.2742 110.911 40.378 111.084 40.461L111.455 40.6393L111.793 40.8014C111.988 40.8953 112.192 40.9701 112.402 41.0247V41.0247L113.349 41.3279L113.98 41.6312V41.6312C114.609 42.034 115.185 42.5135 115.695 43.0585L117.3 44.7715C117.61 45.1027 117.873 45.4746 118.083 45.8771V45.8771L118.258 46.2146C118.35 46.3914 118.398 46.5877 118.398 46.787V46.787V46.787C118.398 49.0091 117.287 51.0838 115.437 52.3147L114.575 52.8878C114.39 53.0111 114.224 53.1613 114.083 53.3335L114.07 53.3496C114.01 53.4225 113.956 53.4996 113.907 53.5804V53.5804C113.748 53.8454 113.653 54.1445 113.632 54.453L113.389 57.9603C113.362 58.3418 113.343 58.7301 113.2 59.0846C113.157 59.1891 113.103 59.3084 113.033 59.4426C112.889 59.7207 112.643 60.4816 112.505 60.9265C112.436 61.149 112.402 61.3806 112.402 61.6136V61.9773C112.402 62.2994 112.514 62.6116 112.718 62.8607V62.8607L112.912 63.047C113.191 63.3155 113.349 63.6863 113.349 64.0738V64.2427C113.349 64.5224 113.235 64.7899 113.033 64.9837V64.9837C112.832 65.1774 112.718 65.445 112.718 65.7247V65.8935V67.2632C112.718 67.5507 112.835 67.8258 113.042 68.025L113.121 68.1011C113.267 68.2414 113.462 68.3197 113.664 68.3197V68.3197C113.867 68.3197 114.062 68.3981 114.208 68.5384L114.296 68.623C114.498 68.8176 114.768 68.9263 115.049 68.9263H116.82C118.238 68.9263 119.6 69.4748 120.622 70.457L120.923 70.746L121.68 71.4739C122.015 71.7953 122.398 72.0615 122.816 72.2624V72.2624L123.448 72.5656L124.079 72.8689L124.288 72.9693C124.566 73.1029 124.87 73.1722 125.178 73.1722H126.931C127.099 73.1722 127.235 73.308 127.235 73.4755V73.4755C127.235 73.643 127.37 73.7788 127.538 73.7788H127.723C127.816 73.7788 127.908 73.8055 127.986 73.8559L129.759 74.9919L130.475 75.3357C130.809 75.4963 131.022 75.8342 131.022 76.205V76.205V76.205C131.022 76.5874 130.844 76.9482 130.541 77.1812L129.444 78.0247L129.337 78.1276C129.199 78.2603 129.04 78.3702 128.868 78.4531L128.603 78.5805C128.533 78.6139 128.457 78.6312 128.38 78.6312H128.169C128.002 78.6312 127.866 78.767 127.866 78.9345V78.9345C127.866 79.102 127.73 79.2378 127.563 79.2378H127.416C127.3 79.2378 127.188 79.2828 127.104 79.3633L126.928 79.5325C126.721 79.7317 126.604 80.0068 126.604 80.2943V80.7542V81.0575V81.0575C126.604 81.445 126.761 81.8158 127.041 82.0843L127.115 82.1555C127.195 82.232 127.266 82.3163 127.329 82.407L127.693 82.9312C127.806 83.0935 127.866 83.2862 127.866 83.4837V83.4837V84.0902V84.0902C127.866 84.4812 127.746 84.8689 127.524 85.1902L127.353 85.4365C127.275 85.548 127.17 85.6375 127.048 85.6963L126.997 85.7208C126.757 85.8364 126.604 86.0797 126.604 86.3466V86.3466C126.604 86.4582 126.577 86.5681 126.525 86.6671L126.415 86.8794C126.331 87.0407 126.221 87.1873 126.09 87.3133L125.48 87.8994C125.391 87.9847 125.341 88.1024 125.341 88.2255V88.2255C125.341 88.2982 125.324 88.3698 125.29 88.4343L125.026 88.9427C124.818 89.3412 124.71 89.7836 124.71 90.2328C124.71 90.7291 124.71 91.3218 124.71 91.3689C124.71 91.451 124.079 91.451 124.079 91.9755C124.079 92.5 124.079 94.705 124.079 94.705V94.705C124.079 94.705 124.079 95.2295 124.079 95.5328C124.079 95.8361 123.763 97.5737 123.763 97.6557C123.763 97.7168 123.589 98.7392 123.499 99.259C123.465 99.4579 123.448 99.6589 123.448 99.8607V99.8607C123.448 99.8607 123.448 99.8607 123.448 99.8607C123.448 99.8607 123.448 100.082 123.448 100.385M89.9955 18.5V18.5C88.9462 18.9033 87.9406 19.4121 86.9941 20.0185L86.524 20.3197L85.1846 21.0083V21.0083C84.6066 21.3569 84.0692 21.7688 83.5826 22.2365L83.3681 22.4426L82.6484 22.9767C82.2384 23.2809 81.7957 23.5386 81.3286 23.7448L81.0579 23.8643C80.9151 23.9274 80.7774 24.0013 80.6459 24.0855V24.0855C80.1566 24.399 79.5878 24.5656 79.0067 24.5656H78.4765C77.5492 24.5656 76.6413 24.8314 75.8605 25.3317L75.6382 25.4741C75.322 25.6767 75.0265 25.9097 74.7557 26.1699L74.216 26.6885V26.6885C74.0144 26.8823 73.9005 27.1499 73.9005 27.4295V29.7213V30.8286C73.9005 31.0974 73.9652 31.3622 74.0893 31.6006L74.1598 31.7362C74.1971 31.8078 74.2457 31.8728 74.3039 31.9287V31.9287C74.4494 32.0685 74.5316 32.2616 74.5316 32.4634V32.7541V33.2063C74.5316 34.1047 74.3151 34.9899 73.9005 35.7869V35.7869V35.7869C73.4811 36.5928 72.9686 37.3468 72.3734 38.0331L71.6914 38.8197V38.8197C71.4897 39.0134 71.3758 39.281 71.3758 39.5606V41.2062C71.3758 41.83 71.2254 42.4447 70.9375 42.9981V42.9981C70.8093 43.2446 70.6549 43.4765 70.4772 43.6901L70.2889 43.9163C69.7599 44.5517 69.0771 45.041 68.3055 45.3376V45.3376C68.0386 45.4402 67.7631 45.519 67.4823 45.5729L67.0573 45.6546C66.5745 45.7474 66.1137 45.9314 65.6997 46.1966V46.1966C65.4868 46.333 65.2878 46.4898 65.1056 46.665L64.6258 47.126C64.4975 47.2494 64.3818 47.3851 64.2803 47.5314V47.5314C63.9687 47.9806 63.8017 48.5143 63.8017 49.061V51.0197C63.8017 51.7794 63.8985 52.5361 64.0898 53.2713L64.1173 53.3771L64.3298 53.9897C64.3984 54.1876 64.4814 54.3801 64.5781 54.5659V54.5659C64.8973 55.1796 65.064 55.8612 65.064 56.5529V57.9262V58.065C65.064 58.4908 64.7188 58.8361 64.2929 58.8361V58.8361C64.1773 58.8361 64.0632 58.8101 63.959 58.76L63.3266 58.4562C63.0136 58.3057 62.7224 58.1137 62.4608 57.8852L59.7366 55.5052C59.5037 55.3017 59.2281 55.1469 58.9335 55.0526V55.0526C58.6091 54.9487 58.3058 54.7676 58.0602 54.5316V54.5316C57.893 54.3709 57.699 54.2357 57.49 54.1352L57.2866 54.0376C57.2123 54.0018 57.1441 53.9545 57.0846 53.8973V53.8973C56.9397 53.7581 56.7466 53.6803 56.5457 53.6803H52.4406H52.2471C51.9663 53.6803 51.6963 53.5716 51.4938 53.3771V53.3771C51.2913 53.1825 51.0214 53.0738 50.7405 53.0738H50.5736C50.3484 53.0738 50.1261 53.0231 49.9231 52.9256L49.6003 52.7705V52.7705C49.1848 52.5709 48.7298 52.4672 48.2689 52.4672H48.0224H47.8844C47.1502 52.4672 46.4315 52.6777 45.8133 53.0738V53.0738L45.2646 53.4956C44.6156 53.9945 44.2353 54.7666 44.2353 55.5851V55.8562C44.2353 56.2167 44.3454 56.5686 44.5509 56.8648V56.8648C44.7564 57.161 44.8665 57.5128 44.8665 57.8733V58.8004C44.8665 59.4246 44.743 60.0426 44.5032 60.6188L44.2353 61.2623L43.8841 61.9373C43.7002 62.2908 43.6042 62.6835 43.6042 63.082V63.399C43.6042 63.5892 43.65 63.7766 43.7378 63.9453V63.9453C43.8559 64.1724 44.0444 64.355 44.2751 64.4658L44.3897 64.5209C44.4965 64.5722 44.5945 64.6402 44.6799 64.7223V64.7223C44.8027 64.8403 44.9508 64.9286 45.113 64.9806L45.5127 65.1086C45.7119 65.1724 45.9197 65.2049 46.1289 65.2049V65.2049H46.7337C46.9438 65.2049 47.1364 65.3218 47.2334 65.5082V65.5082C47.3304 65.6946 47.523 65.8115 47.7331 65.8115H48.9691H50.2315H50.7912C51.0439 65.8115 51.2913 65.739 51.5042 65.6027L51.5354 65.5827C51.9019 65.3479 52.3639 65.3197 52.7562 65.5082V65.5082L53.3873 65.8115L54.0185 66.1148M223.804 112.295L221.911 113.508L219.832 114.598C218.906 115.083 218.04 115.673 217.25 116.356L216.118 117.336C215.567 117.812 215.11 118.39 214.774 119.036L214.395 119.765C214.356 119.839 214.306 119.907 214.245 119.965V119.965C214.101 120.103 213.91 120.18 213.71 120.18H213.254C212.736 120.18 212.24 119.969 211.881 119.595L209.017 116.613C208.786 116.373 208.468 116.238 208.135 116.238H207.736C207.525 116.238 207.333 116.121 207.236 115.935V115.935C207.139 115.748 206.946 115.631 206.736 115.631H206.439C206.238 115.631 206.041 115.689 205.872 115.797L205.477 116.051C205.283 116.175 205.073 116.273 204.854 116.344L204.238 116.541V116.541C203.822 116.741 203.367 116.844 202.906 116.844H201.957C201.396 116.844 200.856 116.627 200.451 116.238V116.238V116.238C200.046 115.849 199.506 115.631 198.944 115.631H198.117C197.576 115.631 197.042 115.753 196.554 115.987L196.257 116.13C196.108 116.201 195.972 116.296 195.853 116.41V116.41C195.563 116.689 195.172 116.844 194.77 116.844V116.844H194.481C194.271 116.844 194.078 116.961 193.981 117.148V117.148C193.884 117.334 193.692 117.451 193.482 117.451H192.283C191.846 117.451 191.419 117.326 191.052 117.09V117.09C190.798 116.928 190.579 116.717 190.408 116.47L190.285 116.293C190.122 116.058 189.901 115.869 189.643 115.746V115.746C189.486 115.67 189.341 115.569 189.215 115.448L188.774 115.025L188.684 114.938C188.536 114.796 188.357 114.689 188.16 114.626V114.626C187.752 114.495 187.307 114.566 186.959 114.816L186.249 115.328L184.875 116.649C184.74 116.779 184.592 116.895 184.434 116.997V116.997C183.971 117.293 183.432 117.451 182.883 117.451H182.778V117.451C182.362 117.451 181.952 117.357 181.578 117.178L181.238 117.014C181.003 116.901 180.778 116.768 180.566 116.615L179.622 115.935M223.804 112.295L224.995 113.508L225.382 114.033V114.033C225.802 114.638 226.156 115.285 226.439 115.965L226.644 116.459V116.459C226.854 117.065 227.108 117.654 227.404 118.223L227.907 119.189L228.222 119.795L228.438 120.106C228.713 120.502 228.916 120.944 229.037 121.41V121.41C229.125 121.747 229.169 122.094 229.169 122.442V127.615C229.169 128.06 229.095 128.501 228.949 128.921L228.905 129.048C228.871 129.147 228.829 129.243 228.781 129.336V129.336C228.621 129.643 228.538 129.984 228.538 130.33V136.475V136.948C228.538 137.227 228.652 137.495 228.853 137.689V137.689C229.055 137.882 229.169 138.15 229.169 138.429V138.464C229.169 138.744 229.283 139.011 229.485 139.205V139.205C229.686 139.399 229.8 139.666 229.8 139.946V140.115V142.238V142.528C229.8 142.73 229.882 142.923 230.028 143.063V143.063C230.086 143.119 230.135 143.184 230.172 143.256L230.243 143.391C230.367 143.63 230.431 143.894 230.431 144.163V145.509C230.431 145.953 230.357 146.395 230.211 146.815V146.815C230.148 146.998 230.071 147.177 229.981 147.349L229.8 147.697L229.271 148.714C229.204 148.843 229.169 148.986 229.169 149.131V149.131C229.169 149.377 229.069 149.613 228.891 149.783L228.756 149.913C228.617 150.047 228.538 150.232 228.538 150.426V150.426C228.538 150.62 228.459 150.805 228.319 150.94L228.083 151.166C227.97 151.275 227.907 151.425 227.907 151.581V151.593C227.907 151.807 227.784 152.002 227.591 152.094V152.094C227.398 152.187 227.275 152.382 227.275 152.596V153.762V157.324C227.275 157.774 227.384 158.216 227.591 158.615V158.615V158.615C227.798 159.013 227.907 159.456 227.907 159.905V163.253C227.907 163.795 227.799 164.331 227.591 164.832L227.366 165.372C227.306 165.516 227.275 165.671 227.275 165.827V165.827C227.275 166.068 227.202 166.303 227.064 166.501L226.644 167.107L226.013 168.32L225.584 169.351C225.45 169.673 225.281 169.981 225.082 170.268V170.268C224.862 170.586 224.68 170.928 224.539 171.288L223.804 173.172L223.278 174.183C222.998 174.721 222.757 175.28 222.558 175.853V175.853C222.337 176.491 222.168 177.146 222.053 177.811L221.91 178.631L221.588 180.179C221.383 181.166 221.279 182.172 221.279 183.18V183.18V185.108C221.279 185.824 221.519 186.52 221.959 187.084V187.084C222.136 187.311 222.282 187.561 222.393 187.826L222.857 188.943L223.017 189.555C223.121 189.955 223.191 190.363 223.226 190.774L223.353 192.237C223.44 193.235 223.129 194.227 222.488 194.997V194.997C222.314 195.206 222.163 195.433 222.037 195.674L221.595 196.525V196.525C221.397 196.905 221.397 197.358 221.595 197.738L221.759 198.053C221.859 198.246 221.99 198.421 222.147 198.572L222.857 199.254L223.48 199.703C223.896 200.003 224.396 200.164 224.909 200.164V200.164C225.422 200.164 225.921 200.003 226.338 199.703L226.96 199.254L228.853 197.434L230.008 196.325C230.08 196.256 230.158 196.194 230.242 196.141L230.448 196.008C230.823 195.768 231.302 195.768 231.677 196.008V196.008C231.892 196.146 232.055 196.353 232.139 196.594L232.222 196.833C232.29 197.031 232.325 197.238 232.325 197.446V198.531C232.325 199.805 232.032 201.061 231.469 202.204L229.73 205.731C229.567 206.062 229.438 206.41 229.345 206.768V206.768C229.228 207.216 229.169 207.677 229.169 208.14V208.352V209.869V210.558C229.169 210.906 229.125 211.253 229.037 211.59L228.978 211.817C228.895 212.133 228.758 212.432 228.572 212.701V212.701C228.342 213.033 228.186 213.411 228.117 213.809L227.989 214.55C227.934 214.866 227.854 215.177 227.749 215.48V215.48C227.644 215.782 227.564 216.093 227.509 216.409L227.469 216.636C227.341 217.374 227.071 218.081 226.675 218.717V218.717C226.445 219.085 226.257 219.477 226.115 219.887L225.946 220.374C225.781 220.851 225.581 221.315 225.348 221.763L224.751 222.91L224.54 223.316C224.264 223.846 224.12 224.435 224.12 225.033V225.033M179.622 115.935L178.678 115.254C178.466 115.101 178.241 114.968 178.006 114.855L177.406 114.566C177.203 114.469 176.98 114.418 176.755 114.418H176.437C176.253 114.418 176.077 114.347 175.944 114.22V114.22C175.872 114.151 175.786 114.097 175.693 114.063L173.31 113.205L173.092 113.152C172.402 112.987 171.752 112.689 171.177 112.274V112.274C170.917 112.086 170.64 111.922 170.351 111.783L169.523 111.385L168.998 111.133C168.933 111.102 168.892 111.037 168.892 110.965V110.965C168.892 110.862 168.809 110.779 168.706 110.779H166.207C165.694 110.779 165.191 110.632 164.759 110.355L164.712 110.324C164.553 110.223 164.406 110.107 164.27 109.977L163.843 109.566L163.403 109.143C163.281 109.026 163.212 108.863 163.212 108.694V108.694C163.212 108.481 163.103 108.283 162.924 108.169L162.595 107.957C162.379 107.819 162.129 107.746 161.873 107.746H160.178C159.897 107.746 159.627 107.855 159.424 108.049L159.336 108.134C159.19 108.274 158.996 108.353 158.793 108.353V108.353H158.62C158.321 108.353 158.028 108.438 157.776 108.6L157.52 108.764C157.325 108.889 157.088 108.929 156.864 108.875L156.765 108.851C156.33 108.746 156.08 108.289 156.227 107.867V107.867C156.255 107.787 156.269 107.703 156.269 107.618V107.609C156.269 107.318 156.424 107.05 156.675 106.905L157.572 106.388C157.754 106.283 157.923 106.156 158.075 106.01L158.793 105.32L159.787 104.604C159.956 104.482 160.056 104.287 160.056 104.079V104.079C160.056 103.903 159.984 103.734 159.857 103.612L159.799 103.557C159.76 103.519 159.717 103.485 159.671 103.456L159.502 103.348C159.039 103.051 158.501 102.894 157.951 102.894H156.394C156.123 102.894 155.874 102.743 155.749 102.502V102.502C155.677 102.362 155.561 102.25 155.419 102.182L154.785 101.877C154.513 101.747 154.264 101.574 154.047 101.365L153.947 101.269C153.812 101.139 153.664 101.023 153.506 100.922L153.133 100.682C152.914 100.542 152.659 100.467 152.399 100.467H152.288C152.007 100.467 151.737 100.576 151.535 100.771L151.447 100.855C151.301 100.995 151.106 101.074 150.904 101.074V101.074C150.701 101.074 150.507 101.152 150.361 101.293L150.088 101.555C150.004 101.635 149.892 101.68 149.776 101.68H149.629C149.462 101.68 149.326 101.816 149.326 101.984V101.984C149.326 102.151 149.19 102.287 149.022 102.287H146.17V102.287C145.765 102.287 145.376 102.444 145.084 102.724L144.328 103.451C143.89 103.872 143.306 104.107 142.698 104.107H142.177C141.904 104.107 141.642 104.001 141.445 103.812V103.812C141.238 103.613 141.12 103.338 141.12 103.05V101.343C141.12 100.783 140.893 100.248 140.489 99.8607V99.8607V99.8607C140.084 99.4715 139.544 99.2542 138.983 99.2542H137.14C136.859 99.2542 136.589 99.3629 136.387 99.5575L136.299 99.6421C136.153 99.7824 135.958 99.8607 135.756 99.8607V99.8607C135.553 99.8607 135.358 99.9391 135.212 100.079L134.809 100.467V100.467C134.406 100.855 134.178 101.39 134.178 101.949V103.535C134.178 104.094 133.95 104.629 133.546 105.016V105.016L133.231 105.32L132.981 105.56C132.939 105.6 132.915 105.656 132.915 105.714V105.714C132.915 105.831 132.82 105.926 132.703 105.926H126.363C125.688 105.926 125.02 105.795 124.394 105.541V105.541L123.903 105.369C123.811 105.336 123.727 105.285 123.657 105.217V105.217C123.523 105.089 123.448 104.913 123.448 104.728C123.448 103.733 123.448 100.649 123.448 100.385M179.622 115.935L179.412 116.284C179.342 116.4 179.263 116.512 179.177 116.617L179.138 116.665C179.04 116.784 178.955 116.913 178.884 117.05L178.811 117.19C178.721 117.362 178.598 117.515 178.449 117.639L178.422 117.661C178.178 117.864 177.87 117.975 177.552 117.975H177.394C177.014 117.975 176.662 117.776 176.466 117.451V117.451L176.408 117.323C176.251 116.981 175.91 116.762 175.534 116.762H174.832C174.689 116.762 174.573 116.879 174.573 117.022V117.022C174.573 117.051 174.568 117.08 174.558 117.107L174.09 118.458C173.995 118.731 173.794 118.956 173.533 119.081V119.081C173.386 119.152 173.226 119.189 173.063 119.189H172.363H172.1C171.68 119.189 171.295 119.422 171.101 119.795V119.795V119.795C170.892 120.197 170.619 120.562 170.293 120.875L170.154 121.008L168.892 121.918V121.918C168.682 122.12 168.489 122.339 168.315 122.573L167.787 123.283C167.262 123.989 166.68 124.651 166.045 125.261L165.736 125.557L164.789 126.467L164.742 126.513C164.406 126.836 164.354 127.356 164.62 127.739V127.739C164.73 127.898 164.789 128.087 164.789 128.281V130.013C164.789 130.276 164.745 130.537 164.659 130.785L164.617 130.906C164.523 131.178 164.366 131.424 164.158 131.623V131.623L163.716 132.048C163.382 132.369 162.998 132.635 162.58 132.836V132.836L161.633 133.443L161.571 133.473C161.197 133.652 160.787 133.746 160.371 133.746V133.746H159.424H159.204C158.934 133.746 158.667 133.685 158.423 133.568V133.568C158.25 133.485 158.092 133.375 157.954 133.242L157.773 133.069C157.612 132.914 157.467 132.744 157.339 132.56L157.215 132.381C157.005 132.079 156.766 131.798 156.5 131.543L155.006 130.107L154.059 129.197L153.833 128.979C153.568 128.724 153.24 128.545 152.882 128.459L152.576 128.386C152.311 128.322 152.031 128.351 151.785 128.47V128.47C151.62 128.549 151.476 128.665 151.364 128.809L150.914 129.385C150.699 129.661 150.543 129.978 150.455 130.316V130.316C150.335 130.774 150.092 131.19 149.751 131.518L149.641 131.623L149.326 131.926L149.235 132.013C148.933 132.303 148.456 132.303 148.153 132.013V132.013C148.094 131.955 148.025 131.908 147.951 131.872L147.432 131.623L147.017 131.357C146.67 131.135 146.266 131.016 145.854 131.016V131.016H145.698C145.406 131.016 145.138 131.179 145.004 131.438V131.438C144.941 131.559 144.847 131.662 144.732 131.736L143.961 132.23L143.614 132.396C143.427 132.486 143.222 132.533 143.014 132.533V132.533H142.698H141.752V132.533C141.549 132.533 141.354 132.611 141.208 132.751L141.182 132.777C141.141 132.816 141.096 132.852 141.048 132.882L140.311 133.354C140.22 133.413 140.134 133.481 140.056 133.556V133.556C139.925 133.682 139.815 133.828 139.732 133.989L139.598 134.247C139.561 134.317 139.513 134.38 139.456 134.435L139.184 134.697C139.035 134.84 139.035 135.078 139.184 135.221V135.221C139.212 135.248 139.236 135.28 139.254 135.315L139.542 135.869L139.656 136.087C139.79 136.344 139.965 136.578 140.174 136.779L140.291 136.892C140.422 137.018 140.532 137.164 140.616 137.326L140.722 137.529C140.776 137.634 140.805 137.75 140.805 137.868V137.868C140.805 137.95 140.818 138.031 140.845 138.109L140.994 138.537C141.075 138.77 141.056 139.025 140.942 139.244V139.244C140.853 139.415 140.71 139.554 140.536 139.637L140.43 139.688C140.261 139.769 140.076 139.811 139.889 139.811H139.858C139.65 139.811 139.445 139.765 139.258 139.675L139.106 139.602C138.977 139.54 138.859 139.458 138.755 139.358L138.714 139.319C138.636 139.243 138.57 139.156 138.52 139.059V139.059C138.369 138.77 138.088 138.572 137.766 138.528L136.354 138.334C136.167 138.308 135.984 138.253 135.813 138.171V138.171C135.568 138.053 135.298 137.992 135.025 137.992H134.589C134.318 137.992 134.051 138.053 133.807 138.17V138.17C133.634 138.253 133.476 138.363 133.338 138.495L132.865 138.95C132.492 139.308 131.995 139.508 131.478 139.508H131.346C131.132 139.508 130.922 139.556 130.729 139.649L130.694 139.666C130.495 139.761 130.324 139.907 130.198 140.088L130.09 140.245C129.887 140.538 129.862 140.919 130.027 141.236V141.236C130.059 141.297 130.097 141.355 130.141 141.407L130.364 141.676C130.993 142.431 131.337 143.382 131.337 144.365V145.27V145.809C131.337 146.181 131.035 146.484 130.662 146.484V146.484C130.488 146.484 130.32 146.416 130.194 146.295L130.137 146.241C130.096 146.201 130.058 146.156 130.025 146.109L129.759 145.725C129.549 145.423 129.31 145.142 129.044 144.887L128.812 144.664L128.326 144.197C128.23 144.104 128.12 144.028 128 143.97V143.97C127.711 143.832 127.38 143.809 127.075 143.906L126.837 143.982C126.682 144.032 126.534 144.102 126.397 144.19L124.317 145.522C123.972 145.743 123.763 146.125 123.763 146.535V146.535C123.763 146.887 123.917 147.222 124.185 147.451L126.603 149.516L127.866 150.73L127.934 150.795C128.455 151.296 128.584 152.079 128.25 152.72V152.72C128.204 152.808 128.151 152.892 128.089 152.97L127.399 153.855C127.29 153.994 127.205 154.151 127.147 154.319V154.319C127.001 154.738 127.035 155.199 127.24 155.592L127.322 155.749C127.472 156.038 127.55 156.358 127.55 156.684V156.727C127.55 156.973 127.509 157.217 127.429 157.449L127.371 157.616C127.28 157.876 127.223 158.147 127.201 158.422L126.919 161.951V162.557V163.164V163.77V164.377V164.424C126.919 164.781 126.773 165.124 126.515 165.371V165.371C126.366 165.515 126.252 165.692 126.184 165.888L126.101 166.128C126.016 166.374 125.89 166.605 125.73 166.81L125.255 167.419C125.102 167.615 124.968 167.824 124.853 168.044L124.547 168.632C124.447 168.825 124.394 169.04 124.394 169.258V169.258C124.394 169.627 124.545 169.981 124.811 170.237L124.853 170.277C124.967 170.387 125.098 170.478 125.241 170.546L126.288 171.049L126.697 171.246C127.259 171.516 127.874 171.656 128.497 171.656V171.656H128.884C129.446 171.656 129.985 171.873 130.39 172.262V172.262C130.795 172.651 131.335 172.869 131.897 172.869H131.968H132.477C132.758 172.869 133.028 172.76 133.231 172.566V172.566C133.433 172.371 133.703 172.262 133.984 172.262H135.048C135.304 172.262 135.554 172.336 135.77 172.474V172.474C136.154 172.72 136.387 173.145 136.387 173.601V174.518C136.387 174.78 136.175 174.992 135.913 174.992V174.992C135.652 174.992 135.44 175.204 135.44 175.465V175.732C135.44 175.993 135.652 176.205 135.913 176.205V176.205C136.175 176.205 136.387 176.417 136.387 176.678V177.115V177.115C136.387 177.467 136.137 177.769 135.791 177.836L134.972 177.993C134.863 178.014 134.753 178.025 134.643 178.025H133.896C133.666 178.025 133.438 177.973 133.231 177.873V177.873C133.023 177.773 132.795 177.721 132.565 177.721H132.155C132.032 177.721 131.911 177.749 131.801 177.802V177.802C131.517 177.938 131.337 178.224 131.337 178.539V181.592C131.337 181.832 131.24 182.061 131.067 182.227V182.227C131.037 182.256 131.009 182.287 130.983 182.32L130.859 182.479C130.351 183.13 130.075 183.932 130.075 184.758V186.382C130.075 186.662 129.961 186.929 129.759 187.123V187.123V187.123C129.343 187.523 128.85 187.836 128.311 188.044L127.55 188.336L127.381 188.377C126.657 188.551 125.968 188.844 125.341 189.246V189.246M123.448 100.385L122.669 103.127C122.57 103.479 122.249 103.721 121.883 103.721V103.721C121.672 103.721 121.469 103.803 121.317 103.949L120.923 104.328L120.095 105.195C120.016 105.277 119.923 105.345 119.821 105.394V105.394C119.525 105.537 119.177 105.515 118.901 105.338L118.783 105.263C118.535 105.104 118.238 105.042 117.947 105.089L116.688 105.29C116.568 105.31 116.458 105.365 116.371 105.448V105.448C116.255 105.56 116.189 105.714 116.189 105.875V106.754V107.555C116.189 108.021 116.047 108.476 115.781 108.858V108.858C115.633 109.071 115.45 109.258 115.24 109.41L114.296 110.09L111.704 111.833C111.336 112.081 110.903 112.213 110.459 112.213H110.218C109.797 112.213 109.392 112.05 109.088 111.758V111.758C108.785 111.466 108.38 111.303 107.958 111.303H105.365C105.219 111.303 105.075 111.336 104.944 111.399V111.399C104.672 111.53 104.476 111.78 104.415 112.076L104.27 112.773C104.222 113.004 104.127 113.223 103.993 113.417V113.417C103.72 113.81 103.298 114.076 102.826 114.151L101.672 114.336V114.336C100.909 114.519 100.334 115.148 100.219 115.924L100.161 116.311C100.118 116.603 99.9784 116.874 99.7649 117.079V117.079C99.5683 117.268 99.3187 117.392 99.0494 117.435L98.4338 117.534C97.871 117.624 97.3492 117.884 96.9383 118.279V118.279L93.6633 120.639C93.3304 120.879 92.9304 121.008 92.5201 121.008V121.008M123.448 100.385L123.438 100.418M54.0185 66.1148C54.0185 66.1148 54.2071 65.9262 54.3341 65.8115C54.6325 65.5421 55.0915 65.2291 55.3661 65.0493C55.5184 64.9495 55.6644 64.8363 55.7957 64.7102V64.7102C56.0774 64.4394 56.4211 64.2331 56.7931 64.1139V64.1139C57.0458 64.033 57.3094 63.9918 57.5747 63.9918H58.5822C59.0841 63.9918 59.5541 64.2378 59.8402 64.6502V64.6502C59.9554 64.8162 60.1022 64.9577 60.2723 65.0667L60.3346 65.1066C60.7376 65.3648 61.0284 65.7655 61.1488 66.2287L61.1784 66.3425C61.2436 66.5931 61.3525 66.8302 61.5001 67.043L61.5742 67.1497C61.7947 67.4675 62.0759 67.7386 62.4015 67.9472L62.5431 68.0379C62.7505 68.1708 62.9444 68.3237 63.122 68.4944L63.2826 68.6487C63.4179 68.7787 63.5657 68.8953 63.7238 68.9966L63.9014 69.1103C64.2484 69.3327 64.6519 69.4508 65.064 69.4508V69.4508M54.0185 66.1148L54.2478 70.3014C54.3042 71.3316 54.6455 72.3259 55.2335 73.1736L55.8819 74.1082C56.107 74.4327 56.2276 74.8182 56.2276 75.2131V75.2131V75.5752C56.2276 75.7246 56.142 75.8608 56.0073 75.9256V75.9256C55.7917 76.0291 55.7199 76.3009 55.8562 76.4974L56.2276 77.0328L59.2123 80.7615C59.3231 80.9 59.3835 81.0721 59.3835 81.2494V81.2494C59.3835 81.4619 59.4701 81.6652 59.6233 81.8124L60.3302 82.4918M65.064 69.4508H65.2202C65.5121 69.4508 65.7797 69.2884 65.9145 69.0294V69.0294C65.9776 68.9081 66.0714 68.8054 66.1865 68.7317L66.462 68.5552C66.7856 68.3479 67.1618 68.2377 67.546 68.2377H68.7558C70.2415 68.2377 71.6768 67.699 72.7956 66.7216L74.4095 65.3116C74.4902 65.2411 74.557 65.1561 74.6065 65.0611V65.0611C74.7544 64.7767 75.0483 64.5984 75.3688 64.5984H76.1096H76.7144C76.9245 64.5984 77.1172 64.7153 77.2141 64.9016L77.2263 64.925C77.3158 65.097 77.4936 65.2049 77.6875 65.2049V65.2049V65.2049C78.0858 65.2049 78.4619 65.0214 78.707 64.7073L79.1446 64.1467C79.225 64.0436 79.3128 63.9463 79.4071 63.8557L80.5278 62.7787L81.3398 62.1934C81.6326 61.9824 81.9843 61.8689 82.3452 61.8689V61.8689C82.603 61.8689 82.8575 61.9268 83.0899 62.0385L83.8487 62.4031C84.3665 62.6519 84.8473 62.9872 85.2616 63.3852V63.3852V63.3852C85.4632 63.579 85.5772 63.8466 85.5772 64.1262V69.1475V69.4122C85.5772 69.6368 85.523 69.8581 85.4194 70.0574L85.3008 70.2853C85.275 70.3348 85.2616 70.3898 85.2616 70.4456V70.4456C85.2616 70.579 85.3381 70.7007 85.4584 70.7585L85.8927 70.9672L86.2116 71.0694C86.6223 71.2009 87.0612 71.2172 87.4806 71.1165L87.9305 71.0084C88.0427 70.9814 88.1457 70.9251 88.2289 70.8451V70.8451C88.3499 70.7289 88.5111 70.6639 88.6789 70.6639H88.7798C89.2768 70.6639 89.6798 71.0669 89.6798 71.5639V71.8771V71.8771C89.6798 72.2701 89.5484 72.6519 89.3066 72.9618L88.9614 73.4041C88.8102 73.5978 88.6273 73.7644 88.4204 73.897L88.3318 73.9538C87.9784 74.1802 87.7115 74.5189 87.5739 74.9154V74.9154C87.5056 75.1125 87.4707 75.3196 87.4707 75.5282V76.123V76.123C87.4707 76.898 87.1548 77.6396 86.596 78.1766L86.5239 78.2459L83.9992 80.0656L83.3075 80.5641C82.9365 80.8315 82.4908 80.9754 82.0335 80.9754V80.9754C81.6668 80.9754 81.306 80.8829 80.9846 80.7064L80.0953 80.218C79.5509 79.919 78.9398 79.7623 78.3187 79.7623V79.7623H77.3206C77.1448 79.7623 76.9694 79.779 76.7968 79.8122L75.7762 80.0083C75.5881 80.0445 75.4268 80.1647 75.3384 80.3346V80.3346C75.2305 80.542 75.0161 80.6721 74.7823 80.6721H74.4039C74.0809 80.6721 73.7704 80.5471 73.5375 80.3233L73.4489 80.2382C73.3299 80.1238 73.1935 80.0292 73.0448 79.9577L72.6381 79.7623L71.9917 79.3481C71.7949 79.2221 71.6346 79.0467 71.5267 78.8393V78.8393C71.4276 78.6487 71.3758 78.437 71.3758 78.2221V77.3361V77.0328V77.0328C71.3758 76.8603 71.2457 76.7156 71.0742 76.6973L68.8724 76.4622C68.6509 76.4386 68.4378 76.3637 68.2502 76.2434V76.2434C67.838 75.9794 67.5887 75.5236 67.5887 75.0341V73.3934V73.3934C67.5887 72.8373 67.2699 72.3304 66.7686 72.0896L66.5826 72.0002C66.4129 71.9186 66.2572 71.8106 66.1215 71.6801L65.7977 71.369C65.7298 71.3037 65.652 71.2497 65.5671 71.2089V71.2089C65.2596 71.0612 65.064 70.7502 65.064 70.4091V69.4508ZM64.7485 71.2705H64.4416C64.2281 71.2705 64.0174 71.3185 63.825 71.4109V71.4109C63.6029 71.5177 63.4123 71.6802 63.2718 71.8827L62.8549 72.4836L62.633 72.9102C62.5708 73.0298 62.5222 73.156 62.4883 73.2865L62.3098 73.9724C62.2567 74.1768 62.318 74.3939 62.4702 74.5402V74.5402C62.516 74.5841 62.5543 74.6353 62.5836 74.6916L62.8549 75.2131L63.3312 75.8996C63.4327 76.046 63.5705 76.1635 63.7311 76.2407V76.2407C63.9783 76.3594 64.1678 76.572 64.2577 76.831L64.3419 77.0739C64.4021 77.2475 64.4329 77.4299 64.4329 77.6135V78.5492V78.5492C64.4329 78.9271 64.2404 79.2791 63.9221 79.483L63.6302 79.67C63.5344 79.7314 63.4448 79.802 63.3627 79.8809L62.5393 80.6721L60.9614 81.8852L60.3302 82.4918M60.3302 82.4918V83.9772C60.3302 85.9346 61.128 87.8076 62.5393 89.1639V89.1639L62.5827 89.2056C62.7441 89.3607 62.784 89.6036 62.6807 89.8022V89.8022C62.5938 89.9691 62.4213 90.0738 62.2332 90.0738H59.6991L57.1744 89.7705L56.2834 89.5564C56.0367 89.4972 55.7838 89.4672 55.5301 89.4672V89.4672C54.5724 89.4672 53.6642 89.8929 53.0514 90.6289L52.7562 90.9836L51.0556 92.6178C50.9273 92.7412 50.8115 92.8769 50.7101 93.0232V93.0232C50.3985 93.4724 50.2315 94.0061 50.2315 94.5528V94.623V95.0027C50.2315 95.1529 50.2566 95.3019 50.3058 95.4438V95.4438C50.4561 95.8772 50.8169 96.2042 51.2629 96.3113L51.8094 96.4426L53.5093 96.7149C53.6382 96.7355 53.7654 96.7659 53.8897 96.8057V96.8057C54.3848 96.9643 54.8208 97.2684 55.1407 97.6783L57.3683 100.533C57.4493 100.636 57.5376 100.734 57.6326 100.826L57.945 101.126C58.2605 101.429 58.6811 101.598 59.1188 101.598V101.598C59.2942 101.598 59.4685 101.571 59.6356 101.518L60.3302 101.295L60.6685 101.23C61.4931 101.072 62.3309 100.992 63.1705 100.992V100.992H64.095C64.3118 100.992 64.5202 101.076 64.6765 101.226V101.226C64.9127 101.453 64.9953 101.797 64.8879 102.106L64.8345 102.26C64.778 102.423 64.6836 102.571 64.5591 102.69L62.3704 104.794C61.6718 105.465 61.277 106.392 61.277 107.361V107.361V107.361C61.277 108.336 61.641 109.277 62.2979 109.998L63.4861 111.303L64.7485 112.82L66.0108 114.336L67.9043 116.459L68.9791 117.75C69.1031 117.899 69.1992 118.069 69.2627 118.252V118.252C69.4032 118.657 69.6996 118.99 70.0861 119.175L70.1134 119.189M70.1134 119.189H75.1154C75.7742 119.189 76.429 119.086 77.0563 118.885V118.885L77.9223 118.677C78.1856 118.614 78.4555 118.582 78.7264 118.582V118.582C79.4852 118.582 80.2228 118.331 80.8244 117.869L82.0678 116.913C82.7063 116.422 83.4891 116.156 84.2945 116.156V116.156C85.1248 116.156 85.9303 116.439 86.5783 116.957L87.4707 117.672L90.2443 119.893C90.9117 120.428 91.6887 120.808 92.5201 121.008V121.008M70.1134 119.189V119.189C69.9066 119.586 69.5993 119.922 69.2221 120.164L69.1985 120.179C68.9683 120.327 68.762 120.509 68.5871 120.719L68.1511 121.243C67.7874 121.679 67.2837 121.977 66.7256 122.084L66.296 122.167C66.1098 122.202 65.9381 122.291 65.8014 122.423V122.423C65.5416 122.672 65.1639 122.759 64.8207 122.649V122.649C64.5731 122.57 64.3655 122.395 64.2455 122.164L64.1173 121.918L63.9915 121.595C63.7626 121.007 63.6451 120.381 63.6451 119.75V119.75C63.6451 119.377 63.604 119.005 63.5226 118.641L63.4121 118.146C63.2526 117.433 62.9562 116.757 62.5393 116.156V116.156L61.277 114.639C61.0666 114.437 60.5827 114.033 60.3302 114.033C60.0778 114.033 58.3315 113.022 57.49 112.516L55.5965 111.607L53.7029 110.697L51.8094 110.09L49.9159 109.18L48.0224 107.967L47.314 107.627C46.9457 107.45 46.5597 107.313 46.1625 107.217L45.7076 107.108C45.5682 107.074 45.4252 107.057 45.2818 107.057H45.0875C44.942 107.057 44.7984 107.09 44.6673 107.153V107.153C44.395 107.284 44.1992 107.534 44.1377 107.83L43.9399 108.78C43.9265 108.845 43.9198 108.91 43.9198 108.976V108.976C43.9198 109.111 43.9481 109.244 44.003 109.367L44.6587 110.837C44.79 111.132 44.7798 111.47 44.6311 111.756L44.6095 111.797C44.5707 111.872 44.52 111.94 44.4595 111.998V111.998C44.3157 112.136 44.1239 112.213 43.9245 112.213H43.2206C43.0576 112.213 42.8967 112.176 42.7498 112.106V112.106C42.4887 111.98 42.2884 111.756 42.1935 111.482L42.1016 111.217C42.0516 111.073 41.9821 110.936 41.8952 110.811V110.811C41.5819 110.36 41.0672 110.09 40.5177 110.09H39.5015H38.0084C37.7431 110.09 37.4794 110.131 37.2268 110.212L37.1019 110.252C36.812 110.345 36.5471 110.503 36.3276 110.714L36.1728 110.863C35.88 111.144 35.7145 111.533 35.7145 111.939V111.939C35.7145 112.12 35.7475 112.3 35.812 112.469L35.9304 112.781C36.0923 113.206 36.3405 113.594 36.6595 113.919L38.1644 115.454C38.3973 115.692 38.4509 116.052 38.2974 116.347V116.347C38.2589 116.421 38.2085 116.489 38.1482 116.546L37.608 117.066L36.9769 117.672L36.1759 118.582L35.3989 119.492V119.492C35.1899 119.693 34.9502 119.859 34.6888 119.985L33.821 120.402L33.2911 120.571C33.0343 120.654 32.7531 120.588 32.5586 120.402V120.402V120.402C32.3512 120.202 32.1939 119.957 32.0996 119.685L31.979 119.337C31.9447 119.238 31.9032 119.142 31.8549 119.049L31.8219 118.986C31.6839 118.72 31.6119 118.426 31.6119 118.127V118.127C31.6119 117.828 31.6839 117.534 31.8218 117.269L31.9275 117.066L31.9631 116.997C32.147 116.644 32.2431 116.251 32.2431 115.852V115.852C32.2431 115.717 32.3089 115.511 32.3853 115.322C32.4828 115.079 32.4868 114.805 32.3662 114.573V114.573C32.2863 114.419 32.1586 114.296 32.0025 114.22L31.9846 114.212C31.749 114.099 31.4747 114.099 31.2391 114.212L30.9807 114.336V114.336C30.5626 114.537 30.1791 114.803 29.8446 115.125L29.7184 115.246L29.4884 115.467C29.0168 115.92 28.4478 116.259 27.8248 116.459V116.459L26.6611 116.739C26.5955 116.754 26.5319 116.777 26.4711 116.806L26.1128 116.978C26.0019 117.032 25.9313 117.144 25.9313 117.267V117.267C25.9313 117.333 25.9107 117.398 25.8723 117.452L21.5548 123.537C21.3171 123.872 21.0485 124.184 20.7524 124.469L19.9266 125.262C19.7248 125.456 19.5718 125.695 19.4801 125.96L19.4499 126.047C19.3548 126.321 19.343 126.617 19.4161 126.898L19.4247 126.931C19.546 127.398 19.8979 127.769 20.357 127.917V127.917C20.4957 127.961 20.6405 127.984 20.7861 127.984C21.3553 127.984 22.2387 127.984 22.4599 127.984C22.6265 127.984 22.9854 127.984 23.301 127.984C23.5649 127.984 23.8119 128.113 23.9623 128.33V128.33C24.1877 128.655 24.1437 129.095 23.8587 129.369L23.7222 129.5L22.9328 130.259C22.8286 130.359 22.7414 130.475 22.6747 130.603L22.5979 130.751C22.3374 131.252 22.4838 131.868 22.9415 132.198V132.198C23.234 132.408 23.6092 132.468 23.9526 132.358L25.3002 131.926L25.9696 131.765C26.3593 131.672 26.7657 131.672 27.1554 131.765L27.4479 131.836C27.6947 131.895 27.9213 132.019 28.1044 132.195V132.195C28.3323 132.414 28.4812 132.702 28.5277 133.015L28.7154 134.278C28.7528 134.529 28.7716 134.783 28.7716 135.038V139.424C28.7716 139.835 29.0375 140.2 29.4295 140.326V140.326C29.6174 140.386 29.8193 140.386 30.0072 140.326L30.2677 140.242C30.5292 140.158 30.7681 140.016 30.966 139.826L31.0918 139.705C31.4318 139.378 31.6747 138.963 31.7935 138.507L31.9275 137.992L32.0321 137.59C32.17 137.059 32.4522 136.578 32.8473 136.198L33.0952 135.96C33.1579 135.9 33.2298 135.85 33.3082 135.812V135.812C33.6165 135.664 33.9845 135.723 34.2312 135.96L34.2575 135.985C34.3843 136.107 34.4713 136.264 34.5072 136.436L34.5946 136.856C34.706 137.392 35.0137 137.866 35.4572 138.185L35.6274 138.308C35.8892 138.497 36.2038 138.598 36.5265 138.598H36.5847C36.8408 138.598 37.0914 138.525 37.307 138.387V138.387C37.6912 138.141 37.9236 137.716 37.9236 137.26V137.22C37.9236 136.933 38.0114 136.652 38.1752 136.416L38.4448 136.027C38.5169 135.924 38.6147 135.84 38.7288 135.785V135.785C39.0037 135.653 39.3318 135.706 39.5517 135.917L39.5771 135.941C39.7305 136.089 39.8171 136.292 39.8171 136.505V142.238V142.829C39.8171 143.237 39.9156 143.64 40.1043 144.003V144.003C40.3289 144.434 40.425 144.922 40.3811 145.406L39.8678 151.079C39.8341 151.452 39.8366 151.827 39.8754 152.199L39.9967 153.365C40.0836 154.2 40.5093 154.962 41.1742 155.473V155.473C41.5276 155.744 41.8172 156.09 42.023 156.486L42.1723 156.773C42.2847 156.988 42.363 157.22 42.4046 157.46L42.4409 157.67C42.5734 158.433 42.2584 159.206 41.6296 159.659V159.659C41.474 159.771 41.3352 159.905 41.2172 160.056L40.7414 160.665C40.5515 160.909 40.4483 161.209 40.4483 161.517V161.517C40.4483 161.8 40.5345 162.075 40.6953 162.307L41.0795 162.861V162.861C41.4941 163.658 41.7106 164.543 41.7106 165.441V168.4C41.7106 169.344 41.4833 170.273 41.048 171.11L40.7331 171.715C40.5455 172.075 40.2813 172.391 39.9591 172.638L39.2521 173.182C39.0114 173.367 38.8704 173.653 38.8704 173.957V173.957C38.8704 174.04 38.881 174.123 38.9019 174.203L38.9259 174.295C39.086 174.911 39.5721 175.388 40.1905 175.536L40.2401 175.548C40.3784 175.582 40.5202 175.598 40.6624 175.598H40.9027C41.6363 175.598 42.3545 175.809 42.9723 176.204L43.0173 176.233C43.6086 176.612 44.0903 177.139 44.4145 177.762L44.8665 178.631L45.6724 180.754L46.2131 181.809C46.5752 182.516 47.0523 183.158 47.6249 183.708V183.708C48.5064 184.555 49.59 185.163 50.7725 185.473L52.4406 185.91M92.5201 121.008L92.8145 122.706C92.8286 122.787 92.8356 122.869 92.8356 122.952V122.952C92.8356 123.441 93.0851 123.898 93.4976 124.162L93.5571 124.2C93.7062 124.295 93.8381 124.416 93.947 124.555L94.5784 125.364C94.6787 125.493 94.767 125.63 94.8423 125.775V125.775C94.9764 126.032 95.1516 126.267 95.3611 126.468L95.8348 126.923C96.1489 127.225 96.4918 127.495 96.8587 127.73L97.2538 127.984L98.1928 128.435C98.407 128.538 98.6035 128.674 98.7749 128.839V128.839C99.2145 129.261 99.463 129.845 99.463 130.454V133.153C99.463 133.343 99.4171 133.531 99.3294 133.699L99.2797 133.795C99.1938 133.96 99.0567 134.093 98.889 134.173V134.173C98.6534 134.287 98.3791 134.287 98.1435 134.173L98.0428 134.125C97.9383 134.075 97.8424 134.008 97.7588 133.928L97.2661 133.454C97.0558 133.252 96.7753 133.139 96.4836 133.139V133.139C96.3666 133.139 96.2504 133.158 96.139 133.193L96.0086 133.235C95.5882 133.37 95.224 133.639 94.9723 134.002L94.7292 134.352L94.0383 135.238C93.87 135.453 93.6541 135.627 93.4075 135.746V135.746C93.2377 135.827 93.082 135.935 92.9462 136.066L92.5201 136.475M224.12 225.033V231.267C224.12 231.547 224.006 231.814 223.804 232.008V232.008C223.602 232.202 223.488 232.47 223.488 232.749V233.044C223.488 233.162 223.476 233.279 223.452 233.395L223.262 234.309C223.204 234.588 223.063 234.843 222.857 235.041V235.041L222.539 235.346C222.339 235.539 222.226 235.804 222.226 236.082V236.082C222.226 236.196 222.207 236.309 222.17 236.417L222.071 236.7C221.966 237.005 221.789 237.28 221.557 237.504L221.191 237.855C221.045 237.995 220.848 238.074 220.646 238.074V238.074C220.446 238.074 220.252 237.997 220.108 237.858V237.858C220.048 237.8 219.997 237.733 219.958 237.658L219.386 236.557L219.129 236.063C219.09 235.989 219.039 235.921 218.979 235.863L218.868 235.757C218.795 235.687 218.698 235.648 218.597 235.648V235.648C218.496 235.648 218.398 235.687 218.325 235.757L218.132 235.942C217.925 236.142 217.808 236.417 217.808 236.704V237.164V237.919C217.808 238.199 217.647 238.454 217.395 238.575V238.575C217.253 238.643 217.137 238.756 217.065 238.895L216.861 239.287V239.287C216.654 239.685 216.546 240.128 216.546 240.577V242.32V245.327C216.546 245.731 216.381 246.117 216.09 246.397V246.397C215.974 246.509 215.876 246.639 215.802 246.782L215.757 246.869C215.652 247.07 215.516 247.252 215.352 247.409L214.968 247.779L214.841 247.9C214.507 248.221 214.123 248.488 213.705 248.689V248.689L213.66 248.703C213.063 248.894 212.439 248.992 211.812 248.992V248.992H211.496M224.12 225.033L223.847 224.771C223.611 224.544 223.326 224.374 223.015 224.275V224.275C222.704 224.175 222.419 224.005 222.183 223.779L221.91 223.516V223.516C221.704 223.318 221.448 223.178 221.169 223.111L220.333 222.91L218.755 222.303L218.346 222.107C217.784 221.837 217.169 221.697 216.546 221.697V221.697V221.697C216.141 221.697 215.751 221.853 215.459 222.134L215.283 222.303L214.652 222.91L214.526 223.031C214.191 223.353 213.808 223.619 213.39 223.82V223.82L213.079 223.969C212.886 224.062 212.656 224.025 212.502 223.877V223.877C212.463 223.839 212.418 223.808 212.369 223.784L212.006 223.61C211.877 223.548 211.759 223.466 211.656 223.367V223.367C211.55 223.265 211.462 223.147 211.394 223.017L211.181 222.607L211.018 222.294C210.918 222.101 210.865 221.886 210.865 221.668V221.528C210.865 221.248 210.751 220.981 210.549 220.787V220.787L209.603 219.877L208.971 219.27L208.656 218.967V218.967C208.453 218.773 208.183 218.664 207.903 218.664H207.394H206.762H206.473C206.263 218.664 206.07 218.547 205.973 218.361V218.361C205.876 218.174 205.684 218.057 205.474 218.057H204.238H203.798C203.256 218.057 202.722 218.179 202.234 218.414L201.874 218.586C201.767 218.638 201.669 218.706 201.584 218.788V218.788C201.461 218.906 201.313 218.994 201.151 219.046L201.013 219.09C200.648 219.207 200.332 219.441 200.114 219.756L199.819 220.18L199.435 220.735C199.271 220.971 199.141 221.228 199.047 221.498L198.957 221.756C198.901 221.918 198.873 222.087 198.873 222.258V222.662C198.873 222.82 198.808 222.972 198.694 223.082V223.082C198.605 223.167 198.491 223.222 198.369 223.239L196.487 223.497C196.395 223.51 196.305 223.537 196.222 223.577V223.577C195.913 223.725 195.717 224.038 195.717 224.38V225.033M211.496 248.992V247.993C211.496 247.451 211.389 246.914 211.181 246.414L211.098 246.216C210.944 245.846 210.865 245.45 210.865 245.049V245.049V245.049C210.865 244.667 210.687 244.306 210.384 244.073L209.287 243.23V243.23C209.077 243.028 208.848 242.847 208.603 242.69L208.226 242.449C208.092 242.363 207.948 242.295 207.797 242.247V242.247C207.336 242.099 206.953 241.776 206.73 241.347L206.627 241.149C206.508 240.92 206.352 240.712 206.166 240.533L205.605 239.994C205.535 239.928 205.477 239.85 205.433 239.764V239.764C205.28 239.471 204.977 239.287 204.646 239.287H203.879C203.495 239.287 203.119 239.177 202.795 238.969L202.7 238.909C202.467 238.759 202.277 238.551 202.149 238.305V238.305C202.069 238.152 201.965 238.013 201.841 237.893L201.4 237.47C201.188 237.266 200.994 237.045 200.818 236.809L199.912 235.59C199.64 235.224 199.398 234.838 199.188 234.434V234.434L198.873 233.828L198.674 233.446C198.597 233.297 198.495 233.162 198.374 233.046V233.046C198.087 232.769 197.703 232.615 197.304 232.615H197.295H195.224C194.353 232.615 193.543 232.166 193.081 231.426V231.426C192.946 231.209 192.844 230.972 192.779 230.724L192.717 230.484C192.615 230.094 192.632 229.682 192.764 229.301L192.848 229.057C192.867 229.003 192.877 228.946 192.877 228.889V228.889C192.877 228.751 192.933 228.618 193.033 228.522L193.646 227.933C193.764 227.819 193.893 227.718 194.03 227.63L194.563 227.288C194.701 227.2 194.829 227.099 194.947 226.985V226.985C195.439 226.513 195.717 225.861 195.717 225.179V225.033M211.496 248.992L210.58 250.092C210.35 250.368 210.086 250.615 209.795 250.825L209.245 251.221C209.065 251.351 208.918 251.52 208.816 251.717V251.717C208.711 251.919 208.656 252.144 208.656 252.371V256.171C208.656 257.009 208.314 257.812 207.709 258.393V258.393L206.534 259.748C206.268 260.055 205.942 260.304 205.576 260.48L205.204 260.659C204.984 260.764 204.796 260.925 204.657 261.125V261.125C204.394 261.504 203.963 261.73 203.502 261.73H202.379C202.154 261.73 201.938 261.817 201.776 261.973V261.973C201.734 262.013 201.696 262.057 201.663 262.104L201.237 262.718C201.134 262.867 201.052 263.029 200.992 263.201L200.909 263.44C200.817 263.707 200.637 263.935 200.399 264.088L200.029 264.325C199.898 264.409 199.819 264.553 199.819 264.707V264.707C199.819 264.918 199.675 265.1 199.471 265.149L198.888 265.289C198.672 265.341 198.445 265.333 198.233 265.265L197.61 265.066L196.587 264.82C196.438 264.784 196.281 264.827 196.171 264.933V264.933C196.082 265.018 196.032 265.135 196.032 265.257V267.143C196.032 267.526 195.77 267.858 195.399 267.947L195.236 267.986C194.962 268.052 194.679 267.923 194.549 267.673V267.673C194.488 267.555 194.39 267.461 194.27 267.403L193.883 267.217C193.468 267.018 192.972 267.097 192.639 267.417V267.417C192.587 267.467 192.53 267.511 192.47 267.55L192.323 267.644C191.86 267.941 191.322 268.098 190.772 268.098H190.667H189.22C188.946 268.098 188.695 267.946 188.568 267.703V267.703C188.497 267.566 188.471 267.409 188.493 267.256L188.704 265.84C188.749 265.534 188.697 265.221 188.554 264.946L188.339 264.533C188.218 264.301 187.979 264.156 187.717 264.156V264.156C187.583 264.156 187.452 264.194 187.339 264.267L186.857 264.575C186.663 264.699 186.454 264.798 186.234 264.868L185.703 265.038C185.019 265.257 184.306 265.369 183.588 265.369C182.811 265.369 181.997 265.369 181.831 265.369C181.655 265.369 180.755 265.369 179.94 265.369C179.372 265.369 178.847 265.013 178.722 264.459V264.459M195.717 225.033L193.508 224.73L192.685 224.571C192.184 224.475 191.697 224.314 191.236 224.093L191.221 224.086C190.853 223.909 190.467 223.772 190.07 223.676L189.93 223.643C189.581 223.559 189.224 223.516 188.865 223.516H188.65C188.108 223.516 187.574 223.638 187.086 223.873V223.873C186.741 224.038 186.424 224.258 186.148 224.524L185.892 224.769C185.71 224.945 185.511 225.101 185.298 225.238V225.238C184.884 225.503 184.423 225.687 183.94 225.78L183.093 225.943L182.366 226.117C182.016 226.202 181.694 226.378 181.434 226.627L181.408 226.652C181.27 226.785 181.112 226.895 180.939 226.978V226.978C180.695 227.095 180.428 227.156 180.157 227.156H177.092C176.69 227.156 176.304 227 176.014 226.722V226.722C175.895 226.607 175.759 226.513 175.61 226.441L174.573 225.943V225.943C173.954 225.547 173.236 225.336 172.501 225.336H170.085C169.718 225.336 169.359 225.441 169.05 225.639V225.639C168.741 225.837 168.381 225.943 168.014 225.943H167.959C167.741 225.943 167.524 225.909 167.316 225.842L167.076 225.765C166.815 225.682 166.566 225.564 166.335 225.417V225.417C165.941 225.164 165.607 224.827 165.359 224.429L164.789 223.516L164.404 222.962C164.241 222.726 164.111 222.469 164.017 222.198V222.198C163.901 221.866 163.843 221.517 163.843 221.166V220.787V219.877V218.967M163.843 218.967L164.474 217.451V217.451C164.683 217.049 164.956 216.684 165.282 216.37L165.736 215.934L166.683 215.025V215.025C166.89 214.826 167.145 214.686 167.424 214.619L167.824 214.523C168.11 214.454 168.409 214.465 168.689 214.555V214.555C169.025 214.663 169.317 214.879 169.518 215.169L169.74 215.488C169.806 215.583 169.881 215.671 169.964 215.752L170.015 215.8C170.307 216.081 170.696 216.238 171.101 216.238V216.238H172.363V216.238C172.776 216.238 173.179 216.12 173.526 215.897L173.704 215.783C173.862 215.682 174.01 215.566 174.145 215.436L174.257 215.328V215.328C174.66 214.94 174.888 214.405 174.888 213.846V212.507C174.888 211.969 175.019 211.437 175.267 210.96V210.96C175.434 210.64 175.652 210.348 175.912 210.098L175.957 210.054C176.086 209.931 176.202 209.795 176.303 209.649V209.649C176.615 209.2 176.782 208.666 176.782 208.119V207.443V207.443C176.782 207.249 176.861 207.063 177 206.929L177.295 206.646C177.373 206.571 177.459 206.503 177.551 206.444L178.084 206.103C178.267 205.985 178.439 205.85 178.596 205.699L178.793 205.51C178.924 205.384 179.034 205.237 179.118 205.076V205.076C179.242 204.838 179.306 204.573 179.306 204.304V202.893V202.287V202.03C179.306 201.816 179.184 201.621 178.991 201.529L178.948 201.508C178.781 201.428 178.675 201.259 178.675 201.074V201.074V200.467V200.211C178.675 199.997 178.798 199.802 178.991 199.709V199.709C179.184 199.616 179.306 199.421 179.306 199.207V198.648V198.542C179.306 198.011 179.201 197.485 178.997 196.995L178.904 196.771C178.753 196.408 178.529 196.081 178.246 195.809V195.809C178.112 195.68 177.964 195.564 177.807 195.463V195.463C177.345 195.167 176.805 195.008 176.255 195.008H176.15H174.888H174.695C174.414 195.008 174.144 194.9 173.941 194.705V194.705C173.739 194.51 173.469 194.402 173.188 194.402H172.995H172.17C171.889 194.402 171.619 194.51 171.417 194.705V194.705V194.705C171.006 195.099 170.482 195.353 169.918 195.431L168.576 195.615H168.387C168.115 195.615 167.867 195.766 167.741 196.006V196.006C167.669 196.146 167.553 196.258 167.411 196.326L167.366 196.348C167.133 196.46 166.961 196.669 166.896 196.919L166.683 197.738L166.437 198.681C166.391 198.86 166.324 199.034 166.239 199.198V199.198C166.115 199.436 165.953 199.652 165.76 199.838L165.657 199.937C165.5 200.088 165.328 200.223 165.145 200.341L164.611 200.683C164.52 200.741 164.434 200.808 164.356 200.883L164.032 201.195C163.728 201.487 163.275 201.559 162.896 201.377V201.377L162.658 201.263C162.418 201.147 162.265 200.904 162.265 200.637V200.637C162.265 200.525 162.238 200.416 162.186 200.317L162.076 200.104C161.992 199.943 161.882 199.796 161.751 199.67L161.318 199.254L161.002 198.951V198.951C160.813 198.768 160.529 198.723 160.292 198.837L160.056 198.951L159.868 199.041C159.58 199.179 159.345 199.407 159.197 199.69V199.69C159.139 199.803 159.065 199.908 158.979 200.003L156.965 202.215C156.923 202.261 156.865 202.287 156.803 202.287V202.287C156.682 202.287 156.584 202.385 156.584 202.506V203.548C156.584 203.716 156.624 203.881 156.702 204.029V204.029C156.829 204.273 157.046 204.457 157.308 204.541L157.846 204.713L158.541 204.936C158.708 204.989 158.883 205.016 159.058 205.016H159.114C159.516 205.016 159.902 205.172 160.192 205.45L160.269 205.524C160.337 205.59 160.414 205.644 160.499 205.685V205.685C160.807 205.832 161.002 206.143 161.002 206.484V207.139V207.296C161.002 207.583 160.885 207.859 160.678 208.058V208.058C160.481 208.247 160.219 208.352 159.946 208.352H159.35C159.19 208.352 159.029 208.368 158.872 208.398L158.586 208.453C157.889 208.587 157.224 208.852 156.626 209.235L156.584 209.262V209.262C156.198 209.448 155.953 209.838 155.953 210.266V211.082V211.082C155.953 211.46 156.145 211.812 156.464 212.016L156.674 212.151C156.824 212.246 156.955 212.366 157.064 212.506L157.473 213.03C157.715 213.34 157.846 213.722 157.846 214.115V214.115V214.165C157.846 214.701 157.574 215.199 157.123 215.488V215.488C156.975 215.583 156.813 215.652 156.642 215.693L155.637 215.934L155.043 216.125C154.809 216.2 154.586 216.305 154.379 216.437L154.044 216.652C153.847 216.778 153.687 216.953 153.579 217.161L153.568 217.182C153.476 217.359 153.428 217.555 153.428 217.754V217.754C153.428 217.953 153.476 218.15 153.568 218.326L153.744 218.664L154.059 219.27L154.691 220.18L154.803 220.343C155.141 220.829 155.322 221.408 155.322 222V222M163.843 218.967L163.464 219.331C163.297 219.492 163.105 219.625 162.896 219.725V219.725C162.687 219.826 162.495 219.959 162.328 220.12L162.265 220.18L162.153 220.288C162.017 220.418 161.869 220.535 161.711 220.636V220.636C161.248 220.933 160.71 221.09 160.16 221.09H159.74V221.09C159.328 221.09 158.924 221.208 158.577 221.431L158.454 221.51C158.26 221.634 158.051 221.732 157.832 221.803L157.215 222L156.634 222.14C156.193 222.246 155.73 222.196 155.322 222V222M155.322 222H153.813C153.352 222 152.897 221.896 152.481 221.697V221.697V221.697C152.063 221.496 151.68 221.23 151.345 220.908L151.107 220.679C150.972 220.549 150.824 220.433 150.666 220.331V220.331C150.203 220.035 149.665 219.877 149.115 219.877H148.694H143.327C143.126 219.877 142.933 219.799 142.788 219.66V219.66C142.729 219.603 142.66 219.556 142.586 219.52L142.383 219.422C142.174 219.322 141.982 219.189 141.815 219.028L141.436 218.664L141.057 218.3C140.896 218.145 140.805 217.931 140.805 217.708V217.708C140.805 217.54 140.856 217.377 140.951 217.24L141.187 216.899C141.35 216.664 141.571 216.476 141.829 216.352V216.352C141.987 216.276 142.131 216.176 142.258 216.055L142.452 215.868C142.615 215.711 142.752 215.529 142.856 215.328L142.958 215.133C142.995 215.061 143.044 214.996 143.102 214.94V214.94C143.247 214.8 143.329 214.607 143.329 214.405V213.508V213.508C143.329 213.309 143.281 213.113 143.189 212.936L142.952 212.479C142.784 212.156 142.565 211.863 142.302 211.611L137.197 206.705C136.662 206.191 136.03 205.789 135.337 205.523L135.079 205.424C134.899 205.355 134.727 205.267 134.565 205.163V205.163C134.106 204.869 133.572 204.713 133.027 204.713H132.799C131.861 204.713 130.96 204.35 130.283 203.7L126.152 199.73C125.613 199.212 125.024 198.748 124.394 198.344V198.344M124.394 198.344V197.552C124.394 197.295 124.542 197.06 124.774 196.949V196.949C124.935 196.871 125.058 196.733 125.117 196.564L125.341 195.918L125.533 195.457C125.811 194.788 125.779 194.03 125.445 193.388V193.388C125.376 193.255 125.295 193.129 125.203 193.012L124.707 192.376C124.501 192.112 124.351 191.808 124.266 191.483L124.192 191.197C124.118 190.914 124.13 190.615 124.226 190.338V190.338C124.335 190.023 124.547 189.755 124.827 189.575L125.341 189.246M124.394 198.344L124.209 198.3C123.56 198.144 122.881 198.402 122.501 198.951V198.951L122.01 199.737C121.708 200.22 121.323 200.645 120.872 200.992V200.992C120.283 201.445 119.596 201.753 118.867 201.894L118.398 201.984L117.306 202.333C116.156 202.702 115.105 203.329 114.234 204.166V204.166C113.855 204.53 113.513 204.931 113.214 205.362L112.402 206.533L112.047 206.987C110.399 209.1 109.06 211.437 108.073 213.928V213.928C107.384 215.666 106.524 217.33 105.504 218.898L105.459 218.967L104.328 220.598C104.241 220.723 104.167 220.858 104.108 221V221C103.778 221.792 103.948 222.704 104.54 223.325L106.436 225.312C106.786 225.679 106.83 226.242 106.54 226.659V226.659C106.452 226.786 106.392 226.932 106.366 227.085L106.27 227.638C106.152 228.313 106.23 229.008 106.494 229.641L106.752 230.262C107.141 231.196 107.202 232.235 106.926 233.208L106.77 233.756C106.537 234.577 105.981 235.268 105.228 235.67L105.086 235.746C104.15 236.245 103.566 237.22 103.566 238.281V238.281C103.566 238.743 103.454 239.197 103.241 239.607L102.758 240.536C102.666 240.713 102.545 240.874 102.401 241.012V241.012C101.788 241.601 100.852 241.693 100.136 241.235L99.6726 240.938C99.5332 240.848 99.4028 240.746 99.2834 240.631L98.6116 239.985C97.9212 239.322 97.1297 238.772 96.2666 238.358L94.8571 237.68C94.5652 237.54 94.2454 237.467 93.9215 237.467V237.467C93.2383 237.467 92.5954 237.79 92.1879 238.339L91.9066 238.717C91.4866 239.282 90.8866 239.687 90.2055 239.866L88.7183 240.256C88.0995 240.418 87.4624 240.5 86.8227 240.5H85.6525C84.9776 240.5 84.3093 240.368 83.6853 240.111L82.9216 239.796C82.5937 239.661 82.3066 239.443 82.0884 239.164V239.164C81.701 238.667 81.1064 238.377 80.4767 238.377H78.6124C77.6007 238.377 76.6147 238.059 75.794 237.467V237.467V237.467C75.2651 236.959 74.4293 236.959 73.9005 237.467V237.467L72.0679 239.033C71.4553 239.556 70.5918 239.668 69.8657 239.319V239.319C69.4155 239.103 69.0606 238.729 68.8687 238.268L68.7417 237.963C68.6089 237.644 68.5981 237.287 68.7113 236.96V236.96C68.8024 236.698 68.8137 236.414 68.7437 236.145L68.6928 235.949C68.5917 235.56 68.3476 235.224 68.0093 235.007L67.995 234.998C67.7305 234.829 67.524 234.582 67.4033 234.292V234.292C67.1393 233.658 67.3268 232.926 67.863 232.496L68.4411 232.033C68.7002 231.826 68.8511 231.512 68.8511 231.18V231.18C68.8511 230.759 68.6045 230.373 68.2256 230.191V230.191C67.8398 230.006 67.5887 229.613 67.5887 229.185V228.843C67.5887 228.533 67.5016 228.229 67.3374 227.966L66.8805 227.234C66.7321 226.997 66.4718 226.852 66.1917 226.852H65.7641C65.5518 226.852 65.3796 227.025 65.3796 227.237V227.237C65.3796 227.374 65.3063 227.501 65.1872 227.57L64.1744 228.154C63.9279 228.296 63.7085 228.481 63.5265 228.699L62.7755 229.602C62.6185 229.79 62.4822 229.995 62.369 230.213V230.213C62.2724 230.398 62.159 230.575 62.0302 230.74L61.4612 231.469C61.3393 231.625 61.1918 231.76 61.0249 231.866V231.866C60.585 232.148 60.0422 232.219 59.5446 232.06L59.1861 231.945C58.6979 231.789 58.268 231.489 57.9526 231.085L57.49 230.492L56.5432 228.975V228.975C56.1236 228.169 55.6187 227.41 55.0371 226.711L54.6497 226.246L54.0695 225.688C53.2915 224.941 52.113 224.797 51.1782 225.336V225.336L48.3674 227.301C47.9305 227.606 47.5512 227.987 47.2474 228.425L46.8335 229.021C46.5802 229.386 46.4444 229.82 46.4444 230.265V230.265C46.4444 231.138 45.9232 231.928 45.1198 232.271L41.7247 233.721C41.087 233.993 40.4158 234.179 39.7288 234.273L36.3457 234.738H35.7347C34.9045 234.738 34.0991 234.455 33.451 233.936V233.936C32.87 233.471 32.445 232.839 32.2328 232.125L32.1278 231.772C31.9949 231.325 31.9275 230.862 31.9275 230.395V229.516C31.9275 228.775 31.6678 228.057 31.1935 227.487V227.487C30.847 227.071 30.3997 226.75 29.8942 226.556L29.0872 226.246M125.341 189.246L125.107 189.133C124.43 188.808 123.689 188.639 122.938 188.639H121.361C121.08 188.639 120.81 188.748 120.607 188.943V188.943C120.405 189.137 120.135 189.246 119.854 189.246H118.398H117.808C117.174 189.246 116.565 189.001 116.108 188.561V188.561C115.952 188.412 115.778 188.283 115.589 188.18L114.173 187.402C113.839 187.219 113.465 187.123 113.085 187.123H111.055C110.927 187.123 110.824 187.02 110.824 186.892V186.892C110.824 186.845 110.81 186.799 110.783 186.76L110.193 185.91M92.5201 136.475L91.2577 136.779L90.1875 136.95C89.6416 137.038 89.0858 137.044 88.5382 136.969L88.2924 136.935C87.5456 136.832 86.8353 136.548 86.2238 136.107V136.107C86.0035 135.949 85.7696 135.81 85.5249 135.692L84.6304 135.262L84.2847 135.152C83.8864 135.024 83.4707 134.959 83.0525 134.959H82.6948C82.5136 134.959 82.3334 134.987 82.1608 135.042L81.7927 135.16C81.5889 135.226 81.4191 135.369 81.3203 135.559V135.559C81.2173 135.757 81.2004 135.988 81.2735 136.199L81.364 136.46C81.4366 136.669 81.5579 136.859 81.7178 137.012V137.012C81.7659 137.059 81.8107 137.108 81.8518 137.161L82.6982 138.246C82.724 138.279 82.752 138.31 82.7822 138.339V138.339C82.9549 138.505 83.0525 138.734 83.0525 138.973V139.811V141.05C83.0525 141.232 83.0084 141.413 82.9241 141.575V141.575C82.803 141.807 82.7661 142.075 82.8195 142.331L82.9278 142.852C83.0098 143.246 83.1813 143.616 83.4289 143.933L83.7316 144.321C83.9097 144.549 84.0664 144.793 84.2 145.05L84.518 145.661C84.5924 145.804 84.6897 145.934 84.806 146.046V146.046C85.0971 146.326 85.2616 146.712 85.2616 147.115V147.998C85.2616 148.786 85.5247 149.55 86.009 150.171V150.171C86.1416 150.341 86.2584 150.522 86.3578 150.714L86.4455 150.882C86.7043 151.38 86.8395 151.932 86.8395 152.493V152.493C86.8395 152.732 86.864 152.97 86.9127 153.204L87.0202 153.721C87.1081 154.143 87.3215 154.529 87.6324 154.828V154.828C87.7347 154.926 87.827 155.034 87.9079 155.151L88.0183 155.31C88.2799 155.687 88.6349 155.99 89.0486 156.189V156.189M92.5201 136.475V137.385V138.38C92.5201 138.519 92.4631 138.653 92.3623 138.75V138.75C92.2615 138.847 92.2045 138.981 92.2045 139.12V139.287C92.2045 139.432 92.1694 139.576 92.1023 139.704L91.8889 140.115L91.7133 140.452C91.6213 140.629 91.5733 140.825 91.5733 141.025V141.025C91.5733 141.224 91.6213 141.42 91.7133 141.597L91.8889 141.934L92.1209 142.269C92.3825 142.646 92.7375 142.949 93.1512 143.148V143.148L93.7824 143.451L94.393 143.646C94.6158 143.718 94.8482 143.754 95.0821 143.754H95.4432C95.795 143.754 96.1332 143.89 96.3868 144.134V144.134C96.5419 144.283 96.6594 144.467 96.7299 144.67L96.8081 144.895C96.8943 145.144 96.9383 145.405 96.9383 145.668V146.484V147.045C96.9383 147.676 96.8206 148.302 96.5913 148.889L96.4002 149.379C96.1346 150.06 95.6601 150.639 95.0448 151.033V151.033M89.0486 156.189H89.6067C89.8654 156.189 90.1237 156.209 90.3792 156.25L91.2767 156.394C91.6753 156.458 92.0839 156.398 92.4477 156.223V156.223C92.8998 156.006 93.2526 155.625 93.435 155.158L93.9667 153.795C94.0535 153.573 94.098 153.337 94.098 153.098V153.098C94.098 152.935 94.1188 152.773 94.1598 152.615L94.1964 152.474C94.3384 151.928 94.6289 151.432 95.0357 151.041L95.0448 151.033M89.0486 156.189V159.934C89.0486 160.464 88.9436 160.99 88.7396 161.48L88.6282 161.748C88.4892 162.082 88.2828 162.383 88.022 162.634V162.634C87.8654 162.785 87.7281 162.954 87.6131 163.138L86.8395 164.377L86.6103 164.818C86.5528 164.928 86.5034 165.043 86.4626 165.16V165.16C86.2968 165.638 86.2763 166.155 86.4037 166.644L86.4072 166.658C86.4844 166.955 86.6134 167.236 86.7882 167.487L86.9325 167.695C87.0798 167.908 87.2622 168.094 87.4719 168.245L87.9254 168.572C88.2343 168.794 88.4174 169.152 88.4174 169.533V169.533V170.279C88.4174 170.781 88.5705 171.27 88.8562 171.682L88.9462 171.811C89.0142 171.909 89.0684 172.016 89.1075 172.129V172.129C89.2656 172.584 89.6614 172.916 90.1377 172.993L90.9628 173.125C91.1485 173.155 91.3375 173.095 91.4731 172.965V172.965C91.539 172.902 91.6186 172.854 91.7057 172.826L91.9424 172.751C92.2866 172.64 92.5201 172.32 92.5201 171.959V171.959V170.364C92.5201 170.221 92.5786 170.083 92.6823 169.983V169.983C92.7807 169.889 92.9119 169.836 93.0483 169.836H93.2903C93.4073 169.836 93.5235 169.854 93.6349 169.89L93.7653 169.932C94.1857 170.066 94.55 170.336 94.8016 170.699L95.0448 171.049L95.0889 171.134C95.2693 171.481 95.41 171.847 95.5084 172.225L95.6094 172.613C95.6536 172.783 95.6759 172.958 95.6759 173.133V173.364C95.6759 173.634 95.7583 173.897 95.9121 174.119V174.119C96.1595 174.476 96.566 174.689 97.0001 174.689H97.2538H97.885V174.689C98.2972 174.689 98.7007 174.57 99.0477 174.348L99.463 174.082L99.9857 173.747C100.26 173.571 100.468 173.308 100.575 173V173C100.673 172.717 100.855 172.472 101.098 172.297L101.714 171.853C101.894 171.723 102.041 171.553 102.143 171.357V171.357C102.248 171.155 102.303 170.93 102.303 170.702V167.502C102.303 166.06 102.744 164.652 103.566 163.467V163.467L105.055 161.797C105.315 161.505 105.459 161.128 105.459 160.738V160.738V160.738C105.459 160.36 105.267 160.008 104.948 159.804L104.656 159.617C104.561 159.556 104.471 159.485 104.389 159.406L103.907 158.943C103.681 158.726 103.492 158.473 103.347 158.195V158.195C103.282 158.071 103.227 157.942 103.181 157.809L103.047 157.423C102.973 157.208 102.934 156.982 102.934 156.754V156.42C102.934 156.078 102.795 155.751 102.549 155.515V155.515C102.388 155.36 102.189 155.251 101.972 155.199L101.689 155.131C101.275 155.032 100.838 155.105 100.48 155.335L100.318 155.439C100.172 155.532 100.002 155.582 99.8283 155.582H99.6818C99.5414 155.582 99.4064 155.636 99.3052 155.734V155.734C99.2039 155.831 99.069 155.885 98.9285 155.885H98.5162V155.885C98.3273 155.885 98.1591 155.766 98.0972 155.587L97.9414 155.138C97.9041 155.03 97.885 154.917 97.885 154.803V154.803C97.885 154.526 97.7719 154.26 97.5717 154.068L97.0874 153.602C96.9886 153.507 96.906 153.397 96.8428 153.276V153.276C96.701 153.003 96.4643 152.792 96.1775 152.681L96.0619 152.637C95.4491 152.401 95.0448 151.813 95.0448 151.156V151.033M102.303 171.959L104.841 172.691C105.247 172.808 105.618 173.022 105.923 173.314V173.314C106.433 173.805 106.721 174.482 106.721 175.19V176.205V178.934V178.934C106.721 179.734 106.895 180.523 107.231 181.249L107.548 181.934C107.836 182.557 108.238 183.121 108.733 183.597V183.597C109.28 184.122 109.712 184.755 110.004 185.455L110.193 185.91M110.193 185.91L108.957 185.672C108.735 185.63 108.505 185.659 108.301 185.758L108.253 185.781C108.078 185.865 107.936 186.003 107.846 186.174V186.174C107.733 186.393 107.714 186.648 107.795 186.881L107.912 187.219C107.959 187.355 108.038 187.478 108.142 187.578V187.578C108.245 187.678 108.324 187.8 108.371 187.936L108.522 188.371C108.581 188.542 108.568 188.73 108.484 188.891V188.891C108.371 189.109 108.145 189.246 107.899 189.246H107.507C107.405 189.246 107.302 189.234 107.202 189.21L106.969 189.154C106.394 189.015 105.865 188.726 105.439 188.316L105.144 188.033L104.71 187.616C104.583 187.494 104.414 187.426 104.238 187.426V187.426C104.014 187.426 103.805 187.536 103.678 187.719L103.351 188.19C103.284 188.287 103.207 188.377 103.122 188.459L103.012 188.565C102.751 188.815 102.534 189.106 102.367 189.426L102.066 190.005C102.015 190.104 101.988 190.214 101.988 190.326V190.326C101.988 190.593 101.835 190.836 101.594 190.951L101.524 190.985C101.414 191.038 101.293 191.066 101.17 191.066H99.7048C99.5439 191.066 99.3835 191.05 99.2255 191.02V191.02C98.3885 190.859 97.688 190.289 97.3605 189.502L97.319 189.402C97.2757 189.298 97.2215 189.199 97.1573 189.107V189.107C96.8274 188.631 96.2654 188.372 95.6895 188.43L94.161 188.584C93.8107 188.62 93.4603 188.519 93.1824 188.303V188.303C92.9569 188.127 92.7919 187.886 92.7105 187.612L92.3495 186.398C92.253 186.073 92.1258 185.759 91.9696 185.458L91.6632 184.87C91.3935 184.351 91.1739 183.808 91.0073 183.248L90.7366 182.337C90.6636 182.092 90.6265 181.837 90.6265 181.581V180.816C90.6265 180.583 90.5316 180.36 90.3636 180.198V180.198C90.1367 179.98 89.8086 179.904 89.509 180L89.0486 180.148L87.7863 180.754L86.9144 181.313C86.8646 181.345 86.818 181.381 86.7753 181.422V181.422C86.6135 181.578 86.3997 181.668 86.1754 181.675L77.7119 181.937C77.0703 181.957 76.4306 181.855 75.8266 181.638V181.638C74.7816 181.261 73.8883 180.553 73.2827 179.622L72.7571 178.814C72.6781 178.693 72.6141 178.562 72.5666 178.425V178.425C72.4104 177.975 72.0809 177.605 71.6512 177.399L71.5066 177.329C71.2128 177.188 70.8909 177.115 70.5649 177.115H67.9043L65.2237 176.857C64.9082 176.827 64.59 176.837 64.277 176.887V176.887C63.3619 177.034 62.5341 177.516 61.9549 178.239L59.6991 181.057V181.057C58.6493 182.268 57.4784 183.392 56.2276 184.393V184.393L55.9488 184.572C54.8838 185.254 53.6895 185.71 52.4406 185.91V185.91M52.4406 185.91V185.91C52.0508 186.472 51.3879 186.779 50.7072 186.714L49.0075 186.55C48.7734 186.528 48.5451 186.464 48.3331 186.362V186.362C48.1275 186.264 47.9065 186.201 47.6796 186.177L46.6034 186.062C45.6628 185.961 44.712 186.023 43.7922 186.244L41.3951 186.82L40.7916 187.013C40.1657 187.214 39.9306 187.976 40.335 188.494V188.494C40.4098 188.59 40.5025 188.671 40.6079 188.731L41.2373 189.094C41.7583 189.395 42.2165 189.793 42.5866 190.267L42.973 190.762L44.2353 192.885L44.5011 193.481C44.926 194.434 45.803 195.108 46.833 195.273V195.273C46.9945 195.298 47.1578 195.311 47.3213 195.311H48.4348C49.4204 195.311 50.404 195.226 51.3749 195.057L53.3873 194.705L55.6931 194.151C55.8295 194.118 55.9732 194.157 56.0744 194.254V194.254C56.1705 194.347 56.216 194.48 56.1964 194.612L56.1095 195.196C55.996 195.96 55.3409 196.525 54.5694 196.525C53.741 196.525 52.9143 196.525 52.7562 196.525C52.5358 196.525 51.3378 196.833 50.547 197.045C50.3397 197.101 50.1504 197.209 49.9957 197.358L49.6886 197.653C49.6322 197.707 49.6003 197.782 49.6003 197.86V197.86C49.6003 197.971 49.6638 198.071 49.7588 198.128C50.0443 198.298 50.5626 198.662 51.1782 199.254C51.5694 199.63 51.9212 200.022 52.1991 200.355C52.5785 200.81 52.7562 201.391 52.7562 201.984V201.984V202.25C52.7562 202.773 52.3323 203.197 51.8094 203.197V203.197H51.1782H50.8742C50.4563 203.197 50.0491 203.065 49.7101 202.821V202.821C49.2397 202.482 48.6448 202.365 48.081 202.5L47.9446 202.533C47.7865 202.571 47.6329 202.626 47.4864 202.696L46.4444 203.197L44.8665 204.107L42.6574 205.623L40.4483 207.443L37.608 209.262L34.4522 211.689V211.689C33.6911 212.42 33.457 213.543 33.8626 214.518L33.8807 214.562C34.2353 215.413 35.0105 216.017 35.9233 216.152L37.815 216.432C38.3063 216.504 38.8047 216.516 39.2988 216.466L44.1543 215.975C44.4059 215.949 44.656 216.035 44.8383 216.211V216.211C45.0522 216.416 45.1454 216.717 45.085 217.008L45.0322 217.261C44.9305 217.75 44.5637 218.141 44.0823 218.273L42.6574 218.664L41.5863 218.87C41.2727 218.93 41.015 219.153 40.9103 219.455V219.455C40.8181 219.721 40.6062 219.928 40.3383 220.013L40.0427 220.108C39.8932 220.156 39.7372 220.18 39.5803 220.18H38.1012C37.3671 220.18 36.6483 220.391 36.0301 220.787V220.787L32.5586 223.516L29.0872 226.246M206.447 241.107L206.23 242.565C206.166 242.996 205.961 243.393 205.646 243.695V243.695C205.346 243.984 204.962 244.17 204.549 244.227L202.975 244.443L202.261 244.557C201.519 244.676 200.877 245.139 200.531 245.805V245.805C200.477 245.908 200.432 246.014 200.394 246.123L200.361 246.217C200.016 247.212 199.267 248.014 198.299 248.428L196.979 248.992L195.213 249.719C194.919 249.84 194.611 249.927 194.297 249.977V249.977C193.378 250.125 192.535 250.58 191.908 251.269L191.7 251.497C191.027 252.236 190.148 252.756 189.176 252.99L188.709 253.102C188.333 253.192 187.947 253.238 187.56 253.238H185.864C185.315 253.238 184.8 253.507 184.487 253.959V253.959C184.4 254.084 184.33 254.221 184.28 254.365L184.064 254.988C183.843 255.625 183.431 256.179 182.884 256.573V256.573C182.604 256.775 182.295 256.931 181.967 257.036L180.839 257.397C180.66 257.454 180.473 257.484 180.285 257.484H179.769C179.303 257.484 178.888 257.779 178.736 258.219V258.219C178.696 258.335 178.675 258.456 178.675 258.578V258.923C178.675 259.372 178.783 259.815 178.991 260.213V260.213V260.213C179.198 260.612 179.306 261.054 179.306 261.503V261.718C179.306 262.127 179.238 262.534 179.104 262.92L179.086 262.971C179.023 263.154 178.943 263.331 178.866 263.509C178.771 263.726 178.675 263.992 178.675 264.156C178.675 264.227 178.693 264.335 178.722 264.459M178.722 264.459H175.835H175.51C174.126 264.459 172.824 263.804 171.998 262.694V262.694C171.821 262.456 171.621 262.237 171.4 262.039L167.745 258.778C167.478 258.54 167.105 258.461 166.764 258.57V258.57C166.51 258.651 166.298 258.829 166.175 259.066L166.169 259.077C166.092 259.226 166.052 259.391 166.052 259.558V260.1C166.052 260.376 166.087 260.652 166.157 260.92L166.266 261.341C166.333 261.598 166.445 261.841 166.596 262.059V262.059C166.858 262.437 166.998 262.886 166.998 263.345V263.759C166.998 264.022 166.954 264.283 166.868 264.531L166.761 264.841C166.71 264.989 166.624 265.122 166.511 265.23V265.23C166.416 265.322 166.304 265.393 166.181 265.441L165.839 265.572C165.179 265.826 164.438 265.75 163.843 265.369V265.369L161.949 263.852L161.604 263.632C161.211 263.38 160.754 263.246 160.287 263.246H158.453C158.118 263.246 157.846 263.517 157.846 263.852V263.852V266.885V266.885C157.846 268.048 157.373 269.16 156.534 269.966L155.511 270.949C154.584 271.841 154.059 273.071 154.059 274.357V274.709C154.059 275.535 153.783 276.337 153.275 276.988L153.236 277.039C153.154 277.144 153.064 277.243 152.968 277.336L152.829 277.47C152.6 277.689 152.427 277.959 152.324 278.258L152.24 278.501C152.191 278.64 152.11 278.767 152.004 278.869L151.8 279.065C151.64 279.218 151.403 279.256 151.204 279.161L151.067 279.095C150.967 279.047 150.904 278.946 150.904 278.836V278.836C150.904 278.757 150.872 278.682 150.815 278.628L150.5 278.325C150.354 278.185 150.159 278.107 149.957 278.107V278.107C149.754 278.107 149.56 278.185 149.414 278.325L149.326 278.41C149.123 278.604 148.853 278.713 148.572 278.713H148.379L146.17 279.016V279.016C145.765 279.016 145.375 278.86 145.083 278.579L144.777 278.285C144.659 278.171 144.592 278.014 144.592 277.849V277.849C144.592 277.633 144.707 277.434 144.894 277.326L146.001 276.687C146.113 276.623 146.217 276.545 146.31 276.455L146.364 276.404C146.643 276.135 146.801 275.765 146.801 275.377V275.377V275.14C146.801 274.601 146.364 274.164 145.825 274.164V274.164C145.638 274.164 145.455 274.217 145.298 274.318L145.065 274.467C144.756 274.665 144.397 274.77 144.03 274.77H143.841C143.303 274.77 142.779 274.601 142.343 274.287L142.083 274.1C141.121 273.406 139.833 273.371 138.835 274.011V274.011C138.676 274.113 138.527 274.23 138.391 274.361L138.348 274.402C137.697 275.028 136.829 275.377 135.926 275.377H135.164C133.914 275.377 132.703 274.943 131.738 274.148L131.022 273.557V273.557C130.215 272.782 129.759 271.712 129.759 270.594V266.885V265.465C129.759 265.03 129.527 264.628 129.151 264.411L129.027 264.34C128.549 264.065 127.939 264.201 127.625 264.655V264.655C127.575 264.726 127.535 264.803 127.504 264.884L126.485 267.577C126.357 267.916 126.123 268.204 125.819 268.399V268.399C125.509 268.597 125.142 268.689 124.776 268.66L123.53 268.56C122.254 268.458 120.984 268.813 119.946 269.561L119.641 269.781C119.235 270.073 118.795 270.318 118.332 270.508L118.206 270.56C117.291 270.937 116.311 271.131 115.321 271.131H113.81C113.506 271.131 113.207 271.199 112.933 271.331V271.331C112.396 271.589 112 272.07 111.85 272.647L111.819 272.766C111.787 272.889 111.771 273.015 111.771 273.141V273.155C111.771 273.763 111.396 274.308 110.829 274.526V274.526C110.426 274.681 109.974 274.65 109.595 274.442L108.474 273.827C108.149 273.648 107.848 273.427 107.58 273.17L106.721 272.344M106.721 272.344H101.033C100.282 272.344 99.6136 272.82 99.3675 273.529V273.529C99.2257 273.938 99.2393 274.385 99.4055 274.784L99.6668 275.412C99.7412 275.591 99.8301 275.763 99.9326 275.927L100.404 276.682C100.616 277.021 100.9 277.308 101.236 277.524V277.524C101.524 277.708 101.845 277.836 102.181 277.901L103.25 278.107L106.721 278.41H108.184C109.047 278.41 110.193 278.76 110.193 279.623V279.623C110.193 279.709 110.246 279.849 110.324 280.008C110.591 280.549 110.684 281.173 110.452 281.73L110.396 281.865C110.265 282.179 110.023 282.434 109.717 282.581L109.612 282.632C109.195 282.832 108.931 283.253 108.931 283.715V283.715C108.931 283.817 108.944 283.919 108.969 284.018L109.016 284.198C109.165 284.771 109.501 285.278 109.97 285.638L110.824 286.295L111.592 287.033C111.877 287.307 111.921 287.747 111.695 288.072V288.072C111.545 288.289 111.298 288.418 111.034 288.418H110.081C109.738 288.418 109.399 288.351 109.081 288.22L107.353 287.508L105.817 286.876C105.372 286.693 104.896 286.598 104.416 286.598H103.785C103.239 286.598 102.715 286.81 102.321 287.188V287.188C101.906 287.586 101.672 288.136 101.672 288.711V292.108C101.672 292.643 101.399 293.142 100.948 293.431V293.431C100.801 293.525 100.638 293.595 100.468 293.636L100.32 293.671C99.7655 293.804 99.1825 293.742 98.6689 293.496L98.485 293.407C97.8907 293.122 97.4049 292.651 97.1006 292.066L96.8415 291.568C96.4904 290.893 96.3071 290.144 96.3071 289.383V288.606C96.3071 287.885 96.4809 287.174 96.8138 286.534V286.534C97.1039 285.977 97.2737 285.364 97.3121 284.737L97.4357 282.717C97.5206 281.331 96.9925 279.978 95.9915 279.016V279.016L95.8136 278.845C94.9153 277.982 93.7177 277.5 92.4718 277.5V277.5C91.0971 277.5 89.7877 278.087 88.8726 279.113L88.8303 279.16C88.5561 279.467 88.3213 279.808 88.1311 280.173L86.7278 282.87C86.5921 283.131 86.4755 283.402 86.3791 283.68L86.1634 284.302C85.9856 284.814 85.9344 285.362 86.0142 285.899V285.899C86.139 286.738 86.5765 287.5 87.239 288.03L87.6671 288.373C87.956 288.604 88.2168 288.869 88.4445 289.16L88.7855 289.597C89.5836 290.62 90.1639 291.795 90.4905 293.051L90.6265 293.574L91.1149 294.982C91.2084 295.251 91.227 295.541 91.1689 295.82V295.82C91.033 296.473 90.5005 296.97 89.8393 297.061L88.733 297.213H88.487C87.3224 297.213 86.2964 297.979 85.9645 299.095L85.9577 299.118C85.9145 299.263 85.8575 299.404 85.7875 299.538V299.538C85.6485 299.805 85.4602 300.044 85.2324 300.241L79.7341 304.996C79.443 305.248 79.0418 305.33 78.6754 305.213V305.213C78.444 305.139 78.2436 304.99 78.1052 304.791L77.9903 304.625C77.7931 304.341 77.6875 304.003 77.6875 303.657V303.249C77.6875 302.679 77.497 302.125 77.1462 301.675V301.675C76.8802 301.334 76.5322 301.067 76.1346 300.897L73.9005 299.943L69.7978 298.73L69.0028 298.443C67.9432 298.061 67.1913 297.112 67.062 295.993L67.0018 295.473C66.973 295.223 67.0195 294.971 67.1353 294.748V294.748C67.2259 294.574 67.3561 294.424 67.5154 294.309L69.7978 292.664L70.9195 291.802C71.2081 291.58 71.5815 291.5 71.9354 291.585V291.585C72.368 291.689 72.7081 292.023 72.8201 292.454L72.9357 292.898C72.9477 292.944 72.9648 292.989 72.9867 293.031V293.031C73.1442 293.333 73.5136 293.456 73.8211 293.309L74.1751 293.139C74.4047 293.028 74.5857 292.837 74.6836 292.602L74.9458 291.972C75.089 291.628 75.1628 291.259 75.1628 290.886V290.803C75.1628 290.046 75.4282 289.312 75.9128 288.73L76.3699 288.181C76.4066 288.137 76.4385 288.089 76.465 288.038V288.038C76.6286 287.724 76.9793 287.554 77.3274 287.621L77.7901 287.71C78.1309 287.775 78.4363 287.962 78.6498 288.236L78.7503 288.365C79.0598 288.761 79.5837 288.923 80.0628 288.769V288.769C80.162 288.737 80.2566 288.693 80.3442 288.637L80.9762 288.232C81.0977 288.154 81.2114 288.064 81.3154 287.964V287.964C81.8134 287.486 82.0591 286.802 81.9798 286.116L81.7901 284.475V284.475C81.6071 283.772 80.9492 283.298 80.224 283.348L77.5221 283.534C77.2126 283.555 76.9017 283.541 76.5954 283.492V283.492C75.6686 283.343 74.719 283.518 73.906 283.987L72.0069 285.082L67.2731 287.508L65.3796 288.418L63.3025 289.305C62.7963 289.521 62.3237 289.809 61.8988 290.159L61.1887 290.744C60.6331 291.201 60.2503 291.835 60.1036 292.54V292.54C60.0446 292.823 59.9468 293.098 59.8131 293.355L59.559 293.843C59.029 294.862 58.7523 295.993 58.7523 297.141V298.599C58.7523 299.282 58.5876 299.956 58.2721 300.562L58.165 300.768C57.9287 301.222 57.5892 301.615 57.1738 301.914V301.914C56.7592 302.213 56.2804 302.411 55.7757 302.492L52.7562 302.975L50.5471 303.279H48.599C48.2212 303.279 47.8501 303.179 47.5228 302.991V302.991C46.8556 302.606 46.4444 301.894 46.4444 301.124V298.73V294.469C46.4444 294.097 46.2658 293.748 45.9642 293.531L45.7 293.341C45.4 293.124 44.9884 293.153 44.7217 293.41V293.41C44.6105 293.517 44.5341 293.655 44.5027 293.806L44.2353 295.09L43.4251 298.464C43.3344 298.842 43.198 299.207 43.0187 299.551L42.9245 299.733C42.7476 300.073 42.5165 300.381 42.2401 300.647V300.647C41.8909 300.983 41.6146 301.387 41.4285 301.834L41.1942 302.397C41.1185 302.578 41.0062 302.743 40.8642 302.879V302.879C40.5973 303.135 40.2416 303.279 39.8715 303.279H38.9465C38.0812 303.279 37.2428 303.58 36.5749 304.13L35.7793 304.785C35.5262 304.994 35.2561 305.181 34.972 305.345L34.2215 305.777C33.9578 305.929 33.731 306.138 33.5575 306.388V306.388C33.3181 306.733 33.1898 307.143 33.1898 307.563V307.994C33.1898 308.287 33.1526 308.578 33.079 308.86L32.8742 309.648V309.648C32.6767 310.217 32.2113 310.653 31.63 310.812L30.8 311.04C30.501 311.122 30.1924 311.164 29.8825 311.164H27.8248V311.164C27.302 311.164 26.8781 310.74 26.8781 310.217V310.088C26.8781 309.997 26.8664 309.906 26.8434 309.818L26.7632 309.509C26.631 309.001 26.3884 308.529 26.0525 308.125L25.4059 307.348C25.3356 307.264 25.2746 307.172 25.2239 307.075V307.075C25.0686 306.776 25.0157 306.435 25.0732 306.104L25.2351 305.17C25.2774 304.927 25.3963 304.703 25.5747 304.531V304.531C25.8025 304.312 25.9313 304.01 25.9313 303.694V303.418C25.9313 303.127 25.8613 302.841 25.7271 302.583L25.4047 301.963C25.1272 301.43 24.9555 300.848 24.8988 300.25L24.669 297.82V295.826C24.669 295.345 24.5339 294.874 24.2791 294.466V294.466C23.9222 293.894 23.3551 293.486 22.6998 293.328L20.5389 292.809C20.137 292.712 19.7432 292.585 19.3611 292.427L17.8707 291.814C17.7752 291.774 17.6729 291.754 17.5697 291.754H17.4723C17.0896 291.754 16.7793 292.064 16.7793 292.447V292.447C16.7793 292.588 16.8224 292.726 16.9029 292.842L17.4105 293.574L18.3573 295.09V295.09C18.7682 295.683 18.9884 296.386 18.9884 297.107V297.82V297.82C18.9884 298.41 18.7981 298.986 18.4457 299.46L18.0844 299.946C17.6417 300.541 17.0611 301.02 16.3923 301.342L14.2546 302.369L10.4676 303.582L9.7969 303.797C8.9866 304.056 8.1409 304.189 7.29005 304.189H6.27132C5.70977 304.189 5.15541 304.062 4.64926 303.819L4.24639 303.625C3.77791 303.4 3.39502 303.029 3.15513 302.568V302.568C2.79335 301.873 2.79335 301.045 3.15513 300.35L3.29756 300.076C3.44797 299.787 3.64454 299.524 3.8795 299.298L4.47145 298.73L6.04938 297.213L7.62731 296L9.00915 294.893C9.34917 294.621 9.71907 294.388 10.1117 294.2L10.1996 294.157C10.587 293.971 10.9969 293.836 11.4189 293.755L11.6302 293.714C12.1131 293.621 12.5738 293.438 12.9878 293.172V293.172C13.2007 293.036 13.3997 292.879 13.5819 292.704L13.6235 292.664L14.1453 292.162C14.2151 292.095 14.2546 292.003 14.2546 291.906V291.906C14.2546 291.809 14.2151 291.716 14.1453 291.649L13.6235 291.148L13.2934 290.91C12.7581 290.524 12.587 289.804 12.8915 289.218V289.218C12.9583 289.09 13.0454 288.973 13.1497 288.873L13.1679 288.856C13.459 288.576 13.6235 288.19 13.6235 287.786V286.902V283.869V283.683C13.6235 283.403 13.5947 283.124 13.5378 282.851L13.463 282.492C13.3615 282.004 13.3941 281.497 13.5574 281.026V281.026C13.6014 280.9 13.6545 280.776 13.7164 280.657L14.0224 280.069C14.1732 279.78 14.4137 279.547 14.708 279.405L14.7635 279.378C15.2279 279.155 15.7772 279.204 16.1952 279.505V279.505C16.562 279.77 16.7793 280.194 16.7793 280.646V281.746V283.262V283.262C16.7793 284.048 17.042 284.812 17.5257 285.432L17.5633 285.48C17.6717 285.619 17.7898 285.75 17.9168 285.872L18.6406 286.567C18.8719 286.79 19.1245 286.989 19.3946 287.162L19.8096 287.428C19.893 287.481 19.9829 287.524 20.0772 287.554L20.2312 287.603C20.6178 287.727 21.04 287.584 21.2714 287.25V287.25C21.4249 287.029 21.4741 286.752 21.4064 286.491L21.1975 285.689L20.9735 284.612C20.9126 284.32 20.8819 284.022 20.8819 283.723V282.852C20.8819 282.723 20.913 282.596 20.9726 282.482V282.482C21.1108 282.216 21.3854 282.049 21.6849 282.049H21.7257C21.7941 282.049 21.8623 282.057 21.9289 282.073L22.3029 282.163C22.8233 282.288 23.3144 282.513 23.7487 282.826L24.3534 283.262L25.7853 284.363C25.8824 284.438 25.987 284.502 26.0974 284.555V284.555C26.4011 284.701 26.7402 284.757 27.0748 284.717L28.1042 284.594C28.6651 284.526 29.0872 284.05 29.0872 283.485V283.485C29.0872 283.338 29.0581 283.192 29.0015 283.056L28.8442 282.679C28.5917 282.072 28.1566 281.559 27.5992 281.211L22.3914 277.958C22.2271 277.855 22.0739 277.736 21.9342 277.601V277.601C21.6565 277.334 21.4367 277.013 21.2887 276.658L21.1692 276.371C20.9796 275.915 20.8819 275.426 20.8819 274.933V274.933C20.8819 274.232 21.0787 273.546 21.4497 272.951L21.8287 272.344V272.344C22.4474 271.353 22.7755 270.208 22.7755 269.04V263.085C22.7755 262.639 22.4871 262.244 22.0621 262.108V262.108C21.9087 262.058 21.7458 262.046 21.5867 262.072L20.3761 262.265C20.085 262.312 19.7876 262.301 19.501 262.232L19.0056 262.113C18.7913 262.061 18.6034 261.933 18.4778 261.752V261.752C18.2265 261.389 18.2755 260.898 18.5933 260.593L18.6728 260.516L19.9352 259.607L21.7763 258.343C22.0212 258.175 22.2519 257.987 22.4661 257.781L23.2314 257.045C23.3466 256.935 23.4339 256.798 23.4863 256.647V256.647C23.6275 256.24 24.0112 255.967 24.4422 255.967H24.9846V255.967C25.7753 255.967 26.5157 255.58 26.9664 254.93L27.0369 254.828C27.3445 254.385 27.5093 253.858 27.5093 253.319V252.79C27.5093 252.483 27.4701 252.177 27.3928 251.88V251.88C27.2616 251.376 27.0229 250.906 26.693 250.502L23.7222 246.869L21.8287 244.746L19.725 242.724C19.6552 242.657 19.5968 242.579 19.5521 242.493V242.493C19.3995 242.2 19.422 241.846 19.6104 241.575L19.9352 241.107V241.107C20.3545 240.301 20.867 239.547 21.4622 238.86L23.7222 236.254L25.0004 234.289C25.198 233.985 25.458 233.727 25.7631 233.531V233.531C26.0817 233.327 26.3508 233.055 26.5512 232.734L26.709 232.481C27.0277 231.971 27.2232 231.393 27.2799 230.794L27.405 229.471C27.4733 228.749 27.7266 228.056 28.1404 227.459V227.459L29.0872 226.246M106.721 272.344L107.382 270.281C107.766 269.081 108.627 268.092 109.763 267.547V267.547C110.657 267.117 111.374 266.402 111.876 265.547C112.091 265.181 112.29 264.87 112.402 264.762V264.762C113.751 263.466 111.035 261.385 109.631 260.148V260.148C108.544 259.19 107.641 258.037 106.972 256.752L106.721 256.27L106.221 254.988C105.933 254.25 105.39 253.639 104.691 253.266V253.266C103.61 252.688 102.934 251.562 102.934 250.336V250.078C102.934 249.76 102.975 249.442 103.055 249.134L103.263 248.336C103.46 247.577 103.428 246.777 103.171 246.036V246.036C103.015 245.584 102.778 245.164 102.472 244.797L102.402 244.713C101.923 244.137 101.592 243.453 101.44 242.72L101.356 242.32M260.728 91.0656C260.52 91.0656 260.199 91.0656 259.857 91.0656C258.998 91.0656 258.173 90.7333 257.554 90.1385V90.1385C257.356 89.9485 257.183 89.7349 257.038 89.5023L256.552 88.7249C256.394 88.4708 256.309 88.1773 256.309 87.8777V87.8777C256.309 87.3998 256.523 86.9469 256.892 86.6431L257.689 85.9863C258.231 85.5398 258.887 85.2527 259.583 85.1572L260.167 85.077C260.537 85.0261 260.914 85.0449 261.278 85.1323V85.1323C262.471 85.4189 263.386 86.3999 263.53 87.6182C263.553 87.818 263.568 87.9686 263.568 88.0328C263.568 88.1459 263.385 88.5269 263.147 88.9731C262.619 89.9642 261.851 91.0656 260.728 91.0656V91.0656ZM41.0795 249.295V248.297C41.0795 247.795 41.3674 247.337 41.8202 247.12V247.12C42.1524 246.96 42.4017 246.667 42.5067 246.314L42.6643 245.784C42.8609 245.123 43.3276 244.576 43.9493 244.277L43.9885 244.258C44.1524 244.179 44.3257 244.122 44.5043 244.088L45.0296 243.987C45.5083 243.895 45.8914 243.536 46.0142 243.064V243.064C46.0883 242.779 46.2595 242.529 46.4983 242.357L46.681 242.225C47.0924 241.929 47.6568 241.968 48.0224 242.32V242.32C48.6536 242.825 49.979 243.836 50.2315 243.836V243.836C51.0486 243.836 51.8413 243.558 52.4791 243.047L52.7004 242.87C53.1539 242.507 53.6747 242.237 54.233 242.076L55.6719 241.661C56.2373 241.498 56.8404 241.524 57.3897 241.735V241.735C57.8675 241.919 58.2833 242.235 58.5886 242.645L59.2462 243.53C59.5471 243.935 59.8941 244.303 60.2801 244.628L62.2238 246.262L63.8737 247.395C64.2237 247.635 64.4329 248.032 64.4329 248.457V248.457C64.4329 248.61 64.4055 248.762 64.3522 248.906L63.2969 251.745C63.005 252.531 62.565 253.253 62.0008 253.872L60.9868 254.986C60.7646 255.23 60.4743 255.402 60.1534 255.479L58.4895 255.879C58.3017 255.924 58.1211 255.782 58.1211 255.588V255.588C58.1211 255.454 58.0313 255.336 57.9016 255.3L56.2374 254.843C56.0215 254.784 55.7985 254.754 55.5746 254.754V254.754C55.1742 254.754 54.7797 254.85 54.4241 255.034L52.3826 256.091C51.4135 256.592 50.2792 256.667 49.2526 256.297V256.297C48.652 256.08 48.1133 255.72 47.6834 255.248L46.1289 253.541L45.6163 252.925C45.1329 252.345 44.4554 251.959 43.7094 251.839L43.1757 251.754C41.9679 251.56 41.0795 250.518 41.0795 249.295V249.295ZM1.94676 363.025L1.71772 362.291C1.27155 360.862 1.59702 359.303 2.57793 358.172V358.172L4.47145 356.352L5.42332 355.568C6.25896 354.88 7.01661 354.102 7.6827 353.249L8.04012 352.791C8.39524 352.336 8.79392 351.916 9.23048 351.539L10.5894 350.364C11.3251 349.727 12.2652 349.377 13.2379 349.377V349.377C13.4944 349.377 13.7502 349.353 14.0021 349.304L15.2014 349.074V349.074C16.6675 348.671 18.181 348.467 19.7013 348.467H21.8287L26.2089 348.024C27.2797 347.916 28.327 347.641 29.3132 347.21V347.21C30.6212 346.639 32.033 346.344 33.4603 346.344H33.821H40.4483H42.3341C43.3429 346.344 44.3037 346.775 44.9752 347.528V347.528C45.5173 348.135 46.2524 348.538 47.0565 348.666L47.2692 348.7C48.6973 348.929 49.8728 349.947 50.3038 351.327V351.327C50.4642 351.841 50.5139 352.383 50.4498 352.917L50.0305 356.408C49.7523 358.726 48.6809 360.875 46.9981 362.493V362.493C46.6295 362.847 46.2346 363.172 45.8168 363.467L45.2097 363.895C42.9034 365.52 40.2777 366.636 37.507 367.169L36.9769 367.27L25.9313 367.877H18.9884H18.2312C15.5961 367.877 12.9771 368.286 10.4676 369.09V369.09L9.12519 369.52C8.15788 369.83 7.11217 369.788 6.17298 369.401V369.401C5.67425 369.196 5.21856 368.898 4.82965 368.525L4.36004 368.073C3.20081 366.959 2.41734 365.512 2.11846 363.932L1.94676 363.025ZM264.995 96.0682L266.844 96.2391C267.482 96.2981 267.952 96.8635 267.893 97.5019V97.5019C267.865 97.8086 267.715 98.0914 267.478 98.2881L266.73 98.9091C266.077 99.4511 265.172 99.5739 264.398 99.2256L263.85 98.9792C263.139 98.6595 262.778 97.8604 263.008 97.1159V97.1159C263.224 96.4182 263.898 95.9669 264.625 96.034L264.995 96.0682Z"
                                                stroke="#333333" strokeWidth="2"/>
                                        </svg>