<svg width="150" height="162" viewBox="0 0 150 162" fill="none"
                                                 xmlns="http://www.w3.org/2000/svg">
                                                <g clipPath="url(#clip0_709_2502)">
                                                    <path
                                                        d="M105.122 70.5732C114.137 70.5732 121.445 63.3099 121.445 54.3502C121.445 45.3905 114.137 38.1273 105.122 38.1273C96.108 38.1273 88.8003 45.3905 88.8003 54.3502C88.8003 63.3099 96.108 70.5732 105.122 70.5732Z"
                                                        fill="#FF6584"/>
                                                    <path
                                                        d="M149.895 66.4459C149.931 66.4394 149.958 66.4144 150 66.4208C149.981 66.3506 149.957 66.2819 149.928 66.2154C149.876 66.2858 149.823 66.3576 149.777 66.4205L149.895 66.4459Z"
                                                        fill="white"/>
                                                    <path
                                                        d="M40.4196 92.7468C40.515 96.2862 41.1115 99.7946 42.1915 103.169C42.2162 103.247 42.2421 103.324 42.268 103.402H48.8805C48.8735 103.332 48.8664 103.254 48.8594 103.169C48.4185 98.1307 45.8764 67.4681 48.9158 62.2245C48.6501 62.6498 39.907 76.7389 40.4196 92.7468Z"
                                                        fill="#E6E6E6"/>
                                                    <path
                                                        d="M40.9156 103.169C40.9709 103.247 41.0285 103.325 41.0873 103.402H46.0479C46.0103 103.336 45.9668 103.257 45.9162 103.169C45.0967 101.698 42.6711 97.3033 40.4195 92.7468C37.9997 87.8502 35.7798 82.7678 35.9668 80.9284C35.9092 81.3433 34.2348 93.9902 40.9156 103.169Z"
                                                        fill="#E6E6E6"/>
                                                    <path
                                                        d="M92.4637 104.011C92.3806 107.097 91.8606 110.156 90.919 113.097C90.8974 113.166 90.8749 113.233 90.8524 113.301H85.0874C85.0936 113.24 85.0997 113.172 85.1059 113.097C85.4903 108.705 87.7064 81.9731 85.0566 77.4016C85.2883 77.7725 92.9107 90.0555 92.4637 104.011Z"
                                                        fill="#E6E6E6"/>
                                                    <path
                                                        d="M92.031 113.097C91.9829 113.166 91.9326 113.234 91.8814 113.301H87.5566C87.5894 113.243 87.6274 113.175 87.6714 113.097C88.3859 111.816 90.5006 107.984 92.4636 104.011C94.5732 99.7425 96.5085 95.3116 96.3455 93.708C96.3957 94.0697 97.8554 105.095 92.031 113.097Z"
                                                        fill="#E6E6E6"/>
                                                    <path
                                                        d="M26.5486 13.1679L29.237 11.0307C27.1485 10.8017 26.2903 11.9338 25.9391 12.8299C24.3075 12.1565 22.5312 13.039 22.5312 13.039L27.9103 14.9799C27.6389 14.2595 27.1666 13.6309 26.5486 13.1679Z"
                                                        fill="#3F3D56"/>
                                                    <path
                                                        d="M107.522 2.16709L110.21 0.0299301C108.122 -0.199091 107.263 0.933023 106.912 1.8291C105.281 1.1557 103.504 2.03822 103.504 2.03822L108.883 3.97914C108.612 3.25874 108.14 2.63015 107.522 2.16709Z"
                                                        fill="#3F3D56"/>
                                                    <path
                                                        d="M147.077 86.6818C147.077 88.4526 147.015 90.209 146.891 91.9509C145.934 105.693 141.139 118.898 133.047 130.082C131.99 131.549 130.879 132.974 129.716 134.359C126.702 137.952 123.355 141.256 119.72 144.228L103.787 134.935L94.2603 112.835C94.2603 112.835 108.474 84.2301 147.052 84.7488C147.068 85.3909 147.077 86.0352 147.077 86.6818Z"
                                                        fill="#3F3D56"/>
                                                    <path
                                                        d="M146.891 91.9508C146.158 102.22 143.292 112.227 138.472 121.34C133.653 130.453 126.985 138.474 118.891 144.897L104.088 136.265L95.6396 116.665C95.6396 116.665 109.33 89.1153 146.891 91.9508Z"
                                                        fill="#59996F"/>
                                                    <path
                                                        d="M133.047 130.082C131.99 131.548 130.879 132.974 129.716 134.359C121.921 143.667 111.962 150.947 100.699 155.568C98.4188 156.502 96.0847 157.326 93.6969 158.04C76.4554 162.597 58.1892 161.444 41.6661 154.756C25.3248 147.507 12.1194 134.704 4.42172 118.648C3.38722 116.486 2.45693 114.27 1.63086 111.999C16.038 101.509 44.4271 86.4876 75.3679 101.084C83.9266 105.121 91.5689 108.801 98.2947 112.124C115.362 120.533 126.721 126.595 133.047 130.082Z"
                                                        fill="#3F3D56"/>
                                                    <path
                                                        d="M129.716 134.359C121.659 143.957 111.302 151.386 99.5998 155.964C87.8971 160.542 75.2241 162.122 62.7465 160.557C50.2689 158.993 38.3876 154.334 28.1957 147.011C18.0037 139.687 9.82838 129.934 4.42188 118.648C16.4543 109.191 44.2065 92.1953 74.6622 106.561C82.4946 110.255 89.487 113.623 95.6396 116.665C113.576 125.5 124.624 131.505 129.716 134.359Z"
                                                        fill="#59996F"/>
                                                    <path
                                                        d="M108.479 151.841C105.959 153.229 103.362 154.473 100.699 155.568C91.639 159.279 81.9328 161.182 72.1333 161.17C60.5376 161.166 49.1008 158.489 38.7212 153.351C28.3416 148.213 19.3017 140.753 12.3115 131.558C30.2107 129.682 79.6875 127.152 108.479 151.841Z"
                                                        fill="#3F3D56"/>
                                                    <path
                                                        d="M100.7 155.568C86.6503 161.309 71.1784 162.677 56.3302 159.49C41.482 156.303 27.957 148.71 17.5439 137.718C24.0544 136.767 75.168 130.239 100.7 155.568Z"
                                                        fill="#59996F"/>
                                                    <path
                                                        d="M23.5005 88.1258C32.5533 86.5036 37.1922 70.3055 33.8619 51.9465C30.5316 33.5875 20.4931 20.0196 11.4403 21.6419C2.38755 23.2642 -2.25141 39.4622 1.07892 57.8212C4.40925 76.1803 14.4477 89.7481 23.5005 88.1258Z"
                                                        fill="#3F3D56"/>
                                                    <path
                                                        d="M25.8269 109.567C25.2902 69.2413 11.7153 31.3983 11.5783 31.021L10.3403 31.4649C10.4767 31.8403 23.977 69.4851 24.5109 109.585L25.8269 109.567Z"
                                                        fill="#59996F"/>
                                                    <path
                                                        d="M1.74244 50.3219L1.3374 51.5667L17.5892 56.7906L17.9942 55.5458L1.74244 50.3219Z"
                                                        fill="#59996F"/>
                                                    <path
                                                        d="M32.3132 48.9197L18.9229 59.46L19.7401 60.4856L33.1305 49.9453L32.3132 48.9197Z"
                                                        fill="#59996F"/>
                                                    <path
                                                        d="M67.0294 82.3122C76.9833 82.3122 85.0525 65.9478 85.0525 45.7613C85.0525 25.5748 76.9833 9.21045 67.0294 9.21045C57.0756 9.21045 49.0063 25.5748 49.0063 45.7613C49.0063 65.9478 57.0756 82.3122 67.0294 82.3122Z"
                                                        fill="#3F3D56"/>
                                                    <path
                                                        d="M65.3653 105.589C72.5837 62.5432 65.4379 19.6527 65.3649 19.2249L63.9608 19.4613C64.0335 19.887 71.1382 62.5522 63.9604 105.357L65.3653 105.589Z"
                                                        fill="#59996F"/>
                                                    <path
                                                        d="M51.1616 37.9018L50.4897 39.1501L66.7875 47.8145L67.4593 46.5662L51.1616 37.9018Z"
                                                        fill="#59996F"/>
                                                    <path
                                                        d="M83.9882 42.242L67.6924 50.9114L68.3645 52.1595L84.6604 43.4902L83.9882 42.242Z"
                                                        fill="#59996F"/>
                                                    <path
                                                        d="M92.0407 30.5283L94.7292 28.3912C92.6406 28.1621 91.7825 29.2943 91.4313 30.1903C89.7997 29.5169 88.0234 30.3995 88.0234 30.3995L93.4025 32.3404C93.1311 31.62 92.6587 30.9914 92.0407 30.5283Z"
                                                        fill="#3F3D56"/>
                                                </g>
                                                <defs>
                                                    <clipPath id="clip0_709_2502">
                                                        <rect width="150" height="161.17" fill="white"/>
                                                    </clipPath>
                                                </defs>
                                            </svg>