<svg className="seoul" width="27" height="22" viewBox="0 0 27 22"
                                             fill="none"
                                             xmlns="http://www.w3.org/2000/svg">
                                            <path
                                                d="M8.30435 19.3145L8.33003 19.3309L8.35753 19.3441L8.76417 19.5395C8.8651 19.588 8.95767 19.6523 9.03841 19.7298L9.12699 19.815L9.47344 19.4545L9.12699 19.815C9.45302 20.1283 9.88765 20.3033 10.3398 20.3033H10.7183C11.1386 20.3033 11.5239 20.0694 11.7179 19.6965C11.7358 19.6621 11.7685 19.6378 11.8065 19.6305L12.8271 19.4343C12.9687 19.4071 13.1124 19.3934 13.2565 19.3934H14.2546C14.7916 19.3934 15.3199 19.529 15.7906 19.7874L16.6799 20.2758C17.0751 20.4928 17.5186 20.6066 17.9694 20.6066C18.5317 20.6066 19.0797 20.4297 19.5358 20.1009L20.2275 19.6023L22.7522 17.7827L22.7809 17.762L22.8063 17.7376L22.8784 17.6683C23.5353 17.037 23.9066 16.1652 23.9066 15.2541V14.6593C23.9066 14.5065 23.9322 14.3548 23.9823 14.2104C24.083 13.9199 24.2786 13.6718 24.5375 13.5059L24.6261 13.4491C24.8806 13.2861 25.1056 13.0811 25.2915 12.8428L25.6367 12.4005C25.9471 12.0028 26.1157 11.5127 26.1157 11.0082V10.6951C26.1157 9.92188 25.4889 9.29508 24.7157 9.29508H24.6149C24.3179 9.29508 24.0325 9.41001 23.8184 9.61578C23.7992 9.63418 23.7755 9.64715 23.7497 9.65335L23.8665 10.1395L23.7497 9.65336L23.2997 9.76146C22.9694 9.84082 22.6236 9.82798 22.3001 9.72435L22.0141 9.63273L21.7531 9.50731L21.7989 9.4193C21.9396 9.14878 22.0131 8.84832 22.0131 8.54338V8.27869V3.25737C22.0131 2.84167 21.8437 2.44392 21.544 2.15588C21.0921 1.72158 20.5675 1.35568 20.0012 1.08357L19.2424 0.71896C18.9425 0.574833 18.6139 0.5 18.2812 0.5C17.8153 0.5 17.3613 0.646567 16.9834 0.918941L16.1714 1.50421L16.1427 1.52486L16.1173 1.54932L14.9966 2.62633C14.8851 2.73342 14.7815 2.84833 14.6864 2.97018L14.2488 3.53087C14.0985 3.72348 13.8678 3.83607 13.6235 3.83607C13.616 3.83607 13.6092 3.83193 13.6058 3.82533L13.1622 4.05611L13.6058 3.82533L13.5936 3.802C13.4106 3.45021 13.047 3.22951 12.6504 3.22951H12.0455H11.3048C10.7978 3.22951 10.3329 3.51167 10.0989 3.96144C10.0782 4.0012 10.0503 4.03673 10.0165 4.06621L8.40258 5.47619C7.37485 6.37406 6.05644 6.86885 4.69174 6.86885H3.482C3.00213 6.86885 2.53233 7.00644 2.12828 7.2653L1.85278 7.44181C1.66405 7.56271 1.51031 7.73097 1.40686 7.9298L1.32642 8.0844C0.864345 8.11834 0.5 8.50399 0.5 8.97474V9.54023C0.5 10.0736 0.805769 10.5598 1.28653 10.7908C1.32358 10.8086 1.35755 10.8321 1.38719 10.8606L1.71096 11.1718C1.88496 11.339 2.08446 11.4775 2.30198 11.582L2.51853 11.1313L2.30198 11.582L2.48805 11.6714C2.81606 11.829 3.02468 12.1607 3.02468 12.5246V14.1653C3.02468 14.8252 3.36076 15.4396 3.9164 15.7956C4.16937 15.9577 4.45658 16.0586 4.75531 16.0905L4.8084 15.5934L4.75531 16.0905L6.81172 16.3101V16.4672V17.3532C6.81172 17.6485 6.88287 17.9394 7.01914 18.2013C7.16733 18.4861 7.38756 18.7271 7.6579 18.9003L8.30435 19.3145Z"
                                                fill={selectedItems.includes('서울') ? '#D0F4DE' : '#fff'} // 선택된 지역에 색상을 설정
                                                stroke="black"
                                                onClick={() => toggleRegion('서울')}/>
                                        </svg>